<svg width="72" height="72" fill="none" xmlns="http://www.w3.org/2000/svg"><path d="M54.468 42.977c3.571 20.976-6.175 24.644-18.938 24.1-12.64-.542-22.374-3.418-18.59-25.349 1.731-9.98 9.931-16.644 18.651-16.41 8.788.234 17.132 7.422 18.877 17.659Z" fill="#813439"/><path d="M43.03 17.196c-.383 3.215-1.21 5.74-2.733 5.943-1.06.135-2.734.388-2.245.36.068.002.471 5.162.714 6.239l-6.947-.186s.017-.108.036-.31c.122-1.027.509-4.323.442-5.91 0 0-3.26.319-3.99-2.817-.18-.804-.29-2.298-.353-3.993-.133-4.15.04-9.565.04-9.565s.174-4.508 2.995-5.611c1.876-.736 5.864-.914 8.674-.066 1.089.327 1.997.799 2.535 1.45.486.582.942 3.792 1.074 7.495.06 2.305.007 4.796-.241 6.971Z" fill="#4F9522"/><path d="m38.814 19.319.008-1.83c.005-.162-6.363-.183-6.354-.02l-.008 1.829c.002.42.4.715.797.59 1.584-.472 2.1-1 2.376-1.698.28.699.807 1.228 2.38 1.717a.62.62 0 0 0 .801-.588Z" fill="#2E6D05"/><path d="m38.828 18.777.009-1.829c.004-.162-6.364-.183-6.355-.02l-.008 1.828c.002.42.401.716.797.59 1.585-.472 2.108-1.284 2.384-1.995.28.699.8 1.526 2.372 2.001a.607.607 0 0 0 .801-.575Z" fill="#fff"/><path d="M43.691 17.81c2.319.062 4.259-2.16 4.334-4.965.075-2.804-1.743-5.128-4.062-5.19-2.318-.062-4.258 2.16-4.333 4.965-.075 2.805 1.743 5.128 4.061 5.19ZM28 16.848c2.318.063 4.258-2.16 4.333-4.965.075-2.804-1.744-5.128-4.062-5.19-2.318-.062-4.258 2.161-4.333 4.966-.075 2.804 1.743 5.127 4.061 5.19Z" fill="#397D0E"/><path d="M48.508 13.549c-.494 2.236-2.177 3.858-4.127 3.805-1.909-.05-3.464-1.691-3.88-3.857 1.453-.611 4.442-1.412 8.007.052ZM31.176 13.085C30.682 15.32 29 16.942 27.05 16.89c-1.91-.05-3.465-1.691-3.88-3.857 1.452-.611 4.44-1.412 8.006.052Z" fill="#2E6D05"/><path d="m28.389 32.17-3.683 8.005s-.096.024-.26.074c-1.803.534-12.502 3.378-16.395-2.54-4.87-7.406 8.066-19.892 11.418-17.539 1.01.705-2.52.475-1.76 1.931.065.124.17.276.314.442 1.75 1.944.765-1.74 1.987-1.843 1.222-.103 2.446 2.775-1.074 6.204-3.52 3.428-6.47 7.347-4.127 8.399 2.344 1.038 13.429-3.07 13.58-3.133Z" fill="#4F9522"/><path d="M24.446 40.249v.013c-1.803.535-12.502 3.378-16.395-2.539-4.87-7.406 8.066-19.892 11.418-17.54 1.01.705-2.52.475-1.76 1.932-4.901 1.901-8.207 6.433-8.551 11.207-.634 8.994 11.032 7.002 18.347-.539 1.478-1.532-3.001 5.313-3.059 7.466Z" fill="#397D0E"/><path d="M61.82 39.162c-2.518 3.415-7.305 3.558-11.11 2.995-3.159-.464-5.64-1.424-5.64-1.424l-.483-1.206-2.78-6.998c.054.028 1.447.621 3.31 1.349 3.434 1.325 8.523 3.087 10.07 2.505 2.395-.912-.341-4.996-3.673-8.608-2.936-3.181-2.218-5.737-1.176-6.183a.802.802 0 0 1 .436-.07c1.215.168.034 3.795 1.885 1.948 1.852-1.848-2.447-1.719-1.303-2.433 3.459-2.17 15.708 10.99 10.463 18.125Z" fill="#4F9522"/><path d="M57.166 35.84c-.117 4.346-12.048-1.962-6.457 6.318-3.158-.464-5.639-1.425-5.639-1.425l-.483-1.205c-.18-.845-.267-1.647-.25-2.283.03-1.11.344-2.227.781-3.367 3.433 1.325 8.522 3.087 10.068 2.505 2.396-.911-.34-4.995-3.672-8.607-2.936-3.182-2.217-5.737-1.176-6.184a4.864 4.864 0 0 0-.074.757c-.154 5.226 7.036 8.468 6.902 13.491Z" fill="#397D0E"/><path d="M31.316 11.924a6.66 6.66 0 0 1-.14 1.161c-3.551-1.464-6.54-.663-8.007-.052a6.044 6.044 0 0 1-.113-1.33c.075-2.803 1.99-5.029 4.266-4.968 2.274.061 4.069 2.386 3.994 5.189Z" fill="#4F9522"/><path d="M43.03 17.196c-.383 3.215-1.21 5.74-2.733 5.943-1.06.134-2.734.388-2.245.36.067.002.471 5.162.714 6.239l-6.906-.185a2.48 2.48 0 0 0-.005-.312c.122-1.026.508-4.322.442-5.91 0 0-3.26.32-3.99-2.816-.18-.805-.29-2.298-.353-3.993.827-.507 1.6-.58 1.6-.58s-2.285 6.442 2.765 6.577c2.979.08 6.245.56 8.003-.328 1.36-.695 1.303-2.593 1.913-5.653l.796.658Z" fill="#397D0E"/><path d="M49.556 53.847c-.104.363-.208.712-.326 1.062-1.118 3.276-2.97 6.14-5.369 8.216-2.552 2.195-5.675 3.44-9.032 3.322-6.85-.237-12.119-5.893-13.928-13.19a14.708 14.708 0 0 1-.195-.833 23.165 23.165 0 0 1-.183-8.338c.081-.526.177-1.038.299-1.55.337-1.455.793-2.81 1.355-4.056.057-.12.114-.24.158-.361 2.212-4.657 5.971-7.916 10.13-8.93a12.28 12.28 0 0 1 3.249-.346c4.468.12 8.585 2.723 11.294 6.833.156.22.299.455.428.689.402.675.776 1.39 1.109 2.13.088.219.191.439.28.658a21.881 21.881 0 0 1 1.443 5.824 22.912 22.912 0 0 1-.712 8.87Z" fill="#C46C71"/><path d="M49.557 53.846c-.105.363-.21.713-.327 1.062-1.117 3.276-2.97 6.14-5.369 8.217-2.552 2.194-5.674 3.439-9.032 3.322-6.85-.238-12.118-5.894-13.928-13.192a14.622 14.622 0 0 1-.195-.831 23.165 23.165 0 0 1-.183-8.338c.183-3.145 3.077-9.676 5.305-10.982-3.613 5.224-2.697 6.173-2.627 6.108-5.202 7.042 2.897 23.383 14.457 21.795 11.56-1.587 11.18-21.841 11.18-21.841a21.881 21.881 0 0 1 1.444 5.825 23.121 23.121 0 0 1-.725 8.855Z" fill="#A75156"/><path d="M48.838 39.166c-.45.11-.9.22-1.363.316-1.486.313-3.009.516-4.558.678-.774.087-1.548.148-2.322.209-.774.047-1.56.08-2.347.1-1.573.039-3.132.065-4.704.09-1.573.026-3.146.079-4.729-.018a19.302 19.302 0 0 1-2.337-.28 17.194 17.194 0 0 1-1.145-.247c-.377-.091-.74-.21-1.102-.327a9.042 9.042 0 0 1-1.045-.448 3.843 3.843 0 0 1-.905-.62c-.04-.029-.066-.07-.105-.098.057-.12.115-.241.158-.362.08.07.16.126.239.196.545.38 1.202.642 1.901.85.35.105.7.195 1.064.273.363.077.727.155 1.105.206.742.114 1.498.216 2.255.304 1.526.19 3.067.34 4.624.367a37.902 37.902 0 0 0 4.654-.24c.774-.075 1.536-.177 2.297-.265.761-.088 1.523-.19 2.27-.291a90.986 90.986 0 0 0 4.438-.748c.45-.083.9-.18 1.349-.276.117.193.22.412.308.632ZM49.556 53.846a24.81 24.81 0 0 1-.326 1.062c-1.05.243-2.112.431-3.2.592-.993.15-1.985.258-2.977.34-1.005.082-2.008.109-3.025.136-2.02.027-4.038.014-6.056-.04-2.017-.054-4.036-.081-6.047-.352-1-.135-1.983-.324-2.938-.593-.484-.135-.955-.27-1.425-.431a11.89 11.89 0 0 1-1.353-.565 8.95 8.95 0 0 1-1.269-.712c-.013-.013-.026-.027-.053-.028a14.708 14.708 0 0 1-.195-.832c.187.127.386.254.587.368.4.228.815.415 1.244.59.43.173.872.334 1.329.468.457.148.914.269 1.372.39.942.228 1.885.43 2.842.617 1.928.364 3.898.687 5.9.795 2.003.108 4.01.04 5.994-.165.992-.095 1.97-.218 2.95-.354.965-.137 1.945-.273 2.898-.451a45.353 45.353 0 0 0 3.748-.835Z" fill="#813439"/><path d="M36.73 70.333c-20.397 2.706-27.254-9.401-26.062-11.93.258-.535.582-.974 1.011-1.328 1.581-1.354 4.418-1.535 8.902-.995 5.672.694 7.99 6.772 7.99 6.772 3.284.278 8.41-1.862 8.41-1.862l-.25 9.343Z" fill="#4F9522"/><path d="M28.557 62.852C24 62.513 19.2 61.599 19.2 61.599c-.51-6.247-5.952-5.444-7.534-4.524 1.58-1.354 4.417-1.535 8.901-.995 5.686.694 7.99 6.772 7.99 6.772Z" fill="#2E6D05"/><path d="M37.54 70.489c23.124-.804 26.91-8.087 25.854-10.677-.23-.548-.529-1.003-.939-1.38-1.506-1.436-4.32-1.592-8.835-1.47-7.188.215-11.37 4.574-11.37 4.574-3.295.102-4.592-.529-4.592-.529l-.119 9.482Z" fill="#4F9522"/><path d="M42.25 61.536c3.207 1.712 11.916.32 11.916.32 1.335-4.301 5.419-5.005 8.29-3.424-1.507-1.436-4.333-1.66-8.836-1.47-7.733.336-11.37 4.574-11.37 4.574Z" fill="#2E6D05"/><path d="M31.158 13.748c-.478 2.183-2.345 3.197-4.255 3.146-.768-.02-2.535-.845-3.15-2.305 1.426-.599 3.934-2.261 7.405-.84Z" fill="#397D0E"/><path d="M41.494 10.325s.835-4.882.287-6.672c-.361-1.202-1.246-2.052-2.119-2.36 1.09.327 1.998.799 2.536 1.45.486.582.942 3.792 1.073 7.495l-1.777.088Z" fill="#4C832A"/><path d="M48.647 12.388c-.01.392-.062.784-.14 1.161-3.551-1.463-6.54-.663-8.006-.051a6.043 6.043 0 0 1-.114-1.331c.075-2.803 1.991-5.028 4.266-4.967 2.275.06 4.069 2.385 3.994 5.188Z" fill="#4F9522"/><path d="M48.254 14.41c-.479 2.195-2.02 3.604-3.943 3.552-1.882-.05-3.424-1.663-3.828-3.801 1.425-.599 4.26-1.187 7.771.248Z" fill="#397D0E"/><path d="M43.802 37.75c-.3.011-.605-.073-.858-.275a.273.273 0 0 1-.057-.386c.093-.114.27-.124.384-.03.278.217.674.201.89-.05a.467.467 0 0 0 .121-.41.547.547 0 0 0-.22-.389c-.278-.218-.674-.202-.89.049l-1.117 1.265c-.398.451-1.137.487-1.641.084a1.172 1.172 0 0 1-.441-.778 1.076 1.076 0 0 1 .243-.82c.398-.45 1.137-.487 1.642-.084.127.094.15.273.057.387-.093.113-.27.123-.384.03-.278-.218-.674-.202-.89.049a.467.467 0 0 0-.121.41c.012.15.093.295.22.39.278.217.674.201.89-.05l1.117-1.265c.398-.45 1.137-.487 1.642-.084.252.202.402.475.44.778.039.303-.057.593-.243.82a1.2 1.2 0 0 1-.784.359ZM42.238 35.378c-.492.02-1.008-.684-1.057-1.152a.852.852 0 0 1 .803-.97c.506-.031.97.368 1.03.878.048.48-.27 1.225-.776 1.244Zm-.2-1.571c-.204.007-.344.184-.31.391.03.248.334.618.442.629.11-.017.313-.419.283-.667a.416.416 0 0 0-.415-.353Z" fill="#813439"/></svg>