<svg width="72" height="72" fill="none" xmlns="http://www.w3.org/2000/svg"><path d="M51.183 65.078c-14.76 9.294-34.435 8.998-48.644-.08a1.383 1.383 0 0 1-.611-1.36c.75-4.283 2.328-8.447 4.736-12.176C20.3 30.74 47.513 38.93 51.794 63.715a1.316 1.316 0 0 1-.61 1.362Z" fill="#813439"/><path d="M39.205 18.802c1.105 4.913 1.599 9.551-2.94 11.959-2.092 1.105-7.025 3.73-6.65 5.604-2.447.888-5.032 1.697-7.598 2.092-.631-2.428-5.999-2.329-8.702-6.887-3.77-6.335-8.683-17.15-4.006-22.911 4.499-5.546 17.878-12.176 22.634-6.453 2.723 4.045 5.9 10.794 7.262 16.596Z" fill="#397D0E"/><path d="M32.081 30.287c-6.828 4.065-6.887 4.065-5.9 7.222-1.401.414-2.802.75-4.164.947-.631-2.427-5.999-2.328-8.702-6.887-3.77-6.334-8.683-17.148-4.006-22.91 2.091-2.586 8.05-6.612 11.09-7.42 5.25-1.382 5.88-1.856 7.676.315 4.362 7.124 10.282 25.398 4.006 28.733Z" fill="#4F9522"/><path d="m31.686 45.6-9.492 6.276-.138-3.789 1.658-3.217c-1.421-2.802 2.407-5.604 2.25-7.38 1.184-.079 2.446-.987 3.65-1.145-.079 2.29.138 5.447 2.072 9.256Z" fill="#397D0E"/><path d="m25.904 44.12-6.038 2.073s2.486-3.73 2.15-7.736c0 0 2.704-.868 4.165-.947.157 1.776.73 4.065-.277 6.61Z" fill="#4F9522"/><path d="M47.493 65.788c-4.736 6.02-18.57 6.828-26.404 5.861-7.242-.888-10.656-2.23-12.254-3.374-1.658-1.184-1.402-2.132-1.48-2.19l.059-.75C8.42 54.185 13.748 46.587 20.26 43.37a15.733 15.733 0 0 1 1.993-.829c7.815-2.704 16.814.631 22.023 11.307 1.875 3.75 2.921 7.835 3.217 11.94Z" fill="#C46C71"/><path d="M43.171 51.836s-4.065 5.98 2.033 9.531l1.894 1.105s-1.144-6.65-3.927-10.636ZM25.273 68.886c-2.586 2.132-11.722-.02-16.419-.611-1.658-1.184-1.401-2.132-1.48-2.19 1.381-19.616 14.998-23.622 14.939-23.583-.257 2.94-2.29 6.197-2.842 13.281-.198 2.388-6.216 4.677-4.855 6.65 1.027 1.52 8.19-9.945 10.163-9.965 2.645-.02 2.092 15.096.494 16.418Z" fill="#A75156"/><path d="M46.447 59.65c-.651.218-1.322.395-1.973.573-2.151.572-4.322.987-6.512 1.322-1.086.178-2.19.316-3.296.434-1.105.119-2.21.197-3.295.276-2.21.139-4.401.237-6.611.356-2.21.098-4.4.276-6.63.177a26.58 26.58 0 0 1-3.316-.335 21.894 21.894 0 0 1-1.638-.336 15.3 15.3 0 0 1-1.618-.493 9.145 9.145 0 0 1-1.56-.69 6.239 6.239 0 0 1-1.42-.968c-.06-.059-.118-.098-.178-.157.06-.198.1-.395.158-.593.119.119.257.218.375.316.849.612 1.855 1.007 2.881 1.303.513.157 1.027.276 1.56.375.532.118 1.065.217 1.598.296a85.4 85.4 0 0 0 3.236.394c2.17.217 4.361.415 6.552.355 2.19-.039 4.38-.256 6.551-.592 1.086-.157 2.171-.355 3.237-.532 1.085-.198 2.15-.375 3.236-.592 2.151-.415 4.282-.908 6.394-1.441a72.32 72.32 0 0 0 1.973-.513l.296 1.066ZM39.639 55.862c-.415.078-.888.02-1.322-.218-.217-.118-.316-.355-.217-.532.079-.178.335-.237.532-.119.474.257 1.027.139 1.244-.236a.69.69 0 0 0 .04-.593.954.954 0 0 0-.474-.493c-.474-.256-1.027-.138-1.244.237l-1.124 1.973c-.395.71-1.441.908-2.31.454-.434-.237-.75-.572-.927-.986-.158-.415-.138-.83.06-1.184.394-.71 1.44-.908 2.308-.454.217.118.316.355.217.532-.079.178-.335.237-.532.119-.474-.257-1.027-.138-1.244.237a.69.69 0 0 0-.04.592.993.993 0 0 0 .455.493c.473.257 1.026.138 1.243-.237l1.125-1.973c.394-.71 1.44-.908 2.309-.454.434.237.75.572.927.987.158.414.138.828-.06 1.184-.197.375-.552.592-.966.67ZM37.43 50.553c-.277-.69-1.066-1.144-1.777-1.006-.71.138-1.046.81-.77 1.5.257.631 1.224 1.52 1.915 1.381.69-.138.868-1.223.631-1.874Zm-.928 1.125c-.178 0-.73-.454-.869-.79-.118-.275.02-.552.296-.61.277-.06.612.137.71.414.14.355 0 .927-.137.986Z" fill="#813439"/><path d="M19.787 20.084c.947 4.4-1.283 10.143-7.242 10.143 0 0-4.598-3.907-6.177-5.683-.928-1.006-1.559-2.309-1.796-3.75-.612-3.966 2.072-7.952 6.078-8.307 4.006-.355 7.953 2.052 9.137 7.597Z" fill="#397D0E"/><path d="M18.464 20.46c1.165 7.42-8.09 11.8-13.103 6.235-3.986-4.4-1.54-11.623 4.46-12.55 4.124-.632 8.012 2.19 8.643 6.314Z" fill="#C6EBD8"/><path d="M10.717 23.398a1.92 1.92 0 1 0 0-3.841 1.92 1.92 0 0 0 0 3.841Z" fill="#000"/><path d="M45.006 13.829c.494 4.144-2.072 7.814-7.36 7.834-4.144.02-2.526-2.802-3.888-4.302a6.209 6.209 0 0 1-1.539-3.236c-.533-3.414 1.776-6.828 5.23-7.144 3.413-.335 6.709 2.033 7.557 6.848Z" fill="#397D0E"/><path d="M43.9 13.33c.997 6.324-6.893 10.046-11.164 5.328-3.396-3.763-1.302-9.904 3.803-10.697 3.498-.57 6.813 1.85 7.362 5.369Z" fill="#C6EBD8"/><path d="M37.378 16.022a1.076 1.076 0 1 0 0-2.152 1.076 1.076 0 0 0 0 2.152Z" fill="#000"/><path d="m23.339 66.42.79-7.815.63-6.137s-5.19-.73-5.94-1.342c2.132-5.348 1.442-7.736 1.442-7.736l-8.19.533c.316 3.67-.138 7.164-1.283 8.367-2.644 2.783-4.538 3.079-5.999 2.467.494-1.362 1.145-2.19 2.033-3.532-1.046-.08-4.44-.573-6.137 2.13a4.949 4.949 0 0 0-.494 1.027c-.04.119-.079.257-.118.434v.02C-.46 57.934 1.415 69.025 23.339 66.42Z" fill="#4F9522"/><path d="m23.339 66.42.79-7.814C13.451 65.374-.737 59.296.19 54.383c-.04.158-.079.296-.118.434v.02C-.46 57.935 1.415 69.025 23.339 66.42Z" fill="#397D0E"/><path d="M.724 53.336c2.033-2.624 4.065 1.421 4.065 1.421.671-1.342 1.224-2.23 2.053-3.532-1.027-.099-4.42-.592-6.118 2.111Z" fill="#2E6D05"/><path d="M72.16 52.665c-1.697 1.066-7.538 4.618-9.373 5.407-11.367 3.177-12.748 2.309-16.103 1.026-1.342-.513-3.69-2.427-3.947-3.177-.493-1.401-.217-3.059.395-4.085.454-.77 1.283-.296 2.19-.355 1.58-.099 8.15-2.19 9.275-5.861 1.954-6.374-1.638-12.018-1.638-12.018l6.473-2.092s2.546 3.335 3.02 9.078c.947.217 4.716-1.066 4.716-1.066l4.992 13.143Z" fill="#4F9522"/><path d="M58.623 42.087s5.348-.868 8.584-2.565c0 0-3.532 1.204-4.716 1.066-1.204-.158-4.993.986-4.993.986l3.77 17.01 3.078-1.321-5.723-15.176Z" fill="#397D0E"/><path d="M63.714 57.618c-.355.198-.67.336-.907.454-7.598 2.645-12.373 3.868-17.09 1.362-1.282-.671-2.743-2.783-2.94-3.493 2.94 3.493 17.82 6.571 17.602-7.025.434 2.861 1.796 5.821 3.335 8.702Z" fill="#397D0E"/><path d="M33.364 24.366a2.084 2.084 0 0 1-.987 1.638c-2.96 1.816-5.17 2.506-8.446 3.335-.355.099-.73.06-1.046-.118-.75-.415-1.263-1.48-1.401-2.605-.02-.276-.04-.533-.02-.81.04-.67.533-1.203 1.184-1.341 2.881-.553 5.092-1.145 7.736-3.098a1.712 1.712 0 0 1 2.526.552c.355.572.533 1.342.454 2.447Z" fill="#fff"/><path d="M32.93 21.94c-.099.078-.197.157-.296.216-3.927 2.408-6.907 3.395-11.13 4.48-.02-.276-.04-.533-.02-.81.04-.67.533-1.203 1.184-1.341 2.881-.553 5.092-1.145 7.736-3.098a1.712 1.712 0 0 1 2.526.552Z" fill="#ADC4A1"/></svg>