<svg width="85" height="53" viewBox="0 0 85 53" fill="none" xmlns="http://www.w3.org/2000/svg">
  <path d="M81.9582 26.9125C79.7321 21.2412 76.2919 16.1887 72.0422 12.0642C64.3523 4.53696 54.0317 0 42.598 0C32.2774 0 22.7662 3.71206 15.3798 9.89883C10.2195 14.2296 6.07098 19.9008 3.44022 26.2938C1.2142 31.4494 0 37.3268 0 43.4105C0 48.7724 4.24968 53 9.41001 53H75.5836C80.8452 53 84.9937 48.6693 84.9937 43.4105C85.0948 37.5331 83.9818 31.965 81.9582 26.9125Z" fill="#DD2E44"/>
  <path d="M18.2126 39.9047C26.4085 39.9047 33.0865 33.0992 33.0865 24.7471C33.0865 16.3949 26.4085 9.58949 18.2126 9.58949C17.302 9.58949 16.2902 9.69261 15.3795 9.89883C10.2192 14.2296 6.0707 19.9008 3.43994 26.2938C4.14822 33.9241 10.5227 39.9047 18.2126 39.9047Z" fill="#F4ABBA"/>
  <path d="M61.4185 22.891C61.4185 28.8716 66.1741 33.7179 72.0427 33.7179C76.4947 33.7179 80.3397 30.9338 81.8574 26.9124C79.6314 21.2412 76.1912 16.1887 71.9415 12.0642C66.1741 12.0642 61.4185 16.9105 61.4185 22.891Z" fill="#F4ABBA"/>
  <path d="M50.7941 49.391C56.6627 49.391 61.4183 44.5447 61.4183 38.5642C61.4183 32.5837 56.6627 27.7374 50.7941 27.7374C44.9255 27.7374 40.1699 32.5837 40.1699 38.5642C40.1699 44.5447 44.9255 49.391 50.7941 49.391Z" fill="#F4ABBA"/>
  <path d="M47.2527 19.2821C51.1989 19.2821 54.3355 16.0856 54.3355 12.0642C54.3355 8.0428 51.1989 4.8463 47.2527 4.8463C43.3066 4.8463 40.1699 8.0428 40.1699 12.0642C40.1699 16.0856 43.4078 19.2821 47.2527 19.2821Z" fill="#F4ABBA"/>
</svg>
