<svg width="78" height="52" viewBox="0 0 78 52" fill="none" xmlns="http://www.w3.org/2000/svg">
  <path d="M76.0653 50.3813C73.2141 47.751 71.483 43.9066 71.7885 39.7588C71.8903 38.3424 72.2977 36.9261 72.9086 35.6109H71.483C67.3081 35.6109 63.4386 34.0934 60.3838 31.5642C58.1436 29.7432 56.4125 27.214 55.2924 24.4825C54.4778 22.4591 54.0705 20.3346 54.0705 18.0078C54.0705 16.8949 54.1723 15.7821 54.376 14.6693C52.8486 14.2646 51.5248 13.5564 50.3029 12.7471C46.0261 9.9144 43.4804 5.15953 43.4804 0C43.2768 0 43.0731 0 42.8695 0C32.483 0 22.9112 3.64202 15.4778 9.71206C10.2846 13.9611 6.10966 19.5253 3.46214 25.7977C1.22193 30.856 0 36.6226 0 42.5914C0 47.8521 4.27676 52 9.46997 52H76.0653C76.7781 52 77.389 51.8988 78 51.7977C77.389 51.393 76.6762 50.8872 76.0653 50.3813Z" fill="#DD2E44"/>
  <path d="M18.3288 9.40855C17.4123 9.40855 16.394 9.50972 15.4776 9.71206C10.2844 13.9611 6.10943 19.5253 3.46191 25.7977C4.17471 33.3852 10.5899 39.2529 18.3288 39.2529C26.5768 39.2529 33.2974 32.5759 33.2974 24.3813C33.2974 16.0856 26.5768 9.40855 18.3288 9.40855ZM47.5533 18.9183C50.5063 18.9183 53.052 17.0973 54.1721 14.5681C52.7465 14.1634 51.5246 13.5564 50.3026 12.7471C47.5533 11.0272 45.5167 8.39688 44.3966 5.46303C42.0546 6.57587 40.4254 9.00388 40.4254 11.8366C40.4254 15.7821 43.6838 18.9183 47.5533 18.9183ZM51.1173 27.214C45.2113 27.214 40.4254 31.9689 40.4254 37.8366C40.4254 43.7043 45.2113 48.4591 51.1173 48.4591C57.0233 48.4591 61.8092 43.7043 61.8092 37.8366C61.8092 31.9689 57.0233 27.214 51.1173 27.214Z" fill="#F4ABBA"/>
</svg>
