<svg width="12" height="12" viewBox="0 0 12 12" fill="none"
  xmlns="http://www.w3.org/2000/svg">
  <path d="M7.85355 4.85355C8.04882 4.65829 8.04882 4.34171 7.85355 4.14645C7.65829 3.95119 7.34171 3.95119 7.14645 4.14645L4.14645 7.14645C3.95118 7.34171 3.95118 7.65829 4.14645 7.85355C4.34171 8.04882 4.65829 8.04882 4.85355 7.85355L7.85355 4.85355Z" fill="#9488F0"/>
  <path fill-rule="evenodd" clip-rule="evenodd" d="M2.5 11H6.5C7.32843 11 8 10.3284 8 9.5L8 8.5C8 8.22386 8.22386 8 8.5 8H9.5C10.3284 8 11 7.32843 11 6.5L11 2.5C11 1.67157 10.3284 1 9.5 1H5.5C4.67157 1 4 1.67157 4 2.5V3.5C4 3.77614 3.77614 4 3.5 4L2.5 4C1.67157 4 1 4.67157 1 5.5V9.5C1 10.3284 1.67157 11 2.5 11ZM6.5 10H2.5C2.22386 10 2 9.77614 2 9.5L2 5.5C2 5.22386 2.22386 5 2.5 5H3.5C4.32843 5 5 4.32843 5 3.5L5 2.5C5 2.22386 5.22386 2 5.5 2L9.5 2C9.77614 2 10 2.22386 10 2.5L10 6.5C10 6.77614 9.77614 7 9.5 7L8.5 7C7.67157 7 7 7.67157 7 8.5L7 9.5C7 9.77614 6.77614 10 6.5 10Z" fill="#9488F0"/>
</svg>
