<svg width="24" height="24" viewBox="0 0 24 24" fill="none" xmlns="http://www.w3.org/2000/svg">
  <path d="M24 12C24 18.6273 18.6273 24 12 24C5.37267 24 0 18.6273 0 12C0 5.37267 5.37267 0 12 0C18.6273 0 24 5.37267 24 12Z" fill="#FFCC4D"/>
  <path fill-rule="evenodd" clip-rule="evenodd" d="M0.826531 7.34534C0.986531 7.50467 1.7852 7.98334 1.94453 8.462C2.10453 8.94 2.42453 11.6513 3.3832 12.4493C4.37186 13.2707 8.1012 12.9653 8.8152 12.6093C10.4132 11.8127 10.6092 9.58867 10.8919 8.462C11.0512 7.824 12.0099 7.824 12.0099 7.824C12.0099 7.824 12.9685 7.824 13.1285 8.46134C13.4112 9.58867 13.6085 11.8127 15.2052 12.6087C15.9199 12.9653 19.6492 13.2713 20.6392 12.45C21.5965 11.652 21.9159 8.94067 22.0759 8.462C22.2345 7.984 23.0345 7.50534 23.1939 7.346C23.3545 7.18667 23.3545 6.54867 23.1939 6.38867C22.8745 6.07 19.1045 5.786 15.0452 6.22934C14.2352 6.318 13.9272 6.548 12.0092 6.548C10.0925 6.548 9.7832 6.31734 8.97387 6.22934C4.9172 5.78534 1.14653 6.06934 0.826531 6.388C0.667198 6.54734 0.667198 7.186 0.826531 7.34534V7.34534Z" fill="#292F33"/>
  <path d="M18.2237 15.7527C18.105 15.6453 17.9277 15.6387 17.8004 15.7333C17.7744 15.7527 15.1857 17.6667 12.0004 17.6667C8.82304 17.6667 6.22571 15.7527 6.20038 15.7333C6.07304 15.6387 5.89571 15.6467 5.77704 15.7527C5.65904 15.8593 5.63238 16.0353 5.71438 16.1713C5.80038 16.3147 7.85904 19.6667 12.0004 19.6667C16.1417 19.6667 18.201 16.3147 18.2864 16.1713C18.3684 16.0347 18.3424 15.8593 18.2237 15.7527V15.7527Z" fill="#664500"/>
</svg>
