<svg width="24" height="24" viewBox="0 0 24 24" fill="none" xmlns="http://www.w3.org/2000/svg">
<path d="M0 12C0 5.37258 5.37258 0 12 0V0C18.6274 0 24 5.37258 24 12V12C24 18.6274 18.6274 24 12 24V24C5.37258 24 0 18.6274 0 12V12Z" fill="url(#paint0_linear)"/>
<path d="M4.48445 19.0306C4.35056 19.1645 4.35056 19.3816 4.48445 19.5155V19.5155C4.61835 19.6494 4.83543 19.6494 4.96933 19.5155L10.7878 13.697C11.4573 13.0275 12.5427 13.0275 13.2122 13.697L19.0307 19.5155C19.1646 19.6494 19.3816 19.6494 19.5155 19.5155V19.5155C19.6494 19.3816 19.6494 19.1645 19.5155 19.0306L13.697 13.2121C13.0276 12.5427 13.0276 11.4572 13.697 10.7878L19.5155 4.96929C19.6494 4.83539 19.6494 4.61831 19.5155 4.48442V4.48442C19.3816 4.35052 19.1645 4.35052 19.0306 4.48442L13.2122 10.3029C12.5427 10.9724 11.4573 10.9724 10.7878 10.3029L4.96934 4.48442C4.83544 4.35052 4.61836 4.35052 4.48446 4.48442V4.48442C4.35057 4.61831 4.35057 4.8354 4.48446 4.96929L10.3029 10.7878C10.9724 11.4572 10.9724 12.5427 10.3029 13.2121L4.48445 19.0306Z" fill="#1E242C"/>
<defs>
<linearGradient id="paint0_linear" x1="13.0286" y1="-1.48228e-07" x2="21.1706" y2="36.5881" gradientUnits="userSpaceOnUse">
<stop stop-color="#9488F0"/>
<stop offset="0.492238" stop-color="#E967C4"/>
<stop offset="0.997186" stop-color="#82CF8A"/>
</linearGradient>
</defs>
</svg>
