<svg width="24" height="24" viewBox="0 0 24 24" fill="none" xmlns="http://www.w3.org/2000/svg">
<circle cx="12" cy="12" r="12" fill="#434149"/>
<g clip-path="url(#clip0)">
<path d="M12.9609 12.9597C12.8409 12.7197 12.6009 12.4197 12.3609 12.1797C12.3009 12.2397 12.2409 12.4197 12.2409 12.4797C12.1809 12.7197 12.3009 12.7197 12.5409 12.7797C12.6609 12.7797 12.7809 12.8397 12.9609 12.9597Z" fill="white"/>
<path fill-rule="evenodd" clip-rule="evenodd" d="M13.0206 2.46039C9.24063 2.82039 6.18062 5.70039 5.58062 9.42039C5.82062 9.42039 6.00062 9.36039 6.06062 9.36039C6.06062 9.00039 6.18062 8.34039 6.60062 7.92039C7.80062 5.22039 10.4406 3.36039 13.5606 3.36039C17.7606 3.36039 21.1806 6.78039 21.1806 11.0404C21.1806 14.2204 19.2606 16.9204 16.5606 18.1204C18.6006 16.8604 19.9806 14.5204 19.9806 11.8804C19.9806 7.86039 16.7406 4.56039 12.7206 4.56039C10.1406 4.56039 7.92062 5.88039 6.66062 7.92039C6.78062 7.80039 6.96062 7.74039 7.14062 7.74039C7.08062 8.40039 7.56063 8.58039 7.98063 8.22039C8.16062 7.86039 8.40063 7.50039 8.76062 7.26039C9.18062 7.02039 9.72062 6.96039 10.1406 6.96039C10.5006 6.96039 10.8606 7.08039 11.1606 7.20039C11.1006 6.96039 10.7406 6.66039 10.6806 6.66039C11.5806 6.18039 13.0806 6.78039 13.2606 7.80039C13.3206 7.32039 13.2606 6.84039 13.2606 6.84039C14.1606 7.20039 14.2206 8.46039 14.1606 8.88039L15.3606 7.80039L14.2206 10.3804C14.2806 10.4404 14.2806 10.5604 14.3406 10.6804L14.4006 10.7404C14.4606 10.9204 14.5206 11.0404 14.5806 11.2204C14.6406 11.3404 14.7006 11.4604 14.7606 11.6404C14.7606 11.7604 14.7006 11.9404 14.6406 12.1804C14.5806 12.4204 14.5206 12.6604 14.5206 12.7804C14.5806 13.0204 14.5806 13.2604 14.6406 13.5004C14.7006 13.8604 14.8206 14.2204 14.9406 14.4604C15.0006 14.5804 15.0006 14.7004 15.0606 14.7604C15.4206 15.0604 15.4206 15.6004 15.4206 15.8404C15.4206 16.2604 14.8206 16.6804 14.5806 16.8604C14.5206 16.8604 14.5206 16.9204 14.4606 16.9204C14.2806 17.0404 14.1006 17.1004 13.9806 17.1604C13.8606 17.2204 13.7406 17.2204 13.6206 17.2204C13.2606 17.2204 12.3606 16.6804 12.2406 16.5004C12.1806 16.4404 12.1206 16.1404 12.0606 15.8404C12.0006 15.6004 11.9406 15.3604 11.8806 15.1804C11.7606 14.8804 11.6406 14.8204 11.5206 14.7004C11.3406 14.5804 11.1606 14.4604 10.8606 14.0404C10.7406 14.2804 10.4406 15.0004 10.2606 15.9604C10.2006 16.2604 10.2006 16.7404 10.2006 17.3404C10.2006 17.6404 10.2006 17.9404 10.1406 18.2404C11.2806 18.7804 12.4806 19.1404 13.8006 19.1404C17.1606 19.1404 20.0406 17.1004 21.3606 14.2204C20.3406 18.4204 16.6206 21.5404 12.1206 21.5404C6.90063 21.6004 2.64062 17.2804 2.64062 12.0004C2.64062 6.72039 6.90063 2.40039 12.1206 2.40039C12.4206 2.40039 12.7206 2.40039 13.0206 2.46039ZM5.52062 9.84039C5.52062 10.0804 5.46062 10.3804 5.46062 10.6204C5.64062 10.5604 5.88062 10.5604 6.06062 10.5604H6.00062C5.82062 10.6204 5.64062 10.6804 5.46062 10.7404V10.8004C5.46062 11.5204 5.52062 12.1804 5.70062 12.8404C5.70062 12.7804 5.70062 12.7204 5.70062 12.6004C5.70062 12.5404 5.82062 11.9404 6.36062 11.1604C6.36062 11.2204 6.36062 11.3404 6.30062 11.4004C6.24062 11.7004 6.18062 12.0004 6.30062 12.3604C6.30062 12.0604 6.48062 11.1604 7.08062 10.8604C6.90062 11.1604 6.78062 12.0604 6.96062 12.3004C6.96062 11.8204 7.26062 11.3404 7.68062 11.0404C7.98063 10.8004 9.48063 9.96039 9.48063 9.96039C9.48063 9.96039 9.18062 11.2204 9.84062 11.3404C9.72062 11.0404 9.90062 10.5004 10.2006 10.1404C10.3206 10.0204 10.5006 9.90039 10.6206 9.84039V9.78039C10.5606 9.48039 10.5606 9.12039 10.6806 8.88039C10.8006 9.00039 11.0406 9.12039 11.2806 9.18039C11.5206 9.24039 11.7606 9.36039 12.0006 9.48039C12.1806 9.60039 12.3006 9.84039 12.4206 10.0804L12.5406 10.2604L12.6006 10.3804V10.3204L13.5606 9.36039C13.8006 8.94039 13.8606 7.86039 13.3806 7.38039C13.3806 7.68039 13.3806 9.00039 12.9006 9.24039C13.2606 8.40039 12.9006 6.84039 11.1006 6.84039C11.4006 7.08039 11.6406 7.50039 11.7606 7.74039C11.8806 7.86039 12.0006 7.98039 12.0606 8.16039L12.0006 8.10039C12.0006 7.80039 11.5206 7.32039 10.2006 7.32039C9.78062 7.32039 9.36062 7.38039 9.00062 7.56039C9.60063 7.38039 10.2606 7.74039 10.8006 8.10039C10.7406 8.10039 10.6206 8.04039 10.5606 7.98039C10.2006 7.86039 9.72062 7.68039 9.18062 7.80039C8.88062 7.86039 8.70062 8.04039 8.46063 8.28039C8.34063 8.40039 8.22062 8.52039 8.04062 8.64039C7.68062 8.82039 7.20062 8.76039 7.02062 8.40039C6.96062 8.34039 6.90062 8.22039 6.90062 8.10039C6.78062 8.22039 6.72062 8.34039 6.66062 8.46039C6.48062 8.70039 6.42062 9.06039 6.48062 9.36039C6.66062 9.36039 6.84062 9.36039 7.02062 9.36039C7.20062 9.36039 7.38063 9.42039 7.56063 9.36039C7.80063 9.30039 8.10063 9.24039 8.28062 9.12039C8.34062 9.06039 8.46062 9.00039 8.52062 8.94039C8.46062 9.00039 8.46062 9.06039 8.40062 9.12039C8.22062 9.36039 7.98063 9.48039 7.68062 9.54039C7.44063 9.60039 7.20062 9.60039 6.96062 9.54039C6.78062 9.54039 6.54062 9.48039 6.36062 9.54039C6.24062 9.54039 6.12062 9.60039 6.00062 9.66039C5.88062 9.72039 5.70062 9.78039 5.52062 9.84039ZM14.1606 9.30039L14.7606 8.70039L13.6806 10.9204C13.5606 10.9804 13.3806 10.9204 13.2006 10.8004C13.0806 10.6804 12.9606 10.5604 13.0206 10.4404L13.2606 10.2004C13.2606 10.2604 13.3206 10.3204 13.3806 10.3804C13.5006 10.5004 13.6206 10.5604 13.8006 10.5004C13.7406 10.5004 13.6806 10.5004 13.6806 10.4404C13.5006 10.3804 13.4406 10.2004 13.3806 10.0804L13.7406 9.72039C13.8006 9.84039 13.9206 9.96039 14.1006 9.90039C13.9806 9.90039 13.8606 9.72039 13.8006 9.60039L14.0406 9.30039C14.1006 9.36039 14.1606 9.36039 14.2206 9.36039C14.2206 9.42039 14.1606 9.36039 14.1606 9.30039ZM12.1806 12.7804C12.0606 12.6604 12.0606 12.5404 12.0606 12.3604C12.0606 12.2404 12.1206 12.0604 12.2406 11.9404C12.1206 11.8204 11.9406 11.7604 11.7606 11.7604C12.1806 11.6404 12.4806 11.8204 12.7806 12.1204C12.9606 12.3004 13.2006 12.7804 13.2606 12.9604C13.3206 13.1404 13.6806 13.0204 13.6806 13.0204C13.6206 13.1404 13.4406 13.2604 13.2606 13.2604C13.1406 13.2604 13.1406 13.2004 13.0806 13.1404V13.0804C12.9006 13.0204 12.7206 12.9604 12.5406 12.9004C12.3606 12.9004 12.2406 12.8404 12.1806 12.7804ZM14.4006 15.7204C14.3406 15.3604 14.2806 15.1204 14.1006 15.1204C14.1006 15.1204 14.1606 15.0004 14.2806 15.0604C14.4606 15.1804 14.4006 15.4804 14.4006 15.7204ZM14.5206 15.7804C14.5806 15.4804 14.4606 14.8204 14.1606 14.8204C13.9806 14.8204 13.8606 14.8804 13.8006 14.9404C13.8006 14.8804 13.8006 14.8804 13.8006 14.8204C13.8006 14.5204 13.6806 14.2804 13.5606 13.9804C13.5006 13.8604 13.5006 13.8004 13.4406 13.6804C13.6806 13.9204 13.8606 14.2204 13.9806 14.5204C14.0406 14.4604 14.1606 14.4604 14.2806 14.5804C14.7006 14.8804 14.7006 15.5404 14.5206 15.7804ZM13.8606 16.4404C13.5006 16.3204 12.7806 16.0204 12.7806 15.8404C12.7806 15.7204 12.7806 15.5404 12.9006 15.4804C12.9606 15.6604 13.1406 15.7804 13.3806 15.9004C13.3806 15.9004 13.0806 15.6004 13.0806 15.3604H13.1406C13.2606 15.3604 13.3206 15.5404 13.3806 15.7204C13.4406 15.9604 13.6206 16.2604 13.8606 16.4404ZM12.8406 13.2004C12.6006 13.3204 12.2406 13.2604 12.0606 13.1404C11.8206 13.0204 11.7006 12.7204 11.7006 12.4804C11.7606 12.5404 11.7606 12.6004 11.7606 12.6604C11.8206 12.8404 11.9406 12.9604 12.1206 13.0804C12.2406 13.1404 12.4806 13.2004 12.6606 13.2004C12.7206 13.2004 12.7806 13.2004 12.8406 13.2004ZM7.80062 15.3004C7.80062 15.4804 7.80062 15.6004 7.80062 15.7204C7.62063 15.4804 7.56062 15.1804 7.62063 14.8804C7.74062 13.2604 9.06062 12.1804 9.12062 12.1204C8.28062 13.2604 7.98063 14.1604 7.86063 14.7604C7.80063 14.8804 7.80062 15.1204 7.80062 15.3004Z" fill="white"/>
<path d="M17.82 11.8799C17.82 14.6399 16.26 17.0999 14.04 18.2999C16.92 17.6399 19.02 15.0599 19.02 11.9999C19.02 9.17988 17.22 6.77988 14.76 5.87988C16.62 7.19988 17.82 9.41988 17.82 11.8799Z" fill="white"/>
<path d="M15.96 11.7598C15.96 11.7598 15.9 11.2198 15.72 11.0398C15.48 10.8598 15 10.7998 15 10.7998C15 10.7998 15.48 10.7398 15.72 10.5598C15.9 10.3798 15.96 9.83984 15.96 9.83984C15.96 9.83984 16.02 10.3798 16.2 10.5598C16.38 10.7398 16.92 10.7998 16.92 10.7998C16.92 10.7998 16.44 10.8598 16.2 11.0398C15.96 11.2198 15.96 11.7598 15.96 11.7598Z" fill="white"/>
<path d="M10.9804 17.2203C11.1604 17.4003 11.1604 17.7603 11.1604 17.7603C11.1604 17.7603 11.1604 17.4003 11.3404 17.2203C11.5204 17.0403 11.8804 17.0403 11.8804 17.0403C11.8804 17.0403 11.5204 17.0403 11.3404 16.8603C11.1604 16.6803 11.1604 16.3203 11.1604 16.3203C11.1604 16.3203 11.1604 16.6803 10.9804 16.8603C10.8004 17.0403 10.4404 17.0403 10.4404 17.0403C10.4404 17.0403 10.8604 17.0403 10.9804 17.2203Z" fill="white"/>
<path d="M16.6206 13.2002C16.6206 13.2002 16.6206 12.9602 16.5006 12.8402C16.3806 12.7202 16.1406 12.7202 16.1406 12.7202C16.1406 12.7202 16.3806 12.7202 16.5006 12.6002C16.6206 12.4802 16.6206 12.2402 16.6206 12.2402C16.6206 12.2402 16.6206 12.4802 16.7406 12.6002C16.8606 12.7202 17.1006 12.7202 17.1006 12.7202C17.1006 12.7202 16.8606 12.7202 16.7406 12.8402C16.6806 12.9602 16.6206 13.2002 16.6206 13.2002Z" fill="white"/>
</g>
<defs>
<clipPath id="clip0">
<rect width="19.2" height="19.2" fill="white" transform="translate(2.40039 2.40039)"/>
</clipPath>
</defs>
</svg>
