<svg width="24" height="24" viewBox="0 0 24 24" fill="none" xmlns="http://www.w3.org/2000/svg">
  <circle cx="12" cy="12" r="12" fill="url(#pancakeswapV2)" />
  <g clip-path="url(#clipPancakeswapV2)">
    <path fill-rule="evenodd" clip-rule="evenodd" d="M4.72811 13.7111L4.72509 13.8511C4.72509 14.0284 4.73919 14.2031 4.76689 14.3756H4.72509V14.6467C4.72506 14.7782 4.73288 14.9095 4.74851 15.04C5.05216 17.5722 8.25941 19.5639 12.1714 19.5639C16.0834 19.5639 19.2906 17.5717 19.594 15.04C19.6097 14.9095 19.6175 14.7782 19.6175 14.6467V14.3756H19.5757C19.6035 14.2021 19.6175 14.0268 19.6175 13.8511C19.6174 13.8044 19.6164 13.7577 19.6144 13.7111C19.5024 11.0603 16.2126 8.93422 12.1714 8.93422C8.13024 8.93422 4.84041 11.0603 4.72811 13.7111ZM4.11627 13.7111C4.17166 12.0936 5.18208 10.735 6.58881 9.8059C8.04665 8.84308 10.0219 8.26926 12.1709 8.26926C14.3199 8.26926 16.2951 8.84333 17.753 9.8059C19.1595 10.735 20.1701 12.0934 20.2255 13.7111H20.2285V14.6467C20.2285 16.3261 19.2008 17.7361 17.7535 18.6917C16.2956 19.6545 14.3206 20.2286 12.1714 20.2286C10.0222 20.2286 8.04715 19.6545 6.58931 18.6919C5.14205 17.7364 4.11426 16.3259 4.11426 14.647V13.7114H4.11678L4.11627 13.7111Z" fill="#606063" />
    <path d="M19.618 14.647C19.618 17.3628 16.2843 19.5644 12.1716 19.5644C8.05898 19.5644 4.72559 17.3628 4.72559 14.647V13.8685H19.618V14.647Z" fill="#BEBEBE" />
    <path d="M19.618 13.8514C19.618 16.5671 16.2843 18.7687 12.1716 18.7687C8.05898 18.7687 4.72559 16.5671 4.72559 13.8514C4.72559 11.1356 8.05923 8.93423 12.1716 8.93423C16.2841 8.93423 19.618 11.1356 19.618 13.8516V13.8514Z" fill="#FAF9FA" />
    <path fill-rule="evenodd" clip-rule="evenodd" d="M5.87085 12.4622V12.4715C5.87092 12.6928 5.90013 12.913 5.95772 13.1267H5.87085V13.4147C5.87085 13.5419 5.88042 13.6675 5.8993 13.7911C6.18306 15.6609 8.55816 17.1197 11.4461 17.1197C14.3341 17.1197 16.709 15.6604 16.993 13.7911C17.0119 13.6666 17.0214 13.5407 17.0214 13.4147V13.1267H16.9346C16.9906 12.9189 17.0198 12.7048 17.0214 12.4897V12.4713V12.462C17.0139 10.42 14.5207 8.76574 11.4464 8.76574C8.37209 8.76574 5.87891 10.42 5.87135 12.462L5.87085 12.4622ZM5.25977 12.4622V13.4147C5.25977 14.7567 6.07555 15.8646 7.18492 16.6023C8.30461 17.3466 9.81256 17.7852 11.4456 17.7852C13.0787 17.7852 14.5867 17.3466 15.7064 16.6023C16.8155 15.8651 17.6315 14.7575 17.6315 13.4147V12.4715C17.6315 11.1295 16.8157 10.0216 15.7064 9.28442C14.5867 8.54014 13.0787 8.10153 11.4456 8.10153C9.81256 8.10153 8.30461 8.54014 7.18492 9.28442C6.07832 10.0196 5.26329 11.1242 5.25977 12.4625V12.4622Z" fill="#633001" />
    <path d="M17.0212 13.4147C17.0212 15.4612 14.5252 17.1203 11.4461 17.1203C8.36705 17.1203 5.87109 15.4612 5.87109 13.4147V12.5453H17.0212V13.4147Z" fill="#FEDC90" />
    <path d="M17.0212 12.471C17.0212 14.5175 14.5252 16.1765 11.4461 16.1765C8.36705 16.1765 5.87109 14.518 5.87109 12.471C5.87109 10.424 8.36982 8.76572 11.4461 8.76572C14.5225 8.76572 17.0212 10.4247 17.0212 12.471Z" fill="#D1884F" />
    <path fill-rule="evenodd" clip-rule="evenodd" d="M7.55126 10.4686V10.4779C7.55134 10.6992 7.58054 10.9195 7.63813 11.1331H7.55126V11.4211C7.55126 11.5483 7.56083 11.6739 7.57971 11.7976C7.86348 13.6673 10.2386 15.1267 13.1266 15.1267C16.0145 15.1267 18.3894 13.6673 18.6734 11.7976C18.6923 11.673 18.7018 11.5471 18.7018 11.4211V11.1331H18.615C18.6704 10.9261 18.7006 10.7134 18.7018 10.4961V10.4777V10.4684C18.6943 8.4264 16.2011 6.77217 13.1268 6.77217C10.0525 6.77217 7.55932 8.4264 7.55177 10.4684L7.55126 10.4686ZM6.94043 10.4686V11.4211C6.94043 12.7632 7.75622 13.871 8.86583 14.6087C9.98553 15.353 11.4935 15.7916 13.1266 15.7916C14.7596 15.7916 16.2676 15.353 17.3873 14.6087C18.4964 13.8715 19.3124 12.7639 19.3124 11.4211V10.4779C19.3124 9.13593 18.4966 8.02807 17.3873 7.29034C16.2676 6.54606 14.7596 6.10745 13.1266 6.10745C11.4935 6.10745 9.98502 6.54657 8.86558 7.29059C7.75899 8.02581 6.94395 9.13039 6.94043 10.4686V10.4686Z" fill="#633001" />
    <path d="M18.7006 11.421C18.7006 13.4675 16.2047 15.1266 13.1256 15.1266C10.0465 15.1266 7.55078 13.4675 7.55078 11.421V10.5516H18.7009V11.421H18.7006Z" fill="#FEDC90" />
    <path d="M18.7006 10.4778C18.7006 12.5244 16.2047 14.1834 13.1256 14.1834C10.0465 14.1834 7.55078 12.5244 7.55078 10.4778C7.55078 8.43132 10.0467 6.77231 13.1258 6.77231C16.2049 6.77231 18.7009 8.43158 18.7009 10.4778H18.7006Z" fill="#D1884F" />
    <path fill-rule="evenodd" clip-rule="evenodd" d="M5.87085 8.47522V8.48453C5.87092 8.70578 5.90013 8.92606 5.95772 9.13968H5.87085V9.42772C5.87085 9.55487 5.88042 9.68052 5.8993 9.80414C6.18306 11.6739 8.55816 13.1327 11.4461 13.1327C14.3341 13.1327 16.709 11.6734 16.993 9.80414C17.0119 9.67956 17.0214 9.55373 17.0214 9.42772V9.13993H16.9346C16.9906 8.93217 17.0198 8.71809 17.0214 8.50291V8.48453V8.47522C17.0131 6.43273 14.5204 4.779 11.4461 4.779C8.37184 4.779 5.87815 6.43273 5.87085 8.47522ZM5.25977 8.47522V9.42772C5.25977 10.7697 6.07555 11.8776 7.18492 12.6153C8.30461 13.3596 9.81256 13.7982 11.4456 13.7982C13.0787 13.7982 14.5867 13.3596 15.7064 12.6153C16.8155 11.8781 17.6315 10.7705 17.6315 9.42772V8.48453C17.6315 7.14252 16.8157 6.03466 15.7064 5.29693C14.5869 4.5529 13.079 4.11429 11.4461 4.11429C9.81331 4.11429 8.30461 4.5529 7.18517 5.29718C6.07857 6.0329 5.26354 7.13698 5.25977 8.47522V8.47522Z" fill="#633001" />
    <path d="M17.0212 9.4278C17.0212 11.4743 14.5252 13.1333 11.4461 13.1333C8.36705 13.1333 5.87109 11.4741 5.87109 9.4278V8.55838H17.0212V9.4278V9.4278Z" fill="#FEDC90" />
    <path d="M17.0212 8.4843C17.0212 10.5308 14.5252 12.1898 11.4461 12.1898C8.36705 12.1898 5.87109 10.5308 5.87109 8.4843C5.87109 6.43779 8.36982 4.77902 11.4461 4.77902C14.5225 4.77902 17.0212 6.43779 17.0212 8.4843Z" fill="#D1884F" />
    <path fill-rule="evenodd" clip-rule="evenodd" d="M7.18945 8.71504C7.18945 9.39839 7.64594 10.0102 8.36605 10.4222L7.86701 11.3621V13.7409C7.86701 14.0557 8.10117 14.3105 8.39072 14.3105C8.68028 14.3105 8.91444 14.0554 8.91444 13.7409V11.8493L9.45124 10.8381C9.79443 10.9172 10.163 10.9602 10.5465 10.9602C12.4007 10.9602 13.9036 9.95509 13.9036 8.7153C13.9036 7.4755 12.3979 6.47012 10.5465 6.47012C8.69513 6.47012 7.18945 7.47525 7.18945 8.71504Z" fill="url(#paint1_linear)" />
    <path fill-rule="evenodd" clip-rule="evenodd" d="M8.36641 10.4216L8.13728 10.2775C7.55062 9.87343 7.19007 9.32227 7.19007 8.71471C7.19007 7.47492 8.69323 6.46979 10.5471 6.46979C12.401 6.46979 13.9042 7.47492 13.9042 8.71471C13.9042 9.95451 12.401 10.9596 10.5471 10.9596C10.1786 10.9604 9.81117 10.9194 9.45186 10.8375L8.91505 11.8487V13.7406C8.91505 14.0553 8.68089 14.3101 8.39134 14.3101C8.10178 14.3101 7.86762 14.0551 7.86762 13.7406V11.3617L8.36666 10.4218L8.36641 10.4216ZM7.33283 11.3716V13.7404C7.33283 14.3761 7.80669 14.8915 8.39108 14.8915C8.97548 14.8915 9.44934 14.3761 9.44934 13.7409V12.0048L9.72782 11.4803C9.99892 11.5211 10.2727 11.5415 10.5469 11.5413C11.554 11.5413 12.4957 11.2688 13.2007 10.7977C13.8966 10.3324 14.4385 9.61233 14.4385 8.71497C14.4385 7.8176 13.8964 7.098 13.2007 6.6322C12.4962 6.16136 11.5565 5.88867 10.5469 5.88867C9.53721 5.88867 8.59755 6.16136 7.89305 6.6322C7.19712 7.0975 6.65527 7.8176 6.65527 8.71446C6.65527 9.50205 7.06996 10.1506 7.6463 10.6154L7.40836 11.0636C7.38319 11.1049 7.36758 11.1492 7.35473 11.1971C7.33912 11.2545 7.32956 11.3134 7.33308 11.3718L7.33283 11.3716Z" fill="#633001" />
    <path d="M8.23828 7.76924C8.23828 8.41129 8.99062 8.93249 9.91845 8.93249C10.8463 8.93249 11.5986 8.41179 11.5986 7.76924C11.5986 7.12668 10.8463 6.60599 9.91845 6.60599C8.99062 6.60599 8.23828 7.12668 8.23828 7.76924V7.76924Z" fill="#9E7200" />
    <path d="M8.23828 7.27072H11.5986V7.76926H8.23828V7.27072Z" fill="#9E7200" />
    <path d="M8.23828 7.2707C8.23828 7.91276 8.99062 8.43345 9.91845 8.43345C10.8463 8.43345 11.5986 7.91276 11.5986 7.2707C11.5986 6.62865 10.8463 6.10745 9.91845 6.10745C8.99062 6.10745 8.23828 6.62815 8.23828 7.2707V7.2707Z" fill="#F0B90B" />
    <path d="M9.28078 7.13061L9.75413 6.80278C9.80213 6.76891 9.85943 6.75073 9.91817 6.75073C9.97691 6.75073 10.0342 6.76891 10.0822 6.80278L10.5556 7.13061C10.65 7.19607 10.65 7.34563 10.5556 7.41084L10.0822 7.73867C10.0342 7.77254 9.97691 7.79072 9.91817 7.79072C9.85943 7.79072 9.80213 7.77254 9.75413 7.73867L9.28078 7.41084C9.18636 7.34538 9.18636 7.19582 9.28078 7.13061Z" fill="#9E7200" />
    <path fill-rule="evenodd" clip-rule="evenodd" d="M8.44385 5.95787C8.84595 5.67939 9.36891 5.52631 9.91881 5.52631C10.4687 5.52631 10.9914 5.67939 11.3938 5.95787C11.7896 6.23181 12.1335 6.68175 12.1335 7.27068V7.76921C12.1335 8.35839 11.7896 8.80808 11.3938 9.08202C10.9917 9.36025 10.4687 9.51359 9.91881 9.51359C9.36891 9.51359 8.8462 9.3605 8.44385 9.08202C8.04804 8.80808 7.7041 8.35814 7.7041 7.76921V7.27068C7.7041 6.6815 8.04804 6.23181 8.44385 5.95787V5.95787ZM9.91881 6.10793C8.99098 6.10793 8.23864 6.62862 8.23864 7.27118V7.76972C8.23864 8.41177 8.99098 8.93297 9.91881 8.93297C10.8466 8.93297 11.599 8.41227 11.599 7.76972V7.27118C11.599 6.62913 10.8466 6.10793 9.91881 6.10793Z" fill="#633001" />
  </g>
  <defs>
    <linearGradient id="pancakeswapV2" x1="12" y1="0" x2="12" y2="24" gradientUnits="userSpaceOnUse">
      <stop stop-color="#54DADE" />
      <stop offset="1" stop-color="#24C7D6" />
    </linearGradient>
    <linearGradient id="paint1_linear" x1="10.5828" y1="6.54541" x2="10.5828" y2="14.2516" gradientUnits="userSpaceOnUse">
      <stop stop-color="#9F4A08" />
      <stop offset="0.37" stop-color="#7D3900" />
      <stop offset="1" stop-color="#8D4104" />
    </linearGradient>
    <clipPath id="clipPancakeswapV2">
      <rect width="16.1143" height="16.1143" fill="white" transform="translate(4.11426 4.11429)" />
    </clipPath>
  </defs>
</svg>
