<svg width="24" height="24" viewBox="0 0 24 24" fill="none" xmlns="http://www.w3.org/2000/svg">
<circle cx="12" cy="12" r="12" fill="url(#paint0_linear)"/>
<path fill-rule="evenodd" clip-rule="evenodd" d="M7.55107 7.29249C7.34524 6.17967 8.19098 5.15157 9.31226 5.15157C10.3018 5.15157 11.1039 5.96142 11.1039 6.96043V9.1905C11.3514 9.17286 11.6029 9.16382 11.8576 9.16382C12.1023 9.16382 12.3441 9.17216 12.5821 9.18846V6.96043C12.5821 5.96142 13.3843 5.15157 14.3738 5.15157C15.4951 5.15157 16.3408 6.17967 16.135 7.29249L15.6501 9.91381C17.3141 10.6473 18.5724 11.9212 18.5724 13.522V14.4904C18.5724 15.8068 17.7098 16.909 16.5039 17.653C15.2886 18.4028 13.6445 18.8485 11.8576 18.8485C10.0707 18.8485 8.42662 18.4028 7.21132 17.653C6.00544 16.909 5.14285 15.8068 5.14285 14.4904V13.522C5.14285 11.9297 6.38816 10.6606 8.03813 9.92572L7.55107 7.29249ZM15.0288 10.2582L15.5962 7.1909C15.739 6.41854 15.152 5.70498 14.3738 5.70498C13.687 5.70498 13.1303 6.26706 13.1303 6.96043V9.79835C12.9503 9.77505 12.7675 9.75659 12.5821 9.74321C12.3445 9.72605 12.1027 9.71723 11.8576 9.71723C11.6024 9.71723 11.3509 9.72679 11.1039 9.74536C10.9185 9.7593 10.7357 9.77832 10.5558 9.80217V6.96043C10.5558 6.26706 9.99903 5.70498 9.31226 5.70498C8.53403 5.70498 7.94703 6.41854 8.0899 7.1909L8.65913 10.2684C6.87962 10.9357 5.691 12.1432 5.691 13.522V14.4904C5.691 16.5917 8.45188 18.2951 11.8576 18.2951C15.2633 18.2951 18.0242 16.5917 18.0242 14.4904V13.522C18.0242 12.1361 16.8234 10.9234 15.0288 10.2582Z" fill="#633001"/>
<path d="M18.0241 14.4905C18.0241 16.5918 15.2632 18.2952 11.8574 18.2952C8.45174 18.2952 5.69086 16.5918 5.69086 14.4905V13.522H18.0241V14.4905Z" fill="#FEDC90"/>
<path fill-rule="evenodd" clip-rule="evenodd" d="M8.08976 7.19079C7.9469 6.41842 8.53389 5.70486 9.31213 5.70486C9.9989 5.70486 10.5556 6.26695 10.5556 6.96032V9.80206C10.9753 9.74641 11.4109 9.71711 11.8574 9.71711C12.2938 9.71711 12.7195 9.74507 13.1301 9.79823V6.96032C13.1301 6.26695 13.6869 5.70486 14.3736 5.70486C15.1519 5.70486 15.7389 6.41842 15.596 7.19079L15.0286 10.2581C16.8233 10.9233 18.0241 12.1361 18.0241 13.5219C18.0241 15.6231 15.2632 17.3266 11.8574 17.3266C8.45174 17.3266 5.69086 15.6231 5.69086 13.5219C5.69086 12.1431 6.87948 10.9356 8.65899 10.2683L8.08976 7.19079Z" fill="#D1884F"/>
<path d="M10.1448 13.2453C10.1448 13.8184 9.83804 14.283 9.45962 14.283C9.08121 14.283 8.77444 13.8184 8.77444 13.2453C8.77444 12.6722 9.08121 12.2077 9.45962 12.2077C9.83804 12.2077 10.1448 12.6722 10.1448 13.2453Z" fill="#633001"/>
<path d="M14.8725 13.2453C14.8725 13.8184 14.5657 14.283 14.1873 14.283C13.8089 14.283 13.5021 13.8184 13.5021 13.2453C13.5021 12.6722 13.8089 12.2077 14.1873 12.2077C14.5657 12.2077 14.8725 12.6722 14.8725 13.2453Z" fill="#633001"/>
<defs>
<linearGradient id="paint0_linear" x1="12" y1="0" x2="12" y2="24" gradientUnits="userSpaceOnUse">
<stop stop-color="#54DADE"/>
<stop offset="1" stop-color="#24C7D6"/>
</linearGradient>
</defs>
</svg>
