<svg xmlns="http://www.w3.org/2000/svg" width="24" height="24" viewBox="0 0 24 24"><path fill="#FF6B00" d="M12 24c6.6 0 12-5.4 12-12S18.6 0 12 0 0 5.4 0 12s5.4 12 12 12z"/><path fill="#FFF" d="M6.6 16.4c0 .1.1.1.1.2.3.5.6 1 1 1.3.5.3 1.4.6 2.3.7.1-.7.5-1.4.9-1.8-.5.2-1.1.3-1.7.3-.9 0-1.8-.2-2.6-.7zM13.6 13.7zM13.6 13.7c-.1.3-.3.6-.4.9-1 1.8-3.5 2-3.5 2-.4.1-.4-.1-.4-.1l-.1-.2-.2-.2c-1.1-2.3-1.1-2.3-.9-2.4.1-.1.3-.1.5-.1.3.1.7.3 1.1.7 0 0 0-.1.1-.1.2-.3.5-.9 1.4-1.1.9-.2 1.5.2 2 .4.1.1.3.2.4.2zM3.5 10.6c0-.1 0-.5-.2-.7-.2.7-.3 1.4-.3 2 .2 0 .4.1.5.2V12c0-.3-.1-.7 0-1.4zM13.1 18.4c-.4-.5-.5-1.3-.2-2.5 0-.1 0-.2.1-.3-.2.2-.5.5-.8.7-.2.2-.5.4-.7.5-.4.4-1 1.1-1.1 1.9.5.1.9.1 1.4.1.7-.1 1.1-.3 1.3-.4zM17.9 7.7c.2.2.4.5.5.8.3.5 1.2 2.1 2.4 1.8-.1-.4-.2-.9-.3-1.3v-.1c-.1-.4-.3-.8-.5-1.2-.6.3-1.5.2-2.1 0zM16.6 4.6l.1.1v.1c-.3.7-1 1.3-1.6 1.8.5 0 1.3.1 2.1.5.3.1 1.7.7 2.7.3v-.1C19.2 6 18.2 5 17 4.2c-1-.7-2-1-3-1.2.1.5 0 1-.2 1.5 1.6-.6 2.4-.3 2.8.1zM13.5 18.2c.6-.3 1.3-.6 1.9-1 0 0-.1 0-.1-.1-.8-.4-1.2-1.9-1.4-3.1 0 .1-.1.1-.1.2-.2.5-.4 1.1-.5 1.7-.3 1.5-.1 2.1.2 2.3zM18.4 11zM18.4 11c-1 .5-1.9.8-2.8.8-.5 0-1-.1-1.5-.3.1.4.1.8.1 1.2v.8h.1c1.4.5 2.5.5 3.2.2.2-.1.3-.2.5-.4.5-.4.5-1.7.4-2.3z"/><path fill="#FFF" d="M16.2 16.7c1-.6 1.6-1.9 1.8-2.7-.1.1-.2.1-.3.2-.3.2-.7.2-1.2.2-.7 0-1.5-.2-2.3-.4.2 1.2.6 2.5 1.2 2.9.3.1.5 0 .8-.2zM14 11c.2.1.3.1.5.2 1.2.3 2.5.1 3.9-.7 0-.7-.2-1.3-.4-1.8v-.2c-.2-.4-.6-.8-1-1.1-.9-.4-1.7-.5-2.2-.4 1.4.6 1.6 1.4 1.7 1.4v.1s0 .1-.1.1c-1.3.7-2.6.3-3.3 0 .1.3.3.7.4 1 .1.2.1.3.2.4 0 .1.1.2.1.3 0 .2.1.5.2.7zM18.6 17c-.4-.5-.5-1.3-.5-2-.1.3-.3.6-.4.8 0 0 0 .1-.1.1-.2.4-.9 1.9-.6 2.8.1.3.3.5.5.6.3-.2 1-.8 1.7-1.8-.2 0-.5-.2-.6-.5zM4.8 15c-.5-.6-.8-1.1-1-1.7-.1-.3-.4-.9-.8-1 0 .9.1 1.8.4 2.6.5-.1 1 0 1.4.1z"/><path fill="#FFF" d="M16.8 16.8c-.2.6-.4 1.4-.2 2.1.1.3.3.6.6.8-.8.6-1.7 1-2.6 1.3-1.1-2 1.2-3.4 1.3-3.5.2-.1.3-.2.5-.3h.1c.1-.2.2-.3.3-.4zM20.5 10.8h.4c.1.6.1 1.1.1 1.5 0 .4 0 .7-.1 1.1v.1c-.5 0-.9-.1-1.2-.4-.7-.6-.8-1.7-.9-2.2v-.3c0-.3 0-.6-.1-.8.6.6 1.2 1 1.8 1z"/><path fill="#FFF" d="M19.4 13.4c-.3-.3-.5-.6-.7-1 0 .3-.1.7-.2 1-.1.3-.4 2.4.3 3.4.2.2.4.4.6.4.3-.5.6-1 .8-1.5.2-.6.4-1.2.5-1.9-.4.1-.9-.1-1.3-.4zM6.7 17.5c-.2-.3-.4-.6-.5-.9-.3-.5-1-1.5-2.7-1.2.3.9.8 1.8 1.4 2.6.5-.7 1.2-.7 1.8-.5zM11.9 19.2zM11.9 19.2l-.2.2c-.6.6-.8 1.2-.8 1.8-1.3-.2-2.6-.6-3.8-1.4 1-.9 2.4-.8 2.8-.8.7.2 1.4.2 2 .2z"/><path fill="#FFF" d="M7.5 18.3c-.2-.1-1.6-.9-2.3-.1.2.2.7.8 1.5 1.4.5-.5 1.2-.8 1.8-.9-.3-.1-.7-.2-1-.4zM14.5 18.2c-.1.1-.2.1-.4.2-.6.3-1.6.7-2.3 1.4-.3.4-.7.9-.6 1.5.3 0 .9.1 1.7 0h.1c.4 0 .7-.1 1.1-.2-.4-1.2-.1-2.2.4-2.9zM6.6 13.5h.2c.2 0 .5 0 1.1-.2.5-.1 1.3-.4 2.1-.7.1 0 .3-.2.6-.3.1.1.2.2.2.4 1.2-.3 1.9.1 2.4.4.2.1.3.2.5.2.1-.7.1-1.5-.1-2-1.6-.7-2.5-2.1-2.9-2.6l-.1.1c-.4.3-.8.6-1.1 1.3-.7 1.4-1.4 2.6-2.7 3-.2.1-.4.1-.4.3.1 0 .1 0 .2.1-.1 0-.1 0 0 0z"/><path fill="#FFF" fill-rule="evenodd" d="M7.8 10.5c-.1 0-.1.1-.1.1-.3.2-.9.2-1 0-.1-.1-.1-.2 0-.4.1-.1.1-.2.2-.4.1-.1.1-.3.2-.5v-.1c.2-.6.3-1.3.4-2.2.2-2.4 1.9-3.3 2.5-3.6l.1 1 .2-.3c1.3-1.3 2.7-1.2 3.1-1.2.2 1-.4 1.8-.4 1.8l-.6.7.9-.5c.8-.4 2.1-1 2.9-.5-.6 1.2-2.3 2-2.3 2l-.4.6v.1h.5c1.3.3 1.8.9 2 1.2-1.7.7-3.2-.4-3.3-.4l-.5-.4.3.6s.1.2.1.3c0 .1.1.2.1.3l.6 1.4c.1.2.2.5.3.7 0 0-1.7-.8-2.6-2.6-.4.3-1.5 1.2-1.9 1.5-.4.1-.9.5-1.3.8zm2.1-3.4c.2-.3-.1-.6-.4-.4-.2.3.1.6.4.4zm-1.5 0c.2-.3-.1-.6-.4-.4-.2.3.1.6.4.4z" clip-rule="evenodd"/></svg>