<svg width="24" height="24" viewBox="0 0 24 24" fill="none" xmlns="http://www.w3.org/2000/svg">
  <path d="M12 24C18.6274 24 24 18.6274 24 12C24 5.37258 18.6274 0 12 0C5.37258 0 0 5.37258 0 12C0 18.6274 5.37258 24 12 24Z" fill="#418ACA"/>
  <path d="M0.00501161 11.7981C0.854722 14.9348 3.3228 17.444 5.87212 17.9633C8.22103 18.4418 10.9759 17.9633 12.5674 16.2621C14.1589 14.5608 13.3357 12.8047 12.5674 11.9267C11.9528 11.2242 10.7381 10.7925 10.2076 10.6644C11.232 10.6096 13.5443 10.5766 14.5979 10.884C15.9151 11.2681 17.1773 12.7498 18.22 15.384C19.0543 17.4916 17.9914 19.002 16.5775 21.0114C16.2242 21.5134 15.849 22.0466 15.476 22.628C15.1805 23.0887 14.8175 23.4475 14.4045 23.7249C13.583 23.905 12.7296 24 11.8539 24C5.30719 24 0 18.6929 0 12.1462C0 12.0298 0.00167816 11.9137 0.00501161 11.7981Z" fill="#161F42"/>
  <path d="M4.45711 21.4286C6.68277 23.0435 10.5341 23.2086 13.1703 21.6807C17.2671 19.3062 17.1594 15.9929 16.3509 14.5572C16.243 15.496 15.2727 16.4899 14.6259 16.766C15.2189 14.2259 14.0329 11.6857 10.6908 11.1335C8.01703 10.6918 6.98922 11.4648 6.80956 11.9066C6.65829 12.2785 6.93045 12.8077 7.19997 13.0286C5.14283 13.0286 4.34785 11.6305 4.11426 11.1335L4.5455 10.1947C5.42596 9.69777 7.24077 8.6596 7.45639 8.48289C7.72588 8.26202 10.529 7.59938 13.1704 7.54415C15.8118 7.48892 18.6149 9.20077 19.8547 10.4156C21.0945 11.6305 21.5258 16.5452 21.0945 18.4227C20.9317 19.1318 20.899 19.7994 20.5714 20.4C18.4569 22.6198 15.251 24 11.9842 24C9.1833 24 6.46588 23.1165 4.45711 21.4286Z" fill="#262F71"/>
  <path d="M4.1699 10.1048L4.11426 11.1382C5.39425 10.2861 8.75445 9.18744 13.0285 10.9714C12.4052 9.88365 11.6273 8.98073 11.1821 8.74505C12.8517 8.69064 16.6917 9.32157 18.6951 12.2804C20.6957 15.2349 20.7785 18.7447 19.3976 21.2571C20.3647 20.5384 21.217 19.6797 21.9229 18.712V11.5733L19.4743 8.4731L19.363 8.14673C20.2349 8.18301 22.2457 8.56094 23.3143 9.25714C22.2012 8.25638 20.2163 6.82323 19.363 6.29746L14.6882 5.69918L14.3543 5.26406L14.9664 4.82894C15.6337 4.41161 16.7809 3.2437 17.3722 1.32526C17.6334 0.478121 17.8285 0 17.3722 0C17.1428 0 16.9245 0.346601 16.6285 0.857143C16.4995 1.04137 16.5497 0.971184 16.459 0.936926L13.7977 3.84991L11.9055 4.06749L11.0499 4.82894C10.9641 5.33657 10.4586 6.37361 9.12295 6.46063C9.30103 6.76522 9.41977 7.09519 9.45686 7.22211L7.50902 8.96259L4.1699 10.1048Z" fill="#161F42"/>
  <path fill-rule="evenodd" clip-rule="evenodd" d="M5.74522 7.97638C5.17354 7.84164 5.32378 7.13426 5.47035 6.79743C3.49151 8.08867 3.05037 10.0351 3.60003 12C6.32708 9.46054 9.77146 9.25716 13.3715 10.2857C13.0417 9.44364 11.7367 8.53778 11.0771 8.20092C13.8804 8.08863 16.4639 8.8746 18.2778 10.7272C20.0918 12.5799 21.7408 16.229 20.1467 20.1027C19.6996 21.1891 19.0681 21.67 18.1714 22.2857C20.9148 20.6958 22.8334 18.1017 23.6571 14.9143C23.2935 8.93316 18.6269 6.8981 15.9142 6.74127C18.1129 6.62902 19.9269 7.5834 20.3666 7.86409C20.3666 7.72935 20.0734 7.28398 19.9269 7.07813C20.0106 7.12092 20.0951 7.16302 20.1812 7.20598C20.8863 7.55775 21.7958 7.95639 23.3143 9.25716C19.9613 5.15892 15.5294 4.72023 14.9248 4.77639C14.4851 5.16938 12.946 6.06759 12.3413 6.23604C12.836 5.89918 13.2208 4.9448 13.2758 4.55182C14.9468 4.10268 16.2807 2.45591 16.7387 1.68867C16.5922 1.76352 16.211 1.93568 15.8593 2.02551C16.1954 1.66895 16.4828 1.2713 16.7248 0.86994C16.5724 0.805363 16.4412 0.743937 16.2857 0.68573C15.5603 1.79413 14.0828 2.91518 13.3857 3.37287C13.5428 2.9143 13.3857 2.02551 12.7946 1.54287C12.5197 2.8341 10.3625 3.99043 9.42805 4.32725C8.49359 4.66411 8.05388 5.16938 7.94392 5.7869C7.834 6.40445 8.32871 6.74127 8.93334 6.90972C8.44964 7.17917 8.03554 6.87228 7.88896 6.68515C7.41256 7.1717 6.31686 8.11109 5.74522 7.97638ZM11.4069 5.73077C10.8353 6.40445 9.70292 6.49802 9.20821 6.46058C9.09829 5.73077 9.92279 5.2255 10.7473 5.11322C11.4069 5.02339 11.9749 4.51438 12.1765 4.27112C12.1582 4.47698 11.9786 5.05709 11.4069 5.73077Z" fill="white"/>
  <path d="M5.1993 8.91667C5.65612 8.95398 5.46577 9.46089 5.3135 9.70967C5.3135 9.63191 5.25638 9.47642 5.02797 9.47642C4.74244 9.47642 4.57111 9.56971 4.11426 9.94288C4.22846 9.52305 4.6282 8.87004 5.1993 8.91667Z" fill="#161F42"/>
</svg>
