<svg width="24" height="24" viewBox="0 0 24 24" fill="none" xmlns="http://www.w3.org/2000/svg">
  <circle cx="12" cy="12" r="12" fill="white"/>
  <path d="M7.1997 5.34863L19.954 14.0572L16.7997 18.7201L4.04541 9.94292L7.1997 5.34863Z" fill="url(#paint0_linear)"/>
  <path d="M19.9541 14.0572C18.8569 15.6343 15.1541 15.0172 11.6569 12.5486C8.09122 10.1486 6.17122 6.92576 7.19979 5.34861C8.29693 3.77147 11.9998 4.38861 15.4969 6.85719C19.0626 9.18862 20.9826 12.48 19.9541 14.0572Z" fill="url(#paint1_linear)"/>
  <path d="M16.7998 18.6515C15.7027 20.2287 11.9998 19.6115 8.50268 17.1429C5.00554 14.6744 3.01697 11.5201 4.11411 9.87437C5.21125 8.29723 8.91411 8.91437 12.4113 11.3829C15.9084 13.8515 17.8284 17.0744 16.7998 18.6515Z" fill="url(#paint2_linear)"/>
  <path d="M19.9539 14.0572L16.7997 18.7201C15.7025 20.2972 11.9997 19.6115 8.50252 17.2115C7.81681 16.7315 7.19966 16.2515 6.58252 15.7029C7.06252 15.6344 7.67966 15.3601 8.29681 14.6744C9.39395 13.5086 9.94252 13.2344 10.4225 13.3029C10.9025 13.3029 11.4511 13.7829 12.3425 14.9486C13.2339 16.1144 14.4682 16.4572 15.2225 15.8401C15.2911 15.7715 15.3597 15.7715 15.4282 15.7029C16.0454 15.2229 16.2511 15.0172 17.4168 12.8229C17.6911 12.2744 18.6511 11.3829 19.9539 11.7944C20.2968 12.6858 20.2968 13.4401 19.9539 14.0572Z" fill="#0E0F23"/>
  <path fill-rule="evenodd" clip-rule="evenodd" d="M19.4739 13.783C18.5139 15.1544 15.1539 14.4687 11.931 12.2058C8.63961 9.94299 6.71961 7.06299 7.67961 5.69156C8.63961 4.32013 11.9996 5.00584 15.2225 7.2687C18.4453 9.53156 20.3653 12.4116 19.4739 13.783ZM16.4568 11.7258C15.9768 12.4116 14.331 12.0687 12.6853 10.9716C11.1082 9.87441 10.1482 8.43441 10.6282 7.7487C11.1082 7.06299 12.7539 7.40584 14.3996 8.50299C15.9768 9.60013 16.9368 11.0401 16.4568 11.7258Z" fill="white"/>
  <path d="M6.92565 6.92571C6.92565 6.85714 6.85708 6.78857 6.78851 6.85714C6.71994 6.92571 6.65137 6.92571 6.65137 6.99428C6.71994 7.2 6.78851 7.33714 6.78851 7.47428C6.78851 7.54285 6.85708 7.61142 6.92565 7.54285C6.99423 7.54285 7.0628 7.47428 6.99423 7.40571C6.99423 7.26857 6.99423 7.13142 6.92565 6.92571Z" fill="white"/>
  <path d="M7.26821 8.02288C7.26821 7.95431 7.19964 7.88574 7.13107 7.95431C7.0625 8.02288 7.0625 8.02288 7.0625 8.09145C7.81679 9.80574 9.39393 11.6572 11.4511 13.0286C11.5196 13.0972 11.5882 13.0286 11.6568 13.0286C11.7254 12.96 11.6568 12.8915 11.6568 12.8229C9.53107 11.4515 8.0225 9.66859 7.26821 8.02288Z" fill="white"/>
  <path d="M15.5654 14.7429C15.4968 14.7429 15.4282 14.7429 15.4282 14.8115C15.4282 14.8801 15.4282 14.9486 15.4968 14.9486C15.7025 15.0172 15.9768 15.0858 16.1825 15.1544C16.2511 15.1544 16.3196 15.1544 16.3196 15.0858C16.3196 15.0172 16.3196 14.9486 16.2511 14.9486C16.0454 14.8801 15.7711 14.8115 15.5654 14.7429Z" fill="white"/>
  <path d="M16.7997 15.0172C16.7312 15.0172 16.6626 15.0858 16.6626 15.1544C16.6626 15.2229 16.7312 15.2915 16.7997 15.2915C17.3483 15.3601 17.9655 15.4286 18.4455 15.3601C18.514 15.3601 18.5826 15.2915 18.5826 15.2229C18.5826 15.1544 18.514 15.0858 18.4455 15.0858C17.8969 15.1544 17.3483 15.0858 16.7997 15.0172Z" fill="white"/>
  <defs>
    <linearGradient id="paint0_linear" x1="9.69858" y1="4.11044" x2="12.2279" y2="12.7958" gradientUnits="userSpaceOnUse">
      <stop stop-color="#03B8FF"/>
      <stop offset="1" stop-color="#FA52A0"/>
    </linearGradient>
    <linearGradient id="paint1_linear" x1="11.7816" y1="3.50377" x2="14.311" y2="12.1892" gradientUnits="userSpaceOnUse">
      <stop stop-color="#03B8FF"/>
      <stop offset="1" stop-color="#FA52A0"/>
    </linearGradient>
    <linearGradient id="paint2_linear" x1="7.62222" y1="4.71512" x2="10.1516" y2="13.4006" gradientUnits="userSpaceOnUse">
      <stop stop-color="#03B8FF"/>
      <stop offset="1" stop-color="#FA52A0"/>
    </linearGradient>
  </defs>
</svg>
