<svg xmlns="http://www.w3.org/2000/svg" viewBox="0 0 24 24" xml:space="preserve"><path fill="#BD967F" d="M11.8 17.4v-5.5L20 7.3v5.4l-8.2 4.7z"/><path fill="#886B59" d="m11.8 18.7-8.1-5V7.5l8.1 4.7v6.5z"/><path fill="#29121A" d="M16.8 21.8v-2.2L13 17.5v2l3.8 2.3z"/><path fill="#3C1A26" d="m16.8 21.8 3.4-2v-2.2l-3.4 2v2.2z"/><path fill="#421D2A" d="m14.5 18.4 3.4-2 2.2 1.2-3.4 2-2.2-1.2z"/><path fill="#F2716A" d="M11.8 9.5 3.6 4.8 11.8 0 20 4.8l-8.2 4.7z"/><path fill="#29121A" d="M12.9 24v-2.2l-5.6-3.1v2l5.6 3.3z"/><path fill="#3C1A26" d="m12.9 24 3.4-2v-2.2l-3.4 2V24z"/><path fill="#421D2A" d="m10.6 20.6 3.4-2 2.2 1.2-3.4 2-2.2-1.2z"/><path fill="#BD967F" d="M9.6 20.4V19l-2.7.6V22l2.7-1.6z"/><path fill="#886B59" d="m6.9 22-2.8-1.6v-2.1L6.9 20v2z"/><path fill="#9F4256" d="M11.8 21.7V19l-3.7-2.6-4.4-2.7v3l2.7.8 2.3 2.3 3.1 1.9zM7.7 19.3l-4.4-2.5v1.3l4.4 2.5v-1.3z"/><path fill="#DA625C" d="m7.7 20.6 2.7-1.6v-1.2l-2.7 1.5v1.3z"/><path fill="#D5545A" d="m7.7 19.3-4.4-2.5L6 15.2l.6.4 3.5 2.4-2.4 1.3z"/><path fill="#898989" d="M11.8 19.2v-1.1l-.5-.3-3.5-4.3v-2.6l-1-.6v2.6l-.5 1.8v1.2l5.5 3.3z"/><path fill="#FFF" d="m20.6 13-.6-.3-8.2 4.8-3.5-4.3v-2.6l-1-.5-.6.3 1 .5v2.6l3.5 4.3.5.3 8.9-5.1z"/><path fill="#DA625C" d="M11.8 19v2.7L20 17v-2.6L11.8 19z"/><path fill="#D6D6D6" d="M11.8 19.2v-1.1l8.8-5v1.1l-1.7 2.2-.2-.1-.9 1.3-.3-.2-1.1 1.6-1.1-.5-.2.6-.9-.3-.2.3-1.7-.2-.5.3z"/><path fill="#FFF" d="m13.7 15.3 2.2-1.3v-2.5l-2.2 1.2v2.6zM17 13.4l2.2-1.3V9.7L17 10.9v2.5z"/><path fill="#493239" d="m14.8 14.7 1.1-.6v-1.3l-1.1.6v1.3zM18 12.8l1.1-.6v-1.3l-1.1.6v1.3z"/><path fill="#A24741" d="M11.8 12.6V9.3L3.6 4.7v3.2l8.2 4.7z"/><path fill="#DB5B54" d="m20 7.9-8.2 4.7V9.4L20 4.7v3.2z"/><path fill="#A24741" d="m16.3 11.9-2.7-1.5v1.2l2.7 1.6v-1.3z"/><path fill="#DB5B54" d="M16.3 11.9v1.2c1.7-1.6 3.6-2.3 4.4-2.5V9.4c-1.6 0-3.6 1.6-4.4 2.5z"/><path fill="#F2716A" d="m17.9 7.8 2.8 1.6c-1.8.4-3.7 1.8-4.4 2.5-.8-.5-2.6-1.5-2.7-1.6C14.9 8.9 17 8 17.9 7.8z"/></svg>