<svg width="24" height="24" viewBox="0 0 24 24" fill="none" xmlns="http://www.w3.org/2000/svg">
  <circle cx="12" cy="12" r="12" fill="white"/>
  <path fill-rule="evenodd" clip-rule="evenodd" d="M0.872426 8.59059C1.57564 7.30237 3.52298 5.51008 4.84826 6.63026C5.08868 7.40471 5.55715 9.08469 6.0994 11.0293C6.87482 13.81 7.80111 17.1318 8.42715 19.1203H9.18445C10.3384 15.6384 12.6194 8.85384 12.8357 8.33855L12.8389 8.33094C13.1097 7.6861 13.5529 6.63026 16.1537 6.63026C17.5872 6.63026 18.2092 8.45057 18.0199 9.40273C17.8306 10.3549 17.168 12.0072 14.842 11.7271C14.842 11.7394 14.8419 11.7523 14.8419 11.7657C14.8414 11.9472 14.8408 12.2184 14.9163 12.3292C14.9358 12.3578 15.0945 12.3953 15.3286 12.4507C16.0713 12.6265 17.5733 12.9819 17.8035 13.7995H11.7992C11.3304 15.6758 11.7343 19.5684 16.0185 19.5684C20.3026 19.5684 20.3459 16.1238 19.832 14.4716C20.5172 14.5463 22.0715 14.3764 22.8072 13.0993C22.9586 12.8753 22.9784 11.7925 22.9694 11.279C22.735 12.2219 21.7794 14.0459 19.832 13.7995C19.8122 13.7726 19.7922 13.7456 19.7721 13.7184C19.1615 12.8925 18.4242 11.8951 17.5601 11.8951C17.6854 11.8163 17.8094 11.7404 17.9311 11.6659C19.1499 10.9198 20.1387 10.3145 19.832 8.33855C19.5886 6.77029 18.5068 5.84614 16.0185 5.84614C13.0284 5.84614 12.0697 7.20423 11.7992 7.88568L8.91412 16.2857C7.83226 12.8504 6.21884 6.83661 6.17126 6.6302C5.8284 5.1428 2.30589 4.80996 1.27812 7.35839C0.455909 9.39713 0.665069 9.02933 0.872426 8.59059ZM18.2633 14.6116H13.8277C12.8811 15.9838 13.8007 18.9523 15.8832 18.9523C18.2633 18.9523 18.5879 16.0585 18.2633 14.6116Z" fill="#FF007A"/>
  <path fill-rule="evenodd" clip-rule="evenodd" d="M12 22.9714C18.0594 22.9714 22.9714 18.0594 22.9714 12C22.9714 5.94065 18.0594 1.02857 12 1.02857C5.94065 1.02857 1.02857 5.94065 1.02857 12C1.02857 18.0594 5.94065 22.9714 12 22.9714ZM24 12C24 18.6274 18.6274 24 12 24C5.37258 24 0 18.6274 0 12C0 5.37258 5.37258 0 12 0C18.6274 0 24 5.37258 24 12Z" fill="#FF007A"/>
</svg>
