<svg width="24" height="24" viewBox="0 0 24 24" fill="none" xmlns="http://www.w3.org/2000/svg">
<circle cx="12" cy="12" r="12" fill="white"/>
<path d="M10.5203 10.7591C10.6495 10.7591 10.8284 10.6796 10.888 10.6C10.9675 10.4808 10.9377 10.3516 10.7886 10.2621C10.5203 10.0931 10.1127 10.2323 10.1127 10.4907C10.1127 10.6199 10.3214 10.7591 10.5203 10.7591Z" fill="#FF007A"/>
<path d="M5.79882 15.4608C5.93798 15.5702 6.12683 15.5106 6.22624 15.3316C6.27826 15.2411 6.29385 15.1343 6.26985 15.0327C6.24585 14.9311 6.18405 14.8425 6.09703 14.7849C5.92805 14.6756 5.66962 14.7253 5.66962 14.8744C5.66953 14.8975 5.67738 14.92 5.69184 14.9381C5.70631 14.9562 5.72652 14.9688 5.74913 14.9738C5.83858 15.0235 5.84853 15.0732 5.77895 15.1825C5.70937 15.2919 5.70937 15.3913 5.79882 15.4608Z" fill="#FF007A"/>
<path d="M12 1.32469e-05C9.28575 -0.00402688 6.65101 0.916184 4.52946 2.60918C6.48981 4.75707 9.49189 8.064 9.80459 8.42326L9.93382 8.56242L9.92386 8.79104C9.91393 9.09917 9.81453 9.30791 9.58592 9.51665C9.32747 9.76515 8.99946 9.89436 8.49253 9.96394C8.18438 10.0037 8.07505 10.0534 7.94584 10.1926C7.82655 10.3218 7.77686 10.4907 7.74704 10.9082C7.69735 11.5643 7.61781 11.8326 7.30969 12.4787C7.01148 13.1049 6.95183 13.3336 7.00155 13.6715C7.06119 14.0691 7.2898 14.3673 7.82655 14.7351C8.2341 15.0134 8.42295 15.1923 8.52235 15.411C8.58198 15.5501 8.59191 15.5998 8.59191 15.8285C8.59191 16.1863 8.53228 16.3255 8.29372 16.5839C7.90607 17.0014 7.20035 17.3393 6.34553 17.5381C5.98769 17.6176 5.9678 17.6176 5.9678 17.5381C5.9678 17.4387 5.82864 17.1703 5.60003 16.8125C5.33165 16.405 5.22231 16.1962 5.12291 15.8781C5.01357 15.5203 4.97381 15.2818 4.9937 14.9041C5.01357 14.5462 5.05333 14.3872 5.19249 14.1089C5.30182 13.8802 5.3714 13.7809 5.81871 13.2242C6.58407 12.2799 6.85245 11.7233 6.95183 10.9381C7.0413 10.2323 7.16057 9.89437 7.42896 9.59616C7.58799 9.41724 7.62777 9.34768 7.62777 9.21845C7.62777 9.15881 7.37927 8.67175 6.61389 7.31C5.40123 5.1431 5.40123 5.1431 5.44098 5.16298C5.45092 5.17293 6.01751 6.0377 6.68347 7.08138C7.55819 8.44314 7.94584 9.00971 8.03529 9.09917C8.16255 9.22607 8.33282 9.30056 8.51239 9.30791C8.7098 9.29229 8.90226 9.23826 9.07897 9.14887C9.32746 9.00971 9.38711 8.82085 9.23802 8.62206C9.08886 8.42316 6.58365 5.35006 4.41248 2.70338C3.03228 3.82762 1.92007 5.24541 1.15677 6.85359C0.393479 8.46177 -0.00169466 10.2199 5.46253e-06 12C5.46253e-06 18.6276 5.37241 24 12 24C18.6276 24 24 18.6276 24 12C24 5.37241 18.6276 1.32469e-05 12 1.32469e-05ZM15.4604 6.38559C15.4802 6.36571 16.0667 6.53468 16.2953 6.63409C16.6432 6.77325 16.7028 6.78318 16.7426 6.77325C16.7724 6.74342 16.7923 6.66391 16.8022 6.41541C16.8221 6.0377 16.8718 5.7892 16.9812 5.56058C17.0209 5.47113 17.0607 5.3916 17.0706 5.3916C17.0806 5.3916 17.0607 5.46118 17.0309 5.54069C16.9514 5.75938 16.9414 6.06751 16.9911 6.41541C17.0607 6.86269 17.0905 6.92234 17.5676 7.40939C17.7863 7.63801 18.0447 7.92627 18.1441 8.04554L18.3131 8.26423L18.1441 8.10519C17.9354 7.90639 17.4583 7.52867 17.349 7.47897C17.2794 7.43921 17.2694 7.43921 17.2197 7.48891C17.18 7.52867 17.17 7.58831 17.17 7.87657C17.1601 8.32386 17.1005 8.60217 16.9514 8.89044C16.8718 9.03953 16.8619 9.00971 16.9315 8.84074C16.9812 8.71151 16.9911 8.65189 16.9911 8.22447C16.9911 7.3597 16.8917 7.15096 16.2854 6.80307C16.1363 6.7136 15.8779 6.5844 15.7287 6.51481C15.6365 6.47785 15.5468 6.43467 15.4604 6.38559ZM9.27778 5.10335C9.46663 5.07352 9.904 5.11328 10.2121 5.18286C10.9278 5.35185 11.5739 5.7892 12.2597 6.55457L12.4387 6.7633L12.6971 6.72353C13.8004 6.54462 14.9336 6.68378 15.8779 7.12114C16.1363 7.24042 16.5438 7.47897 16.5935 7.53862C16.6134 7.5585 16.6432 7.68771 16.6631 7.81693C16.7327 8.2841 16.7028 8.632 16.5537 8.90037C16.4742 9.04947 16.4742 9.08923 16.5239 9.21845C16.5483 9.26893 16.5864 9.31153 16.6339 9.34141C16.6813 9.37128 16.7362 9.38723 16.7923 9.38743C17.0309 9.38743 17.2794 9.00971 17.3986 8.4829L17.4484 8.27416L17.5378 8.37357C18.0447 8.94013 18.4423 9.72539 18.502 10.282L18.5218 10.4311L18.4324 10.3019C18.3105 10.1014 18.148 9.92875 17.9553 9.79497C17.6173 9.56635 17.2595 9.49677 16.3152 9.44707C15.4604 9.39737 14.9733 9.32779 14.4962 9.16875C13.6811 8.90037 13.2637 8.55248 12.2995 7.27023C11.8721 6.70367 11.6037 6.39552 11.3353 6.13709C10.7489 5.57052 10.1624 5.27232 9.39705 5.15305C9.18831 5.12323 9.17837 5.11328 9.27778 5.10335V5.10335ZM14.9037 12.5483C14.8834 12.4064 14.8501 12.2667 14.8043 12.1308L14.7546 11.9817L14.8441 12.0911C14.9857 12.2614 15.0936 12.457 15.1622 12.6676C15.2317 12.8564 15.2317 12.9161 15.2317 13.2242C15.2317 13.5224 15.2218 13.592 15.1622 13.761C15.0738 14.011 14.9312 14.2384 14.7447 14.4269C14.3869 14.7947 13.9197 14.9935 13.2537 15.083C13.1344 15.0929 12.7965 15.1227 12.4983 15.1426C11.7528 15.1824 11.2558 15.2619 10.8085 15.4209C10.7489 15.4408 10.6892 15.4607 10.6793 15.4508C10.6594 15.4309 10.9675 15.2519 11.216 15.1327C11.5639 14.9637 11.9218 14.8742 12.707 14.7351C13.0947 14.6754 13.4923 14.5959 13.5917 14.5561C14.5757 14.248 15.0628 13.4827 14.9037 12.5483ZM9.80459 7.89645C9.38711 7.31993 9.11873 6.42535 9.17837 5.75938L9.19826 5.55064L9.29767 5.57052C9.52022 5.61857 9.73455 5.69894 9.93382 5.80908C10.3314 6.04763 10.5103 6.37566 10.6793 7.19072C10.729 7.42928 10.7986 7.70759 10.8284 7.79706C10.8781 7.94615 11.0669 8.29405 11.226 8.51273C11.3353 8.67175 11.2658 8.75128 11.0173 8.7314C10.6395 8.69164 10.1326 8.34374 9.80459 7.89645V7.89645ZM9.71512 10.6896C9.7847 10.4311 10.0133 10.1727 10.2519 10.1031C10.4109 10.0534 10.719 10.0832 10.8681 10.1627C11.1564 10.3118 11.3651 10.6399 11.3154 10.8784C11.2658 11.1667 10.7986 11.4052 10.2519 11.4052C9.97358 11.4052 9.87417 11.3655 9.76484 11.2263C9.69526 11.1368 9.67537 10.8486 9.71512 10.6896ZM15.52 19.874C15.3006 19.9928 15.0537 20.0511 14.8043 20.043C14.3272 20.043 13.9197 19.7945 13.5917 19.2975C13.5221 19.1981 13.3829 18.9098 13.2637 18.6414C12.9158 17.8363 12.7368 17.5978 12.3293 17.3294C11.9715 17.1007 11.5142 17.0511 11.1663 17.22C10.7091 17.4387 10.5898 18.0252 10.9079 18.383C11.0597 18.5409 11.2584 18.6454 11.4745 18.6812C11.5605 18.6926 11.648 18.6854 11.731 18.66C11.814 18.6347 11.8906 18.5918 11.9556 18.5343C12.0206 18.4769 12.0725 18.4061 12.1079 18.3268C12.1432 18.2476 12.1611 18.1616 12.1603 18.0749C12.1603 17.8363 12.0709 17.6971 11.8323 17.5878C11.5142 17.4487 11.1663 17.6077 11.1763 17.9158C11.1763 18.0451 11.2359 18.1246 11.3651 18.1842C11.4447 18.224 11.4447 18.224 11.385 18.214C11.0968 18.1544 11.0272 17.7965 11.2558 17.5679C11.5341 17.2896 12.1206 17.4089 12.3194 17.7965C12.3989 17.9556 12.4088 18.2737 12.3393 18.4725C12.1703 18.9098 11.6932 19.1384 11.2061 19.0092C10.8781 18.9198 10.7389 18.8303 10.3413 18.4228C9.64554 17.7071 9.37718 17.5679 8.38319 17.4188L8.19434 17.389L8.40308 17.1902C9.13862 16.5739 10.0432 16.1366 10.8781 15.9974C11.2359 15.9378 11.8323 15.9577 12.1603 16.0472C12.6872 16.1863 13.1643 16.4845 13.4128 16.8523C13.6513 17.2101 13.7607 17.5182 13.87 18.2041C13.9097 18.4725 13.9595 18.7508 13.9694 18.8104C14.0489 19.1683 14.2079 19.4466 14.4067 19.5957C14.7149 19.8243 15.2516 19.8342 15.7785 19.6354C15.8679 19.6056 15.9474 19.5758 15.9474 19.5857C15.9673 19.6056 15.6989 19.7845 15.52 19.874ZM18.8896 16.6237C18.671 17.4686 18.174 18.1445 17.4484 18.5321C17.3817 18.571 17.3118 18.6043 17.2396 18.6315C17.2297 18.6315 17.2694 18.5321 17.3291 18.4128C17.5676 17.9059 17.5974 17.4188 17.4185 16.8722C17.3092 16.5342 17.0806 16.1267 16.6233 15.4408C16.0766 14.6456 15.9474 14.4369 15.8083 14.1486C15.5498 13.5821 15.4902 13.0453 15.6294 12.5384C15.6492 12.4887 15.6691 12.439 15.689 12.439C15.7392 12.4535 15.7864 12.477 15.8281 12.5085C15.9474 12.5881 16.1959 12.7272 16.8321 13.0751C17.6372 13.5125 18.0944 13.8504 18.4125 14.2381C18.6908 14.576 18.8598 14.9637 18.9393 15.4408C18.989 15.7092 18.9592 16.3553 18.8896 16.6237V16.6237ZM19.486 13.9101C19.4164 14.1586 19.2176 14.6158 19.1679 14.6257C19.158 14.6257 19.1381 14.576 19.1381 14.4965C19.1182 14.079 18.9095 13.6815 18.5616 13.3733C18.1441 13.0155 17.6074 12.7471 16.2953 12.2203C14.3272 11.4251 13.6314 10.7392 13.6314 9.57629C13.6314 9.40731 13.6414 9.26815 13.6414 9.26815C13.7001 9.30798 13.7565 9.35112 13.8103 9.39737C14.2079 9.71544 14.6552 9.8546 15.8977 10.0335C16.6233 10.1429 17.0408 10.2224 17.4185 10.3516C18.6212 10.7492 19.3668 11.5643 19.5456 12.6676C19.5954 12.9857 19.5655 13.592 19.486 13.9101V13.9101Z" fill="#FF007A"/>
</svg>
