<svg width="32" height="32" viewBox="0 0 32 32" fill="none" xmlns="http://www.w3.org/2000/svg">
<path fill-rule="evenodd" clip-rule="evenodd" d="M15.77 2C17.4478 2 18.7578 2.65178 19.6245 3.71046C20.464 4.7358 20.8152 6.05039 20.8152 7.30481C20.8152 8.63135 20.287 10.1229 19.471 11.2867C18.6717 12.4265 17.3952 13.5198 15.77 13.5198C14.1469 13.5198 12.8703 12.4326 12.0696 11.2928C11.2525 10.1295 10.7248 8.63766 10.7248 7.30481C10.7248 6.05355 11.0601 4.73663 11.8972 3.70782C12.7636 2.64297 14.0781 2 15.77 2ZM18.5154 7.30481C18.5154 6.44015 18.2701 5.67121 17.8375 5.1428C17.4322 4.64772 16.7945 4.27552 15.77 4.27552C14.7166 4.27552 14.0835 4.64943 13.6886 5.13477C13.2644 5.65616 13.0246 6.42276 13.0246 7.30481C13.0246 8.10525 13.3666 9.15202 13.9581 9.99408C14.566 10.8596 15.2371 11.2443 15.77 11.2443C16.3009 11.2443 16.972 10.8586 17.5814 9.98952C18.174 9.14444 18.5154 8.09734 18.5154 7.30481Z" fill="url(#paint0_linear_1005_94)"/>
<path d="M23.4432 18.6613C25.774 18.405 27.7002 20.2498 27.7002 22.1384C27.7002 24.0171 26.2032 25.7223 23.3881 25.7223C22.3758 25.7223 21.3416 25.2832 20.2056 24.4648C18.8825 23.5117 17.7851 22.3912 16.6862 21.2693C15.5845 20.1444 14.4814 19.0182 13.1481 18.0577C11.8262 17.1055 10.3163 16.3642 8.61192 16.3642C4.72886 16.3642 2 18.8971 2 22.2237C2 25.5401 5.19042 28.36 8.81002 27.9625C10.2634 27.8044 11.968 27.3179 13.3384 25.9968L11.7335 24.367C10.8618 25.2073 9.7207 25.5743 8.55818 25.7007L8.5568 25.7008C6.22599 25.9571 4.2998 24.1123 4.2998 22.2237C4.2998 20.345 5.79681 18.6397 8.61192 18.6397C9.62416 18.6397 10.6584 19.0789 11.7944 19.8973C13.1175 20.8504 14.2149 21.9709 15.3138 23.0928C16.4155 24.2176 17.5186 25.3439 18.8519 26.3043C20.1738 27.2566 21.6837 27.9978 23.3881 27.9978C27.2711 27.9978 30 25.4649 30 22.1384C30 18.8219 26.8095 16.002 23.1899 16.3996C21.7366 16.5577 20.032 17.0442 18.6616 18.3653L20.2665 19.9951C21.1382 19.1547 22.2793 18.7878 23.4418 18.6614L23.4432 18.6613Z" fill="url(#paint1_linear_1005_94)"/>
<defs>
<linearGradient id="paint0_linear_1005_94" x1="30" y1="2" x2="-2.63448" y2="10.7862" gradientUnits="userSpaceOnUse">
<stop stop-color="#9488F0"/>
<stop offset="1" stop-color="#3AEAB5"/>
</linearGradient>
<linearGradient id="paint1_linear_1005_94" x1="30" y1="2" x2="-2.63448" y2="10.7862" gradientUnits="userSpaceOnUse">
<stop stop-color="#9488F0"/>
<stop offset="1" stop-color="#3AEAB5"/>
</linearGradient>
</defs>
</svg>
