<svg width="70" height="70" viewBox="0 0 70 70" fill="none" 
  xmlns="http://www.w3.org/2000/svg">
  <path d="M69.9 35.1C69.9 15.8 54.3 0.100006 35 0.100006C15.7 0.100006 0 15.7 0 35C0 54.3 15.6 70 34.9 70C54.2 70 69.9 54.4 69.9 35.1Z" fill="white"/>
  <path d="M15 52C15 51.4 15 50.9 15 50.3C15.2 50.2 15.4 50.2 15.6 50.2C16.2 50.1 16.7 50 17.3 49.8C17.5 49.8 17.6 49.7 17.7 49.6C18.4 49.3 19.1 48.9 19.6 48.3C19.9 47.9 20.2 47.4 20.5 47C20.9 46.4 21.2 45.7 21.5 45C22.1 43.6 22.6 42.2 23.2 40.8L29 26.5C30.8 22 32.6 17.4 34.4 12.8C34.4 12.7 34.5 12.6 34.5 12.5C35.1 12.3 35.8 12.1 36.5 12C36.5 12.1 36.6 12.2 36.6 12.3L38.8 18.4C41.3 25.4 43.9 32.3 46.5 39.2C47.2 41.1 47.9 43 48.7 44.9C49 45.7 49.3 46.4 49.7 47.2C49.9 47.5 50.1 47.8 50.3 48.1C50.9 49 51.8 49.7 52.9 50C53.5 50.2 54.1 50.3 54.7 50.3L55.1 50.4C55.2 50.6 55.1 50.8 55.1 50.9C55.1 51.1 55.1 51.3 55.1 51.5C55.1 51.7 55.1 51.9 55.1 52C55 52 55 52 54.9 52H39.9V51.9V50.4C39.9 50.4 39.9 50.4 39.9 50.3C40 50.3 40.2 50.2 40.3 50.2C40.9 50.1 41.5 50 42.1 49.9C42.3 49.8 42.6 49.7 42.8 49.7C42.9 49.7 43 49.6 43.1 49.5C43.7 49.2 43.9 48.7 43.9 48C43.9 47.7 43.8 47.4 43.7 47.1C43.6 46.7 43.4 46.2 43.3 45.8C40.2 37.3 37.1 28.8 34.1 20.3C34.1 20.2 34.1 20.1 34 20C34 20 33.9 20 33.9 20.1C33.9 20.1 33.9 20.2 33.8 20.2C32.3 24.4 30.7 28.5 29.2 32.7C28 35.8 26.9 38.8 25.8 41.9C25.4 43.1 24.9 44.4 24.5 45.6C24.3 46.1 24.2 46.6 24.1 47.1C24 47.4 24 47.8 24.1 48.1C24.1 48.3 24.2 48.5 24.3 48.7C24.4 48.9 24.6 49.1 24.7 49.2C24.9 49.4 25.2 49.5 25.5 49.6C25.9 49.8 26.4 49.9 26.9 49.9C27.4 50 27.9 50.1 28.4 50.1H28.5V50.2V51.7V51.8H28.4L15 52Z" fill="black"/>
</svg>