<svg width="70" height="70" viewBox="0 0 70 70" fill="none" xmlns="http://www.w3.org/2000/svg">
<path d="M35 70C54.3305 70 70 54.3305 70 35C70 15.6695 54.3305 0 35 0C15.6695 0 0 15.6695 0 35C0 54.3305 15.6695 70 35 70Z" fill="#E84142"/>
<path fill-rule="evenodd" clip-rule="evenodd" d="M25.082 48.9281H18.2895C16.8622 48.9281 16.1571 48.9281 15.7272 48.6532C15.2629 48.3521 14.9792 47.8534 14.9448 47.303C14.919 46.796 15.2715 46.1767 15.9766 44.9386L32.7482 15.3764C33.4618 14.121 33.8229 13.4934 34.2786 13.2612C34.7687 13.0119 35.3534 13.0119 35.8435 13.2612C36.2992 13.4934 36.6603 14.121 37.3739 15.3764L40.8218 21.3951L40.8394 21.4258C41.6102 22.7725 42.0011 23.4554 42.1717 24.1722C42.3609 24.9547 42.3609 25.7801 42.1717 26.5625C41.9998 27.2848 41.6128 27.9726 40.8304 29.3397L32.0207 44.9128L31.9979 44.9527C31.222 46.3105 30.8288 46.9987 30.2839 47.5179C29.6906 48.0855 28.977 48.498 28.1945 48.7305C27.4809 48.9281 26.6813 48.9281 25.082 48.9281ZM42.2353 48.9281H51.9682C53.4041 48.9281 54.1265 48.9281 54.5566 48.6448C55.0208 48.3437 55.313 47.8362 55.3391 47.2863C55.3638 46.7955 55.019 46.2004 54.3432 45.0342C54.3199 44.9945 54.2966 44.9541 54.2728 44.913L49.3975 36.5728L49.3421 36.4789C48.657 35.3204 48.3112 34.7354 47.867 34.5093C47.3772 34.2599 46.8007 34.2599 46.3109 34.5093C45.8637 34.7414 45.5026 35.3519 44.789 36.5814L39.931 44.9216L39.9144 44.9503C39.2033 46.1779 38.8478 46.7913 38.8735 47.2946C38.9079 47.845 39.1916 48.3521 39.6559 48.6532C40.0772 48.9281 40.7995 48.9281 42.2353 48.9281Z" fill="white"/>
</svg>
