<svg width="28" height="28" viewBox="0 0 28 28" fill="none"
  xmlns="http://www.w3.org/2000/svg">
  <path d="M23.8557 23.976C22.5515 25.2804 20.9987 26.3087 19.2896 26.9996C17.5805 27.6904 15.7502 28.0298 13.9075 27.9974C12.0763 28.0334 10.257 27.6951 8.56075 27.0031C6.8645 26.3111 5.32691 25.2799 4.04191 23.9725C2.72668 22.6897 1.68932 21.1492 0.994493 19.4471C0.299669 17.7451 -0.0377232 15.9179 0.00334585 14.0794C0.00334585 10.0569 1.35183 6.7051 4.0488 4.02414C5.33461 2.71713 6.87292 1.68643 8.56975 0.995006C10.2666 0.303579 12.0863 -0.0340613 13.9178 0.00271111C15.7601 -0.0285515 17.5899 0.311655 19.2984 1.0031C21.0068 1.69454 22.559 2.7231 23.8626 4.02759C26.6193 6.71085 27.9976 10.0638 27.9976 14.0863C28.0325 15.9328 27.6821 17.7662 26.9688 19.4692C26.2556 21.1721 25.1953 22.7071 23.8557 23.976V23.976Z" fill="#C43C86"/>
  <path d="M9.95966 16.4558L18.0229 16.4703L14.0043 9.50566L9.95966 16.4558Z" fill="white"/>
  <path d="M14.0158 4.39999C13.9479 4.40031 13.8812 4.41834 13.8224 4.45231C13.7636 4.48629 13.7147 4.53502 13.6805 4.5937L5.65191 18.3928C5.61791 18.4517 5.60001 18.5185 5.60001 18.5866C5.60001 18.6546 5.61791 18.7214 5.65191 18.7803L10.5436 15.9528L13.9985 10.0058L14.0158 4.39999Z" fill="#EF4B2D"/>
  <path d="M22.3277 18.4218L14.3483 4.5937C14.3145 4.53525 14.2661 4.48662 14.2078 4.45265C14.1494 4.41867 14.0833 4.40052 14.0158 4.39999V10.0087L17.4417 15.9672L22.3248 18.8092C22.3601 18.7508 22.379 18.684 22.3795 18.6159C22.38 18.5477 22.3621 18.4806 22.3277 18.4218V18.4218Z" fill="#9D2063"/>
  <path d="M22.3248 18.8034L17.4418 15.9615H10.5437L5.65195 18.7745C5.68524 18.8333 5.73357 18.8823 5.79198 18.9163C5.8504 18.9503 5.91681 18.9682 5.98442 18.9682L21.9895 18.9971C22.0574 18.9968 22.1241 18.9787 22.1829 18.9448C22.2417 18.9108 22.2906 18.8621 22.3248 18.8034V18.8034Z" fill="#662F8E"/>
</svg>