<svg width="24" height="24" viewBox="0 0 24 24" fill="none" xmlns="http://www.w3.org/2000/svg">
  <path d="M12 24C18.6276 24 24 18.6276 24 12C24 5.3724 18.6276 0 12 0C5.3724 0 0 5.3724 0 12C0 18.6276 5.3724 24 12 24Z" fill="#F3BA2F"/>
  <path d="M11.9999 7.30276L8.67062 10.632L6.73361 8.69476L11.9999 3.42847L17.2679 8.69634L15.3308 10.6335L11.9999 7.30276Z" fill="white"/>
  <path d="M5.36568 10.0624L3.42847 11.9999L5.36554 13.9367L7.30275 11.9995L5.36568 10.0624Z" fill="white"/>
  <path d="M11.9999 16.6971L8.67062 13.368L6.73087 15.3023L11.9999 20.5714L17.2679 15.3036L17.2689 15.3025L15.3307 13.3664L11.9999 16.6971Z" fill="white"/>
  <path d="M18.6343 10.0635L16.697 12.0007L18.6342 13.9378L20.5713 12.0006L18.6343 10.0635Z" fill="white"/>
  <path d="M13.9654 11.9989H13.9647L13.9665 11.9998L13.9655 12.0009L11.9999 13.9666L10.0359 12.0024L10.0332 11.9995L10.0359 11.9969L11.9999 10.0332L13.9654 11.9989Z" fill="white"/>
</svg>
