<svg width="28" height="28" viewBox="0 0 28 28" fill="none" class="gradient-bzx"
  xmlns="http://www.w3.org/2000/svg">
  <path d="M0 14C0 6.26801 6.26801 0 14 0V0C21.732 0 28 6.26801 28 14V14C28 21.732 21.732 28 14 28V28C6.26801 28 0 21.732 0 14V14Z" />
  <path d="M8.14317 1.28025C9.03225 0.8702 9.97164 0.550619 10.9495 0.333313V6.18714H8.14317V1.28025Z" fill="white"/>
  <path d="M0.315041 11.0329C0.526614 10.0524 0.840877 9.11017 1.24601 8.21795H15.6602C17.7649 8.21795 19.4688 9.92701 19.4688 12.0382V15.7579C19.4688 17.869 17.7649 19.5781 15.6602 19.5781H11.9517C9.84702 19.5781 8.14317 17.869 8.14317 15.7579V13.0435H10.9495V15.7377C10.9495 16.3008 11.3904 16.7431 11.9517 16.7431H15.6602C16.2214 16.7431 16.6624 16.3008 16.6624 15.7377V12.0382C16.6624 11.4752 16.2214 11.0329 15.6602 11.0329H0.315041Z" fill="white"/>
</svg>