<svg width="28" height="28" viewBox="0 0 28 28" fill="none"
  xmlns="http://www.w3.org/2000/svg">
  <path d="M23.8619 23.9667C22.5589 25.2723 21.0068 26.3019 19.2981 26.9944C17.5893 27.6869 15.759 28.028 13.9159 27.9975C12.0834 28.0329 10.263 27.6937 8.56592 27.0007C6.86883 26.3076 5.33073 25.2752 4.04563 23.9667C2.73053 22.6845 1.69298 21.145 0.997523 19.4441C0.302063 17.7431 -0.0364295 15.917 0.00310375 14.0795C0.00310375 10.0556 1.35061 6.70346 4.04563 4.02316C5.3316 2.71647 6.8701 1.68602 8.56715 0.994764C10.2642 0.303505 12.0842 -0.034053 13.9159 0.00271045C15.7582 -0.0291927 17.5882 0.310298 19.2968 1.00099C21.0055 1.69167 22.558 2.71945 23.8619 4.02316C26.619 6.70346 27.9975 10.0556 27.9975 14.0795C28.0332 15.925 27.6839 17.7576 26.9717 19.4601C26.2596 21.1626 25.2004 22.6976 23.8619 23.9667Z" fill="#C8C8C8"/>
  <path d="M14 4.3999L8.40002 13.9429L14 11.3277V4.3999Z" fill="#8B8B8B"/>
  <path d="M14 11.3276L8.40002 13.9428L14 17.3404V11.3276Z" fill="#393939"/>
  <path d="M14 4.3999V11.3277L19.5946 13.9429L14 4.3999Z" fill="#343434"/>
  <path d="M14 11.3276V17.3404L19.5946 13.9428L14 11.3276Z" fill="#161616"/>
  <path d="M8.40002 15.032L14 23.1374V18.4323L8.40002 15.032Z" fill="#8B8B8B"/>
  <path d="M19.6 15.032L14 18.4323V23.1374L19.6 15.032Z" fill="#343434"/>
</svg>