<svg width="28" height="28" viewBox="0 0 28 28" fill="none"
  xmlns="http://www.w3.org/2000/svg">
  <path d="M23.8557 23.976C22.5515 25.2804 20.9987 26.3087 19.2896 26.9996C17.5805 27.6904 15.7502 28.0298 13.9075 27.9974C12.0763 28.0334 10.257 27.6951 8.56075 27.0031C6.8645 26.3111 5.32691 25.2799 4.04191 23.9725C2.72668 22.6897 1.68932 21.1492 0.994493 19.4471C0.299669 17.7451 -0.0377232 15.9179 0.00334585 14.0794C0.00334585 10.0569 1.35183 6.7051 4.0488 4.02414C5.33461 2.71713 6.87292 1.68643 8.56975 0.995006C10.2666 0.303579 12.0863 -0.0340613 13.9178 0.00271111C15.7601 -0.0285515 17.5899 0.311655 19.2984 1.0031C21.0068 1.69454 22.559 2.7231 23.8626 4.02759C26.6193 6.71085 27.9976 10.0638 27.9976 14.0863C28.0325 15.9328 27.6821 17.7662 26.9688 19.4692C26.2556 21.1721 25.1953 22.7071 23.8557 23.976V23.976Z" fill="#49BC98"/>
  <path d="M18.8004 8.95408L14.7968 6L14.5947 6.01576C14.4985 6.13597 14.4208 6.26987 14.3643 6.413C14.0103 7.93788 13.6641 9.46664 13.3181 10.9947L13.3179 10.9957L13.3171 10.9991C13.2221 11.4189 13.127 11.8386 13.0318 12.2581C12.9999 12.4029 12.9699 12.5496 12.9358 12.7161L12.9056 12.8634C12.9517 12.8397 12.9912 12.8204 13.0264 12.8033C13.0756 12.7793 13.1164 12.7594 13.155 12.7373L17.4585 10.3665C17.9352 10.108 18.4088 9.84945 18.8825 9.58462C18.93 9.56012 18.9706 9.52393 19.0003 9.47947C19.0301 9.43501 19.048 9.38372 19.0524 9.33045C19.0568 9.27717 19.0476 9.22364 19.0256 9.1749C19.0036 9.12616 18.9696 9.0838 18.9267 9.05182L18.8004 8.95408Z" fill="white"/>
  <path d="M8.98096 9.28827C8.72618 9.46093 8.52754 9.70421 8.40947 9.98817L8.4 18.1505C8.51262 18.357 8.65049 18.5487 8.81046 18.7212C9.71271 19.4629 10.6254 20.1961 11.5369 20.9282L11.5375 20.9287C11.8539 21.1828 12.1701 21.4368 12.4856 21.691C12.6056 21.7887 12.7351 21.8612 12.8866 21.7667C12.9505 21.723 12.998 21.6592 13.0214 21.5855C13.0449 21.5119 13.043 21.4325 13.0161 21.36C12.5383 19.0249 12.0657 16.6877 11.5984 14.3484C11.5621 14.1684 11.5621 13.9829 11.5984 13.8029C12.072 11.472 12.5509 9.14325 13.035 6.81655C13.0697 6.64631 13.0666 6.48867 12.9024 6.39409C12.7382 6.29951 12.6088 6.39094 12.4856 6.49182C12.157 6.75437 11.8286 7.01716 11.5002 7.27992C10.6614 7.95114 9.82279 8.62215 8.98096 9.28827Z" fill="white"/>
  <path d="M14.5663 22C14.4726 21.8856 14.396 21.7581 14.339 21.6217C13.97 19.9971 13.6088 18.3687 13.2477 16.7409C13.1485 16.2933 13.0492 15.8457 12.9498 15.3982C12.9498 15.3522 12.94 15.3061 12.9279 15.2489C12.9218 15.2201 12.9151 15.1883 12.9087 15.1523C12.9385 15.1667 12.9653 15.1794 12.99 15.191C13.0463 15.2175 13.0912 15.2386 13.1329 15.2627L18.7972 18.3933C19.1477 18.5888 19.1603 18.8 18.8288 19.0239L14.7968 21.9559L14.7684 21.9842L14.5663 22Z" fill="white"/>
  <path d="M13.9001 13.4467L13.0824 13.9102L13.2939 14.0394L17.0322 16.1423L19.075 17.3151C19.2708 17.4254 19.4508 17.4065 19.536 17.2583C19.5829 17.1601 19.6046 17.0518 19.5992 16.9431V10.9529C19.5992 10.5179 19.3908 10.3981 19.0119 10.6093L13.9001 13.4467Z" fill="white"/>
</svg>