<svg width="28" height="28" viewBox="0 0 28 28" fill="none"
  xmlns="http://www.w3.org/2000/svg">
  <path d="M23.8557 23.976C22.5515 25.2804 20.9987 26.3087 19.2896 26.9996C17.5805 27.6904 15.7502 28.0298 13.9075 27.9974C12.0763 28.0334 10.257 27.6951 8.56075 27.0031C6.8645 26.3111 5.32691 25.2799 4.04191 23.9725C2.72668 22.6897 1.68932 21.1492 0.994493 19.4471C0.299669 17.7451 -0.0377232 15.9179 0.00334585 14.0794C0.00334585 10.0569 1.35183 6.7051 4.0488 4.02414C5.33461 2.71713 6.87292 1.68643 8.56975 0.995006C10.2666 0.303579 12.0863 -0.0340613 13.9178 0.00271111C15.7601 -0.0285515 17.5899 0.311655 19.2984 1.0031C21.0068 1.69454 22.559 2.7231 23.8626 4.02759C26.6193 6.71085 27.9976 10.0638 27.9976 14.0863C28.0325 15.9328 27.6821 17.7662 26.9688 19.4692C26.2556 21.1721 25.1953 22.7071 23.8557 23.976V23.976Z" fill="#2A5ADA"/>
  <path fill-rule="evenodd" clip-rule="evenodd" d="M14 5.34769L21.6 9.78102V18.619L14 23.0523L6.4 18.619V9.78102L14 5.34769ZM9.6 11.619V16.781L14 19.3477L18.4 16.781V11.619L14 9.05234L9.6 11.619Z" fill="white"/>
</svg>