<svg width="28" height="28" viewBox="0 0 28 28" fill="none"
  xmlns="http://www.w3.org/2000/svg">
  <path d="M23.8557 23.976C22.5515 25.2804 20.9987 26.3087 19.2896 26.9996C17.5805 27.6904 15.7502 28.0298 13.9075 27.9974C12.0763 28.0334 10.257 27.6951 8.56075 27.0031C6.8645 26.3111 5.32691 25.2799 4.04191 23.9725C2.72668 22.6897 1.68932 21.1492 0.994493 19.4471C0.299669 17.7451 -0.0377232 15.9179 0.00334585 14.0794C0.00334585 10.0569 1.35183 6.7051 4.0488 4.02414C5.33461 2.71713 6.87292 1.68643 8.56975 0.995006C10.2666 0.303579 12.0863 -0.0340613 13.9178 0.00271111C15.7601 -0.0285515 17.5899 0.311655 19.2984 1.0031C21.0068 1.69454 22.559 2.7231 23.8626 4.02759C26.6193 6.71085 27.9976 10.0638 27.9976 14.0863C28.0325 15.9328 27.6821 17.7662 26.9688 19.4692C26.2556 21.1721 25.1953 22.7071 23.8557 23.976V23.976Z" fill="#21CCA9"/>
  <path d="M7.36521 9.38234C6.61756 8.91421 5.6 9.40169 5.6 10.228V17.9335C5.6 18.1912 5.82932 18.4 6.11219 18.4C6.39507 18.4 6.62439 18.1912 6.62439 17.9335V10.228C6.62439 10.1529 6.71689 10.1086 6.78486 10.1511L12.1561 13.5142V17.9335C12.1561 18.1912 12.3854 18.4 12.6683 18.4C12.9512 18.4 13.1805 18.1912 13.1805 17.9335V13.2688C13.1805 13.1152 13.0975 12.9714 12.9585 12.8844L7.36521 9.38234Z" fill="white"/>
  <path d="M20.6348 9.38234C21.3824 8.91421 22.4 9.40169 22.4 10.228V17.9335C22.4 18.1912 22.1707 18.4 21.8878 18.4C21.6049 18.4 21.3756 18.1912 21.3756 17.9335V10.228C21.3756 10.1529 21.2831 10.1086 21.2151 10.1511L15.8439 13.5142V17.9335C15.8439 18.1912 15.6146 18.4 15.3317 18.4C15.0488 18.4 14.8195 18.1912 14.8195 17.9335V13.2688C14.8195 13.1152 14.9025 12.9714 15.0415 12.8844L20.6348 9.38234Z" fill="white"/>
</svg>