<svg width="28" height="28" viewBox="0 0 28 28" fill="none"
  xmlns="http://www.w3.org/2000/svg">
  <path d="M27.9779 14.0269C27.9901 6.30979 21.7419 0.0417723 14.0221 0.0269152C6.30234 0.0120581 0.0343313 6.25599 0.0221166 13.9731C0.00990194 21.6903 6.25811 27.9583 13.9779 27.9731C21.6976 27.988 27.9657 21.7441 27.9779 14.0269Z" fill="#3574B9"/>
  <path d="M11.7356 22.7275C11.7356 23.0428 11.5302 23.1532 11.222 23.1532C9.356 22.5355 7.72724 21.3128 6.57237 19.6629C5.4175 18.013 4.79665 16.0218 4.80001 13.9784C4.80339 11.9351 5.43079 9.94605 6.5911 8.30031C7.75141 6.65456 9.38419 5.43779 11.2522 4.82676C11.5543 4.7227 11.7658 4.93397 11.7628 5.2556V6.01552C11.7651 6.12492 11.738 6.2328 11.6846 6.32697C11.6312 6.42114 11.5537 6.49784 11.4607 6.54841C9.9913 7.10047 8.72049 8.11157 7.82114 9.44418C6.92177 10.7768 6.4375 12.3662 6.4342 13.9963C6.43089 15.6263 6.90872 17.2179 7.80268 18.5544C8.69664 19.891 9.96334 20.9077 11.4305 21.4662C11.5237 21.5165 11.6014 21.5931 11.6549 21.6874C11.7083 21.7816 11.7352 21.8897 11.7326 21.9991L11.7356 22.7275Z" fill="white"/>
  <path d="M14.8048 20.0788C14.8014 20.1921 14.7577 20.2999 14.6824 20.3815C14.607 20.463 14.5053 20.5125 14.397 20.5203H13.5783C13.472 20.5128 13.372 20.4651 13.2969 20.3862C13.2218 20.3072 13.1769 20.2024 13.1705 20.0914V18.8301C11.5332 18.6126 10.7175 17.654 10.4124 16.2666C10.4124 16.0553 10.5181 15.8409 10.7145 15.8409H11.6359C11.8383 15.8409 11.938 15.9481 12.0437 16.1562C12.2461 16.9035 12.6479 17.5436 13.9832 17.5468C15.0042 17.5468 15.7202 17.017 15.7232 16.1657C15.7262 15.3143 15.3154 14.9927 13.8865 14.7751C11.7386 14.4598 10.7175 13.8102 10.7205 12.0003C10.7205 10.616 11.7477 9.55026 13.1796 9.34215V8.03672C13.186 7.92602 13.2311 7.82161 13.3062 7.74319C13.3813 7.66477 13.4814 7.61776 13.5874 7.61104H14.4061C14.5121 7.61776 14.6122 7.66477 14.6873 7.74319C14.7624 7.82161 14.8075 7.92602 14.8139 8.03672V9.31692C16.0404 9.53134 16.8561 10.2786 17.0585 11.4516C17.0585 11.6629 16.9558 11.8773 16.7564 11.8773H15.9437C15.7383 11.8773 15.6416 11.7701 15.5359 11.562C15.3335 10.8147 14.823 10.4931 13.9016 10.4931C12.8805 10.4931 12.3669 11.0228 12.3669 11.7543C12.3669 12.4859 12.669 12.9273 14.2037 13.1449C16.3485 13.4602 17.3696 14.1098 17.3666 15.9197C17.3666 17.304 16.3425 18.4738 14.8079 18.7923L14.8048 20.0788Z" fill="white"/>
  <path d="M16.2307 22.7464C16.2307 23.0649 16.4391 23.2793 16.7412 23.1721C18.6091 22.5602 20.2419 21.3435 21.4031 19.6983C22.5643 18.0532 23.1936 16.0649 23.2 14.0215C23.206 9.76152 20.454 6.13218 16.7775 4.84568C16.4693 4.84568 16.2639 4.95604 16.2639 5.27136V6.01867C16.2616 6.12806 16.2887 6.23594 16.3421 6.33012C16.3955 6.42429 16.4731 6.50099 16.566 6.55156C18.033 7.11042 19.2995 8.1274 20.1932 9.46416C21.0869 10.8009 21.5644 12.3926 21.5608 14.0226C21.5572 15.6527 21.0726 17.242 20.1729 18.5744C19.2733 19.9068 18.0023 20.9176 16.5328 21.4694C16.4398 21.5191 16.3622 21.5952 16.3088 21.6889C16.2553 21.7826 16.2283 21.8901 16.2307 21.9991V22.7464Z" fill="white"/>
</svg>