<svg width="28" height="28" viewBox="0 0 28 28" fill="none"
  xmlns="http://www.w3.org/2000/svg">
  <ellipse cx="14" cy="14" rx="14" ry="14" fill="#26A17B"/>
  <path d="M15.546 15.1836V15.1814C15.448 15.1881 14.942 15.2173 13.816 15.2173C12.9156 15.2173 12.2842 15.1926 12.0609 15.1814V15.1836C8.59853 15.0332 6.01602 14.4406 6.01602 13.7291C6.01602 13.0198 8.60081 12.425 12.0609 12.2746V14.5933C12.2865 14.609 12.9361 14.6471 13.8319 14.6471C14.9078 14.6471 15.4457 14.6022 15.546 14.5933V12.2768C19.0015 12.4295 21.5772 13.022 21.5772 13.7313C21.5772 14.4406 18.9992 15.0332 15.546 15.1858V15.1836ZM15.546 12.0367V9.96265H20.3668V6.8H7.24231V9.96265H12.0631V12.0367C8.14494 12.214 5.20001 12.9772 5.20001 13.893C5.20001 14.8088 8.14722 15.5719 12.0631 15.7515V22.4H15.5483V15.7515C19.4596 15.5742 22.4 14.811 22.4 13.8952C22.4 12.9816 19.4596 12.2162 15.5483 12.0389" fill="white"/>
</svg>