<svg width="28" height="28" viewBox="0 0 28 28" fill="none"
  xmlns="http://www.w3.org/2000/svg">
  <path d="M28 14C28 21.7319 21.7319 28 14 28C6.26889 28 0 21.7319 0 14C0 6.26889 6.26889 0 14 0C21.7319 0 28 6.26889 28 14Z" fill="#FFCC4D"/>
  <path d="M9.33312 13.2223C10.407 13.2223 11.2776 12.0035 11.2776 10.5001C11.2776 8.99661 10.407 7.77783 9.33312 7.77783C8.25923 7.77783 7.38867 8.99661 7.38867 10.5001C7.38867 12.0035 8.25923 13.2223 9.33312 13.2223Z" fill="#664500"/>
  <path d="M18.6666 13.2223C19.7405 13.2223 20.6111 12.0035 20.6111 10.5001C20.6111 8.99661 19.7405 7.77783 18.6666 7.77783C17.5927 7.77783 16.7222 8.99661 16.7222 10.5001C16.7222 12.0035 17.5927 13.2223 18.6666 13.2223Z" fill="#664500"/>
  <path d="M19.4443 16.3334C21.1624 16.3334 22.5554 17.7264 22.5554 19.4445C22.5554 21.1626 21.1624 22.5556 19.4443 22.5556H8.55545C6.83734 22.5556 5.44434 21.1626 5.44434 19.4445C5.44434 17.7264 6.83734 16.3334 8.55545 16.3334H19.4443Z" fill="white"/>
  <path d="M19.4443 15.5555H8.55539C6.41106 15.5555 4.6665 17.3001 4.6665 19.4444C4.6665 21.5888 6.41106 23.3333 8.55539 23.3333H19.4443C21.5886 23.3333 23.3332 21.5888 23.3332 19.4444C23.3332 17.3001 21.5886 15.5555 19.4443 15.5555ZM19.4443 17.1111C20.5977 17.1111 21.5521 17.9542 21.7379 19.0555H19.0554V17.1111H19.4443ZM18.2776 17.1111V19.0555H15.9443V17.1111H18.2776ZM15.1665 17.1111V19.0555H12.8332V17.1111H15.1665ZM12.0554 17.1111V19.0555H9.72206V17.1111H12.0554ZM8.55539 17.1111H8.94428V19.0555H6.26173C6.44761 17.9542 7.40195 17.1111 8.55539 17.1111ZM8.55539 21.7778C7.40195 21.7778 6.44761 20.9347 6.26173 19.8333H8.94428V21.7778H8.55539ZM9.72206 21.7778V19.8333H12.0554V21.7778H9.72206ZM12.8332 21.7778V19.8333H15.1665V21.7778H12.8332ZM15.9443 21.7778V19.8333H18.2776V21.7778H15.9443ZM19.4443 21.7778H19.0554V19.8333H21.7379C21.5521 20.9347 20.5977 21.7778 19.4443 21.7778Z" fill="#664500"/>
</svg>