<svg xmlns="http://www.w3.org/2000/svg" width="32" height="32">
    <path fill="#D79E84"
        d="M6.328 20.206c1.75-.446 2.643-2.865 1.996-5.402-.646-2.538-2.59-4.234-4.339-3.788-1.75.446-2.643 2.865-1.997 5.403.647 2.537 2.59 4.233 4.34 3.787ZM30.012 16.42c.647-2.539-.247-4.957-1.996-5.403-1.75-.446-3.693 1.25-4.34 3.787-.647 2.538.247 4.957 1.997 5.403 1.75.446 3.692-1.25 4.34-3.788Z" />
    <path fill="#BF6952"
        d="M16.876 31.611h-1.752c-5.777 0-11.38-4.428-11.38-10.628 0-3.542 1.313-5.313 1.313-5.313s-.437-1.772-.437-3.543c0-5.313 5.602-9.742 11.38-9.742 5.778 0 11.38 5.314 11.38 9.742 0 1.772-.437 3.543-.437 3.543s1.313 1.771 1.313 5.313c0 6.2-5.603 10.628-11.38 10.628Z" />
    <path fill="#D79E84"
        d="M26.37 14.17a6.128 6.128 0 0 0-6.127-6.128A6.106 6.106 0 0 0 16 9.754a6.102 6.102 0 0 0-4.243-1.712A6.128 6.128 0 0 0 5.63 14.17a6.117 6.117 0 0 0 2.562 4.977 9.362 9.362 0 0 0-.676 3.508c0 4.946 3.799 8.013 8.484 8.013 4.685 0 8.485-3.067 8.485-8.013 0-1.246-.242-2.43-.677-3.508a6.113 6.113 0 0 0 2.564-4.977Z" />
    <path fill="#292F33"
        d="M11.556 18.278c.981 0 1.777-1.194 1.777-2.667 0-1.473-.796-2.667-1.777-2.667-.982 0-1.778 1.194-1.778 2.667 0 1.473.796 2.667 1.777 2.667ZM20.445 18.278c.981 0 1.777-1.194 1.777-2.667 0-1.473-.796-2.667-1.777-2.667-.982 0-1.778 1.194-1.778 2.667 0 1.473.796 2.667 1.777 2.667Z" />
    <path fill="#642116"
        d="M16 28.5c2.413 0 4.468-1.227 5.24-2.941.32-.71-.222-1.503-1.028-1.503h-8.424c-.806 0-1.347.793-1.028 1.503.771 1.714 2.827 2.941 5.24 2.941ZM14.667 20.999c.49 0 .889-.422.889-.943 0-.521-.398-.944-.89-.944-.49 0-.888.423-.888.944 0 .52.398.943.889.943ZM17.333 20.945a.889.889 0 1 0 0-1.778.889.889 0 0 0 0 1.777Z" />
    <path fill="#BF6952"
        d="M19.77.651s-4.713-.943-6.598 1.886c-1.886 2.828 3.77.943 3.77.943S17.885.65 19.771.65ZM32 32.501l-12.444-3.556 2.666-5.334L32 25.39V32.5Zm-32 0 12.444-3.556-2.666-5.334L0 25.39V32.5Z" />
    <path fill="#D79E84"
        d="M10.995 22.723s.105-1.12.083-2.417c-.027-1.694-2.295-2.535-3-.944-.861 1.945-1.945 6.612-1.306 8.583.64 1.972 2.25 3.528 5.862 3.417 3.611-.11 6.75-.805 7.723-1.417.972-.611.75-2.114-.361-2.36-1-.223-3.75.222-3.75.222s2.89-.617 3.694-1.139c1.11-.722.5-2.306-.584-2.333-1.068-.028-3.722.416-3.722.416s2.528-.666 3.333-1.36c.796-.686.5-2.195-.916-2.25-1.416-.055-5.723.86-7.056 1.582Z" />
    <path fill="#BF6952"
        d="M12.272 31.813c-3.129 0-5.12-1.254-5.922-3.73-.716-2.21.498-7.039 1.322-8.9.372-.841 1.156-1.255 2.042-1.071.884.178 1.79.987 1.809 2.188.01.661-.01 1.273-.034 1.722 1.827-.688 5.303-1.386 6.578-1.325.81.032 1.439.463 1.68 1.157a1.73 1.73 0 0 1-.71 2.04c.12-.004.232-.005.33-.003.714.019 1.332.524 1.539 1.257.209.741-.069 1.467-.725 1.893a1.934 1.934 0 0 1-.164.096l.074.015a1.673 1.673 0 0 1 1.3 1.374 1.759 1.759 0 0 1-.799 1.796c-1.005.633-4.132 1.368-7.945 1.486-.127.002-.252.005-.375.005Zm-2.95-12.852c-.26 0-.624.098-.838.58-.9 2.036-1.86 6.502-1.288 8.267.707 2.184 2.483 3.215 5.424 3.11 3.478-.107 6.6-.783 7.5-1.349a.868.868 0 0 0 .395-.894.787.787 0 0 0-.616-.657c-.754-.167-2.841.108-3.584.227a.444.444 0 0 1-.163-.873c.782-.167 2.944-.685 3.545-1.076a.78.78 0 0 0 .353-.908c-.081-.286-.336-.6-.706-.61-1.044-.043-3.612.407-3.637.411a.445.445 0 0 1-.187-.869c.675-.178 2.56-.754 3.156-1.268a.84.84 0 0 0 .232-.907c-.07-.2-.277-.538-.875-.562-1.29-.054-5.551.839-6.827 1.53a.446.446 0 0 1-.655-.433c.001-.01.102-1.111.082-2.367a1.386 1.386 0 0 0-1.097-1.332 1.114 1.114 0 0 0-.213-.02Z" />
    <path fill="#D79E84"
        d="M21.005 22.723s-.105-1.12-.083-2.417c.027-1.694 2.295-2.535 3-.944.861 1.945 1.945 6.612 1.305 8.583-.639 1.972-2.25 3.528-5.86 3.417-3.612-.11-6.751-.805-7.724-1.417-.972-.611-.75-2.114.361-2.36 1-.223 3.75.222 3.75.222s-2.89-.617-3.694-1.139c-1.11-.722-.5-2.306.583-2.333 1.069-.028 3.723.416 3.723.416s-2.528-.666-3.333-1.36c-.796-.686-.5-2.195.916-2.25 1.416-.055 5.723.86 7.056 1.582Z" />
    <path fill="#BF6952"
        d="M19.728 31.813c-.123 0-.248-.003-.376-.006-3.813-.118-6.94-.853-7.945-1.486a1.758 1.758 0 0 1-.797-1.796 1.672 1.672 0 0 1 1.299-1.374l.073-.015a2.235 2.235 0 0 1-.163-.096c-.657-.425-.935-1.152-.725-1.893.207-.733.826-1.239 1.539-1.257.099-.002.21 0 .33.003a1.735 1.735 0 0 1-.711-2.04c.241-.693.87-1.125 1.68-1.157 1.273-.044 4.752.638 6.578 1.325a25.821 25.821 0 0 1-.034-1.722c.02-1.2.925-2.01 1.809-2.188.892-.183 1.67.23 2.042 1.07.825 1.862 2.038 6.69 1.322 8.901-.801 2.476-2.792 3.73-5.921 3.73Zm-6.955-3.848a3.3 3.3 0 0 0-.67.053.787.787 0 0 0-.617.657c-.049.281.03.664.395.894.9.566 4.022 1.241 7.5 1.349 2.933.09 4.718-.926 5.424-3.11.573-1.764-.388-6.23-1.288-8.266-.284-.64-.83-.606-1.054-.56a1.386 1.386 0 0 0-1.096 1.331c-.02 1.256.081 2.358.082 2.37a.442.442 0 0 1-.198.41.442.442 0 0 1-.457.02c-1.276-.69-5.5-1.587-6.827-1.53-.599.024-.806.362-.875.562a.84.84 0 0 0 .232.908c.596.515 2.48 1.09 3.156 1.268a.445.445 0 0 1-.188.869c-.026-.005-2.632-.438-3.637-.41-.37.009-.626.322-.707.609a.781.781 0 0 0 .354.907c.602.39 2.763.91 3.545 1.077a.444.444 0 0 1-.163.873c-.576-.094-1.967-.281-2.91-.281Z" />
    <path fill="#9B3C07"
        d="M8.572 19.402a8.941 8.941 0 0 1-.72-.545 2.12 2.12 0 0 0-.18.326c-.474 1.067-1.07 3.108-1.362 5.073l-1.91.4 2.666.782.138-1.127c.263-1.754.777-3.637 1.279-4.77.026-.057.06-.092.089-.139Zm17.131 4.94c-.286-1.99-.895-4.077-1.375-5.16a2.013 2.013 0 0 0-.192-.338c-.226.192-.459.377-.701.555.027.045.056.089.08.143.612 1.381 1.25 3.88 1.417 5.897l2.686-.783-1.915-.313Z" />

</svg>