<svg width="60" height="24" viewBox="0 0 60 24" fill="none" xmlns="http://www.w3.org/2000/svg">
<path d="M60 1.74846e-07L60 24L-1.04907e-06 24L6.09375 12L0 -2.62268e-06L60 1.74846e-07Z" fill="#6046FF"/>
<path fill-rule="evenodd" clip-rule="evenodd" d="M31.7614 16V8H34.7039C35.3409 8 35.891 8.09433 36.3543 8.28299C36.8248 8.47165 37.1867 8.75827 37.44 9.14285C37.6934 9.52743 37.8201 10.01 37.8201 10.5905V10.7646C37.8201 11.3524 37.6898 11.8349 37.4292 12.2122C37.1758 12.5895 36.8175 12.8725 36.3543 13.0612C36.3344 13.0693 36.3143 13.0772 36.2941 13.085L38.4064 16H36.604L34.7378 13.3441L34.7039 13.3442H33.3032V16H31.7614ZM33.3032 12.0925V9.317H34.8667C35.149 9.317 35.3915 9.37505 35.5942 9.49115C35.8041 9.60725 35.967 9.77051 36.0828 9.98094C36.1986 10.1914 36.2565 10.4345 36.2565 10.7102C36.2565 10.9787 36.1986 11.2181 36.0828 11.4286C35.967 11.639 35.8041 11.8022 35.5942 11.9183C35.3915 12.0344 35.149 12.0925 34.8667 12.0925H33.3032Z" fill="white"/>
<path d="M25 16V8H30.1043V9.36054H26.5418V11.7041L29.5 11.6939V13L26.5418 13.0102V16H25Z" fill="white"/>
<path d="M47.114 8V16H52V14.6938H48.6232V12.6149H51.7177V11.3088H48.6232V9.36054H52V8H47.114Z" fill="white"/>
<path d="M40 8V16H44.886V14.6939H41.5092V12.615H44.6037V11.3089H41.5092V9.36058H44.886V8H40Z" fill="white"/>
<rect x="11" y="7" width="8" height="1" rx="0.5" fill="white"/>
<rect x="11" y="16" width="8" height="1" rx="0.5" fill="white"/>
<path d="M12 8H18C18 8 18 11 15.4286 12C18 13 18 16 18 16H12C12 16 12 13 14.5714 12C12 11 12 8 12 8Z" fill="#8CBAFF"/>
</svg>
