<svg width="40" height="44" viewBox="0 0 40 44" fill="none"
  xmlns="http://www.w3.org/2000/svg">
  <path d="M3.44199e-06 0L40 6.99382e-06L40 44L20 36.8063L-7.6932e-06 44L3.44199e-06 0Z" fill="#6046FF"/>
  <path fill-rule="evenodd" clip-rule="evenodd" d="M12.7614 15V7H15.7039C16.3409 7 16.891 7.09433 17.3543 7.28299C17.8248 7.47165 18.1867 7.75827 18.44 8.14285C18.6934 8.52743 18.8201 9.00997 18.8201 9.59046V9.76461C18.8201 10.3524 18.6898 10.8349 18.4292 11.2122C18.1758 11.5895 17.8175 11.8725 17.3543 12.0612C17.3344 12.0693 17.3143 12.0772 17.2941 12.085L19.4064 15H17.604L15.7378 12.3441L15.7039 12.3442H14.3032V15H12.7614ZM14.3032 11.0925V8.317H15.8667C16.149 8.317 16.3915 8.37505 16.5942 8.49115C16.8041 8.60725 16.967 8.77051 17.0828 8.98094C17.1986 9.19137 17.2565 9.43445 17.2565 9.71019C17.2565 9.97867 17.1986 10.2181 17.0828 10.4286C16.967 10.639 16.8041 10.8022 16.5942 10.9183C16.3915 11.0344 16.149 11.0925 15.8667 11.0925H14.3032Z" fill="white"/>
  <path d="M6 15V7H11.1043V8.36054H7.5418V10.7041L10.5 10.6939V12L7.5418 12.0102V15H6Z" fill="white"/>
  <path d="M28.114 7V15H33V13.6938H29.6232V11.6149H32.7177V10.3088H29.6232V8.36054H33V7H28.114Z" fill="white"/>
  <path d="M21 7V15H25.886V13.6939H22.5092V11.615H25.6037V10.3089H22.5092V8.36058H25.886V7H21Z" fill="white"/>
  <rect x="16" y="21" width="8" height="1" rx="0.5" fill="white"/>
  <rect x="16" y="30" width="8" height="1" rx="0.5" fill="white"/>
  <path d="M17 22H23C23 22 23 25 20.4286 26C23 27 23 30 23 30H17C17 30 17 27 19.5714 26C17 25 17 22 17 22Z" fill="#8CBAFF"/>
</svg>

