<svg xmlns="http://www.w3.org/2000/svg" fill="none" viewBox="0 0 24 24" width="24" height="24"><path fill="#F4900C" d="M22.333 12C23.253 12 24 10.955 24 9.667c0-1.289-.746-2.334-1.667-2.334-.92 0-1.666 1.045-1.666 2.334 0 1.288.746 2.333 1.666 2.333zM1.667 12c.92 0 1.666-1.045 1.666-2.333 0-1.289-.746-2.334-1.666-2.334C.747 7.333 0 8.378 0 9.667 0 10.955.746 12 1.667 12z"/><path fill="#FFAC33" d="M22.667 12.667a.666.666 0 01-.667.666h-2a.666.666 0 01-.666-.666v-6c0-.368.297-.667.666-.667h2c.369 0 .667.299.667.667v6zm-18 0a.666.666 0 01-.667.666H2a.666.666 0 01-.667-.666v-6c0-.368.3-.667.667-.667h2c.368 0 .667.299.667.667v6z"/><path fill="#FFCC4D" d="M18.667 3.333C18.667 5.174 15.68 6 12 6c-3.682 0-6.667-.826-6.667-2.667C5.333 1.493 8.319 0 12 0c3.681 0 6.667 1.493 6.667 3.333z"/><path fill="#F4900C" d="M16.667 2.722c0 1.074-2.09 1.945-4.667 1.945s-4.667-.871-4.667-1.945S9.424.777 12 .777s4.667.871 4.667 1.945z"/><path fill="#269" d="M20 3.667c0 .92-.746 1-1.667 1H5.667c-.921 0-1.667-.08-1.667-1C4 2.746 4.746 2 5.667 2h12.666C19.254 2 20 2.746 20 3.667z"/><path fill="#55ACEE" d="M20 4H4c-.736 0-1.333.597-1.333 1.333v17.334h18.666V5.333C21.333 4.597 20.736 4 20 4z"/><path fill="#3B88C3" d="M23.333 22v-.667c0-.736-.597-1.333-1.333-1.333h-7.286l-2.243 2.243a.666.666 0 01-.942 0L9.286 20H2c-.736 0-1.333.597-1.333 1.333V22c0 .736-.07 1.333.666 1.333h21.334c.736 0 .666-.597.666-1.333z"/><path fill="#fff" d="M16.334 12.667a3 3 0 100-6 3 3 0 000 6z"/><path fill="#DD2E44" d="M16.334 11.48a1.814 1.814 0 100-3.627 1.814 1.814 0 000 3.628z"/><path fill="#fff" d="M7.667 12.667a3 3 0 100-6 3 3 0 000 6z"/><path fill="#F5F8FA" d="M19.333 17c0 .92-.746 1.667-1.666 1.667H6.332a1.666 1.666 0 110-3.334h11.334c.92 0 1.666.746 1.666 1.667z"/><path fill="#CCD6DD" d="M11.333 15.333h1.333v3.334h-1.333v-3.334zm-3.333 0h1.333v3.334H8v-3.334zm6.666 0H16v3.334h-1.334v-3.334zM4.666 17c0 .807.573 1.479 1.334 1.633v-3.266A1.667 1.667 0 004.667 17zM18 15.367v3.266a1.667 1.667 0 000-3.266z"/><path fill="#DD2E44" d="M7.667 11.48a1.814 1.814 0 100-3.627 1.814 1.814 0 000 3.628z"/></svg>