<svg width="24" height="24" viewBox="0 0 24 24" fill="none"
  xmlns="http://www.w3.org/2000/svg">
  <g clip-path="url(#bull)">
    <path d="M22.6086 9.57998C22.3926 8.40131 21.318 7.33331 20.0006 7.33331H6.00063C5.33397 7.33331 2.45063 7.35665 2.00063 8.66665L0.461301 12.87C0.0113014 14.18 0.667301 16.058 2.01863 16.058C2.7853 16.058 3.7493 16.0393 4.68397 16.0233C6.67797 18.6973 8.5993 24 9.33397 24C9.89997 24 10.382 21.724 10.5753 20H18.0753C18.2313 21.6853 18.6373 24 19.334 24C19.97 24 21.3186 21.1326 22.0913 16.722C22.3786 15.4546 22.5753 13.7766 22.6406 11.624C22.6566 11.7386 22.6673 11.8613 22.6673 12V18C22.6673 18.3686 22.9653 18.6666 23.334 18.6666C23.7026 18.6666 24.0006 18.3686 24.0006 18V12C24.0006 10.7953 23.5013 9.96465 22.6086 9.57998V9.57998Z" fill="#C1694F"/>
    <path d="M6.66667 7.99999C5.33333 9.33332 3.47267 7.33332 2 7.33332C0.527333 7.33332 0 7.04399 0 6.68732C0 6.33065 1.194 6.04132 2.66667 6.04132C4.13933 6.04132 8 6.66665 6.66667 7.99999Z" fill="#CCD6DD"/>
    <path d="M3.9987 11.3333C4.36689 11.3333 4.66536 11.0349 4.66536 10.6667C4.66536 10.2985 4.36689 10 3.9987 10C3.63051 10 3.33203 10.2985 3.33203 10.6667C3.33203 11.0349 3.63051 11.3333 3.9987 11.3333Z" fill="#292F33"/>
  </g>
  <defs>
    <clipPath id="bull">
      <rect width="24" height="24" fill="white"/>
    </clipPath>
  </defs>
</svg>