<svg width="32" height="32" viewBox="0 0 32 32" fill="none" xmlns="http://www.w3.org/2000/svg">
<path d="M20.5867 26.0646C20.5214 25.9446 20.4201 25.8633 20.3081 25.8039C19.2434 24.6666 20.0001 23.3326 20.0001 23.3326C20.0001 22.9639 20.6667 21.9993 20.0001 21.9993L19.3334 22.6659C18.6667 23.3326 18.6667 25.3326 18.6667 25.3326H17.3334C16.9647 25.3326 16.6667 25.6306 16.6667 25.9993C16.6667 26.3679 16.9647 26.6659 17.3334 26.6659H18.0714L17.9234 26.7459C17.5994 26.9213 17.4787 27.3253 17.6541 27.6493C17.8294 27.9732 18.2334 28.0939 18.5581 27.9186L20.3174 26.9673C20.6414 26.7926 20.7621 26.3886 20.5867 26.0646ZM15.9201 26.0646C15.8554 25.9446 15.7534 25.8633 15.6421 25.8039C14.5774 24.6666 15.3334 23.3326 15.3334 23.3326C15.3334 22.9639 16.0001 21.9993 15.3334 21.9993L14.6667 22.6659C14.0001 23.3326 14.0001 25.3326 14.0001 25.3326H12.6667C12.2981 25.3326 12.0001 25.6306 12.0001 25.9993C12.0001 26.3679 12.2981 26.6659 12.6667 26.6659H13.4054L13.2574 26.7459C12.9334 26.9213 12.8127 27.3253 12.9881 27.6493C13.1634 27.9732 13.5674 28.0939 13.8921 27.9186L15.6514 26.9673C15.9747 26.7926 16.0954 26.3886 15.9201 26.0646ZM9.01074 10.6666C9.01074 11.4026 8.26474 11.9999 7.34408 11.9999C6.42341 11.9999 5.01074 11.3333 5.01074 10.6666C5.01074 9.99992 6.42341 9.33325 7.34408 9.33325C8.26408 9.33325 9.01074 9.93059 9.01074 10.6666Z" fill="#FFAC33"/>
<path d="M13.0107 5.33333C11.6774 4.66667 11.0107 6 11.0107 6C11.0107 6 11.0107 4 9.01074 4C7.01074 4 7.01074 6 7.01074 6C7.01074 6 5.01074 5.37467 5.01074 7.33333C5.01074 8.32133 5.74474 8.94067 6.66674 8.92467V12C6.66674 12.6667 6.84208 14 6.17541 14.6667C5.50874 15.3333 4.51941 17.3333 6.51941 17.3333C8.51941 17.3333 8.51941 14.6667 8.51941 12.6667C9.18608 13.3333 11.1861 13.3333 11.1861 10C11.1861 9.422 11.0441 8.992 10.8194 8.66667H11.6774C14.3441 8.66667 14.3441 6 13.0107 5.33333Z" fill="#DD2E44"/>
<path d="M25.6774 10.0001C28.344 16.6667 25.6774 24.6667 17.0107 24.6667C11.856 24.6667 8.34404 20.6667 7.67737 17.3334C6.8927 13.4114 7.0107 12.0001 7.0107 9.33341C7.0107 7.50807 8.4227 6.11741 10.344 6.66674C15.0107 8.00007 13.6774 13.3334 18.344 13.3334C25.0107 13.3334 23.8307 5.38474 25.6774 10.0001Z" fill="#E1E8ED"/>
<path d="M9.0109 10.0001C9.37909 10.0001 9.67757 9.7016 9.67757 9.33341C9.67757 8.96522 9.37909 8.66675 9.0109 8.66675C8.64272 8.66675 8.34424 8.96522 8.34424 9.33341C8.34424 9.7016 8.64272 10.0001 9.0109 10.0001Z" fill="#292F33"/>
</svg>
