<svg xmlns="http://www.w3.org/2000/svg" width="32" height="32" viewBox="0 0 32 32"><path fill="#50A5E6" d="M16 32c8.837 0 16-7.163 16-16S24.837 0 16 0 0 7.163 0 16s7.163 16 16 16z"/><path fill="#1C6399" d="M10.653 16.612c1.228 0 2.223-1.393 2.223-3.111 0-1.719-.995-3.112-2.223-3.112-1.227 0-2.222 1.393-2.222 3.112 0 1.718.995 3.11 2.222 3.11zM21.32 16.612c1.227 0 2.222-1.393 2.222-3.111 0-1.719-.995-3.112-2.222-3.112-1.227 0-2.222 1.393-2.222 3.112 0 1.718.995 3.11 2.222 3.11z"/><path fill="#fff" d="M22.209 19.407a3.556 3.556 0 010 7.111H9.765a3.556 3.556 0 010-7.11h12.444z"/><path fill="#1C6399" d="M22.209 18.5H9.765a4.45 4.45 0 00-4.445 4.444 4.45 4.45 0 004.445 4.444h12.444a4.45 4.45 0 004.444-4.444A4.45 4.45 0 0022.21 18.5zm0 1.777c1.318 0 2.409.964 2.621 2.223h-3.065v-2.223h.444zm-1.333 0V22.5h-2.667v-2.223h2.667zm-3.556 0V22.5h-2.667v-2.223h2.667zm-3.556 0V22.5h-2.666v-2.223h2.666zm-4 0h.445V22.5H7.142a2.666 2.666 0 012.623-2.223zm0 5.334a2.664 2.664 0 01-2.62-2.223h3.065v2.223h-.444zm1.334 0v-2.223h2.666v2.223h-2.666zm3.555 0v-2.223h2.667v2.223h-2.667zm3.556 0v-2.223h2.667v2.223h-2.667zm4 0h-.444v-2.223h3.065a2.664 2.664 0 01-2.621 2.223z"/><path fill="#BBDDF5" d="M31.783 13.5c0-.395-.04 1.992-3.335 3.017-1.299.405-1.145 2.294-1.124 2.802.07 1.756.353 3.46.441 3.904.09.45.451 1.872.535 2.301.094.473.215 2.139.296 2.554.1.5.192.86.267 1.243.164.826.377 1.42.74 1.42s.37-1 .532-1.825c.076-.381.095-.7.194-1.199.082-.412.323-3.236.413-3.694.086-.436.566-2.283.653-2.726.089-.45.354-2.217.425-2.648.425-2.575-.037-5.148-.037-5.149zM.278 19c0-.258.545 1.035 1.02 1.323.614.371 1.094 1.066 1.814 1.677.72.61.718 1.755.69 2.306-.121 2.36-.432 4.71-.5 5-.067.294-.318 2.509-.649 2.509-.33 0-.491-.78-.616-1.32l-.2-.867c-.062-.269-.106-.561-.177-.868-.064-.28-.375-2.3-.441-2.59-.068-.294-.361-1.46-.426-1.74-.071-.308-.101-.608-.169-.877C.334 22.397.278 19 .278 19z"/><path fill="#1C6399" d="M5.32 10.111a.89.89 0 01-.003-1.778c.139-.001 3.173-.076 5.516-3.2A.89.89 0 0112.255 6.2c-2.9 3.867-6.77 3.911-6.934 3.911zm21.334 0c-.163 0-4.033-.044-6.933-3.911a.888.888 0 111.421-1.067c2.348 3.13 5.389 3.2 5.517 3.2a.89.89 0 01.88.894.885.885 0 01-.885.884z"/><path fill="#BBDDF5" d="M21.57 1S20.689.626 20.4.537c-.256-.078-1.061-.245-1.56-.341-.555-.108-1.15-.103-1.15-.103s-.026.358.102.911c.103.447.36 1.065.407 1.386.052.348.06.76.125 1.198.057.38.114.783.175 1.193.06.397.162.795.222 1.192.062.413.09.823.148 1.203.066.44-.009.87.044 1.219.107.716.296 1.717.5 1.717.203 0 .383-.906.49-1.625.053-.347-.024-.618.042-1.056.057-.379.105-.755.167-1.166.06-.397.108-.784.167-1.18.062-.413.054-.815.111-1.195.066-.441.323-.984.375-1.334C20.871 1.84 21.57 1 21.57 1zM5.222 8.337s.65-.146 1.269-.275c.402-.083.721-.408 1.38-.648.685-.25 1.126-.466 1.126-.466s.056 1.16-.097 1.74c-.123.466-.188 1.068-.245 1.403-.062.363-.097.79-.175 1.248-.068.396-.192.81-.266 1.24-.07.415-.128.901-.199 1.316-.074.431-.093.802-.162 1.2-.079.46-.02.506-.082.87-.13.75-.147.646-.189 1.055-.042.407-.35.458-.483.16-.134-.3.008-.464-.121-1.216-.063-.362-.29-1.321-.365-1.75-.07-.416-.167-1.066-.238-1.482-.074-.43-.092-1.126-.16-1.524-.08-.46-.2-.745-.263-1.11-.129-.747-.73-1.761-.73-1.761z"/></svg>