<svg width="28" height="33" viewBox="0 0 28 33" fill="none"
  xmlns="http://www.w3.org/2000/svg">
  <path d="M28 14C28 21.7319 21.7319 28 14 28C6.26811 28 0 21.7319 0 14C0 6.26811 6.26811 0 14 0C21.7319 0 28 6.26811 28 14Z" fill="#FFCC4D"/>
  <path d="M17.111 20.9999C17.111 23.1489 15.718 23.3333 13.9999 23.3333C12.281 23.3333 10.8888 23.1489 10.8888 20.9999C10.8888 18.8525 12.281 16.3333 13.9999 16.3333C15.718 16.3333 17.111 18.8525 17.111 20.9999ZM23.3332 11.6666C23.2368 11.6666 23.1388 11.6487 23.0447 11.6106C18.9777 9.98426 17.3109 7.53426 17.2417 7.43082C17.0029 7.07304 17.0993 6.59004 17.4571 6.35204C17.8141 6.11404 18.2948 6.20893 18.5343 6.56515C18.5491 6.58615 20.0355 8.73126 23.6218 10.1655C24.0208 10.3257 24.2152 10.7776 24.0558 11.1766C23.9337 11.4815 23.6412 11.6666 23.3332 11.6666ZM4.66657 11.6666C4.35779 11.6666 4.06613 11.4815 3.94401 11.1774C3.78457 10.7784 3.97824 10.3257 4.37724 10.1663C7.96435 8.73204 9.45068 6.58693 9.46546 6.56593C9.70501 6.21126 10.188 6.11715 10.5442 6.35593C10.8997 6.59548 10.9961 7.07537 10.7581 7.4316C10.6889 7.53504 9.02213 9.98504 4.9559 11.6114C4.86101 11.6487 4.76301 11.6666 4.66657 11.6666Z" fill="#664500"/>
  <path d="M18.6666 12.4443H21.7777V27.2221L18.6666 27.1863V12.4443ZM6.22217 27.2221L9.33328 27.1863V12.4443H6.22217V27.2221Z" fill="#5DADEC"/>
  <path d="M11.6661 14.0001C11.5494 14.0001 11.4304 13.9736 11.3192 13.9184C8.58765 12.5526 5.82032 13.9044 5.79309 13.9184C5.40809 14.1121 4.94143 13.9542 4.74932 13.5707C4.5572 13.1865 4.71276 12.7191 5.09698 12.527C5.23854 12.457 8.59543 10.8182 12.0153 12.527C12.3995 12.7191 12.5551 13.1865 12.363 13.5707C12.2261 13.843 11.9515 14.0001 11.6661 14.0001ZM22.555 14.0001C22.4383 14.0001 22.3193 13.9736 22.2081 13.9184C19.4758 12.5526 16.7092 13.9044 16.682 13.9184C16.2978 14.1113 15.8311 13.955 15.6382 13.5707C15.4461 13.1865 15.6016 12.7191 15.9859 12.527C16.1274 12.457 19.4866 10.819 22.9042 12.527C23.2884 12.7191 23.444 13.1865 23.2519 13.5707C23.115 13.843 22.8404 14.0001 22.555 14.0001Z" fill="#664500"/>
  <path d="M14 33C22.5 33 28 27.3284 28 26.5C28 25.6716 21.732 25 14 25C6.26801 25 0 25.6716 0 26.5C0 27.3284 5.5 33 14 33Z" fill="#5DADEC"/>
  <path d="M13.9998 22.5555C15.2885 22.5555 16.3332 21.859 16.3332 20.9999C16.3332 20.1408 15.2885 19.4443 13.9998 19.4443C12.7112 19.4443 11.6665 20.1408 11.6665 20.9999C11.6665 21.859 12.7112 22.5555 13.9998 22.5555Z" fill="#E75A70"/>
</svg>