<svg xmlns="http://www.w3.org/2000/svg" fill="none" viewBox="0 0 36 36" width="36" height="36"><path fill="#99AAB5" d="M34.453 15.573c-.864-7.3-5.729-10.447-13.93-10.447-.39 0-.763.017-1.139.03l-.035-.03C14.655 1.605 4.091 2.779 1.745 6.3c-3.255 4.883-1.174 22.3 0 24.646 1.173 2.35 4.694 3.52 5.868 2.35 1.174-1.176 0-1.176-1.173-3.521-.85-1.701-.466-5.86.255-8.471.028.168.068.322.1.486.39 2.87 1.993 7.412 1.993 9.744 0 3.564 2.102 4.107 4.694 4.107 2.593 0 4.695-.543 4.695-4.107 0-.24-.008-.463-.012-.695.757.064 1.535.107 2.36.107.496 0 .976-.016 1.447-.04-.004.21-.013.41-.013.628 0 3.564 2.103 4.107 4.694 4.107 2.593 0 4.695-.543 4.695-4.107 0-1.801 1.192-4.625 2.04-6.982.158-.354.29-.732.42-1.117.117 1.307.192 2.706.192 4.206a1 1 0 102 0c0-5.153-.77-9.248-1.547-12.068z"/><path fill="#66757F" d="M19.35 5.127S23 10.642 20 15.642c-3 5-7.838 5-11 5-2 0-1 2 0 2 1.414 0 8.395 1.211 12-6 3-6-1.65-11.515-1.65-11.515z"/><path fill="#292F33" d="M6.5 15.64a1.5 1.5 0 100-3 1.5 1.5 0 000 3z"/></svg>