<svg width="20" height="20" viewBox="0 0 20 20" fill="none" xmlns="http://www.w3.org/2000/svg"><path d="M9.2002 5.65032C9.38907 5.90196 9.68536 6.05005 10 6.05005C10.3146 6.05005 10.6109 5.90196 10.7998 5.65032C10.9958 5.38922 11.2338 5.15641 11.5057 4.96178C12.054 4.56922 12.7377 4.33333 13.4868 4.33333C15.347 4.33333 16.7778 5.76429 16.7778 7.43615C16.7778 9.05631 15.9085 10.8196 14.5078 12.3797C13.2085 13.8268 11.5479 14.9889 9.99998 15.6002C8.45186 14.9889 6.79123 13.8269 5.49202 12.3798C4.0914 10.8197 3.22222 9.05644 3.22222 7.43615C3.22222 5.76401 4.65291 4.33333 6.51359 4.33333C7.2624 4.33333 7.94596 4.56919 8.4943 4.96176C8.76615 5.15639 9.00424 5.38921 9.2002 5.65032Z" stroke="#9488F0" stroke-width="2" stroke-linejoin="round"/></svg>
