<svg xmlns="http://www.w3.org/2000/svg" width="20" height="20" viewBox="0 0 20 20"><path fill="#FFCC4D" d="M20 10c0 5.523-4.477 10-10 10S0 15.523 0 10 4.477 0 10 0s10 4.477 10 10z"/><path fill="#664500" d="M10 12.138c-1.648 0-2.742-.192-4.094-.455-.31-.059-.91 0-.91.91 0 1.82 2.09 4.094 5.004 4.094 2.913 0 5.004-2.274 5.004-4.094 0-.91-.601-.969-.91-.91-1.352.263-2.446.455-4.094.455z"/><path fill="#DD2E44" d="M9.25 1.823a2.592 2.592 0 00-4.936.141A2.592 2.592 0 00.384 4.95c.068.19.158.368.263.532 1.084 1.99 4.215 3.389 6.111 3.406C8.223 7.685 9.784 4.63 9.38 2.402a2.618 2.618 0 00-.129-.58zm1.5 0a2.594 2.594 0 014.936.141 2.592 2.592 0 013.93 2.987 2.62 2.62 0 01-.262.532c-1.084 1.99-4.216 3.389-6.112 3.406-1.465-1.204-3.025-4.258-2.62-6.487.02-.194.061-.388.128-.58z"/></svg>