<svg width="32" height="32" viewBox="0 0 32 32" fill="none" xmlns="http://www.w3.org/2000/svg">
<path d="M26.6666 29.3333C24.5182 29.3333 22.2222 28.1662 22.2222 24.8888C22.2222 23.0479 23.216 21.7973 24.1769 20.5884C24.5529 20.1155 24.9333 19.6373 25.2782 19.1075C23.896 17.8462 22.3751 16.8888 21.3333 16.8888V15.1111C22.7742 15.1111 24.536 16.1182 26.1173 17.4844C26.4533 16.5999 26.6666 15.5493 26.6666 14.2222H28.4444C28.4444 16.1502 28.0462 17.6142 27.4871 18.7991C28.7715 20.1697 29.7902 21.6702 30.176 22.8293C30.7875 24.6657 30.6053 26.5875 29.7004 27.8444C29.0089 28.8044 27.9306 29.3333 26.6666 29.3333ZM26.5511 20.3982C26.224 20.8693 25.8871 21.2942 25.5689 21.6942C24.6924 22.7964 24 23.6684 24 24.8888C24 27.0924 25.4506 27.5555 26.6666 27.5555C27.3635 27.5555 27.8995 27.3031 28.2586 26.8044C28.8275 26.0151 28.9173 24.6755 28.4906 23.3919C28.2 22.5226 27.4684 21.4346 26.5511 20.3982Z" fill="#99AAB5"/>
<path d="M18.8907 8.88892H7.99999C6.03643 8.88892 4.54843 10.4809 4.67554 12.4445L5.71554 28.4445C5.84354 30.408 7.29332 32 8.95554 32H17.9351C19.5964 32 21.0471 30.408 21.1751 28.4445L22.216 12.4445C22.3422 10.4809 20.8542 8.88892 18.8907 8.88892Z" fill="#FFAC33"/>
<path d="M23.1111 29.3333H3.55558C3.06491 29.3333 2.66669 29.7306 2.66669 30.2221V31.9999H24V30.2221C24 29.7306 23.6027 29.3333 23.1111 29.3333Z" fill="#AAB8C2"/>
<path d="M27.5556 8.88892C27.064 8.88892 26.6667 8.4907 26.6667 8.00003V5.12359L28.5378 1.38048C28.7582 0.941368 29.2916 0.762701 29.7307 0.983146C30.1698 1.2027 30.3476 1.73692 30.128 2.17603L28.4445 5.54314V8.00003C28.4445 8.4907 28.0471 8.88892 27.5556 8.88892Z" fill="#FFAC33"/>
<path d="M29.7778 14.2222H29.0871C29.24 13.96 29.3334 13.6586 29.3334 13.3333V9.77775C29.3334 9.12175 28.9742 8.55464 28.4445 8.2462V7.99997C28.4445 7.50931 28.0471 7.11108 27.5556 7.11108C27.064 7.11108 26.6667 7.50931 26.6667 7.99997V8.2462C26.1369 8.55464 25.7778 9.12086 25.7778 9.77775V13.3333C25.7778 13.6586 25.8711 13.96 26.024 14.2222H25.3334C25.088 14.2222 24.8889 14.4213 24.8889 14.6666C24.8889 14.912 25.088 15.1111 25.3334 15.1111H29.7778C30.0231 15.1111 30.2222 14.912 30.2222 14.6666C30.2222 14.4213 30.0231 14.2222 29.7778 14.2222Z" fill="#BE1931"/>
<path d="M22.2222 12.4446C22.2222 12.9352 22.6196 13.3334 23.1111 13.3334H27.5556C28.0471 13.3334 28.4445 12.9352 28.4445 12.4446C28.4445 11.9539 28.0471 11.5557 27.5556 11.5557H23.1111C22.6196 11.5557 22.2222 11.9539 22.2222 12.4446Z" fill="#99AAB5"/>
<path d="M24 12.4444C24 14.408 22.408 16 20.4445 16H6.22224C4.25869 16 2.66669 14.408 2.66669 12.4444V3.55556C2.66669 1.592 4.25869 0 6.22224 0H20.4445C22.408 0 24 1.592 24 3.55556V12.4444Z" fill="#E1E8ED"/>
<path d="M22.2222 12.4445C22.2222 13.4258 21.4258 14.2223 20.4445 14.2223H6.22224C5.2409 14.2223 4.44446 13.4258 4.44446 12.4445V3.55561C4.44446 2.57428 5.2409 1.77783 6.22224 1.77783H20.4445C21.4258 1.77783 22.2222 2.57428 22.2222 3.55561V12.4445Z" fill="#66757F"/>
<path d="M11.5555 4.44434H19.5555V7.111H11.5555V4.44434Z" fill="#AAB8C2"/>
</svg>
