<svg width="24" height="24" viewBox="0 0 24 24" fill="none"
  xmlns="http://www.w3.org/2000/svg">
  <path d="M4.13533 14.4271C4.08333 15.0418 4.34933 15.2258 4.766 15.5178C5.178 15.8064 7.688 13.6064 8.50867 13.2718C9.32933 12.9371 17.0333 11.3058 16.6993 9.81643C16.3653 8.3271 14.0373 8.1071 12.244 8.4111C10.4507 8.7151 7.01867 10.2924 6.016 11.1438C5.01333 11.9944 4.13533 14.4271 4.13533 14.4271ZM9.88333 15.4251C9.88333 15.4251 7.512 16.1951 7.512 18.1951C7.512 20.1951 8.08933 21.3231 8.36267 21.8704C8.63667 22.4171 9.488 22.9478 10.666 22.4378C12.034 21.8451 10.3387 18.4351 14.666 20.0004C16.6487 20.7171 18.7053 21.6858 20.7053 21.0191C22.6027 20.3864 23.3333 17.9998 23.3333 16.6664C23.3333 13.9371 21.3333 14.6664 20.6667 15.3331C20 15.9998 14.6667 17.3331 14 17.3331C13.3333 17.3331 9.88333 15.4251 9.88333 15.4251Z" fill="#D2A077"/>
  <path d="M12.8747 18.7922C12.8747 18.7922 12.7947 17.9148 11.958 17.8128C11.2707 17.7295 10.1873 17.9588 9.62467 19.0835C9.062 20.2088 8.062 20.0208 8.104 20.9582C8.14534 21.8955 8.43734 22.6248 9.04134 22.8122C9.646 23.0002 10.5 22.6668 10.604 21.6668C10.708 20.6668 10.8333 19.7502 11.4787 19.3542C12.1253 18.9588 12.8747 18.7922 12.8747 18.7922Z" fill="#E2C196"/>
  <path d="M12 17.3332C12 17.3332 11.3333 16.6665 10 16.6665C8.66667 16.6665 5.55733 18.0885 6.5 20.9165C7.16667 22.9165 9.06267 21.9792 9.33333 19.9998C9.60467 18.0178 12 17.3332 12 17.3332Z" fill="#D2A077"/>
  <path d="M11.3333 17.3332C11.3333 17.3332 10.6667 16.6665 9.33334 16.6665C8 16.6665 6.07667 17.6865 6 20.6665C5.93734 23.1038 8.68734 21.9998 8.66667 19.9998C8.646 17.9998 11.3333 17.3332 11.3333 17.3332Z" fill="#E2C196"/>
  <path d="M3.33334 18.0001C3.33334 20.1981 3.638 21.5241 4.952 21.2981C7.13134 20.9234 6.304 18.2221 8.21134 17.4621C9.596 16.9107 11.612 17.0421 13.558 18.1974C14.84 18.9587 14 16.0001 12.6667 15.3334C11.3333 14.6667 7.33334 15.3334 6.66667 15.3334C6 15.3334 3.33334 18.0001 3.33334 18.0001Z" fill="#D2A077"/>
  <path d="M3.228 18.1159C2.16733 19.8926 2.81266 21.7293 4.66666 21.3333C6.46066 20.9506 5.562 18.6199 7.33333 17.3333C8.326 16.6119 10.4653 16.3699 11.7987 17.0366C13.132 17.7033 13.3333 15.9999 12 15.3333C10.6667 14.6666 6.30666 15.3166 5.64133 15.3579C4.36866 15.4373 3.228 18.1159 3.228 18.1159Z" fill="#E2C196"/>
  <path d="M6.27867 19.4094C6.17105 19.5329 6.04016 19.6339 5.89349 19.7067C5.74682 19.7795 5.58724 19.8228 5.42386 19.8339C5.26048 19.8451 5.09651 19.8239 4.94131 19.7717C4.78611 19.7194 4.64272 19.6371 4.51933 19.5294L4.38867 19.4154C4.26526 19.3079 4.16426 19.177 4.09144 19.0304C4.01861 18.8838 3.97539 18.7243 3.96425 18.561C3.9531 18.3976 3.97425 18.2337 4.02649 18.0786C4.07872 17.9234 4.16102 17.7801 4.26867 17.6568L19.284 0.445434C19.3916 0.322005 19.5225 0.220989 19.6692 0.148156C19.8158 0.075323 19.9754 0.0321 20.1388 0.0209563C20.3022 0.00981264 20.4662 0.0309666 20.6214 0.0832097C20.7766 0.135453 20.92 0.217762 21.0433 0.325434L21.1733 0.439434C21.4225 0.656672 21.5752 0.963982 21.5978 1.29378C21.6205 1.62358 21.5112 1.94887 21.294 2.1981L6.27867 19.4094Z" fill="#3B88C3"/>
  <path d="M6.99333 18.5905C5.42 20.3938 1.45133 23.9298 0.948667 23.4918C0.446667 23.0538 3.41067 18.6418 4.984 16.8378C6.55733 15.0338 6.09133 16.4765 6.646 16.9611C7.20067 17.4451 8.56667 16.7878 6.99333 18.5905Z" fill="#3B88C3"/>
  <path d="M4.448 16.6841C4.448 17.3507 6.062 17.9607 6.72867 17.2941C7.39533 16.6274 8.956 15.8087 11.008 16.6667C15.8107 18.6734 14 16.0001 12 15.3334C10 14.6667 6.66666 15.3334 6 15.3334C5.33333 15.3334 4.448 16.6841 4.448 16.6841Z" fill="#D2A077"/>
  <path d="M4.13 14.6954C3.89133 13.9534 5.58867 9.84273 6.35733 9.20606C7.32533 8.40473 11.07 7.16406 12.4033 7.16406C13.7367 7.16406 23.3333 12.0001 23.3333 15.3334C23.3333 18.6667 22 19.0834 20.0833 19.6041C18.5507 20.0207 15.34 19.7654 13.9373 18.4581C12.708 17.3127 11.854 16.5207 10.6667 16.0001C8.46533 15.0347 6.998 16.2827 6.33133 16.9494C4.998 18.2827 2.486 16.8434 4.58133 14.5627C6.08067 12.9301 7.40133 12.4214 8.66667 12.0001C12.6667 10.6667 15.3333 10.6667 14 9.3334C13.5287 8.86206 13.272 9.56406 12.616 9.6834C11.296 9.9234 10.2453 10.0847 8.506 10.6647C7.90467 10.8647 5.058 12.6801 4.13 14.6954Z" fill="#F3D2A2"/>
  <path d="M8.79733 10.8499C9.50666 10.5912 12.5987 10.0286 14.2073 9.47123C15.5067 9.02056 16.6467 9.89523 14.1807 10.8232C11.8007 11.7186 9.328 11.6452 7.52466 12.3612C6.84266 12.6319 6.25133 11.7779 8.79733 10.8499Z" fill="#D2A077"/>
  <path d="M14.9913 5.34863C14.9913 5.34863 11.0393 9.87863 9.36066 11.7893C10.8633 11.172 12.208 11.2893 13.4927 10.5333C14.7773 9.77797 15.3633 8.97197 17.3127 6.73663C18.0367 5.9073 14.9913 5.34863 14.9913 5.34863Z" fill="#3B88C3"/>
</svg>
