<svg width="24" height="24" viewBox="0 0 24 24" fill="none"
  xmlns="http://www.w3.org/2000/svg">
  <path d="M13.3333 19.0832C13.3333 19.0832 20.4407 17.2665 22.2373 10.4798C22.5013 9.48317 21.2253 8.6665 19.6587 8.6665H3.99933C3.216 8.6665 1.506 8.99517 1.95133 10.5958C3.80733 17.2665 10.6667 19.0832 10.6667 19.0832V19.8652C10.6667 19.8652 7.57733 21.4938 6.94133 21.8718C6.25666 22.2638 6.76266 22.8892 7.03733 22.9978C7.49333 23.1772 8.63067 23.7645 11.7813 23.7645C15.0127 23.7645 16.7793 23.1285 17.17 22.9978C17.3207 22.9478 17.968 22.3492 17.038 21.7985C15.382 20.8185 13.3333 19.8652 13.3333 19.8652V19.0832Z" fill="#55ACEE"/>
  <path d="M22.194 10.1652C22.194 11.2932 17.6373 12.2079 12.0147 12.2079C6.39333 12.2079 1.836 11.2939 1.836 10.1652C1.836 9.03656 6.39333 8.12256 12.0147 8.12256C17.6373 8.12256 22.194 9.03656 22.194 10.1652Z" fill="#3B88C3"/>
  <path d="M17.3213 4.60523C17.3213 5.68057 15.2327 7.76857 12.1 7.76857C9.21667 7.76857 6.87933 6.37657 6.87933 4.60523C6.87933 1.7219 9.216 0.0805664 12.1 0.0805664C14.9847 0.0812331 17.3213 1.7219 17.3213 4.60523Z" fill="#F4ABBA"/>
  <path d="M22.194 9.47799C22.194 10.5533 20.106 12.2933 16.974 12.2933C14.09 12.2933 11.7527 13.222 11.7527 9.47799C11.7527 8.09338 12.3027 6.76549 13.2818 5.78642C14.2608 4.80736 15.5887 4.25732 16.9733 4.25732C18.3579 4.25732 19.6858 4.80736 20.6649 5.78642C21.644 6.76549 22.194 8.09338 22.194 9.47799Z" fill="#FFE8B6"/>
  <path d="M12.448 9.47799C12.448 12.9327 10.36 12.352 7.22733 12.352C4.344 12.352 2.00667 11.25 2.00667 9.47799C2.00667 8.09338 2.5567 6.76549 3.53577 5.78642C4.51483 4.80736 5.84273 4.25732 7.22733 4.25732C8.61194 4.25732 9.93984 4.80736 10.9189 5.78642C11.898 6.76549 12.448 8.09338 12.448 9.47799Z" fill="#8A4B38"/>
  <path d="M20.558 14.0652C21.1402 13.245 21.6072 12.3489 21.946 11.4019C12.956 14.5565 4.566 12.3185 2.29467 11.6259C2.60388 12.4354 3.0059 13.2063 3.49267 13.9232C11.0593 16.0905 17.86 14.7259 20.558 14.0652Z" fill="#3B88C3"/>
  <path d="M1.89134 10.1179C2.822 10.5179 12.2167 13.4819 22.2233 10.1759C22.2233 10.6105 21.9493 11.8272 21.788 12.2925C21.5273 13.0472 11.5207 15.5125 2.52934 12.4665C2.268 12.3512 1.48534 9.94388 1.89134 10.1179Z" fill="#55ACEE"/>
</svg>
