<svg width="24" height="24" viewBox="0 0 24 24" fill="none" xmlns="http://www.w3.org/2000/svg">
<path d="M21.9587 10.434C21.8613 10.1733 21.612 10 21.3333 10H13.2833L17.9267 0.972C18.0727 0.688 17.9973 0.340667 17.746 0.143333C17.6247 0.0473333 17.4787 0 17.3333 0C17.178 0 17.0227 0.0546667 16.898 0.162L12 4.392L2.23135 12.8287C2.02068 13.0107 1.94468 13.3047 2.04201 13.5653C2.13935 13.826 2.38801 14 2.66668 14H10.7167L6.07335 23.028C5.92735 23.312 6.00268 23.6593 6.25401 23.8567C6.37535 23.9527 6.52135 24 6.66668 24C6.82201 24 6.97735 23.9453 7.10201 23.838L12 19.608L21.7687 11.1713C21.98 10.9893 22.0553 10.6953 21.9587 10.434Z" fill="#FFAC33"/>
</svg>
