<svg width="32" height="32" viewBox="0 0 32 32" fill="none" xmlns="http://www.w3.org/2000/svg">
  <path d="M22.2223 11.5555C22.2223 7.12529 20.5032 3.10662 17.7129 0.0941772C25.7432 0.949288 32 7.74218 32 16C32 24.8364 24.8356 32 16 32C12.1752 32 8.66671 30.6533 5.91382 28.4151C12.2809 28.1973 17.7405 24.4586 20.4472 19.096C21.7778 16 22.2223 14.6667 22.2223 11.5555Z" fill="#FFD983"/>
  <path d="M22.6665 28.4445C24.3848 28.4445 25.7776 27.0516 25.7776 25.3333C25.7776 23.6151 24.3848 22.2222 22.6665 22.2222C20.9483 22.2222 19.5554 23.6151 19.5554 25.3333C19.5554 27.0516 20.9483 28.4445 22.6665 28.4445Z" fill="#F4B423"/>
  <path d="M24 7.11112C24.4909 7.11112 24.8889 6.71315 24.8889 6.22223C24.8889 5.73131 24.4909 5.33334 24 5.33334C23.5091 5.33334 23.1111 5.73131 23.1111 6.22223C23.1111 6.71315 23.5091 7.11112 24 7.11112Z" fill="#F4B423"/>
  <path d="M16 29.3334C16.4909 29.3334 16.8889 28.9354 16.8889 28.4445C16.8889 27.9535 16.4909 27.5556 16 27.5556C15.5091 27.5556 15.1111 27.9535 15.1111 28.4445C15.1111 28.9354 15.5091 29.3334 16 29.3334Z" fill="#F4B423"/>
  <path d="M29.3332 19.5556C30.315 19.5556 31.111 18.7596 31.111 17.7778C31.111 16.7959 30.315 16 29.3332 16C28.3514 16 27.5554 16.7959 27.5554 17.7778C27.5554 18.7596 28.3514 19.5556 29.3332 19.5556Z" fill="#F4B423"/>
</svg>
