<svg width="32" height="32" viewBox="0 0 32 32" fill="none" xmlns="http://www.w3.org/2000/svg">
  <path d="M32 16C32 24.8356 24.8356 32 16 32C7.16356 32 0 24.8356 0 16C0 7.16356 7.16356 0 16 0C24.8356 0 32 7.16356 32 16Z" fill="#66757F"/>
  <path d="M9.33328 10.6667C11.0515 10.6667 12.4444 9.27379 12.4444 7.55557C12.4444 5.83735 11.0515 4.44446 9.33328 4.44446C7.61506 4.44446 6.22217 5.83735 6.22217 7.55557C6.22217 9.27379 7.61506 10.6667 9.33328 10.6667Z" fill="#495563"/>
  <path d="M17.7778 17.7778C19.2505 17.7778 20.4444 16.5839 20.4444 15.1111C20.4444 13.6384 19.2505 12.4445 17.7778 12.4445C16.305 12.4445 15.1111 13.6384 15.1111 15.1111C15.1111 16.5839 16.305 17.7778 17.7778 17.7778Z" fill="#495563"/>
  <path d="M21.7779 28.4445C23.4961 28.4445 24.889 27.0516 24.889 25.3333C24.889 23.6151 23.4961 22.2222 21.7779 22.2222C20.0596 22.2222 18.6667 23.6151 18.6667 25.3333C18.6667 27.0516 20.0596 28.4445 21.7779 28.4445Z" fill="#495563"/>
  <path d="M19.5556 6.22224C20.5374 6.22224 21.3334 5.4263 21.3334 4.44446C21.3334 3.46263 20.5374 2.66669 19.5556 2.66669C18.5738 2.66669 17.7778 3.46263 17.7778 4.44446C17.7778 5.4263 18.5738 6.22224 19.5556 6.22224Z" fill="#495563"/>
  <path d="M2.66672 16.8889C3.15764 16.8889 3.55561 16.491 3.55561 16C3.55561 15.5091 3.15764 15.1111 2.66672 15.1111C2.1758 15.1111 1.77783 15.5091 1.77783 16C1.77783 16.491 2.1758 16.8889 2.66672 16.8889Z" fill="#495563"/>
  <path d="M26.6667 8.88892C27.1576 8.88892 27.5556 8.49095 27.5556 8.00003C27.5556 7.50911 27.1576 7.11115 26.6667 7.11115C26.1758 7.11115 25.7778 7.50911 25.7778 8.00003C25.7778 8.49095 26.1758 8.88892 26.6667 8.88892Z" fill="#495563"/>
  <path d="M13.3335 28.4445C13.8244 28.4445 14.2224 28.0465 14.2224 27.5556C14.2224 27.0647 13.8244 26.6667 13.3335 26.6667C12.8425 26.6667 12.4446 27.0647 12.4446 27.5556C12.4446 28.0465 12.8425 28.4445 13.3335 28.4445Z" fill="#495563"/>
  <path d="M28.4445 18.6667C29.4264 18.6667 30.2223 17.8708 30.2223 16.8889C30.2223 15.9071 29.4264 15.1111 28.4445 15.1111C27.4627 15.1111 26.6667 15.9071 26.6667 16.8889C26.6667 17.8708 27.4627 18.6667 28.4445 18.6667Z" fill="#495563"/>
  <path d="M8.88886 22.2222C9.8707 22.2222 10.6666 21.4263 10.6666 20.4445C10.6666 19.4626 9.8707 18.6667 8.88886 18.6667C7.90702 18.6667 7.11108 19.4626 7.11108 20.4445C7.11108 21.4263 7.90702 22.2222 8.88886 22.2222Z" fill="#495563"/>
</svg>
