<svg fill="none" xmlns="http://www.w3.org/2000/svg" viewBox="0 0 32 32" width="32" height="32"><path d="M18.667 16c0-1.779 2.885-2.995 4.444-5.333C24.89 8 24.89 1.777 24.89 1.777H7.11s0 6.223 1.778 8.89c1.559 2.338 4.444 3.554 4.444 5.333 0 1.779-2.885 2.995-4.444 5.333C7.11 24 7.11 30.223 7.11 30.223H24.89s0-6.223-1.778-8.89c-1.559-2.338-4.444-3.554-4.444-5.333Z" fill="#FFE8B6"/><path d="M16 1.778H8.889s0 3.555.889 6.222c1.159 3.477 5.333 4.444 5.333 8s0 11.555.889 11.555.889-8 .889-11.555c0-3.556 4.175-4.523 5.333-8 .89-2.667.89-6.222.89-6.222H16Z" fill="#FFAC33"/><path d="M26.667 30.222c0 .982-.797 1.778-1.778 1.778H7.11a1.778 1.778 0 0 1 0-3.556H24.89c.981 0 1.778.797 1.778 1.778Zm0-28.444c0 .981-.797 1.778-1.778 1.778H7.11a1.778 1.778 0 0 1 0-3.556H24.89c.981 0 1.778.796 1.778 1.778Z" fill="#3B88C3"/></svg>