<svg width="24" height="24" viewBox="0 0 24 24" fill="none"
  xmlns="http://www.w3.org/2000/svg">
  <g clip-path="url(#money)">
    <path d="M23.7356 10.8533C22.0142 8.34599 18.4556 12.036 11.9609 12.786C9.55624 13.0633 7.38957 15.0713 4.59624 14.88C3.4509 14.8013 1.85157 11.506 0.654237 12.0313C0.0382367 12.302 -0.24443 13.2053 0.388903 13.884L7.4209 22.2747C7.4209 22.2747 7.77824 22.6867 8.98224 22.4013C9.2789 22.4887 13.7389 20.7013 16.3176 17.1233C16.9349 16.2667 17.6709 15.5533 18.4329 14.9573C20.9069 13.128 23.5962 12.4907 23.5962 12.4907C23.9402 12.2067 24.0209 11.9047 24.0022 11.6427C24.0249 11.2053 23.7356 10.8533 23.7356 10.8533V10.8533Z" fill="#5C913B"/>
    <path d="M7.64989 6.84933C5.12789 10.3493 0.711224 12.0073 0.711224 12.0073C-0.112776 12.7053 0.583224 13.528 0.583224 13.528L7.54189 21.7673C7.54189 21.7673 7.88989 22.1787 9.06189 21.8933C9.06189 21.8933 13.4786 20.2387 15.9999 16.7387C18.5992 13.132 23.2866 11.9933 23.2866 11.9933C24.1099 11.2953 23.4146 10.4713 23.4146 10.4713L16.4559 2.23332C16.4559 2.23332 16.1079 1.82132 14.9359 2.10532C14.9359 2.10532 10.2492 3.24132 7.64989 6.84933V6.84933Z" fill="#A7D28B"/>
    <path d="M14.6667 13C16.6917 13 18.3333 11.3584 18.3333 9.33332C18.3333 7.30828 16.6917 5.66666 14.6667 5.66666C12.6416 5.66666 11 7.30828 11 9.33332C11 11.3584 12.6416 13 14.6667 13Z" fill="#77B255"/>
    <path d="M8.58285 21.286C7.99552 21.286 7.78019 21.0673 7.75085 21.034L1.47819 13.712C1.46619 13.698 1.14819 13.334 1.18685 12.8713C1.21019 12.5907 1.35552 12.3407 1.61819 12.128L1.66019 12.1027C1.70085 12.0867 5.76885 10.4147 8.04885 7.39266L8.18219 7.49266L8.04885 7.39266C10.4609 4.19532 14.6215 2.82332 14.6629 2.80999C15.8262 2.53932 16.2069 2.92599 16.2475 2.97132L22.4375 10.334C22.4489 10.346 22.7662 10.7113 22.7275 11.1747C22.7042 11.4547 22.5589 11.7047 22.2962 11.9173L22.2302 11.95C22.1895 11.96 18.1442 12.9653 15.8009 16.0707C13.4682 19.164 9.39619 21.1653 9.35552 21.1847C9.04619 21.258 8.79152 21.286 8.58285 21.286V21.286ZM8.00219 20.8147C8.00285 20.8147 8.30352 21.092 9.24552 20.8733C9.25085 20.866 13.2515 18.8987 15.5362 15.8707C17.8275 12.834 21.6862 11.7493 22.1142 11.6367C22.2855 11.4893 22.3802 11.326 22.3955 11.1507C22.4235 10.8307 22.1875 10.5553 22.1855 10.5527L15.9955 3.18932C15.9942 3.18932 15.6955 2.91266 14.7529 3.13132C14.7255 3.14066 10.6629 4.48199 8.31552 7.59332C6.07152 10.5673 2.15619 12.2567 1.81019 12.402C1.63152 12.552 1.53419 12.7193 1.51885 12.8987C1.49219 13.216 1.72685 13.49 1.72885 13.4927L8.00219 20.8147V20.8147Z" fill="#5C913B"/>
    <path d="M14.1837 14.7773L14.1797 18.7373L14.511 19.1307C15.157 18.5413 15.7777 17.8787 16.3144 17.1333C16.871 16.3613 17.5177 15.7007 18.1997 15.1427L17.8777 14.7593L14.1837 14.7773V14.7773Z" fill="#FFAC33"/>
    <path d="M17.8662 14.7453L9.52888 4.87C8.85155 5.42733 8.20089 6.07733 7.64755 6.846C7.10689 7.59666 6.47755 8.25733 5.82422 8.84L6.79889 9.994L6.79822 9.99466L14.1816 18.7373C14.8349 18.154 15.4569 17.4867 15.9982 16.7353C16.5516 15.9673 17.2016 15.318 17.8782 14.7607L17.8656 14.7453H17.8662V14.7453Z" fill="#FFE8B6"/>
    <path d="M9.65382 15.0367C8.61582 13.8073 6.41849 15.802 5.79182 15.06C5.48849 14.7007 5.68382 14.2347 6.08249 13.8987C6.75249 13.332 7.23582 13.662 7.53915 13.4053C7.75449 13.224 7.74315 13.002 7.61515 12.8493C7.31782 12.498 6.55782 12.6813 5.96715 13.0227L5.67982 12.6827C5.50049 12.4707 5.18315 12.4433 4.97115 12.6227C4.75915 12.8027 4.73249 13.1187 4.91182 13.3307L5.20915 13.6833C4.75782 14.282 4.60449 15.0767 5.13849 15.708C6.13582 16.888 8.36049 14.9267 9.06049 15.756C9.30315 16.044 9.23515 16.5933 8.72449 17.024C7.95915 17.6713 7.26582 17.368 6.95449 17.6307C6.80249 17.758 6.77515 18.0007 6.93715 18.1933C7.19515 18.498 8.01715 18.4327 8.80715 17.9407C8.80849 17.942 8.80849 17.9433 8.80849 17.9447L9.13315 18.3287C9.31249 18.5407 9.63049 18.5667 9.84249 18.3887C10.0552 18.2087 10.0812 17.8913 9.90182 17.6793L9.57715 17.2953C9.57382 17.2913 9.56849 17.2887 9.56449 17.2847C10.0972 16.6327 10.2772 15.7733 9.65382 15.0367V15.0367Z" fill="#5C913B"/>
    <path d="M21.6371 21.7253C21.6431 21.72 21.6498 21.716 21.6558 21.7113C21.7011 21.666 21.7364 21.614 21.7764 21.564C21.8044 21.5293 21.8358 21.496 21.8618 21.4607C21.8851 21.4273 21.9044 21.3933 21.9258 21.3593C22.8724 19.9013 22.2524 17.4293 20.3784 15.5547C18.5038 13.68 16.0311 13.06 14.5738 14.0073C14.5391 14.028 14.5051 14.0473 14.4718 14.0713C14.4364 14.0973 14.4024 14.1287 14.3691 14.156C14.3198 14.1967 14.2678 14.2313 14.2218 14.2773C14.2158 14.2833 14.2118 14.29 14.2071 14.296C14.1998 14.3033 14.1911 14.308 14.1831 14.316L14.1871 14.3193C13.5204 15.0273 13.5124 16.1227 14.1831 16.794C14.8551 17.466 15.9498 17.4567 16.6584 16.79L16.6658 16.798C16.6518 16.8113 16.6364 16.82 16.6231 16.8333C15.9171 17.5393 15.9004 18.6653 16.5838 19.35C17.2678 20.0333 18.3951 20.0167 19.1004 19.3107C19.1138 19.2973 19.1224 19.282 19.1358 19.268L19.1431 19.276C18.4764 19.984 18.4678 21.0793 19.1398 21.7513C19.8111 22.422 20.9058 22.414 21.6138 21.7473L21.6178 21.7513C21.6244 21.742 21.6298 21.7333 21.6371 21.7253V21.7253Z" fill="#E1E8ED"/>
    <path d="M14.184 16.8207C14.788 17.424 15.7314 17.4733 16.4307 16.9947C16.7234 16.4947 16.8074 16.0193 16.8074 15.8707C15.336 16.968 14.0227 15.8767 13.7287 15.224C13.6067 15.788 13.7547 16.3907 14.184 16.8207ZM19.05 19.3807C19.2487 19.1013 19.4027 18.8313 19.4747 18.6487C18.538 19.5073 16.7474 18.8787 16.2047 17.5167C15.966 18.15 16.088 18.8793 16.5854 19.3767C17.2534 20.0447 18.3414 20.0393 19.05 19.3807ZM21.6194 21.7773L21.6387 21.7533C21.6454 21.748 21.652 21.744 21.6574 21.7387C21.7034 21.6933 21.7387 21.6413 21.778 21.592C21.8067 21.5567 21.8374 21.524 21.8634 21.488C21.8874 21.4553 21.9067 21.4207 21.928 21.3867C21.9714 21.32 21.9947 21.2413 22.0314 21.1707C20.346 21.9247 19.088 20.6453 18.7354 20.0073C18.5387 20.6187 18.6667 21.3033 19.1414 21.7787C19.812 22.45 20.9067 22.442 21.6154 21.7747L21.6194 21.7773Z" fill="#CCD6DD"/>
    <path d="M9.30241 8.33199L9.32108 8.31733C9.36708 8.27199 9.40241 8.21999 9.44175 8.17066C9.46975 8.13599 9.50041 8.10333 9.52641 8.06733C9.55041 8.03399 9.56975 7.99999 9.59108 7.96599C10.5377 6.50799 9.91708 4.03533 8.04308 2.16133C6.16841 0.286659 3.69642 -0.334007 2.23842 0.612659C2.20442 0.633993 2.16975 0.653326 2.13642 0.677326C2.10042 0.703326 2.06775 0.733993 2.03308 0.761993C1.98375 0.801993 1.93175 0.836659 1.88642 0.882659C1.88042 0.888659 1.87642 0.895993 1.87175 0.901326C1.86442 0.907993 1.85508 0.913993 1.84775 0.921326L1.85108 0.924659C1.18442 1.63266 1.17642 2.72799 1.84775 3.39933C2.51908 4.07066 3.61442 4.06266 4.32242 3.39599L4.32975 3.40333C4.31575 3.41599 4.30042 3.42533 4.28708 3.43866C3.58108 4.14466 3.56442 5.27066 4.24842 5.95533C4.93242 6.63999 6.05908 6.62266 6.76508 5.91666C6.77841 5.90333 6.78708 5.88799 6.80041 5.87399L6.80775 5.88133C6.14108 6.58933 6.13241 7.68466 6.80441 8.35599C7.47575 9.02733 8.57041 9.01933 9.27841 8.35199L9.28175 8.35599C9.28908 8.34866 9.29508 8.33999 9.30241 8.33199V8.33199Z" fill="#E1E8ED"/>
    <path d="M1.84811 3.4C2.45211 4.004 3.39544 4.05334 4.09478 3.57334C4.38744 3.07334 4.47078 2.59867 4.47078 2.45C3.00011 3.54667 1.68611 2.45467 1.39278 1.802C1.27078 2.36667 1.41878 2.97 1.84811 3.4V3.4ZM6.71544 5.95867C6.91344 5.67933 7.06744 5.41067 7.13878 5.228C6.20144 6.08667 4.41078 5.45734 3.86878 4.09534C3.63011 4.72867 3.75211 5.458 4.24878 5.95533C4.91811 6.624 6.00678 6.618 6.71544 5.95867V5.95867ZM9.28278 8.35667C9.29011 8.34933 9.29611 8.34067 9.30278 8.33267L9.32144 8.318C9.36744 8.27267 9.40278 8.22067 9.44211 8.17133C9.47011 8.13667 9.50078 8.104 9.52678 8.068C9.55078 8.03467 9.57011 8.00067 9.59144 7.96667C9.63478 7.9 9.65811 7.82067 9.69478 7.75C8.00944 8.504 6.75144 7.22533 6.39878 6.58733C6.20211 7.19867 6.33011 7.88333 6.80478 8.358C7.47611 9.02933 8.57078 9.02133 9.27878 8.354L9.28278 8.35667V8.35667Z" fill="#CCD6DD"/>
  </g>
  <defs>
    <clipPath id="money">
      <rect width="24" height="24" fill="white"/>
    </clipPath>
  </defs>
</svg>