<svg width="20" height="20" viewBox="0 0 20 20" fill="none"
  xmlns="http://www.w3.org/2000/svg">
  <path d="M14.4957 2.56223C14.219 2.8389 14.1462 3.02834 14.0912 3.1339C13.7245 3.83723 13.2829 4.06501 12.5468 3.3289C12.4745 3.25667 10.2762 0.958341 9.91288 0.541674C9.67566 0.269452 9.31233 0.186118 9.03288 0.396118C8.82177 0.555007 6.79122 2.21445 6.23566 2.90001C5.80566 3.43056 5.79121 4.08556 6.19177 4.48667C6.37288 4.66778 6.59566 4.73612 6.83121 4.80778C7.13788 4.90167 7.81066 4.84556 8.20344 5.23834C8.83288 5.86778 8.50344 6.86278 7.69399 7.69445C6.86233 8.5039 5.86733 8.83334 5.23788 8.2039C4.84455 7.81056 4.90122 7.13834 4.80733 6.83167C4.73566 6.59612 4.66733 6.3739 4.48622 6.19223C4.08566 5.79167 3.43066 5.80667 2.89955 6.23612C2.21344 6.79167 0.554548 8.82223 0.395659 9.03334C0.185104 9.31278 0.268993 9.67556 0.541215 9.91334C0.957882 10.2767 3.25622 12.475 3.32844 12.5472C4.06399 13.2828 3.83677 13.725 3.13344 14.0917C3.02788 14.1467 2.83899 14.2189 2.56177 14.4961C1.74955 15.3083 1.74955 16.6256 2.56177 17.4378C3.37399 18.25 4.69121 18.25 5.50344 17.4378C5.7801 17.1611 5.85288 16.9717 5.90788 16.8661C6.27455 16.1628 6.71621 15.935 7.45233 16.6711C7.52455 16.7433 9.72288 19.0417 10.0862 19.4583C10.3234 19.7306 10.6868 19.8139 10.9662 19.6039C11.1773 19.445 13.2079 17.7856 13.7634 17.1C14.1934 16.5695 14.2079 15.9145 13.8073 15.5133C13.6262 15.3322 13.4034 15.2639 13.1679 15.1922C12.8612 15.0983 12.1884 15.1545 11.7957 14.7617C11.1662 14.1322 11.4957 13.1372 12.3051 12.3056C13.1368 11.4961 14.1318 11.1667 14.7612 11.7961C15.1545 12.1895 15.0979 12.8617 15.1918 13.1683C15.2634 13.4039 15.3318 13.6261 15.5129 13.8078C15.9134 14.2083 16.5684 14.1933 17.0995 13.7639C17.7857 13.2083 19.4445 11.1778 19.6034 10.9667C19.814 10.6872 19.7301 10.3245 19.4579 10.0867C19.0412 9.72334 16.7429 7.52501 16.6707 7.45278C15.9351 6.71723 16.1623 6.27501 16.8657 5.90834C16.9712 5.85334 17.1601 5.78112 17.4373 5.5039C18.2495 4.69167 18.2495 3.37445 17.4373 2.56223C16.6251 1.74945 15.3079 1.74945 14.4957 2.56223V2.56223Z" fill="#78B159"/>
</svg>
