<svg width="36" height="36" viewBox="0 0 36 36" fill="none" xmlns="http://www.w3.org/2000/svg">
<path d="M13 3C7.477 3 3 7.477 3 13V23H7V13C7 11.4087 7.63214 9.88258 8.75736 8.75736C9.88258 7.63214 11.4087 7 13 7C14.5913 7 16.1174 7.63214 17.2426 8.75736C18.3679 9.88258 19 11.4087 19 13V23H23V13C23 7.477 18.523 3 13 3Z" fill="#AAB8C2"/>
<path d="M26 32C26 33.0609 25.5786 34.0783 24.8284 34.8284C24.0783 35.5786 23.0609 36 22 36H4C2.93913 36 1.92172 35.5786 1.17157 34.8284C0.421427 34.0783 0 33.0609 0 32V20C0 18.9391 0.421427 17.9217 1.17157 17.1716C1.92172 16.4214 2.93913 16 4 16H22C23.0609 16 24.0783 16.4214 24.8284 17.1716C25.5786 17.9217 26 18.9391 26 20V32Z" fill="#FFAC33"/>
<path d="M35 9C35 4.029 30.971 0 26 0C21.029 0 17 4.029 17 9C17 12.917 19.507 16.24 23 17.477V33.5C23.0018 34.1191 23.2333 34.7155 23.6497 35.1738C24.066 35.632 24.6376 35.9194 25.2537 35.9804C25.8698 36.0414 26.4867 35.8716 26.9848 35.5039C27.4829 35.1362 27.8268 34.5967 27.95 33.99C27.968 33.991 27.982 34 28 34C28.2652 34 28.5196 33.8946 28.7071 33.7071C28.8946 33.5196 29 33.2652 29 33V32C29 31.7348 28.8946 31.4804 28.7071 31.2929C28.5196 31.1054 28.2652 31 28 31V30C28.2652 30 28.5196 29.8946 28.7071 29.7071C28.8946 29.5196 29 29.2652 29 29V27C29 26.7348 28.8946 26.4804 28.7071 26.2929C28.5196 26.1054 28.2652 26 28 26V23.723C28.3034 23.549 28.5556 23.2981 28.7311 22.9956C28.9067 22.6932 28.9994 22.3497 29 22V17.477C32.493 16.241 35 12.918 35 9ZM26 2C26.2627 2.00007 26.5228 2.05187 26.7655 2.15247C27.0082 2.25307 27.2287 2.40048 27.4144 2.58629C27.6001 2.7721 27.7474 2.99267 27.8479 3.2354C27.9484 3.47814 28.0001 3.73829 28 4.001C27.9999 4.26371 27.9481 4.52383 27.8475 4.76652C27.7469 5.00921 27.5995 5.2297 27.4137 5.41542C27.2279 5.60114 27.0073 5.74844 26.7646 5.84891C26.5219 5.94939 26.2617 6.00106 25.999 6.001C25.4684 6.00087 24.9597 5.78997 24.5846 5.41471C24.2095 5.03945 23.9989 4.53057 23.999 4C23.9991 3.46943 24.21 2.96065 24.5853 2.58558C24.9605 2.21051 25.4694 1.99987 26 2V2Z" fill="#C1694F"/>
</svg>
