<svg width="40" height="40"  viewBox="0 0 40 40" xmlns="http://www.w3.org/2000/svg"><path d="M28.991 5.124c-.553.554-.699.933-.809 1.144-.733 1.406-1.616 1.862-3.088.39-.145-.145-4.542-4.741-5.268-5.575-.475-.544-1.201-.71-1.76-.29-.422.317-4.484 3.636-5.595 5.007-.86 1.061-.889 2.371-.088 3.173.363.363.808.5 1.28.643.613.187 1.958.075 2.744.86 1.259 1.26.6 3.25-1.019 4.913-1.663 1.619-3.653 2.278-4.912 1.019-.787-.787-.674-2.131-.861-2.745-.144-.47-.28-.915-.643-1.279-.8-.8-2.11-.77-3.173.088-1.372 1.111-4.69 5.173-5.008 5.595-.42.559-.253 1.284.291 1.76.834.726 5.43 5.123 5.575 5.267 1.471 1.472 1.017 2.356-.39 3.09-.211.11-.589.254-1.143.808a4.16 4.16 0 0 0 5.883 5.884c.553-.554.699-.933.809-1.144.733-1.406 1.616-1.862 3.089-.39.144.145 4.54 4.741 5.267 5.575.475.544 1.201.71 1.76.29.423-.317 4.484-3.636 5.595-5.007.86-1.061.889-2.371.088-3.173-.363-.363-.808-.5-1.28-.643-.613-.187-1.958-.075-2.744-.86-1.259-1.26-.6-3.25 1.02-4.913 1.662-1.619 3.652-2.278 4.911-1.019.787.787.674 2.131.862 2.745.143.47.28.915.642 1.279.8.8 2.11.77 3.173-.088 1.372-1.111 4.69-5.172 5.008-5.595.421-.558.253-1.284-.291-1.76-.834-.726-5.43-5.123-5.575-5.267-1.47-1.472-1.016-2.356.39-3.09.211-.11.59-.254 1.144-.808a4.16 4.16 0 0 0-5.884-5.884Z" fill="#22D49F"/></svg>