<svg width="20" height="20" viewBox="0 0 20 20" fill="none" xmlns="http://www.w3.org/2000/svg">
<path d="M15 18.3333C15 19.5606 14.005 20 12.7778 20H7.22222C5.995 20 5 19.5606 5 18.3333C5 17.1061 6.66667 14.4444 6.66667 11.1111C6.66667 7.77778 13.3333 7.77778 13.3333 11.1111C13.3333 14.4444 15 17.1061 15 18.3333Z" fill="#99AAB5"/>
<path d="M19.2589 6.21611L19.2583 6.215C18.725 4.90556 17.9228 3.74111 16.9206 2.78056H16.9189C15.1233 1.05778 12.6883 0 10 0C7.57667 0 5.355 0.856111 3.62444 2.28611C2.40778 3.29111 1.435 4.58056 0.804444 6.05556C0.287778 7.26389 0 8.59611 0 10C0 11.2272 0.995 12.2222 2.22222 12.2222H17.7778C19.005 12.2222 20 11.2272 20 10C20 8.65722 19.7333 7.38167 19.2589 6.21611Z" fill="#DD2E44"/>
<path d="M4.28247 9.21278C6.21302 9.21278 7.77802 7.64779 7.77802 5.71723C7.77802 3.78667 6.21358 2.22223 4.28247 2.22223C4.05747 2.22223 3.83802 2.24556 3.62469 2.28612C2.40802 3.29112 1.43524 4.58056 0.804688 6.05556C0.974688 7.82723 2.46635 9.21278 4.28247 9.21278Z" fill="#F4ABBA"/>
<path d="M4.28247 2.36112C6.13302 2.36112 7.63858 3.86667 7.63858 5.71778C7.63858 7.5689 6.13302 9.07445 4.28247 9.07445C2.55635 9.07445 1.12802 7.7889 0.945799 6.07778C1.55524 4.66612 2.50135 3.40167 3.68524 2.41667C3.88747 2.37945 4.08858 2.36112 4.28247 2.36112ZM4.28247 2.22223C4.05747 2.22223 3.83802 2.24556 3.62469 2.28612C2.40802 3.29112 1.43524 4.58056 0.804688 6.05556C0.974687 7.82723 2.46691 9.21278 4.28302 9.21278C6.21358 9.21278 7.77802 7.64779 7.77802 5.71723C7.77802 3.78667 6.21358 2.22223 4.28247 2.22223ZM14.4447 5.27778C14.4447 6.65834 15.5641 7.77778 16.9447 7.77778C17.993 7.77778 18.8875 7.13112 19.2591 6.21612L19.2586 6.21501C18.7252 4.90556 17.923 3.74112 16.9208 2.78056C15.5514 2.79334 14.4447 3.90501 14.4447 5.27778Z" fill="#F4ABBA"/>
<path d="M11.9448 11.3889C13.3255 11.3889 14.4448 10.2696 14.4448 8.88889C14.4448 7.50817 13.3255 6.38889 11.9448 6.38889C10.5641 6.38889 9.44482 7.50817 9.44482 8.88889C9.44482 10.2696 10.5641 11.3889 11.9448 11.3889Z" fill="#F4ABBA"/>
<path d="M11.1115 4.44445C12.032 4.44445 12.7782 3.69826 12.7782 2.77778C12.7782 1.85731 12.032 1.11111 11.1115 1.11111C10.191 1.11111 9.44482 1.85731 9.44482 2.77778C9.44482 3.69826 10.191 4.44445 11.1115 4.44445Z" fill="#F4ABBA"/>
</svg>
