<svg xmlns="http://www.w3.org/2000/svg" width="32" height="32" viewBox="0 0 32 32"><path fill="#BF6952" d="M29.814 20.62c.324-1.402.216-2.903-.407-4.396A7.128 7.128 0 0026.5 12.87c.282-1.06.208-2.2-.288-3.333-.748-1.707-2.365-2.845-4.189-3.166.221-.509.293-1.146.032-1.926-.889-2.667-4.444-.89-7.111-4.444-2.169 1.301-2.64 3.236-2.558 4.877-2.152.367-3.378.832-3.378.832v.002a3.3 3.3 0 00-2.064 3.06c0 .781.283 1.49.736 2.055l-.615.23v.002c-2.07.774-3.533 2.645-3.533 4.834 0 .931.267 1.802.73 2.559C1.751 19.58 0 22.028 0 24.889 0 28.816 3.28 32 7.328 32c2.906 0 5.83-.625 8.472-1.48 1.994.925 5.062 1.48 9.682 1.48 3.6 0 6.518-2.918 6.518-6.518a6.497 6.497 0 00-2.186-4.861z"/><path fill="#F5F8FA" d="M12 17.778c1.718 0 3.111-1.791 3.111-4 0-2.21-1.393-4-3.111-4-1.718 0-3.111 1.79-3.111 4 0 2.209 1.393 4 3.111 4zM20.889 17.778c1.718 0 3.111-1.791 3.111-4 0-2.21-1.393-4-3.111-4-1.718 0-3.111 1.79-3.111 4 0 2.209 1.393 4 3.11 4z"/><path fill="#292F33" d="M12.444 16c.982 0 1.778-.995 1.778-2.222 0-1.227-.796-2.222-1.777-2.222-.982 0-1.778.995-1.778 2.222 0 1.227.796 2.222 1.777 2.222zM20.445 16c.981 0 1.777-.995 1.777-2.222 0-1.227-.796-2.222-1.777-2.222-.982 0-1.778.995-1.778 2.222 0 1.227.796 2.222 1.777 2.222zM8.397 22.129c-.218-.438.003-.796.492-.796h16c.489 0 .71.358.492.796 0 0-2.27 4.538-8.492 4.538-6.222 0-8.492-4.538-8.492-4.538z"/><path fill="#F2ABBA" d="M16.889 23.111c-2.463 0-4.584.82-5.593 2.005 1.326.85 3.151 1.55 5.593 1.55s4.267-.7 5.593-1.55c-1.01-1.185-3.13-2.005-5.593-2.005z"/></svg>