<svg width="68" height="24" viewBox="0 0 68 24" fill="none" xmlns="http://www.w3.org/2000/svg">
  <path d="M68 0L68 24L-1.04907e-06 24L6.09375 12L0 -2.79753e-06L68 0Z" fill="url(#paint0_linear_4_9517)" class="fill"/>
  <path d="M30.342 13.536V12.183H31.904C32.2193 12.183 32.4833 12.1207 32.696 11.996C32.916 11.8713 33.081 11.699 33.191 11.479C33.3083 11.259 33.367 11.006 33.367 10.72C33.367 10.434 33.3083 10.181 33.191 9.96101C33.081 9.74101 32.916 9.57235 32.696 9.45501C32.4833 9.33035 32.2193 9.26801 31.904 9.26801H30.342V7.91501H31.772C32.4467 7.91501 33.0187 8.02501 33.488 8.24501C33.9647 8.46501 34.3277 8.78035 34.577 9.19101C34.8263 9.59435 34.951 10.0747 34.951 10.632V10.808C34.951 11.3653 34.8263 11.8493 34.577 12.26C34.3277 12.6633 33.9647 12.9787 33.488 13.206C33.0187 13.426 32.4467 13.536 31.772 13.536H30.342ZM29 16V7.91501H30.562V16H29Z" fill="white"/>
  <path d="M36.2402 16V7.91501H37.8022V16H36.2402ZM41.1462 16L38.6822 12.502H40.4312L42.9722 16H41.1462ZM37.3402 13.316V12.051H39.3862C39.6722 12.051 39.9179 11.9923 40.1232 11.875C40.3359 11.7577 40.5009 11.5927 40.6182 11.38C40.7356 11.1673 40.7942 10.9253 40.7942 10.654C40.7942 10.3753 40.7356 10.1297 40.6182 9.91701C40.5009 9.70435 40.3359 9.53935 40.1232 9.42201C39.9179 9.30468 39.6722 9.24601 39.3862 9.24601H37.3402V7.91501H39.2212C39.8666 7.91501 40.4239 8.01035 40.8932 8.20101C41.3699 8.39168 41.7366 8.68135 41.9932 9.07001C42.2499 9.45868 42.3782 9.94635 42.3782 10.533V10.709C42.3782 11.303 42.2462 11.7907 41.9822 12.172C41.7256 12.5533 41.3626 12.8393 40.8932 13.03C40.4239 13.2207 39.8666 13.316 39.2212 13.316H37.3402Z" fill="white"/>
  <path d="M47.8228 16.209C47.0968 16.209 46.4661 16.0807 45.9308 15.824C45.4028 15.5673 44.9628 15.2337 44.6108 14.823C44.2661 14.405 44.0058 13.9577 43.8298 13.481C43.6611 12.997 43.5768 12.5313 43.5768 12.084V11.842C43.5768 11.3507 43.6648 10.863 43.8408 10.379C44.0168 9.88768 44.2808 9.44401 44.6328 9.04801C44.9921 8.65201 45.4358 8.33668 45.9638 8.10201C46.4918 7.86001 47.1115 7.73901 47.8228 7.73901C48.5268 7.73901 49.1428 7.86001 49.6708 8.10201C50.1988 8.33668 50.6388 8.65201 50.9908 9.04801C51.3501 9.44401 51.6178 9.88768 51.7938 10.379C51.9698 10.863 52.0578 11.3507 52.0578 11.842V12.084C52.0578 12.5313 51.9698 12.997 51.7938 13.481C51.6251 13.9577 51.3648 14.405 51.0128 14.823C50.6681 15.2337 50.2281 15.5673 49.6928 15.824C49.1648 16.0807 48.5415 16.209 47.8228 16.209ZM47.8228 14.757C48.2335 14.757 48.6001 14.6837 48.9228 14.537C49.2528 14.3903 49.5315 14.1887 49.7588 13.932C49.9935 13.668 50.1695 13.371 50.2868 13.041C50.4115 12.7037 50.4738 12.348 50.4738 11.974C50.4738 11.5707 50.4115 11.2003 50.2868 10.863C50.1695 10.5257 49.9935 10.2323 49.7588 9.98301C49.5315 9.73368 49.2528 9.53935 48.9228 9.40001C48.5928 9.26068 48.2261 9.19101 47.8228 9.19101C47.4121 9.19101 47.0418 9.26068 46.7118 9.40001C46.3818 9.53935 46.0995 9.73368 45.8648 9.98301C45.6375 10.2323 45.4615 10.5257 45.3368 10.863C45.2195 11.2003 45.1608 11.5707 45.1608 11.974C45.1608 12.348 45.2195 12.7037 45.3368 13.041C45.4615 13.371 45.6375 13.668 45.8648 13.932C46.0995 14.1887 46.3818 14.3903 46.7118 14.537C47.0418 14.6837 47.4121 14.757 47.8228 14.757Z" fill="white"/>
  <path d="M19 7C17.3431 7 16 8.3431 16 10V13H17.2V10C17.2 9.0061 18.0058 8.2 19 8.2C19.9942 8.2 20.8 9.0061 20.8 10V13H22V10C22 8.3431 20.6569 7 19 7Z" fill="#AAB8C2"/>
  <path d="M23 15.8C23 16.4627 22.4489 17 21.7692 17H16.2308C15.5511 17 15 16.4627 15 15.8V12.2C15 11.5373 15.5511 11 16.2308 11H21.7692C22.4489 11 23 11.5373 23 12.2V15.8Z" fill="#FFAC33"/>
  <defs>
    <linearGradient id="paint0_linear_4_9517" x1="68" y1="0" x2="65.3734" y2="29.7682" gradientUnits="userSpaceOnUse">
      <stop stop-color="#8F00FF"/>
      <stop offset="1" stop-color="#01E1FF"/>
    </linearGradient>
  </defs>
</svg>
