<svg width="40" height="44" viewBox="0 0 40 44" fill="none" xmlns="http://www.w3.org/2000/svg">
  <path d="M3.44199e-06 0L40 6.99382e-06L40 44L20 36.8063L-7.6932e-06 44L3.44199e-06 0Z" fill="url(#paint0_linear_2_13661)" class="fill"/>
  <path d="M20 20C18.3431 20 17 21.3431 17 23V26H18.2V23C18.2 22.0061 19.0058 21.2 20 21.2C20.9942 21.2 21.8 22.0061 21.8 23V26H23V23C23 21.3431 21.6569 20 20 20Z" fill="#AAB8C2"/>
  <path d="M24 28.8C24 29.4627 23.4489 30 22.7692 30H17.2308C16.5511 30 16 29.4627 16 28.8V25.2C16 24.5373 16.5511 24 17.2308 24H22.7692C23.4489 24 24 24.5373 24 25.2V28.8Z" fill="#FFAC33"/>
  <path d="M10.3386 12.3091V11.0312H11.8967C12.2113 11.0312 12.4746 10.9723 12.6867 10.8545C12.9062 10.7368 13.0708 10.574 13.1805 10.3662C13.2975 10.1584 13.3561 9.91948 13.3561 9.64935C13.3561 9.37922 13.2975 9.14026 13.1805 8.93247C13.0708 8.72468 12.9062 8.56537 12.6867 8.45455C12.4746 8.3368 12.2113 8.27792 11.8967 8.27792H10.3386V7H11.7651C12.438 7 13.0086 7.1039 13.4767 7.31169C13.9522 7.51948 14.3143 7.81732 14.563 8.2052C14.8117 8.58615 14.9361 9.03983 14.9361 9.56623V9.73247C14.9361 10.2589 14.8117 10.716 14.563 11.1039C14.3143 11.4848 13.9522 11.7827 13.4767 11.9974C13.0086 12.2052 12.438 12.3091 11.7651 12.3091H10.3386ZM9 15V7H10.5581V15H9Z" fill="white"/>
  <path d="M16.2221 15V7.04688H17.7802V15H16.2221ZM21.1158 15L18.658 11.3793H20.4026L22.9372 15H21.1158ZM17.3193 12.1482V10.9534H19.3602C19.6455 10.9534 19.8905 10.898 20.0953 10.7871C20.3075 10.6763 20.4721 10.5205 20.5891 10.3196C20.7061 10.1187 20.7647 9.89016 20.7647 9.63389C20.7647 9.37068 20.7061 9.13865 20.5891 8.93778C20.4721 8.73692 20.3075 8.58107 20.0953 8.47025C19.8905 8.35943 19.6455 8.30402 19.3602 8.30402H17.3193V7.04688H19.1956C19.8393 7.04688 20.3953 7.13692 20.8634 7.317C21.3389 7.49709 21.7046 7.77068 21.9607 8.13778C22.2167 8.50488 22.3447 8.96549 22.3447 9.5196V9.68584C22.3447 10.2469 22.213 10.7075 21.9497 11.0677C21.6937 11.4278 21.3316 11.698 20.8634 11.878C20.3953 12.0581 19.8393 12.1482 19.1956 12.1482H17.3193Z" fill="white"/>
  <path d="M27.7756 15C27.0514 15 26.4223 14.8788 25.8884 14.6364C25.3617 14.3939 24.9228 14.0788 24.5717 13.6909C24.2279 13.2961 23.9682 12.8736 23.7926 12.4234C23.6244 11.9662 23.5403 11.5264 23.5403 11.1039V10.8753C23.5403 10.4113 23.628 9.95065 23.8036 9.49351C23.9792 9.02944 24.2425 8.61039 24.5936 8.23636C24.952 7.86234 25.3946 7.5645 25.9213 7.34286C26.448 7.11429 27.0661 7 27.7756 7C28.4778 7 29.0923 7.11429 29.619 7.34286C30.1457 7.5645 30.5846 7.86234 30.9357 8.23636C31.2941 8.61039 31.5611 9.02944 31.7367 9.49351C31.9122 9.95065 32 10.4113 32 10.8753V11.1039C32 11.5264 31.9122 11.9662 31.7367 12.4234C31.5684 12.8736 31.3087 13.2961 30.9576 13.6909C30.6138 14.0788 30.1749 14.3939 29.6409 14.6364C29.1143 14.8788 28.4925 15 27.7756 15ZM27.7756 13.6286C28.1853 13.6286 28.551 13.5593 28.8729 13.4208C29.202 13.2822 29.48 13.0918 29.7068 12.8493C29.9408 12.6 30.1164 12.3195 30.2334 12.0078C30.3578 11.6892 30.42 11.3532 30.42 11C30.42 10.619 30.3578 10.2693 30.2334 9.95065C30.1164 9.63204 29.9408 9.35498 29.7068 9.11948C29.48 8.88398 29.202 8.70043 28.8729 8.56883C28.5437 8.43723 28.1779 8.37143 27.7756 8.37143C27.366 8.37143 26.9966 8.43723 26.6674 8.56883C26.3382 8.70043 26.0566 8.88398 25.8225 9.11948C25.5958 9.35498 25.4202 9.63204 25.2958 9.95065C25.1788 10.2693 25.1203 10.619 25.1203 11C25.1203 11.3532 25.1788 11.6892 25.2958 12.0078C25.4202 12.3195 25.5958 12.6 25.8225 12.8493C26.0566 13.0918 26.3382 13.2822 26.6674 13.4208C26.9966 13.5593 27.366 13.6286 27.7756 13.6286Z" fill="white"/>
  <defs>
    <linearGradient id="paint0_linear_2_13661" x1="0" y1="0" x2="47.5442" y2="10.8055" gradientUnits="userSpaceOnUse">
      <stop stop-color="#8F00FF"/>
      <stop offset="1" stop-color="#01E1FF"/>
    </linearGradient>
  </defs>
</svg>
