<svg width="36" height="36" viewBox="0 0 36 36" fill="none" xmlns="http://www.w3.org/2000/svg">
  <path d="M24.88 33.097C24.782 32.917 24.63 32.795 24.462 32.706C22.865 31 24 28.999 24 28.999C24 28.446 25 26.999 24 26.999L23 27.999C22 28.999 22 31.999 22 31.999H20C19.447 31.999 19 32.446 19 32.999C19 33.552 19.447 33.999 20 33.999H21.107L20.885 34.119C20.399 34.382 20.218 34.988 20.481 35.474C20.744 35.96 21.35 36.141 21.837 35.878L24.476 34.451C24.962 34.189 25.143 33.583 24.88 33.097ZM17.88 33.097C17.783 32.917 17.63 32.795 17.463 32.706C15.866 31 17 28.999 17 28.999C17 28.446 18 26.999 17 26.999L16 27.999C15 28.999 15 31.999 15 31.999H13C12.447 31.999 12 32.446 12 32.999C12 33.552 12.447 33.999 13 33.999H14.108L13.886 34.119C13.4 34.382 13.219 34.988 13.482 35.474C13.745 35.96 14.351 36.141 14.838 35.878L17.477 34.451C17.962 34.189 18.143 33.583 17.88 33.097ZM7.51599 10C7.51599 11.104 6.39699 12 5.01599 12C3.63499 12 1.51599 11 1.51599 10C1.51599 9 3.63499 8 5.01599 8C6.39599 8 7.51599 8.896 7.51599 10Z" fill="#FFAC33"/>
  <path d="M13.516 2C11.516 1 10.516 3 10.516 3C10.516 3 10.516 0 7.51599 0C4.51599 0 4.51599 3 4.51599 3C4.51599 3 1.51599 2.062 1.51599 5C1.51599 6.482 2.61699 7.411 3.99999 7.387V12C3.99999 13 4.26299 15 3.26299 16C2.26299 17 0.778991 20 3.77899 20C6.77899 20 6.77899 16 6.77899 13C7.77899 14 10.779 14 10.779 9C10.779 8.133 10.566 7.488 10.229 7H11.516C15.516 7 15.516 3 13.516 2Z" fill="#DD2E44"/>
  <path d="M32.5161 8.99999C36.5161 19 32.5161 31 19.5161 31C11.7841 31 6.51605 25 5.51605 20C4.33905 14.117 4.51605 12 4.51605 7.99999C4.51605 5.26199 6.63405 3.17599 9.51605 3.99999C16.5161 5.99999 14.5161 14 21.5161 14C31.5161 14 29.7461 2.07699 32.5161 8.99999Z" fill="#E1E8ED"/>
  <path d="M7.51599 9C8.06828 9 8.51599 8.55228 8.51599 8C8.51599 7.44772 8.06828 7 7.51599 7C6.96371 7 6.51599 7.44772 6.51599 8C6.51599 8.55228 6.96371 9 7.51599 9Z" fill="#292F33"/>
</svg>