<svg width="24" height="24" viewBox="0 0 24 24" fill="none" xmlns="http://www.w3.org/2000/svg">
  <path d="M24 14C24 17.3334 22 20 16.6667 21.3334C11.9587 22.5107 2.66667 20.7107 2.66667 20C2.66667 19.2474 4.33533 19.086 7.208 19.25C14.5 19.6667 16.3747 16.6787 15.208 15.75C13.1667 14.1254 10.9167 16 7.16667 15.6667C2.52133 15.254 0 11.648 0 10.6667C0 9.33337 7.81067 5.33337 13.3333 5.33337C18.856 5.33337 24 8.16671 24 14Z" fill="#66757F"/>
  <path d="M10 8.33331C10 8.88598 9.55267 9.33331 9 9.33331C8.44733 9.33331 8 8.88598 8 8.33331C8 7.78065 8.44733 7.99998 9 7.99998C9.55267 7.99998 10 7.78065 10 8.33331Z" fill="#292F33"/>
  <path d="M9.3333 6C10.6666 2.66667 12.8606 0 14.6386 0C16.4166 0 14 1.33333 17.3333 6.66667C20.6666 12 9.3333 6 9.3333 6ZM1.99996 20C1.99996 17.3333 1.30663 16 2.0973 16C2.88796 16 6.10463 18.6873 6.10463 20.16C6.10463 21.6327 2.8873 24 2.0973 24C1.30663 24 1.99996 22.6667 1.99996 20Z" fill="#66757F"/>
  <path d="M17.9473 15L23.2779 20C23.2779 20 21.1166 21.222 17.9473 15Z" fill="#292F33"/>
  <path d="M17.9473 15L21.6386 12.4447C21.6386 12.4447 24.2219 19.056 23.2779 20C21.5559 19.3334 17.9473 15 17.9473 15Z" fill="#66757F"/>
  <path d="M5.99984 13.538C5.99984 13.8667 5.66117 15.32 5.33317 15.32C5.00517 15.32 4.6665 13.8667 4.6665 13.538V12.352C4.6665 12.0234 5.00517 12.9447 5.33317 12.9447C5.66117 12.9447 5.99984 12.0234 5.99984 12.352V13.538V13.538ZM7.99984 13.538C7.99984 13.8667 7.66117 15.32 7.33317 15.32C7.00517 15.32 6.6665 13.8667 6.6665 13.538V12.352C6.6665 12.0234 7.00517 12.9447 7.33317 12.9447C7.66117 12.9447 7.99984 12.0234 7.99984 12.352V13.538V13.538ZM9.99984 12.8714C9.99984 13.2 9.66117 14.6534 9.33317 14.6534C9.00517 14.6534 8.6665 13.2 8.6665 12.8714V11.6854C8.6665 11.3567 9.00517 12.278 9.33317 12.278C9.66117 12.278 9.99984 11.3567 9.99984 11.6854V12.8714V12.8714ZM11.9998 12.8714C11.9998 13.2 11.6612 14.6534 11.3332 14.6534C11.0052 14.6534 10.6665 13.2 10.6665 12.8714V11.6854C10.6665 11.3567 11.0052 12.278 11.3332 12.278C11.6612 12.278 11.9998 11.3567 11.9998 11.6854V12.8714V12.8714Z" fill="white"/>
  <path d="M4 13.3334L8.66667 12.6667H12.6667V11.3334H4V13.3334Z" fill="#66757F"/>
  <path d="M12.2782 12.778C9.6115 11.3893 3.35483 12.7707 2.3335 13.7867C2.64616 14.0267 2.99216 14.258 3.36483 14.472C7.4375 12.2847 12.7528 13.026 12.2782 12.778V12.778Z" fill="#292F33"/>
</svg>
