<svg width="32" height="31" viewBox="0 0 32 31" fill="none" xmlns="http://www.w3.org/2000/svg">
<path d="M26.8401 17.6385C25.8531 18.6825 25.2071 20.7055 25.4021 22.1315L26.2941 28.5725C26.4911 29.9995 25.5931 30.6595 24.2981 30.0415L18.4471 27.2455C17.1521 26.6255 15.0391 26.6345 13.7471 27.2635L7.92109 30.1055C6.63009 30.7345 5.72809 30.0795 5.91409 28.6535L6.75709 22.2045C6.94309 20.7775 6.28209 18.7605 5.28709 17.7235L0.793091 13.0355C-0.202909 11.9985 0.138091 10.9335 1.54809 10.6705L7.91809 9.48248C9.32809 9.21948 11.0341 7.96448 11.7111 6.69348L14.7621 0.956482C15.4371 -0.314518 16.5511 -0.317518 17.2351 0.947482L20.3301 6.66048C21.0161 7.92548 22.7301 9.16748 24.1441 9.41848L30.5221 10.5595C31.9341 10.8115 32.2831 11.8735 31.2961 12.9185L26.8401 17.6385Z" fill="#FFAC33"/>
</svg>
