<svg width="36" height="36" viewBox="0 0 36 36" fill="none" xmlns="http://www.w3.org/2000/svg">
  <path d="M30.1906 15.1161C30.0437 15.0315 29.8968 14.947 29.729 14.8624C29.6031 14.799 29.4563 14.7356 29.3304 14.6722C29.2045 14.6299 29.0996 14.5665 28.9738 14.5242C28.785 14.4397 28.5752 14.3763 28.3654 14.334C28.2185 14.2917 28.0717 14.2494 27.9248 14.2072C27.7989 14.1649 27.6731 14.1438 27.5682 14.1226C27.2325 14.0592 26.9178 13.9958 26.5822 13.9535C26.4143 13.9324 26.2675 13.9112 26.0996 13.9112C25.9738 13.9112 25.8479 13.8901 25.743 13.8901C25.5752 13.869 25.4073 13.869 25.2395 13.869C25.0717 13.869 24.9038 13.869 24.736 13.869C24.6101 13.869 24.4843 13.869 24.3794 13.869C24.0647 13.869 23.75 13.869 23.4353 13.8901C23.4143 13.8901 23.3934 13.8901 23.3934 13.8901C23.2255 13.8901 23.0787 13.8901 22.9528 13.8901C22.8269 13.8901 22.722 13.8901 22.5961 13.8901C22.4073 13.8901 22.2395 13.8901 22.0717 13.869C21.9038 13.869 21.736 13.8478 21.5892 13.8478C21.4633 13.8478 21.3374 13.8267 21.2115 13.8056C20.8339 13.7633 20.5192 13.6999 20.1836 13.6153C20.0367 13.573 19.8899 13.5308 19.743 13.4885C19.6171 13.4462 19.4913 13.4039 19.3654 13.3617C19.1766 13.2982 18.9878 13.2348 18.7989 13.1714C18.6311 13.108 18.4633 13.0446 18.2745 12.9812C18.2535 12.9812 18.2325 12.96 18.1906 12.96C18.0857 12.9178 17.9808 12.8755 17.8759 12.8332C17.708 12.7698 17.5612 12.7064 17.3724 12.6641C17.1206 12.5796 16.8689 12.495 16.5752 12.3893C16.4493 12.3471 16.3234 12.3048 16.1975 12.2625C16.1556 12.2414 16.0927 12.2202 16.0297 12.2202C15.757 12.1357 15.4423 12.03 15.1066 11.9243C15.0017 11.882 14.8968 11.8609 14.771 11.8186C14.75 11.8186 14.729 11.7975 14.708 11.7975C13.3234 11.3747 11.4143 8.90161 10.2185 8.98616C10.0927 7.63335 9.27447 7.25287 8.39335 8.75364C6.9458 8.92274 5.12062 10.8674 4.09265 12.1145C4.13461 12.2625 4.21853 12.3893 4.32342 12.5162C4.3444 12.5584 4.36538 12.5796 4.40734 12.6218C4.49125 12.7275 4.59615 12.8121 4.72202 12.8755C4.72202 12.8755 4.72202 12.8755 4.70104 12.8755H4.68006C4.65908 12.8755 4.65909 12.8966 4.63811 12.8966C4.61713 12.9178 4.59615 12.9178 4.55419 12.9389C4.47027 13.0023 4.3444 13.1291 4.26048 13.3617C4.19755 13.5096 4.15559 13.6999 4.13461 13.9324L4.17657 14.7356L4.19755 15.0738L4.21853 15.4332L5.77097 16.0884L6.42132 15.4332C6.92482 14.9681 7.51223 15.0949 8.03671 15.56L8.62412 16.3421L9.58915 15.56L9.67307 15.4966C9.69405 15.5388 9.71503 15.6023 9.73601 15.6445C10.701 17.9485 11.2675 19.0477 11.4982 19.4916C11.6031 19.6607 11.6451 19.7241 11.6451 19.7241C11.6871 19.9355 11.9178 22.7891 12.1906 23.846C12.2115 23.9305 12.2325 24.0151 12.2535 24.0996C12.2954 24.2476 12.3164 24.3744 12.3584 24.5224C12.3794 24.5858 12.3794 24.628 12.4003 24.6915C12.4213 24.7549 12.4423 24.8394 12.4633 24.9028C12.4633 24.924 12.4843 24.9451 12.4843 24.9662C12.4843 24.9874 12.5052 25.0297 12.5052 25.0508C12.5052 25.0719 12.5262 25.0931 12.5262 25.1142C13.1556 27.6085 12.757 33.7173 11.9598 33.8229C10.6381 34.0132 10.1853 35.8098 10.5 36C10.9211 36 16 36 16 36L18.8829 26.5093C22.9318 28.2426 23.9388 26.3191 23.9598 26.3825C24.1906 27.1434 24.6101 27.5873 25.0717 27.9255C25.1346 27.9678 25.1975 28.0312 25.2605 28.0946C26.2255 28.9824 27.2954 31.1596 27.2745 32.914C27.2745 32.9774 27.2745 33.0197 27.2745 33.0831C27.2535 33.0831 27.2325 33.0831 27.2325 33.0831H27.2115C24.6311 33.0197 25.5 36 25.5 36H31C32.972 33.0619 32.3933 26.1711 32.3933 26.1711C30.3374 24.7549 33.4003 22.0492 31.9108 19.2168C33.2325 20.3582 33.757 20.8655 34.1766 23.6557C34.4493 25.4736 31.9108 29.6377 33.4633 29.7645C34.9108 29.8702 34.5752 29.2572 35.2465 27.3759C36.8199 22.937 36.1906 15.9193 30.1906 15.1161ZM9.67307 9.95849C9.67307 9.97963 9.67307 9.97963 9.67307 10.0008C9.67307 10.043 9.67307 10.0642 9.65209 10.1065C9.63111 10.2121 9.63111 10.2967 9.61013 10.3601L8.72901 9.32436C8.72901 9.30322 8.74999 9.28209 8.74999 9.28209C8.77097 9.23981 8.79195 9.21867 8.81293 9.1764C8.91783 8.98616 9.00174 8.85933 9.08566 8.77478C9.10664 8.75364 9.10664 8.75364 9.12762 8.73251C9.33741 8.52113 9.46328 8.58454 9.56818 8.79592C9.69405 9.04957 9.71503 9.55688 9.67307 9.95849Z" fill="#FFB100"/>
  <path d="M25.8689 21.0134C25.8689 21.0134 25.8689 21.0327 25.8689 21.0134" stroke="#FFB100" stroke-miterlimit="10"/>
  <path d="M18.1696 12.9811C18.1067 13.277 18.6941 11.0153 14.5403 26.636C13.7011 26.2344 13.0717 25.7482 12.5473 25.1141C12.2536 24.7759 12.0018 24.3954 11.771 23.9727V23.9515C11.3095 23.106 10.9109 22.0914 10.4494 20.8866L10.2396 20.3581C10.0508 19.8931 9.86195 19.4069 9.65216 18.8573C9.54727 18.6248 9.46335 18.3923 9.37944 18.1598L7.78503 19.4703C5.70811 16.7436 5.18363 17.3566 3.44237 19.111L1.09272 18.0964V17.9907C1.05077 17.4834 0.98783 16.8281 0.98783 16.194C0.98783 16.0672 0.98783 15.9615 0.98783 15.8558C0.98783 15.6867 1.00881 15.5387 1.02979 15.3908C1.1137 14.8412 1.34447 14.3761 1.78503 14.207C1.93189 14.1225 1.28154 14.0591 0.882935 13.0233C0.924893 12.9811 0.966851 12.9388 0.98783 12.8965C2.58223 11.0153 5.28853 8.16167 7.42839 7.92915C8.79202 5.64628 10.2186 8.28849 10.2186 8.28849C10.2186 8.28849 11.1207 7.78119 13.5333 9.38765C14.6661 10.1486 15.4004 10.7193 15.9459 11.2055C16.5123 11.6917 16.8899 12.0721 17.3515 12.4315C17.5822 12.6006 17.855 12.7908 18.1696 12.9811Z" fill="#FFB100"/>
  <path d="M6.23438 13.4688C6.9161 13.4688 7.46875 12.9161 7.46875 12.2344C7.46875 11.5526 6.9161 11 6.23438 11C5.55265 11 5 11.5526 5 12.2344C5 12.9161 5.55265 13.4688 6.23438 13.4688Z" fill="#103039"/>
  <path d="M2.07869 14.1648C2.07869 14.1648 1.13463 14.1648 0.945824 15.877L0.358411 15.3697C-0.0821482 14.9046 -0.124106 14.1859 0.274495 13.6998C0.463306 13.4461 0.715055 13.1502 0.966803 12.8331C1.15561 13.2982 1.49128 13.8266 2.07869 14.1648Z" fill="#103039"/>
  <path d="M12.5472 25.1353C11.5402 24.1418 10.3444 20.5484 9.35839 18.1599L7.78496 19.4704C5.70804 16.7436 5.18356 17.3566 3.4423 19.1111L1.09265 18.0965L0.945801 15.877C2.87587 15.0949 7.57517 14.4608 9.40035 15.4542C11.0996 16.3843 11.8969 17.8428 12.4423 19.1322C14.0367 22.8947 12.5262 25.0296 12.5472 25.1353Z" fill="#F2F2F2"/>
  <path d="M27.2325 33.1886C27.3164 31.2862 26.1416 28.7286 25.1136 27.9676C24.6521 27.6294 24.2325 27.1855 24.0017 26.4246C23.9807 26.34 22.9738 28.2847 18.9248 26.5514L19.5752 25.1352L19.1556 24.4376C19.1556 24.4376 30.736 22.9791 27.2325 33.1886Z" fill="#F2F2F2"/>
  <path d="M19.9947 18.0753C19.9318 18.3924 19.6591 18.6249 19.3444 18.6249C19.3024 18.6249 19.2605 18.6249 19.2185 18.6249C18.8619 18.5615 18.6311 18.2233 18.694 17.8639C19.0297 15.9827 18.9458 14.3973 18.757 13.2136C18.9458 13.277 19.1346 13.3404 19.3234 13.4039C19.4493 13.4461 19.5752 13.4884 19.701 13.5307C19.8479 13.573 19.9947 13.6152 20.1416 13.6575C20.2884 14.8412 20.3094 16.3631 19.9947 18.0753Z" fill="#103039"/>
  <path d="M17.3514 12.6851C17.3723 13.5729 17.2884 14.5452 17.0996 15.6232C17.0367 15.9403 16.7639 16.1728 16.4493 16.1728C16.4073 16.1728 16.3653 16.1728 16.3234 16.1517C15.9667 16.0882 15.736 15.75 15.7989 15.3907C16.0087 14.207 16.0507 13.1501 16.0087 12.2412C15.9877 11.8607 15.9667 11.5225 15.9248 11.2054C16.4912 11.6916 16.8688 12.0721 17.3304 12.4314C17.3514 12.4948 17.3514 12.6005 17.3514 12.6851Z" fill="#103039"/>
  <path d="M23.2466 18.7304C23.1836 19.0475 22.9109 19.28 22.5962 19.28C22.5543 19.28 22.5123 19.28 22.4704 19.2589C22.1137 19.1955 21.8829 18.8573 21.9459 18.4979C22.2815 16.6378 22.1976 15.0736 22.0298 13.8899C22.1976 13.8899 22.3655 13.911 22.5543 13.911C22.6592 13.911 22.785 13.911 22.9109 13.911C23.0578 13.911 23.2046 13.911 23.3515 13.911C23.5403 15.1582 23.5822 16.8069 23.2466 18.7304Z" fill="#103039"/>
  <path d="M26.6778 20.3259C26.5973 20.7148 26.2482 21 25.8455 21C25.7918 21 25.7381 21 25.6844 21C25.228 20.9222 24.9327 20.5074 25.0132 20.0667C25.4696 17.5519 25.3086 15.4778 25.0401 14C25.2549 14 25.4696 14.0259 25.6844 14.0259C25.8455 14.0259 26.0066 14.0519 26.1409 14.0519C26.3556 14.0778 26.5436 14.1037 26.7584 14.1037C27.0537 15.6852 27.1342 17.8111 26.6778 20.3259Z" fill="#103039"/>
  <path d="M29.5193 19.3477C29.4563 19.724 29.1836 20 28.8689 20C28.827 20 28.785 20 28.7431 20C28.3864 19.9247 28.1556 19.5233 28.2186 19.0968C28.4913 17.2402 28.4913 15.6345 28.3654 14.355C28.5752 14.4302 28.764 14.5055 28.9738 14.5808C29.0997 14.631 29.2046 14.6811 29.3305 14.7564C29.4773 14.8317 29.6032 14.9069 29.7291 14.9822C29.792 16.2116 29.75 17.6918 29.5193 19.3477Z" fill="#103039"/>
</svg>
