<svg width="28" height="28" viewBox="0 0 28 28" fill="none"
  xmlns="http://www.w3.org/2000/svg">
  <path d="M28 14C28 21.7319 21.7319 28 14 28C6.26889 28 0 21.7319 0 14C0 6.26889 6.26889 0 14 0C21.7319 0 28 6.26889 28 14Z" fill="#FFCC4D"/>
  <path d="M12.0221 12.3007C11.9754 12.1957 10.8562 9.73633 8.55552 9.73633C6.25563 9.73633 5.13563 12.1957 5.08897 12.3007C5.01741 12.4617 5.06408 12.6499 5.20097 12.7603C5.33863 12.8716 5.53308 12.8747 5.67541 12.7712C5.68552 12.7642 6.65697 12.0697 8.55552 12.0697C10.4424 12.0697 11.4131 12.7549 11.4349 12.7704C11.5033 12.8218 11.585 12.8474 11.6666 12.8474C11.7522 12.8474 11.8385 12.8187 11.9085 12.7627C12.0477 12.6522 12.0936 12.4624 12.0221 12.3007Z" fill="#66471B"/>
  <path d="M24.1111 10.4999C24.1111 13.2921 21.8478 15.5554 19.0556 15.5554C16.2633 15.5554 14 13.2921 14 10.4999C14 7.70767 16.2633 5.44434 19.0556 5.44434C21.8478 5.44434 24.1111 7.70767 24.1111 10.4999Z" fill="#F5F8FA"/>
  <path d="M19.0558 12.4446C20.1297 12.4446 21.0002 11.574 21.0002 10.5001C21.0002 9.42622 20.1297 8.55566 19.0558 8.55566C17.9819 8.55566 17.1113 9.42622 17.1113 10.5001C17.1113 11.574 17.9819 12.4446 19.0558 12.4446Z" fill="#292F33"/>
  <path d="M5.44434 16.5371C5.44434 19.6202 9.019 23.5371 13.9999 23.5371C18.9808 23.5371 22.5554 19.6482 22.5554 16.5371C22.5554 16.5371 14.5187 18.6807 5.44434 16.5371Z" fill="#66471B"/>
  <path d="M14.4241 18.3586L13.5755 18.3547C11.0742 18.2971 9.3335 17.8911 9.3335 17.8911V23.3052C9.3335 25.6386 10.8891 27.9719 14.0002 27.9719C17.1113 27.9719 18.6668 25.6386 18.6668 23.3052V17.923C17.1719 18.2294 15.7214 18.3446 14.4241 18.3586V18.3586Z" fill="#E8596E"/>
  <path d="M13.9999 24.7667C14.234 24.7667 14.4238 24.577 14.4238 24.3428V18.3586L13.5752 18.3547V24.3428C13.576 24.577 13.7658 24.7667 13.9999 24.7667V24.7667Z" fill="#DD2F45"/>
</svg>