<svg width="28" height="28" viewBox="0 0 28 28" fill="none"
  xmlns="http://www.w3.org/2000/svg">
  <path d="M14 28C21.732 28 28 21.732 28 14C28 6.26801 21.732 0 14 0C6.26801 0 0 6.26801 0 14C0 21.732 6.26801 28 14 28Z" fill="#FFCC4D"/>
  <path d="M5.44387 13.2222C5.3272 13.2222 5.2082 13.1958 5.09698 13.1405C4.71276 12.9484 4.5572 12.481 4.74932 12.0968C4.78976 12.0151 5.77443 10.1111 8.55576 10.1111C11.3379 10.1111 12.3218 12.0159 12.3622 12.0968C12.5543 12.481 12.398 12.9484 12.0145 13.1405C11.6326 13.3326 11.1706 13.1786 10.9754 12.8014C10.9412 12.7384 10.3291 11.6666 8.55576 11.6666C6.75365 11.6666 6.14543 12.7812 6.13998 12.7921C6.00387 13.0651 5.72932 13.2222 5.44387 13.2222ZM22.5558 13.2222C22.6724 13.2222 22.7914 13.1958 22.9026 13.1405C23.2869 12.9484 23.4424 12.481 23.2503 12.0968C23.2099 12.0151 22.2252 10.1111 19.4439 10.1111C16.6618 10.1111 15.6779 12.0159 15.6374 12.0968C15.4453 12.481 15.6016 12.9484 15.9851 13.1405C16.367 13.3326 16.829 13.1786 17.0242 12.8014C17.0584 12.7384 17.6705 11.6666 19.4439 11.6666C21.246 11.6666 21.8542 12.7812 21.8596 12.7921C21.9958 13.0651 22.2703 13.2222 22.5558 13.2222ZM22.947 18.2933C23.1982 17.7108 23.3055 17.3156 23.3094 17.3001C23.4136 16.8848 23.1616 16.464 22.7455 16.359C22.3286 16.2532 21.9079 16.5052 21.8005 16.9213C21.743 17.1508 20.2854 22.5555 14.0002 22.5555C7.71498 22.5555 6.25743 17.1508 6.19909 16.9205C6.09176 16.5052 5.67098 16.2532 5.25409 16.3582C4.83876 16.4632 4.58676 16.884 4.6902 17.2993C4.70732 17.3678 6.47987 24.1111 14.0002 24.1111C15.2835 24.1111 16.388 23.9042 17.3563 23.5783C20.7241 22.4443 22.3139 19.7594 22.947 18.2933Z" fill="#664500"/>
  <path d="M25.2057 20.752L22.9065 18.379C22.9065 18.379 22.3777 18.0383 21.9164 18.8208C21.3098 19.849 20.3025 21.1035 18.8567 22.0649C18.2492 22.4685 17.193 22.9896 16.759 23.09C16.1873 23.2214 16.4572 23.8398 16.4572 23.8398C16.9122 23.741 17.2747 23.6056 17.2747 23.6056L17.5049 23.8359L19.6251 25.9561C20.9691 27.3001 23.514 27.5116 25.0695 25.9561C26.6251 24.4005 26.5504 22.0968 25.2057 20.752Z" fill="#E75B70"/>
  <path d="M23.2674 24.1686C23.433 24.0029 23.433 23.7346 23.2674 23.5689L20.4448 20.7463L19.8257 21.3281L22.6669 24.1693C22.8326 24.3342 23.1017 24.3342 23.2674 24.1686Z" fill="#DE3146"/>
</svg>