<svg xmlns="http://www.w3.org/2000/svg" width="36" height="36" viewBox="0 0 36 36">
    <path fill="#77B255"
        d="M11 9.12c0 12.25 7.36 12.04 5.78 12.54-7.83 2.49-9.85-9.48-10.59-9.48-2.66 0-6.19-.52-6.19-3.06C0 6.6 2.75 3 6.88 3 9.54 3 11 6.59 11 9.12ZM16.43 32.57c0 3.31-1.66 3.43-3.71 3.43C10.66 36 9 35.88 9 32.57c0-.59.11-1.23.3-1.9.9-3.11 3.58-6.67 5.27-6.67 2.05 0 1.86 5.26 1.86 8.57Zm11.14 0c0 3.31 1.66 3.43 3.71 3.43 2.06 0 3.72-.12 3.72-3.43 0-.59-.11-1.23-.3-1.9-.9-3.11-3.58-6.67-5.27-6.67-2.05 0-1.86 5.26-1.86 8.57Z" />
    <path fill="#3E721D" d="M36 23.75C36 29 29.5 29 21.5 29S7 29 7 23.75C7 15.05 13.5 8 21.5 8S36 15.05 36 23.75Z" />
    <path fill="#292F33" d="M6 8c.55 0 1-.67 1-1.5S6.55 5 6 5s-1 .67-1 1.5S5.45 8 6 8Z" />
    <path fill="#5C913B"
        d="M23.91 20.8c0 4.79-.52 5.2-2.41 5.2-1.89 0-2.41-.41-2.41-5.2S19.6 10 21.5 10c1.89 0 2.41 6.01 2.41 10.8Zm7.83-1.47c.94 4.65-.84 5.34-2.73 5.34-1.88 0-2.73.92-2.73-3.87s-1.2-8.67.68-8.67c1.89 0 3.7 1.87 4.78 7.2ZM16.72 20.8c0 4.79-.85 3.87-2.73 3.87-1.89 0-3.67-.7-2.73-5.34 1.08-5.33 3.5-7.2 5.39-7.2 1.89 0 .07 3.88.07 8.67Z" />
</svg>