<svg width="24" height="24" viewBox="0 0 24 24" xmlns="http://www.w3.org/2000/svg">
  <path d="M21.3333 7.99999C22.748 6.58532 24.6667 17.5413 19.3333 22C17.4953 23.5367 15.3333 23.9793 14 23.9793C12.4193 23.9793 7.314 24 5.33333 24C0.546667 24 0 20.7167 0 16.6667C0 12.6167 0.546667 9.33332 5.33333 9.33332C9.33333 9.33332 12 10.6667 14 11.9973C17.318 14.2053 17.9947 14.5713 19.3333 13.3333C21.4753 11.3533 20 9.33332 21.3333 7.99999Z" fill="#3B88C3"/>
  <path d="M22.6669 15.3333C22.3569 17.818 21.3062 20.3487 19.3316 22C17.4936 23.5367 15.3316 23.9793 13.9982 23.9793C12.4176 23.9793 7.31223 24 5.33157 24C2.64157 24 1.29023 22.9633 0.623566 21.336C0.1029 20.068 2.6649 22 9.99823 22C19.3316 22 21.3316 18.6667 22.6669 15.3333Z" fill="#55ACEE"/>
  <path d="M21.3336 9.33332C24.0822 9.33332 24.0002 5.99999 24.0002 4.66665C24.0002 3.33332 22.6669 5.33332 20.6669 5.99999C18.6669 6.66665 16.0002 4.66665 16.6669 5.99999C17.3336 7.33332 18.6669 9.33332 21.3336 9.33332Z" fill="#3B88C3"/>
  <path d="M6.66667 4.66666C6.66667 6.13933 6.06933 8.66667 5.33333 8.66667C4.59733 8.66667 4 6.13933 4 4.66666C4 3.194 4.59733 3.33333 5.33333 3.33333C6.06933 3.33333 6.66667 3.194 6.66667 4.66666Z" fill="#55ACEE"/>
  <path d="M5.33203 3.33334C5.33203 1.33334 1.33203 2 1.33203 3.33334C1.33203 4.66667 3.33203 4 3.9987 5.33334C4.66536 6.66667 5.33203 3.33334 5.33203 3.33334ZM5.33203 3.33334C5.33203 1.33334 9.33203 2 9.33203 3.33334C9.33203 4.66667 7.33203 4 6.66537 5.33334C5.9987 6.66667 5.33203 3.33334 5.33203 3.33334Z" fill="#55ACEE"/>
  <path d="M4.33203 18C4.88432 18 5.33203 17.5523 5.33203 17C5.33203 16.4477 4.88432 16 4.33203 16C3.77975 16 3.33203 16.4477 3.33203 17C3.33203 17.5523 3.77975 18 4.33203 18Z" fill="#292F33"/>
</svg>