<svg width="41" height="40" viewBox="0 0 41 40" fill="none" xmlns="http://www.w3.org/2000/svg">
<g clip-path="url(#clip0)">
<path d="M20.0537 40C31.129 40 40.1074 31.0457 40.1074 20C40.1074 8.9543 31.129 0 20.0537 0C8.97834 0 0 8.9543 0 20C0 31.0457 8.97834 40 20.0537 40Z" fill="#2D3642"/>
<path fill-rule="evenodd" clip-rule="evenodd" d="M20.0661 6.90122C18.6211 6.90122 17.493 7.46701 16.7465 8.38602C16.0236 9.27608 15.7211 10.4172 15.7211 11.5062C15.7211 12.6577 16.176 13.9524 16.8788 14.9627C17.5671 15.9521 18.6664 16.9012 20.0661 16.9012C21.4639 16.9012 22.5633 15.9574 23.2529 14.968C23.9566 13.9582 24.411 12.6632 24.411 11.5062C24.411 10.42 24.1223 9.27681 23.4014 8.38372C22.6553 7.45936 21.5232 6.90122 20.0661 6.90122ZM17.7017 11.5062C17.7017 10.7556 17.9129 10.0881 18.2855 9.62938C18.6346 9.19963 19.1838 8.87653 20.0661 8.87653C20.9733 8.87653 21.5185 9.2011 21.8586 9.62242C22.224 10.075 22.4304 10.7405 22.4304 11.5062C22.4304 12.201 22.1359 13.1097 21.6265 13.8406C21.1029 14.5919 20.525 14.9259 20.0661 14.9259C19.6089 14.9259 19.0309 14.5911 18.5061 13.8367C17.9957 13.1031 17.7017 12.1941 17.7017 11.5062Z" fill="url(#paint0_linear)"/>
<path d="M13.4578 21.3643C11.4505 21.1419 9.79165 22.7433 9.79165 24.3827C9.79165 26.0136 11.0809 27.4938 13.5053 27.4938C14.3771 27.4938 15.2677 27.1126 16.2461 26.4022C17.3855 25.5748 18.3307 24.6022 19.277 23.6283C20.2258 22.6519 21.1759 21.6742 22.3241 20.8404C23.4625 20.0138 24.7629 19.3704 26.2307 19.3704C29.5748 19.3704 31.925 21.5691 31.925 24.4568C31.925 27.3357 29.1773 29.7835 26.0601 29.4385C24.8084 29.3012 23.3404 28.8789 22.1602 27.7321L23.5424 26.3173C24.2931 27.0468 25.2758 27.3653 26.277 27.475L26.2782 27.4752C28.2855 27.6976 29.9443 26.0962 29.9443 24.4568C29.9443 22.8259 28.6551 21.3457 26.2307 21.3457C25.3589 21.3457 24.4683 21.7269 23.4899 22.4373C22.3505 23.2647 21.4053 24.2373 20.459 25.2112C19.5102 26.1876 18.5601 27.1653 17.4119 27.9991C16.2735 28.8257 14.9731 29.4691 13.5053 29.4691C10.1612 29.4691 7.81104 27.2704 7.81104 24.3827C7.81104 21.5038 10.5587 19.056 13.676 19.401C14.9276 19.5383 16.3956 19.9606 17.5758 21.1074L16.1936 22.5222C15.4429 21.7927 14.4602 21.4742 13.459 21.3645L13.4578 21.3643Z" fill="url(#paint1_linear)"/>
</g>
<defs>
<linearGradient id="paint0_linear" x1="6.75072" y1="16.3889" x2="22.7958" y2="32.477" gradientUnits="userSpaceOnUse">
<stop stop-color="#6046FF"/>
<stop offset="1" stop-color="#46D7AB"/>
</linearGradient>
<linearGradient id="paint1_linear" x1="6.75072" y1="16.3889" x2="22.7958" y2="32.477" gradientUnits="userSpaceOnUse">
<stop stop-color="#6046FF"/>
<stop offset="1" stop-color="#46D7AB"/>
</linearGradient>
<clipPath id="clip0">
<rect width="40.1074" height="40" fill="white"/>
</clipPath>
</defs>
</svg>
