<svg width="600" height="600" viewBox="0 0 600 600" xmlns="http://www.w3.org/2000/svg"><path fill-rule="evenodd" clip-rule="evenodd" d="M257.38 145.06c-3-5.44-13.78-27.82-.03-46.32 8.37-11.33 18.39-8.25 23.96-5.1 22.9-29.36 57.43 4.68 63.76 16.39 10.7 20-4.6 36.4-4.6 36.4a27.7 27.7 0 0 0-.56-3.02c.07 1.22.1 2.45.1 3.7a4.7 4.7 0 0 1 2.83 4.3v1.05a4.68 4.68 0 0 1-3.53 4.53c-1.65 11.34-6.1 21.38-12.38 29.02a43.98 43.98 0 0 1-8.92 8.17v.8a30.37 30.37 0 0 1-5.75 2.41c-.74.33-1.49.63-2.25.91.3 2.47.74 5.06 1.46 7.52.44 1.5 1.33 4.06 2.23 5.42l-.16.23c2.47 3.67 7.16 6.58 11.75 6.84.9.06 1.88-.01 2.96-.1 1.8-.12 3.9-.28 6.41.1 36.64 5.78 45.9 47.37 51.5 72.57 1.1 4.97 2.07 9.3 3.07 12.6v.3a52.25 52.25 0 0 1-2.06 4.98l.12.12v.01c-.44.9-.89 1.8-1.33 2.86l.15.15a36.33 36.33 0 0 0 3.71 7.07c0 .04-.02.08-.04.12l-.03.07c11.01 16.63 38.65 35.82 70.4 42.84 18.89 4.07 33.46 2.11 41.2-5.71.59-3.47 2.22-11.9 4.45-14.15-.15-.15-.3-.45-.3-.9 0-2.26 4.46-3.01 6.55-3.01 9.66 0 13.38 3.76 9.51 12.79a70.42 70.42 0 0 0 3.72-4.74c2.81-3.78 5.88-7.9 7.58-7.9 1.49 0 2.08 2.1 2.08 3.91 0 2.96-2.19 5.86-4.25 8.6-1.3 1.72-2.55 3.38-3.18 4.94 1.62-.72 3.08-2.24 4.5-3.73 1.83-1.93 3.6-3.79 5.61-3.79 1.49 0 2.38 1.06 2.38 1.96v.73c0 1.98 0 5.57-6.4 11.76-13.82 14.9-100.2 50.85-163.4-25.58-.3-.3-.56-.64-.82-.98-.19-.25-.37-.49-.58-.72-.92.76-1.85 1.4-2.84 1.94l-1.05.66a14.42 14.42 0 0 1-5.8 1.8l-.16-.01h-.16l-.19.01c-.3.16-.6-.14-.6-.3a95 95 0 0 0-4.08-10.87 140.23 140.23 0 0 0-1.65 22.16c0 2.7 0 5.41.15 8.27 0 .75 0 1.36.15 2.1 0 .38.04.76.08 1.13l.01.14.02.17c.88-.05 1.77-.07 2.65-.07 10.7 0 17.55 4.5 20.52 8.27l.15.15c1.04 1.36 1.48 2.56 1.48 3.46 0 1.02-.54 1.98-1.55 2.91 89 26.56 61.43 82.89 42.6 95.8-26.94 18.44-58.94-3.65-97.09-29.98-10.71-7.4-21.9-15.13-33.62-22.39l-.04.02c-1.78.8-4.3 2.46-7.39 4.8l-.15-.13-.6.43c-5.46 4.05-11.8 9.9-18.69 16.24-18.95 17.46-41.92 38.62-61.44 35.97-64.69-8.73-35.99-92.83 4.16-99.6-.13-.3-.35-.73-.63-1.26-3.18-2.45-6.53-7.68-5.77-12-9.56 6.31-36.3 20.88-64.82 22.13-34.05 1.5-65.43-10.98-73.9-19.56-5.8-5.87-5.65-9.63-5.5-11.58v-.6c0-.9.89-1.96 2.38-1.96 2.04 0 3.9 1.93 5.77 3.88 1.4 1.46 2.81 2.94 4.34 3.64-.63-1.56-1.87-3.18-3.16-4.87-2.07-2.72-4.28-5.6-4.28-8.67 0-1.8.6-3.91 2.08-3.91 1.81 0 4.84 4.12 7.63 7.9a66.18 66.18 0 0 0 3.67 4.74c-3.86-8.88-.3-12.8 9.52-12.8 2.08 0 6.54.76 6.54 3.02 0 .3 0 .6-.3.9 2.24 2.26 4.02 10.53 4.47 14.14 21.94 22.36 92.68-7.35 111.8-37.51-.38-.54-.75-1.07-1.11-1.61-.45-.75-.9-1.5-1.2-2.26a34.74 34.74 0 0 1-2.96-7.97c0-.13 0-.26.09-.39l-.02-.06c0-.15 0-.3.15-.45 4.67-4.93 7.79-13.33 10.89-23.12l1.57-5.1.25-.83a287.06 287.06 0 0 1 6.66-19.9c7.7-19.92 19.75-38.57 46.2-42.08.74-.1 1.37-.2 1.91-.25a54.48 54.48 0 0 1 5.08-.43c.56-.04 1.12-.08 1.5-.08 1.5-.23 2.82-.74 4.1-1.52a10.56 10.56 0 0 0 4.51-6.3c1.22-5.2 1.45-10.38 1.26-15.8-12.47-6.86-21.75-21.36-24.33-38.92h-.42c-2.53 0-4.6-2.1-4.6-4.66v-1.06c0-2.45 1.91-4.5 4.3-4.65l.04-1.7Zm5.85 260.03.06-.05-1.63-1c-2.58-1.58-7.48-4.6-12.24-7.18-3.64 2.5-7.33 4.08-10.66 4.11-.9 0-1.79-.15-2.23-.9-.9-1.35-.15-3.76.15-4.51.39-1.07.85-2.19 1.4-3.33-.08 0-.15 0-.21.02l-.1.03-.05.12h-.15l-.06-.03c-52.12 17.52-49.86 59.3-32.95 57.65 20.16-1.88 36.3-20.5 47.35-33.24 3.05-3.52 5.71-6.59 7.96-8.73l.01-.01 3.26-3 .1.05Zm-27.05-74.54.22.87c.97 4.05 1.98 8.26 1.98 12.98 0 4.66-.6 9.63-1.19 14.44-.27 1.89-.53 3.78-.7 5.67-4.34-1.86-9.73-4-14.33-4.83-1.25-.3-2.41-.54-3.47-.69-5.26-.64-9.34-.64-12.47-.16 4.75-4.07 9.29-8.5 13.2-12.93.9-.9 1.67-1.79 2.43-2.68a67.27 67.27 0 0 0 6.72 4.34h.44c.06-.06.12-.1.17-.13.07-.05.13-.08.13-.18l.04-.08c.2 0 .38-.1.49-.21 2.66-5 4.24-9.9 5.85-14.87l.5-1.54Zm-152 25.25.24.19c0-1.96.15-5.42.45-7.53-.31.05-.64.1-1 .14h-.01c-1.86.25-4.21.56-5.83 1.82 1.13 1.58 4.3 3.99 6.15 5.38Zm314.12 88.5c-13.83 6.63-33.16-3.45-74.64-34.75 64.83-24.38 92.78 26.03 74.64 34.76Zm111.53-100.96-1.06-.14c.3 1.95.45 5.56.45 7.52.4-.33.91-.73 1.48-1.17 1.75-1.38 4.02-3.15 4.92-4.4-1.5-1.25-3.91-1.57-5.8-1.81Z" fill="#1E242C"/></svg>