<svg width="40" height="40" viewBox="0 0 40 40" fill="none" xmlns="http://www.w3.org/2000/svg">
<g clip-path="url(#clip0)">
<path d="M19.8538 40C30.8188 40 39.7076 31.0457 39.7076 20C39.7076 8.9543 30.8188 0 19.8538 0C8.88886 0 0 8.9543 0 20C0 31.0457 8.88886 40 19.8538 40Z" fill="#0B0F14"/>
<path fill-rule="evenodd" clip-rule="evenodd" d="M19.866 6.90122C18.4355 6.90122 17.3186 7.46701 16.5796 8.38602C15.8638 9.27608 15.5644 10.4172 15.5644 11.5062C15.5644 12.6577 16.0147 13.9524 16.7105 14.9627C17.392 15.9521 18.4803 16.9012 19.866 16.9012C21.25 16.9012 22.3384 15.9574 23.0211 14.968C23.7178 13.9582 24.1677 12.6632 24.1677 11.5062C24.1677 10.42 23.8819 9.27681 23.1682 8.38372C22.4294 7.45936 21.3086 6.90122 19.866 6.90122ZM17.5252 11.5062C17.5252 10.7556 17.7344 10.0881 18.1032 9.62938C18.4488 9.19963 18.9926 8.87653 19.866 8.87653C20.7642 8.87653 21.304 9.2011 21.6407 9.62242C22.0024 10.075 22.2068 10.7405 22.2068 11.5062C22.2068 12.201 21.9153 13.1097 21.4109 13.8406C20.8926 14.5919 20.3204 14.9259 19.866 14.9259C19.4134 14.9259 18.8412 14.5911 18.3216 13.8367C17.8163 13.1031 17.5252 12.1941 17.5252 11.5062Z" fill="url(#paint0_linear)"/>
<path d="M13.3237 21.3643C11.3363 21.1419 9.69403 22.7433 9.69403 24.3827C9.69403 26.0136 10.9704 27.4938 13.3707 27.4938C14.2337 27.4938 15.1155 27.1126 16.0842 26.4022C17.2122 25.5748 18.148 24.6022 19.0849 23.6283C20.0242 22.6519 20.9648 21.6742 22.1016 20.8404C23.2286 20.0138 24.516 19.3704 25.9692 19.3704C29.28 19.3704 31.6067 21.5691 31.6067 24.4568C31.6067 27.3357 28.8865 29.7835 25.8003 29.4385C24.5612 29.3012 23.1077 28.8789 21.9393 27.7321L23.3077 26.3173C24.0509 27.0468 25.0239 27.3653 26.0151 27.475L26.0162 27.4752C28.0035 27.6976 29.6459 26.0962 29.6459 24.4568C29.6459 22.8259 28.3695 21.3457 25.9692 21.3457C25.1062 21.3457 24.2244 21.7269 23.2557 22.4373C22.1277 23.2647 21.1919 24.2373 20.255 25.2112C19.3157 26.1876 18.3751 27.1653 17.2383 27.9991C16.1113 28.8257 14.8239 29.4691 13.3707 29.4691C10.0599 29.4691 7.73315 27.2704 7.73315 24.3827C7.73315 21.5038 10.4534 19.056 13.5396 19.401C14.7788 19.5383 16.2322 19.9606 17.4006 21.1074L16.0322 22.5222C15.2889 21.7927 14.316 21.4742 13.3248 21.3645L13.3237 21.3643Z" fill="url(#paint1_linear)"/>
</g>
<defs>
<linearGradient id="paint0_linear" x1="6.68341" y1="16.3889" x2="22.7281" y2="32.3163" gradientUnits="userSpaceOnUse">
<stop stop-color="#6046FF"/>
<stop offset="1" stop-color="#46D7AB"/>
</linearGradient>
<linearGradient id="paint1_linear" x1="6.68341" y1="16.3889" x2="22.7281" y2="32.3163" gradientUnits="userSpaceOnUse">
<stop stop-color="#6046FF"/>
<stop offset="1" stop-color="#46D7AB"/>
</linearGradient>
<clipPath id="clip0">
<rect width="39.7076" height="40" fill="white"/>
</clipPath>
</defs>
</svg>
