<svg width="160" height="36" viewBox="0 0 160 36" fill="none" xmlns="http://www.w3.org/2000/svg">
<path d="M92.2704 24.6079H91.6236C91.4319 25.0159 91.1924 25.4119 90.9049 25.7959C90.6414 26.1559 90.2821 26.4799 89.827 26.7679C89.3958 27.0559 88.8688 27.2839 88.2459 27.4519C87.6471 27.6199 86.9164 27.7039 86.0541 27.7039C84.9521 27.7039 83.9221 27.5119 82.9639 27.1279C82.0296 26.7199 81.2032 26.1319 80.4845 25.3639C79.7898 24.5719 79.2389 23.6119 78.8316 22.4839C78.4483 21.3559 78.2567 20.0599 78.2567 18.5959V17.9479C78.2567 16.5079 78.4603 15.2239 78.8676 14.0959C79.2987 12.9679 79.8737 12.0199 80.5923 11.2519C81.3349 10.4599 82.1853 9.85985 83.1435 9.45185C84.1257 9.04384 85.1557 8.83984 86.2337 8.83984C87.671 8.83984 88.8089 9.11584 89.6473 9.66785C90.4857 10.1958 91.1445 10.9519 91.6236 11.9359H92.2704V9.34385H96.7979V35.5938H87.0312V31.6799H92.2704V24.6079ZM87.5273 23.3839C88.9406 23.3839 90.0785 22.9399 90.9409 22.0519C91.8272 21.1399 92.2704 19.9519 92.2704 18.4879V18.0559C92.2704 16.5919 91.8272 15.4159 90.9409 14.5279C90.0785 13.6159 88.9406 13.1599 87.5273 13.1599C86.1139 13.1599 84.9641 13.6039 84.0778 14.4919C83.2154 15.3559 82.7842 16.5439 82.7842 18.0559V18.4879C82.7842 19.9999 83.2154 21.1999 84.0778 22.0879C84.9641 22.9519 86.1139 23.3839 87.5273 23.3839Z" fill="#9488F0"/>
<path d="M112.907 9.34385H117.434V27.1999H112.907V24.6079H112.26C111.469 26.6719 109.768 27.7039 107.157 27.7039C106.271 27.7039 105.445 27.5599 104.678 27.2719C103.911 26.9839 103.241 26.5399 102.666 25.9399C102.091 25.3399 101.636 24.5959 101.3 23.7079C100.989 22.7959 100.833 21.7279 100.833 20.5039V9.34385H105.361V19.5679C105.361 20.8399 105.66 21.8359 106.259 22.5559C106.858 23.2519 107.756 23.5999 108.954 23.5999C110.319 23.5999 111.314 23.1679 111.936 22.3039C112.583 21.4159 112.907 20.2159 112.907 18.7039V9.34385Z" fill="#9488F0"/>
<path d="M120.823 9.34385H128.8V11.9359H129.446C129.782 10.9519 130.345 10.1958 131.135 9.66785C131.95 9.11584 132.92 8.83984 134.046 8.83984C135.818 8.83984 137.244 9.40385 138.322 10.5319C139.4 11.6359 139.939 13.3279 139.939 15.6079V16.3999L135.267 17.4319V16.3279C135.267 15.3439 135.016 14.5639 134.513 13.9879C134.01 13.3879 133.255 13.0879 132.249 13.0879C131.243 13.0879 130.453 13.4359 129.878 14.1319C129.303 14.8279 129.015 15.8239 129.015 17.1199V22.8799H133.112V27.1999H120.823V22.8799H124.488V13.6639H120.823V9.34385Z" fill="#9488F0"/>
<path d="M155.472 9.34385H160V27.1999H155.472V24.6079H154.826C154.035 26.6719 152.334 27.7039 149.723 27.7039C148.837 27.7039 148.01 27.5599 147.244 27.2719C146.477 26.9839 145.807 26.5399 145.232 25.9399C144.657 25.3399 144.202 24.5959 143.866 23.7079C143.555 22.7959 143.399 21.7279 143.399 20.5039V9.34385H147.927V19.5679C147.927 20.8399 148.226 21.8359 148.825 22.5559C149.424 23.2519 150.322 23.5999 151.52 23.5999C152.885 23.5999 153.879 23.1679 154.502 22.3039C155.149 21.4159 155.472 20.2159 155.472 18.7039V9.34385Z" fill="#9488F0"/>
<path d="M26.4931 19.7479C26.5171 20.2759 26.6369 20.7679 26.8524 21.2239C27.092 21.6559 27.4034 22.0399 27.7867 22.3759C28.1939 22.6879 28.6491 22.9399 29.1521 23.1319C29.6791 23.2999 30.2301 23.3839 30.805 23.3839C31.9309 23.3839 32.7933 23.1919 33.3922 22.8079C33.991 22.3999 34.4222 21.9199 34.6857 21.3679L38.5664 23.5279C38.3508 23.9839 38.0514 24.4639 37.6681 24.9679C37.2848 25.4479 36.7818 25.8919 36.159 26.2999C35.5601 26.7079 34.8175 27.0439 33.9311 27.3079C33.0688 27.5719 32.0507 27.7039 30.8769 27.7039C29.5354 27.7039 28.3137 27.4879 27.2118 27.0559C26.1098 26.6239 25.1516 25.9999 24.3372 25.1839C23.5467 24.3679 22.9238 23.3719 22.4687 22.1959C22.0375 21.0199 21.8219 19.6879 21.8219 18.1999V17.9839C21.8219 16.6159 22.0495 15.3679 22.5046 14.2399C22.9837 13.1119 23.6305 12.1519 24.445 11.3599C25.2594 10.5679 26.2057 9.95585 27.2836 9.52385C28.3856 9.06784 29.5594 8.83984 30.805 8.83984C32.3381 8.83984 33.6557 9.11585 34.7576 9.66785C35.8595 10.1958 36.7698 10.8799 37.4884 11.7199C38.2071 12.5359 38.7341 13.4479 39.0695 14.4559C39.4048 15.4399 39.5725 16.3999 39.5725 17.3359V19.7479H26.4931ZM30.7691 12.9439C29.6192 12.9439 28.685 13.2439 27.9663 13.8439C27.2477 14.4199 26.7806 15.0919 26.565 15.8599H34.9732C34.8294 15.0199 34.3743 14.3239 33.6077 13.7719C32.8651 13.2199 31.9189 12.9439 30.7691 12.9439Z" fill="white"/>
<path d="M55.6094 9.34385H60.604L56.2921 17.7319V18.3799L60.8555 27.1999H55.6453L52.3036 20.2159H51.6568L48.3151 27.1999H43.1049L47.6683 18.3799V17.7319L43.3205 9.34385H48.351L51.6568 15.8959H52.3036L55.6094 9.34385Z" fill="white"/>
<path d="M14.0137 11.936L13.3669 11.936C13.1752 11.528 12.9357 11.132 12.6482 10.748C12.3847 10.388 12.0254 10.064 11.5702 9.77602C11.1391 9.48802 10.612 9.26002 9.98922 9.09202C9.39034 8.92402 8.65971 8.84002 7.79733 8.84002C6.69541 8.84002 5.66535 9.03202 4.70715 9.41602C3.77291 9.82403 2.94646 10.412 2.22781 11.18C1.53312 11.972 0.982147 12.932 0.574913 14.06C0.191634 15.188 -9.80888e-07 16.4841 -8.529e-07 17.9481L-7.9625e-07 18.5961C-6.70361e-07 20.0361 0.20361 21.3201 0.610845 22.4481C1.04203 23.5761 1.61696 24.5241 2.33561 25.2921C3.07821 26.0841 3.92861 26.6841 4.88681 27.0921C5.86896 27.5001 6.89903 27.7041 7.977 27.7041C9.4143 27.7041 10.5522 27.4281 11.3906 26.8761C12.229 26.3481 12.8878 25.5921 13.3669 24.6081L14.0137 24.6081L14.0137 27.2001L18.5411 27.2001L18.5411 0.950194L10.3662 0.950194L10.3662 4.86401L14.0137 4.864L14.0137 11.936ZM9.27057 13.16C10.6839 13.16 11.8218 13.604 12.6842 14.492C13.5705 15.404 14.0137 16.5921 14.0137 18.0561L14.0137 18.4881C14.0137 19.9521 13.5705 21.1281 12.6842 22.0161C11.8218 22.9281 10.6839 23.3841 9.27057 23.3841C7.85723 23.3841 6.70739 22.9401 5.82106 22.0521C4.95868 21.1881 4.52749 20.0001 4.52749 18.4881L4.52749 18.0561C4.52749 16.5441 4.95868 15.344 5.82106 14.456C6.70739 13.592 7.85723 13.16 9.27057 13.16Z" fill="white"/>
<rect x="66.4751" y="20.6001" width="6.58762" height="6.60003" fill="white"/>
</svg>
