<svg width="80" height="80" viewBox="0 0 80 80" fill="none" xmlns="http://www.w3.org/2000/svg">
  <g clip-path="url(#clip0_643_38)">
    <path d="M70.5782 73.4771V74.0001H37.1875C28.9967 74.0001 7.99994 70.0001 16.2654 56.4921C17.3951 54.0849 18.7613 51.8602 20.3279 49.859C24.8079 44.1221 30.9317 40.235 37.8544 39.2645C38.7186 39.1419 39.5972 39.0675 40.4879 39.0386C41.5886 39.005 42.6772 39.0434 43.7489 39.1539C47.6882 39.5575 51.4223 40.9077 54.7799 43.0218C55.7068 43.6008 56.6048 44.2422 57.4713 44.9365C58.8616 46.0488 60.1699 47.3005 61.3816 48.6771C63.8292 51.4518 65.8834 54.7287 67.4234 58.3732C69.2844 62.7624 70.3972 67.6873 70.5637 72.9101C70.571 73.0999 70.5758 73.2873 70.5782 73.4771Z" fill="#813439"/>
    <path d="M43.7484 32.1904H37.8537V48.5532H43.7484V32.1904Z" fill="#397D0E"/>
    <path d="M43.7484 31.5359H37.8537V39.3413C39.827 40.443 41.3474 40.966 43.7484 39.3413V31.5359Z" fill="#397D0E"/>
    <path d="M64.271 73.9999H37.0001C27.3092 73.9999 22.459 70.4844 18.4644 66.8439C18.4717 66.7598 18.4813 66.6733 18.491 66.5892C18.8096 63.3436 19.512 60.3069 20.521 57.5442C20.5934 57.3424 20.6682 57.1406 20.7454 56.9436C21.0665 56.1147 21.4141 55.3075 21.7906 54.5291C22.8124 52.4033 24.0342 50.4756 25.4128 48.7732C25.5081 48.6536 25.6047 48.5342 25.7034 48.415C25.7396 48.3742 25.7758 48.331 25.8096 48.2877C25.9351 48.1388 26.063 47.9946 26.191 47.8505C26.3479 47.6703 26.5096 47.4949 26.6737 47.3219C29.4375 44.3766 32.7203 42.2889 36.2565 41.3039C36.7827 41.1574 37.3137 41.0349 37.8544 40.9388C39.042 40.7201 40.261 40.624 41.5041 40.6577C42.2596 40.6793 43.0079 40.7466 43.7489 40.8619C46.3534 41.2655 48.8468 42.2433 51.1423 43.6991C51.8954 44.1796 52.6292 44.7129 53.3389 45.2943C53.3389 45.2943 53.3389 45.2943 53.3413 45.2943C54.5217 46.2601 55.6344 47.3604 56.6651 48.5808C56.6723 48.5904 56.6772 48.5952 56.6772 48.5952C57.7368 49.8517 58.7096 51.2355 59.5786 52.7273C59.8103 53.1189 60.0299 53.5177 60.2448 53.9237C60.8554 55.0841 61.4106 56.3021 61.9006 57.5826C61.9899 57.8132 62.0744 58.0487 62.1589 58.2841C62.2096 58.421 62.2579 58.5604 62.3061 58.6997C62.7889 60.0979 63.1968 61.561 63.5179 63.0793C63.8172 64.4895 64.0441 65.9454 64.1889 67.4445C64.2203 67.764 64.2468 68.0883 64.271 68.4126C64.3941 70.1349 64.3651 72.3254 64.271 73.9999Z" fill="#C46C71"/>
    <path d="M62.3045 58.6986C61.5898 58.892 60.8671 59.0664 60.141 59.228C57.7888 59.7477 55.3836 60.0948 52.966 60.3737C51.755 60.5116 50.5409 60.6322 49.3212 60.7147C48.1015 60.8028 46.877 60.8432 45.6524 60.878C43.2041 60.9398 40.7631 60.9751 38.321 61.0159C35.8804 61.0491 33.4288 61.1468 30.9761 60.9736C29.7538 60.8862 28.5343 60.7382 27.3344 60.4941C26.7343 60.3759 26.1379 60.2411 25.5477 60.0838C24.9607 59.9231 24.3802 59.7362 23.8108 59.5235C23.2401 59.3131 22.6879 59.0604 22.16 58.7639C21.6309 58.4737 21.1314 58.1311 20.697 57.7169C20.6366 57.6612 20.5784 57.6035 20.5205 57.5442C20.5934 57.3424 20.6682 57.1408 20.7445 56.9436C20.8664 57.0584 20.9967 57.168 21.1339 57.2706C22.0052 57.9204 23.0663 58.3569 24.1579 58.7043C24.7048 58.8792 25.2684 59.0248 25.8379 59.156C26.4056 59.2927 26.9813 59.4089 27.5644 59.5106C28.7289 59.7047 29.9065 59.8803 31.0934 60.0321C33.47 60.3418 35.8855 60.6137 38.3145 60.6467C40.7462 60.6815 43.1752 60.5299 45.5783 60.256C46.7809 60.1241 47.9764 59.9617 49.1689 59.8051C50.3625 59.6468 51.551 59.4885 52.7364 59.3112C55.1012 58.9534 57.438 58.5246 59.7507 58.0511C60.4685 57.9019 61.1876 57.7494 61.8992 57.5834C62.0399 57.9509 62.1749 58.3214 62.3045 58.6986Z" fill="#813439"/>
    <path d="M55.1201 56.0633C54.6479 56.1169 54.1444 56.0016 53.7222 55.7049C53.5175 55.561 53.4596 55.2893 53.5928 55.0981C53.7263 54.9068 54.0003 54.8684 54.2052 55.0123C54.6614 55.3328 55.2936 55.2612 55.6144 54.8528C55.7631 54.6635 55.8208 54.4283 55.7766 54.1909C55.7324 53.9536 55.5917 53.7409 55.3803 53.5922C54.9241 53.2717 54.2919 53.3433 53.9711 53.7518L52.3131 55.8642C51.7197 56.6202 50.55 56.7528 49.7057 56.1594C49.2888 55.8666 49.0105 55.443 48.9219 54.9671C48.8336 54.4912 48.9463 54.0232 49.2393 53.6499C49.8329 52.8938 51.0026 52.7615 51.8467 53.3546C52.0514 53.4985 52.1093 53.7702 51.9761 53.9615C51.8426 54.1527 51.5686 54.1911 51.3637 54.0472C50.9075 53.7268 50.2753 53.7984 49.9545 54.2068C49.8058 54.3961 49.7482 54.6313 49.7923 54.8686C49.8365 55.106 49.9772 55.3186 50.1887 55.4671C50.6451 55.7878 51.2773 55.716 51.5978 55.3075L53.2559 53.1951C53.8494 52.4388 55.0192 52.3067 55.8633 52.8999C56.2801 53.193 56.5587 53.6163 56.647 54.0924C56.7354 54.5683 56.6226 55.0361 56.3296 55.4094C56.0329 55.7878 55.5922 56.01 55.1201 56.0633Z" fill="#813439"/>
    <path d="M53.5007 50.4401C53.3534 49.6425 52.581 49.0659 51.782 49.1572C50.9879 49.2485 50.4617 49.9692 50.6089 50.7668C50.7441 51.4923 51.6179 52.571 52.4 52.4821C53.2013 52.3935 53.6382 51.1827 53.5007 50.4401ZM52.2479 51.6221C52.0596 51.6053 51.5503 51.0575 51.4803 50.6683C51.42 50.3464 51.6276 50.0533 51.9438 50.0173C52.2576 49.9836 52.5713 50.2215 52.6317 50.5386C52.7041 50.9376 52.4144 51.574 52.2479 51.6221Z" fill="#813439"/>
    <path d="M53.1909 16.4581C53.1845 17.5923 53.1951 18.8048 53.1845 20.0554C53.1224 28.3482 52.1281 38.3423 39.1677 37.9466C32.943 37.7561 29.4917 34.4234 27.6079 30.0156C26.0234 26.3062 25.5465 21.8307 25.4631 17.8293C25.4075 15.1906 25.5209 12.755 25.5978 10.8781C25.9079 3.42959 28.8716 0.414217 37.5319 0.0396759H37.534C38.2952 0.00793518 39.1014 -0.00476111 39.9525 0.00158704C53.9735 0.111622 53.2229 8.20127 53.1909 16.4581Z" fill="#4F9522"/>
    <path d="M53.1908 16.4581C53.1844 17.5923 53.1951 18.8048 53.1844 20.0554C53.1224 28.3482 52.1286 38.3423 39.1747 37.9466C32.9531 37.7561 29.5036 34.4234 27.6207 30.0156C33.0685 35.7861 37.865 37.864 43.2291 36.2072C49.9706 34.125 46.326 25.8047 46.326 25.8047C46.326 25.8047 48.1191 23.5828 47.6895 14.9345C47.5797 12.735 47.4562 10.748 47.1837 8.9931C47.1098 8.51744 43.3794 11.1271 43.281 10.6859C43.1841 10.2519 46.7196 6.76645 46.5937 6.36654C45.4645 2.77802 43.0653 0.579455 37.5418 0.0396759C38.3027 0.00793518 39.1084 -0.00476111 39.9591 0.00158704C53.9731 0.111622 53.2229 8.20127 53.1908 16.4581Z" fill="#397D0E"/>
    <path d="M36.069 21.3803C36.069 23.5027 35.2676 25.4412 33.945 26.921C32.3747 28.6799 30.0698 29.7897 27.5 29.7897C24.8634 29.7897 22.5047 28.6207 20.9322 26.7815C19.6828 25.3207 18.931 23.4351 18.931 21.3803C18.931 19.4692 19.5816 17.7061 20.678 16.294C20.678 16.2919 20.6802 16.2919 20.6802 16.2898C22.2462 14.273 24.7191 12.9729 27.5 12.9729C30.1517 12.9729 32.5233 14.1546 34.0958 16.0128C34.0958 16.0149 34.0958 16.0149 34.0958 16.0149C35.328 17.4715 36.069 19.3402 36.069 21.3803Z" fill="#C6EBD8"/>
    <path d="M28.3449 24.024C29.4113 24.024 30.2759 23.1098 30.2759 21.982C30.2759 20.8542 29.4113 19.9399 28.3449 19.9399C27.2784 19.9399 26.4138 20.8542 26.4138 21.982C26.4138 23.1098 27.2784 24.024 28.3449 24.024Z" fill="black"/>
    <path d="M62.6207 19.5784C62.6207 22.0526 61.644 24.3014 60.0552 25.9616C58.3614 27.7264 55.9735 28.8288 53.3264 28.8288C50.6068 28.8288 48.1605 27.6661 46.462 25.8128C44.9525 24.1687 44.0345 21.9783 44.0345 19.5784C44.0345 17.3345 44.8382 15.2789 46.1724 13.6766C47.878 11.6327 50.4503 10.3303 53.3264 10.3303C56.3474 10.3303 59.0297 11.7651 60.7283 13.9859C61.915 15.5391 62.6207 17.4761 62.6207 19.5784Z" fill="#C6EBD8"/>
    <path d="M52 22.8229C53.3331 22.8229 54.4138 21.6935 54.4138 20.3004C54.4138 18.9072 53.3331 17.7778 52 17.7778C50.6669 17.7778 49.5862 18.9072 49.5862 20.3004C49.5862 21.6935 50.6669 22.8229 52 22.8229Z" fill="black"/>
    <path d="M44.7037 30.1318L43.603 32.2603C43.3997 32.6538 42.7163 32.7829 42.2654 32.515C41.2045 31.8845 39.7713 30.5697 40.7155 28.3534C40.7155 28.3534 39.4126 29.649 36.5921 30.3115C36.145 30.4166 35.6886 30.1653 35.7115 29.8287L35.8903 27.2016C35.9038 27.0024 36.1594 26.8578 36.4327 26.8967C37.8133 27.0928 41.9252 26.3653 44.8398 28.3534C44.9713 28.4428 44.7667 30.0099 44.7037 30.1318Z" fill="#2E6D05"/>
    <path d="M43.1164 10.7235C42.4433 10.2653 49.0645 -3.52942 54.5724 2.91116C60.4039 9.73035 53.3886 3.8661 50.758 4.50308C48.0192 5.166 44.4507 11.6318 43.1164 10.7235Z" fill="#2E6D05"/>
    <path d="M22.2643 9.01135C26.0318 11.0762 35.0614 14.1009 32.1051 12.0488C29.1489 9.99678 18.8737 7.15304 22.2643 9.01135Z" fill="#2E6D05"/>
    <path d="M35.0424 80.0907C33.5386 80.1603 26.3962 80.1195 19.2344 79.0288C17.0403 78.6925 14.8437 78.26 12.8065 77.7003C9.27995 76.7321 6.23133 75.3819 4.50788 73.5153C3.09581 71.9849 2.56719 70.1063 3.3903 67.8024C6.83961 58.1255 14.6168 52.7153 20.3279 49.8588C23.461 48.2925 25.9713 47.4924 26.8089 47.1777C26.8065 47.1801 26.8041 47.1825 26.8017 47.1849C26.7582 47.2306 26.7148 47.2762 26.6737 47.3219C26.5072 47.4949 26.3455 47.6726 26.191 47.8504C26.0606 47.9946 25.9351 48.1411 25.8096 48.2876C25.7758 48.3309 25.7396 48.3741 25.7034 48.415C25.6052 48.5322 25.5096 48.6538 25.4128 48.7732C23.1511 51.6078 21.8143 54.5077 21.8051 54.5171C21.7955 54.5243 21.7906 54.5291 21.7906 54.5291C17.8586 59.0096 13.4075 61.8804 15.2493 64.7273C15.8768 65.7003 17.0331 66.2672 18.491 66.5891C24.0886 67.8312 34.1155 65.4432 35.5758 68.4726C36.3217 70.0174 36.8913 71.8096 37.1906 73.5153C37.28 74.0294 37.3475 74.5363 37.3862 75.0264C37.6082 77.7798 36.9758 80.002 35.0424 80.0907Z" fill="#4F9522"/>
    <path d="M75.3479 66.2145C75.3479 66.2145 78.341 73.0397 70.361 73.4913C70.0882 73.5082 69.801 73.5154 69.5017 73.5154C67.6599 73.5154 64.6475 73.2487 64.5051 70.3322C64.5051 70.3009 64.5027 70.2697 64.5027 70.2361C64.4182 68.5712 63.9258 65.7148 63.5299 63.6103C63.2017 61.8829 65.9124 59.0553 67.5175 58.3274C70.5806 56.9388 70.3537 55.2403 69.5017 53.4193C66.7137 47.4589 56.6772 48.5952 56.6772 48.5952C56.6772 48.5952 55.632 47.4589 53.2158 45.4097C52.5882 44.8739 51.8665 44.2781 51.0482 43.6247C51.0482 43.6247 71.3168 38.8079 79.2341 51.6223C82.5217 56.9436 75.3479 66.2145 75.3479 66.2145Z" fill="#397D0E"/>
    <path d="M37.3862 75.0265C37.1665 74.546 36.9807 74.0415 36.8382 73.5154C35.6869 69.2415 25.8313 71.0001 18.3027 69.7845C16.2727 69.4577 14.4141 68.9148 12.9369 67.9754C12.7824 67.8818 12.6327 67.7784 12.4879 67.6727C9.35721 65.3833 12.2682 60.7658 16.2655 56.492C20.7141 51.7328 26.512 47.3989 26.8017 47.1851C26.7582 47.2307 26.7148 47.2763 26.6738 47.322C26.5072 47.495 26.3455 47.6727 26.191 47.8505C26.0607 47.9947 25.9351 48.1412 25.8096 48.2878C25.7758 48.331 25.7396 48.3742 25.7034 48.4151C25.6052 48.5323 25.5096 48.6539 25.4128 48.7733C23.1511 51.6079 21.8143 54.5078 21.8051 54.5172C21.7955 54.5244 21.7907 54.5292 21.7907 54.5292C17.8586 59.0097 13.4076 61.8806 15.2493 64.7274C15.8769 65.7004 17.0331 66.2673 18.491 66.5893C24.0886 67.8313 34.1155 65.4433 35.5758 68.4727C36.3217 70.0175 36.8913 71.8097 37.1907 73.5154C37.28 74.0293 37.3476 74.5364 37.3862 75.0265Z" fill="#397D0E"/>
    <path d="M75.3479 66.2145C75.3479 66.2145 78.341 73.0397 70.361 73.4913L70.5637 72.91C70.5637 72.91 74.6768 72.0091 72.263 66.4139C69.8492 60.8163 78.5751 60.7994 75.8137 51.6223C73.0548 42.4451 53.3389 45.2943 53.3389 45.2943C53.3389 45.2943 53.2955 45.3376 53.2158 45.4097C52.5882 44.8739 51.8665 44.2781 51.0482 43.6247C51.0482 43.6247 71.3168 38.8079 79.2341 51.6223C82.5217 56.9436 75.3479 66.2145 75.3479 66.2145Z" fill="#4F9522"/>
    <path d="M44.8034 28.4296L43.9446 30.648C43.786 31.058 43.1256 31.2576 42.6522 31.0406C41.5385 30.5299 39.9844 29.3826 40.6795 27.0942C40.6795 27.0942 39.5323 28.5111 36.8207 29.4631C36.3908 29.6141 35.9138 29.414 35.9004 29.0792L35.7966 26.4658C35.7887 26.2677 36.0255 26.0979 36.2992 26.1075C37.6821 26.1554 41.5697 26.4397 44.657 28.0956C44.7962 28.17 44.8526 28.3026 44.8034 28.4296Z" fill="#D5E2CE"/>
  </g>
<defs>
  <clipPath id="clip0_643_38">
    <rect width="80" height="80" fill="white"/>
  </clipPath>
</defs>
</svg>
