<svg width="20" height="20" viewBox="0 0 20 20" fill="none" xmlns="http://www.w3.org/2000/svg">
    <path opacity="0.4" fill-rule="evenodd" clip-rule="evenodd" d="M8.85091 1.25H11.1491C11.4786 1.24999 11.7628 1.24998 11.9969 1.26911C12.244 1.2893 12.4897 1.33387 12.7262 1.45436C13.079 1.63413 13.3659 1.92097 13.5456 2.27377C13.6661 2.51026 13.7107 2.75602 13.7309 3.00311C13.75 3.23722 13.75 3.52145 13.75 3.85092V4.375H12.5V3.875C12.5 3.51466 12.4995 3.28198 12.485 3.1049C12.4712 2.93511 12.4476 2.87216 12.4319 2.84126C12.372 2.72366 12.2763 2.62804 12.1587 2.56812C12.1278 2.55238 12.0649 2.52883 11.8951 2.51496C11.718 2.50049 11.4853 2.5 11.125 2.5H8.875C8.51466 2.5 8.28198 2.50049 8.1049 2.51496C7.93511 2.52883 7.87216 2.55238 7.84126 2.56812C7.72366 2.62804 7.62804 2.72366 7.56812 2.84126C7.55238 2.87216 7.52883 2.93511 7.51496 3.1049C7.50049 3.28198 7.5 3.51466 7.5 3.875V4.375H6.25L6.25 3.85091C6.24999 3.52144 6.24998 3.23722 6.26911 3.00311C6.2893 2.75602 6.33387 2.51026 6.45436 2.27377C6.63413 1.92097 6.92097 1.63413 7.27377 1.45436C7.51026 1.33387 7.75602 1.2893 8.00311 1.26911C8.23722 1.24998 8.52144 1.24999 8.85091 1.25Z" fill="#545C66"/>
    <path fill-rule="evenodd" clip-rule="evenodd" d="M2.5 5.625C2.5 5.27982 2.77982 5 3.125 5H16.875C17.2202 5 17.5 5.27982 17.5 5.625C17.5 5.97018 17.2202 6.25 16.875 6.25H16.25V15C16.25 16.7259 14.8509 18.125 13.125 18.125H6.875C5.14911 18.125 3.75 16.7259 3.75 15V6.25H3.125C2.77982 6.25 2.5 5.97018 2.5 5.625ZM5 6.25V15C5 16.0355 5.83947 16.875 6.875 16.875H13.125C14.1605 16.875 15 16.0355 15 15V6.25H5Z" fill="#545C66"/>
    <path opacity="0.4" fill-rule="evenodd" clip-rule="evenodd" d="M8.125 8.125C8.47018 8.125 8.75 8.40482 8.75 8.75V13.75C8.75 14.0952 8.47018 14.375 8.125 14.375C7.77982 14.375 7.5 14.0952 7.5 13.75V8.75C7.5 8.40482 7.77982 8.125 8.125 8.125Z" fill="#545C66"/>
    <path opacity="0.4" fill-rule="evenodd" clip-rule="evenodd" d="M11.875 8.125C12.2202 8.125 12.5 8.40482 12.5 8.75V13.75C12.5 14.0952 12.2202 14.375 11.875 14.375C11.5298 14.375 11.25 14.0952 11.25 13.75V8.75C11.25 8.40482 11.5298 8.125 11.875 8.125Z" fill="#545C66"/>
</svg>
