<svg width="24" height="24" viewBox="0 0 24 24" fill="none" xmlns="http://www.w3.org/2000/svg">
<path d="M9.93134 9.68945C9.27991 9.68945 8.76562 10.252 8.76562 10.9382C8.76562 11.6245 9.29134 12.187 9.93134 12.187C10.5828 12.187 11.0971 11.6245 11.0971 10.9382C11.1085 10.252 10.5828 9.68945 9.93134 9.68945ZM14.1028 9.68945C13.4513 9.68945 12.9371 10.252 12.9371 10.9382C12.9371 11.6245 13.4628 12.187 14.1028 12.187C14.7542 12.187 15.2685 11.6245 15.2685 10.9382C15.2685 10.252 14.7542 9.68945 14.1028 9.68945Z" fill="white"/>
<path d="M19.6571 0H4.34286C3.05143 0 2 1.035 2 2.3175L2.00003 17.7775C2.00003 19.06 3.20857 20 4.5 20H17L16.6972 18.0138L22 23L22 2.3175C22 1.035 20.9486 0 19.6571 0ZM15.2457 14.9425C15.2457 14.9425 14.8343 14.4588 14.4915 14.0313C15.9886 13.615 16.56 12.6925 16.56 12.6925C16.0915 12.9963 15.6457 13.21 15.2457 13.3563C14.6743 13.5925 14.1257 13.75 13.5886 13.84C12.4915 14.0425 11.4857 13.9863 10.6286 13.8288C9.97717 13.705 9.41717 13.525 8.9486 13.345C8.68574 13.2438 8.40003 13.12 8.11431 12.9625C8.08003 12.94 8.04574 12.9288 8.01146 12.9063C7.9886 12.895 7.97717 12.8838 7.96574 12.8725C7.76003 12.76 7.64574 12.6813 7.64574 12.6813C7.64574 12.6813 8.19431 13.5813 9.64574 14.0088C9.30289 14.4363 8.88003 14.9425 8.88003 14.9425C6.35431 14.8638 5.39431 13.2325 5.39431 13.2325C5.39431 9.61 7.04003 6.67375 7.04003 6.67375C8.68574 5.45875 10.2515 5.4925 10.2515 5.4925L10.3657 5.6275C8.3086 6.2125 7.36003 7.10125 7.36003 7.10125C7.36003 7.10125 7.61146 6.96625 8.03432 6.775C9.25717 6.24625 10.2286 6.1 10.6286 6.06625C10.6972 6.055 10.7543 6.04375 10.8229 6.04375C11.52 5.95375 12.3086 5.93125 13.1315 6.02125C14.2172 6.145 15.3829 6.46 16.5715 7.10125C16.5715 7.10125 15.6686 6.2575 13.7257 5.6725L13.8857 5.4925C13.8857 5.4925 15.4515 5.45875 17.0972 6.67375C17.0972 6.67375 18.7429 9.61 18.7429 13.2325C18.7429 13.2325 17.7715 14.8638 15.2457 14.9425Z" fill="white"/>
</svg>
