<svg width="20" height="20" viewBox="0 0 20 20" fill="none" xmlns="http://www.w3.org/2000/svg">
    <path fill-rule="evenodd" clip-rule="evenodd" d="M13.9435 3.125C13.166 3.125 12.4203 3.43386 11.8706 3.98362L3.30806 12.5461C3.19085 12.6634 3.125 12.8223 3.125 12.9881V16.25C3.125 16.5952 3.40482 16.875 3.75 16.875H7.01191C7.17767 16.875 7.33665 16.8092 7.45386 16.6919L16.0164 8.12942C16.5661 7.57965 16.875 6.83401 16.875 6.05652C16.875 5.27903 16.5661 4.53339 16.0164 3.98362C15.4666 3.43386 14.721 3.125 13.9435 3.125ZM12.7545 4.86751C13.0698 4.55216 13.4975 4.375 13.9435 4.375C14.3894 4.375 14.8171 4.55216 15.1325 4.86751C15.4478 5.18285 15.625 5.61055 15.625 6.05652C15.625 6.50249 15.4478 6.93019 15.1325 7.24554L14.7559 7.62209L12.3779 5.24406L12.7545 4.86751ZM11.494 6.12795L4.375 13.247V15.625H6.75303L13.8721 8.50598L11.494 6.12795Z" fill="#AFA5FB"/>
</svg>
