<svg width="20" height="7" viewBox="0 0 20 7" fill="none"
  xmlns="http://www.w3.org/2000/svg">
  <path d="M19.349 6.68998L19.111 6.68998C17.9323 5.54531 16.544 4.66698 14.946 4.05498C13.3367 3.43164 11.6707 3.11998 9.948 3.11998C8.18 3.11998 6.463 3.44864 4.797 4.10598C3.131 4.75198 1.703 5.69831 0.512999 6.94498L0.292 6.94498L0.292 4.54798C1.38 3.33531 2.77967 2.41164 4.491 1.77698C6.191 1.14231 8.01 0.824976 9.948 0.824976C11.8407 0.824976 13.6143 1.13098 15.269 1.74298C16.9237 2.34364 18.2837 3.19364 19.349 4.29298L19.349 6.68998Z" fill="#545C66"/>
</svg>