<svg width="81" height="80" viewBox="0 0 81 80" fill="none" xmlns="http://www.w3.org/2000/svg">
  <path d="M14.4265 75.5264C16.6974 74.6142 16.9089 68.1106 16.9089 68.1106C16.9089 68.1106 19.7539 72.7665 23.1268 73.5011C26.4993 74.2336 29.6496 71.9739 29.6496 71.9739L37.1 49.9025L21.3693 60.1637L19.4437 57.6266L14.4804 54.5117C13.0841 53.6354 11.2554 53.9088 10.173 55.1573C6.91384 58.9172 0.598879 66.374 0.733016 67.558C0.911485 69.153 12.1538 76.4414 14.4265 75.5264Z" fill="#4F9522"/>
  <path d="M16.77 68.1431C16.77 68.1431 19.626 72.7965 23.0188 73.5263C26.4112 74.2542 29.5844 71.9892 29.5844 71.9892L36.7224 50.0923C36.5815 50.3376 25.137 64.0482 23.7915 63.796C22.4332 63.5397 21.2696 60.187 21.2696 60.187L19.3357 57.6518L16.77 68.1431Z" fill="#397D0E"/>
  <path d="M72.7185 74C70.3478 57.3531 59.6014 44.7856 46.7028 44.7856C33.8041 44.7856 23.0577 57.3531 20.687 74H72.7185Z" fill="#813439"/>
  <path d="M21 74H68C67.7737 72.3976 67.4578 70.8374 67.0595 69.3293C66.9473 68.9033 66.8292 68.4834 66.7044 68.066C66.2676 66.6058 65.7493 65.2011 65.1619 63.8566C64.9554 63.3834 64.7403 62.9168 64.5121 62.4586C60.2437 53.7508 52.8749 48 44.5012 48C42.4122 48 40.3855 48.3574 38.4556 49.0298C30.8844 51.6655 24.7741 59.1312 22.0785 68.8174C22.0138 69.0486 21.9515 69.284 21.8913 69.5196C21.5158 70.9689 21.2167 72.4651 21 74Z" fill="#C46C71"/>
  <path d="M20 74H23.6526C24.1299 70.2212 24.9447 66.9117 25.6193 64.5977C27.7168 57.4024 34.5388 51.8296 37.4243 49.4725C37.6392 49.297 37.8323 49.1393 38 49C30.4678 51.664 23.7548 58.9711 21.0729 68.7618C21.0089 68.9955 20.9467 69.2334 20.8868 69.4716C20.5132 70.9364 20.2156 72.4487 20 74Z" fill="#A65156"/>
  <path d="M59.0796 66.4773C58.5811 66.5739 58.0133 66.4956 57.4953 66.2189C57.2439 66.0847 57.1243 65.8034 57.2282 65.5906C57.3321 65.3779 57.62 65.3139 57.8713 65.4481C58.4313 65.747 59.0988 65.6173 59.3591 65.1597C59.4796 64.9473 59.4925 64.695 59.395 64.4484C59.2976 64.2022 59.1007 63.9901 58.8414 63.8514C58.2813 63.5524 57.6142 63.6821 57.3536 64.1398L56.0078 66.5072C55.5262 67.3546 54.291 67.5941 53.2549 67.0412C52.7433 66.7682 52.3538 66.3457 52.1583 65.8516C51.9627 65.3576 51.9861 64.8549 52.224 64.4365C52.7058 63.5891 53.9407 63.3497 54.9768 63.9026C55.2281 64.0368 55.3477 64.3181 55.2438 64.5308C55.14 64.7435 54.8521 64.8076 54.6007 64.6734C54.0407 64.3744 53.3732 64.5041 53.1129 64.9618C52.9924 65.1742 52.9796 65.4268 53.077 65.673C53.1745 65.9192 53.3713 66.1313 53.6306 66.2697C54.1907 66.5687 54.8581 66.439 55.1185 65.9813L56.4642 63.6139C56.9461 62.7665 58.181 62.527 59.2171 63.08C59.7287 63.3532 60.1186 63.7755 60.3141 64.2695C60.5097 64.7635 60.4863 65.2659 60.2484 65.6843C60.007 66.1088 59.5777 66.3804 59.0796 66.4773Z" fill="#85383D"/>
  <path d="M55.3911 62.9368C54.5649 63.0971 53.3938 62.0344 53.096 61.2819C52.7684 60.4541 53.1848 59.6479 54.0247 59.4851C54.8688 59.3213 55.8219 59.8619 56.1498 60.6897C56.4544 61.4599 56.2358 62.773 55.3911 62.9368ZM54.3783 60.3785C54.0453 60.4432 53.8821 60.7682 54.0148 61.1036C54.1741 61.5062 54.8387 62.0418 55.0455 62.0421C55.2151 61.978 55.3946 61.2826 55.2304 60.868C55.1003 60.5385 54.7098 60.3145 54.3783 60.3785Z" fill="#85383D"/>
  <path d="M68 69.2614C67.2069 69.5073 66.4071 69.7319 65.6052 69.9417C63.013 70.6153 60.3795 71.0944 57.7391 71.4968C56.4178 71.6958 55.0943 71.8755 53.7667 72.0123C52.4387 72.1556 51.1069 72.2455 49.7744 72.3289C47.11 72.4873 44.4524 72.6156 41.7922 72.7503C39.1321 72.8764 36.4615 73.0754 33.775 72.9705C32.4341 72.917 31.0911 72.795 29.761 72.564C29.0951 72.4528 28.4309 72.3222 27.7717 72.166C27.1142 72.0057 26.4612 71.8153 25.8171 71.595C25.1708 71.3767 24.5396 71.1096 23.9304 70.7909C23.3192 70.4784 22.7342 70.1042 22.2127 69.6445C22.1405 69.5824 22.0704 69.5184 22 69.4522C22.0613 69.2167 22.1248 68.9816 22.1907 68.7506C22.3375 68.879 22.4931 69.0009 22.6551 69.1144C23.6827 69.8311 24.8967 70.2931 26.1322 70.6502C26.7501 70.8298 27.3834 70.9753 28.0209 71.1036C28.6563 71.2383 29.2984 71.3495 29.9468 71.4436C31.2394 71.621 32.5432 71.7772 33.8536 71.9056C36.472 72.1686 39.1231 72.3869 41.7765 72.3355C44.43 72.2864 47.0768 72.0276 49.6974 71.6318C51.0099 71.4395 52.3158 71.2126 53.6193 70.9924C54.9251 70.77 56.2265 70.5475 57.526 70.3035C60.1224 69.8115 62.697 69.2383 65.2541 68.6137C66.0493 68.417 66.847 68.2158 67.638 68C67.7655 68.4167 67.8861 68.8359 68 69.2614Z" fill="#813439"/>
  <path d="M57.3932 27.3899C56.7652 30.4902 55.7243 33.7514 54.2496 37.3377C53.6556 38.7863 52.5412 39.9024 51.1692 40.3984C46.4858 42.0951 35.6493 43.2612 31.6936 39.364C30.6399 38.3245 28.8341 33.8625 27.47 28.4005C25.6853 21.2656 24.6524 12.4211 27.0231 7.27328C31.5096 -2.47109 48.4067 0.00901687 51.0297 1.12259C53.0035 1.95905 54.5622 3.66352 55.3348 5.83498C58.0844 13.5556 58.8964 20.0098 57.3932 27.3899Z" fill="url(#paint0_linear_643_66)"/>
  <path d="M25.029 5.16326C29.0767 8.14842 38.7483 12.4817 35.5655 9.5061C32.3827 6.53051 21.3862 2.47665 25.029 5.16326Z" fill="#2E6D05"/>
  <path d="M57.3934 27.39C56.7654 30.4903 55.7245 33.7515 54.2498 37.3378C53.6558 38.7864 52.5414 39.9025 51.1694 40.3985C46.486 42.0952 37.4107 45.3069 31.6938 39.3641C30.6673 38.2972 28.8343 33.8626 27.4702 28.4006C27.6908 28.3691 27.9222 28.3504 28.1614 28.3423C28.7791 28.8621 29.3808 29.0839 29.9592 29.0839C32.8213 29.0839 37.9417 28.5372 38.5989 26.6531C33.8617 34.4371 30.1464 30.8035 31.5028 35.2803C32.8406 39.6949 38.5616 41.1558 42.977 41.1558C51.3608 41.1558 53.5915 35.9699 53.5915 33.2916C53.8874 31.7063 46.687 32.5882 46.687 24.3742C45.6713 22.9836 51.5176 15.824 51.5201 15.655C53.1969 7.23305 50.9283 1.88263 46.2925 0.198242C62.666 0.495488 56.9491 27.4901 57.3934 27.39Z" fill="url(#paint1_linear_643_66)"/>
  <path d="M40.2877 20.9306C40.3473 23.8822 39.2365 26.6352 37.3166 28.6267C32.8663 33.2587 25.4769 32.5847 21.8444 27.228C20.7211 25.5738 20.0319 23.569 19.9867 21.3441C19.8687 15.5056 24.3174 10.6793 29.9259 10.5651C35.5319 10.4508 40.1697 15.0921 40.2877 20.9306Z" fill="#C6EBD8"/>
  <path d="M62.5654 21.7161C62.6175 24.2879 61.6463 26.6868 59.9676 28.4221C56.0764 32.4581 49.6154 31.8709 46.4393 27.2033C45.4571 25.7619 44.8545 24.0151 44.815 22.0764C44.7118 16.9891 48.6016 12.7837 53.5055 12.6842C58.4071 12.5849 62.462 16.629 62.5654 21.7161Z" fill="#C6EBD8"/>
  <path d="M39.3414 31.1703C36.663 30.5485 29.7942 38.0528 34.7997 44.1427C38.7115 48.9021 41.6996 42.9152 40.4766 39.4078C39.2539 35.9004 40.4182 33.3855 41.2107 33.0624C42.3863 32.5831 41.1755 31.7245 40.542 31.7573C40.5423 31.7576 40.6715 31.4789 39.3414 31.1703Z" fill="#A72E40"/>
  <path d="M40.5426 31.7576C40.5426 31.7576 35.4101 33.7057 36.576 40.986C37.1845 44.7857 35.3068 41.4067 35.9938 37.8587C36.6997 34.2126 38.2209 32.437 40.5426 31.7576Z" fill="#7C2230"/>
  <path d="M29.653 19.8148C30.6153 19.8148 31.3953 19.0317 31.3953 18.0656C31.3953 17.0996 30.6153 16.3164 29.653 16.3164C28.6907 16.3164 27.9106 17.0996 27.9106 18.0656C27.9106 19.0317 28.6907 19.8148 29.653 19.8148Z" fill="black"/>
  <path d="M55.2209 25.2911C56.1832 25.2911 56.9632 24.508 56.9632 23.5419C56.9632 22.5759 56.1832 21.7927 55.2209 21.7927C54.2586 21.7927 53.4785 22.5759 53.4785 23.5419C53.4785 24.508 54.2586 25.2911 55.2209 25.2911Z" fill="black"/>
  <path d="M43.0124 27.1721C39.0017 26.94 35.7346 31.0178 37.8463 33.065C40.1208 35.2699 40.7177 32.5726 42.4181 32.6707C43.651 32.7422 44.4672 34.4563 46.5488 33.6343C48.8765 32.7152 47.566 27.4357 43.0124 27.1721Z" fill="#4C2634"/>
  <path d="M37.4106 48.1393C37.4106 48.1393 39.9528 51.7709 47.4355 51.2322C51.4167 50.9457 51.9521 49.1598 51.9521 49.1598C51.9521 49.1598 43.8831 43.9673 37.4106 48.1393Z" fill="#813439"/>
  <path d="M66.8298 69.3315L66.0142 67.0619C73.9915 58.0205 65.699 47.6276 58.1237 49.3024C55.167 49.958 52.2799 50.0562 49.9961 49.6156C46.4236 48.9326 44.317 46.9356 45.6769 43.6902C50.636 31.8642 61.2831 31.0657 70.9348 37.0091C78.4379 41.6294 82.0884 52.1514 78.8733 59.0645C76.7645 63.6005 69.7102 68.9971 66.8298 69.3315Z" fill="#4F9522"/>
  <path d="M66.8298 69.3315C67.8309 68.6486 78.0757 64.3688 78.0116 52.3699C77.9526 41.3301 63.4005 33.3157 55.0814 36.9853C46.8082 40.6346 46.0998 48.3765 49.9961 49.6156C46.4236 48.9326 44.317 46.9356 45.6769 43.6902C50.636 31.8642 61.2831 31.0657 70.9348 37.0091C78.4379 41.6294 82.0884 52.1514 78.8733 59.0645C76.7645 63.6005 69.7102 68.9971 66.8298 69.3315Z" fill="#397D0E"/>
  <path d="M43.7954 50.3536C41.6504 50.3536 39.9116 48.6079 39.9116 46.4545V41.979L47.6793 40.9224V46.4542C47.6793 48.6079 45.9404 50.3536 43.7954 50.3536Z" fill="#397D0E"/>
  <path d="M47.6614 12.9283C54.1231 12.3209 65.436 8.34465 59.4287 8.25549C53.4215 8.16633 41.8459 13.4747 47.6614 12.9283Z" fill="#2E6D05"/>
  <defs>
    <linearGradient id="paint0_linear_643_66" x1="42.7977" y1="41.524" x2="40.6851" y2="-13.364" gradientUnits="userSpaceOnUse">
      <stop stop-color="#4F9522"/>
      <stop offset="0.1605" stop-color="#43A913"/>
      <stop offset="0.4984" stop-color="#7F7923"/>
      <stop offset="0.9826" stop-color="#DE2E3C"/>
      <stop offset="1" stop-color="#E22B3D"/>
    </linearGradient>
    <linearGradient id="paint1_linear_643_66" x1="45.4047" y1="38.9392" x2="43.9118" y2="2.37859" gradientUnits="userSpaceOnUse">
      <stop stop-color="#397D0E"/>
      <stop offset="1" stop-color="#913F1D"/>
    </linearGradient>
  </defs>
</svg>
