<svg width="12" height="12" fill="none" xmlns="http://www.w3.org/2000/svg"><path d="M7.854 4.854a.5.5 0 1 0-.708-.708l-3 3a.5.5 0 1 0 .708.708l3-3Z" fill="#9488F0"/><path fill-rule="evenodd" clip-rule="evenodd" d="M2.5 11h4A1.5 1.5 0 0 0 8 9.5v-1a.5.5 0 0 1 .5-.5h1A1.5 1.5 0 0 0 11 6.5v-4A1.5 1.5 0 0 0 9.5 1h-4A1.5 1.5 0 0 0 4 2.5v1a.5.5 0 0 1-.5.5h-1A1.5 1.5 0 0 0 1 5.5v4A1.5 1.5 0 0 0 2.5 11Zm4-1h-4a.5.5 0 0 1-.5-.5v-4a.5.5 0 0 1 .5-.5h1A1.5 1.5 0 0 0 5 3.5v-1a.5.5 0 0 1 .5-.5h4a.5.5 0 0 1 .5.5v4a.5.5 0 0 1-.5.5h-1A1.5 1.5 0 0 0 7 8.5v1a.5.5 0 0 1-.5.5Z" fill="#9488F0"/></svg>