<svg width="40" height="40" viewBox="0 0 40 40" xmlns="http://www.w3.org/2000/svg"><path d="M19.2 10.7a1 1 0 0 0 1.6 0 7.485 7.485 0 0 1 1.63-1.59 7.78 7.78 0 0 1 4.544-1.443c4.23 0 7.582 3.268 7.582 7.205 0 3.58-1.905 7.336-4.796 10.555-2.791 3.109-6.397 5.599-9.76 6.844-3.364-1.245-6.97-3.735-9.76-6.843-2.89-3.22-4.796-6.975-4.796-10.556 0-3.938 3.352-7.205 7.583-7.205 1.71 0 3.28.54 4.544 1.444a7.481 7.481 0 0 1 1.63 1.59Z" stroke="#9488F0" stroke-width="2" stroke-linejoin="round" fill="none"/></svg>