<svg fill="none" xmlns="http://www.w3.org/2000/svg" viewBox="0 0 16 16" width="16" height="16"><path opacity=".4" fill-rule="evenodd" clip-rule="evenodd" d="M5 4.5a.5.5 0 0 1 .5-.5h5a.5.5 0 0 1 0 1h-5a.5.5 0 0 1-.5-.5Z" fill="#9488F0"/><path fill-rule="evenodd" clip-rule="evenodd" d="M1.5 3.5A1.5 1.5 0 0 1 3 2h10a1.5 1.5 0 0 1 1.5 1.5v1.05a1.5 1.5 0 0 1-.504 1.122l-3.828 3.403A.5.5 0 0 0 10 9.45V12.5a.5.5 0 0 1-.223.416l-3 2A.5.5 0 0 1 6 14.5V9.45a.5.5 0 0 0-.168-.375L2.003 5.672A1.5 1.5 0 0 1 1.5 4.551V3.5ZM3 3a.5.5 0 0 0-.5.5v1.05a.5.5 0 0 0 .168.375l3.829 3.403A1.5 1.5 0 0 1 7 9.449v4.117l2-1.334V9.45a1.5 1.5 0 0 1 .503-1.121l3.83-3.403a.5.5 0 0 0 .167-.374V3.5A.5.5 0 0 0 13 3H3Z" fill="#9488F0"/></svg>