<svg width="20" height="20" xmlns="http://www.w3.org/2000/svg"><path d="M18.333 20H2.223c2.221 0 1.666-5 1.666-5 0-1.227.995-8.334 2.222-8.334h11.667S20 6.666 20 8.89v9.444S20 20 18.333 20Z" fill="#99AAB5"/><path d="M16.667 18.333C16.667 20 18.333 20 18.333 20H1.667S0 20 0 17.778V2.222C0 .995.995 0 2.222 0h12.222c1.228 0 2.223.995 2.223 2.222v16.111Z" fill="#CCD6DD"/><path d="M15 11.11a.555.555 0 0 1-.556.556H10a.555.555 0 1 1 0-1.11h4.444c.307 0 .556.248.556.555Zm0-2.221a.555.555 0 0 1-.556.555H10a.555.555 0 1 1 0-1.11h4.444c.307 0 .556.248.556.555Zm0-2.222a.555.555 0 0 1-.556.555H10a.555.555 0 1 1 0-1.111h4.444c.307 0 .556.248.556.556Zm0 6.666a.555.555 0 0 1-.556.556H2.222a.555.555 0 1 1 0-1.111h12.222c.307 0 .556.248.556.555Zm0 2.222a.555.555 0 0 1-.556.556H2.222a.555.555 0 1 1 0-1.111h12.222c.307 0 .556.248.556.555Zm0 2.223a.555.555 0 0 1-.556.555H2.222a.555.555 0 1 1 0-1.11h12.222c.307 0 .556.247.556.555ZM13.889 5s1.11 0 1.11-1.111V2.778s0-1.111-1.11-1.111H2.778s-1.111 0-1.111 1.11V3.89s0 1.11 1.11 1.11H13.89Z" fill="#99AAB5"/><path d="M7.222 11.667s1.111 0 1.111-1.111V7.222s0-1.11-1.11-1.11H2.777s-1.111 0-1.111 1.11v3.334s0 1.11 1.11 1.11h4.445Z" fill="#12B886"/></svg>