<svg width="20" height="20" xmlns="http://www.w3.org/2000/svg"><path d="M8.889 5h2.222v9.444H8.889V5Z" fill="#fff"/><path d="M5.556 13.611c0 .46-.374.833-.834.833H3.055a.834.834 0 0 1 0-1.666h1.667c.46 0 .833.373.833.833Z" fill="#DA2F47"/><path d="M18.89 18.333c0 .613-.499 1.111-1.112 1.111H2.222a1.112 1.112 0 0 1-1.11-1.11V15c0-.614.497-1.111 1.11-1.111h15.556c.613 0 1.111.497 1.111 1.11v3.334Z" fill="#6D7986"/><path d="M5.556 19.167c0 .46-.373.833-.834.833H3.055a.833.833 0 0 1 0-1.666h1.667c.46 0 .833.373.833.833Zm12.222 0c0 .46-.374.833-.834.833h-1.666a.834.834 0 0 1 0-1.666h1.666c.46 0 .834.373.834.833Z" fill="#6D7986"/><path d="M10 6.667A3.333 3.333 0 1 0 10 0a3.333 3.333 0 0 0 0 6.667Z" fill="#DA2F47"/><path d="M13.89 14.445c0 .613-.499 1.11-1.112 1.11H7.222a1.112 1.112 0 0 1-1.11-1.11v-.556c0-.613 2.164-3.333 2.777-3.333h2.222c.614 0 2.778 2.72 2.778 3.333v.556Z" fill="#6D7986"/><path d="M18.333 15.556a.555.555 0 0 1-.555.555H2.222a.555.555 0 1 1 0-1.111h15.556c.307 0 .555.248.555.556Z" fill="#fff"/></svg>