<svg width="20" height="20" xmlns="http://www.w3.org/2000/svg"><path d="M16.942 3.525a16.232 16.232 0 0 0-4.126-1.303 12.2 12.2 0 0 0-.529 1.103 15.08 15.08 0 0 0-4.573 0 11.81 11.81 0 0 0-.535-1.103A16.18 16.18 0 0 0 3.05 3.528C.44 7.493-.269 11.36.085 15.171a16.466 16.466 0 0 0 5.06 2.605c.408-.563.771-1.162 1.084-1.793a10.635 10.635 0 0 1-1.706-.835c.143-.107.283-.218.418-.332 3.29 1.546 6.866 1.546 10.118 0 .137.114.277.225.418.332-.54.328-1.113.609-1.71.836.314.63.675 1.23 1.084 1.794a16.434 16.434 0 0 0 5.064-2.607c.415-4.419-.71-8.25-2.973-11.646ZM6.678 12.827c-.988 0-1.798-.927-1.798-2.055 0-1.129.792-2.057 1.798-2.057 1.005 0 1.815.927 1.798 2.057.001 1.128-.793 2.055-1.798 2.055Zm6.644 0c-.988 0-1.798-.927-1.798-2.055 0-1.129.793-2.057 1.798-2.057 1.006 0 1.816.927 1.798 2.057 0 1.128-.792 2.055-1.798 2.055Z" fill="#5865F2"/></svg>