<svg width="20" height="20" xmlns="http://www.w3.org/2000/svg"><path d="m16.897 5.326-5-5a1.112 1.112 0 0 0-1.572 1.572L8.183 4.04l5 5 2.143-2.144a1.111 1.111 0 0 0 1.572-1.572Z" fill="#E1E8ED"/><path d="M11.111 0H2.778A2.222 2.222 0 0 0 .556 2.222v15.556C.556 19.005 1.55 20 2.778 20H15a2.222 2.222 0 0 0 2.222-2.222V6.11h-5c-.555 0-1.11-.555-1.11-1.111V0Z" fill="#CCD6DD"/><path d="M11.111 0h-1.11v5c0 1.227.994 2.222 2.221 2.222h5v-1.11h-5c-.555 0-1.11-.556-1.11-1.112V0ZM8.333 4.444A.556.556 0 0 1 7.778 5H3.333a.556.556 0 0 1 0-1.111h4.445c.307 0 .555.249.555.555Zm0 2.223a.556.556 0 0 1-.555.555H3.333a.556.556 0 0 1 0-1.11h4.445c.307 0 .555.248.555.555ZM15 8.889a.555.555 0 0 1-.556.555H3.335a.556.556 0 0 1 0-1.11h11.11c.308 0 .556.248.556.555Zm0 2.222a.555.555 0 0 1-.556.556H3.335a.555.555 0 1 1 0-1.111h11.11c.308 0 .556.248.556.555Zm0 2.222a.555.555 0 0 1-.556.556H3.335a.555.555 0 1 1 0-1.111h11.11c.308 0 .556.248.556.555Zm0 2.223a.555.555 0 0 1-.556.555H3.335a.555.555 0 1 1 0-1.111h11.11c.308 0 .556.248.556.556Z" fill="#99AAB5"/><path d="M17.222 10.556h-3.297c-.162 0-.506.096-.697.336l-1.294 1.628c-.357.449-.357 1.177 0 1.627l1.294 1.628c.191.24.535.336.697.336h3.297v-5.555Z" fill="#66757F"/><path d="M18.334 10.556h-4.492c-.161 0-.505.077-.697.27l-1.293 1.3a.925.925 0 0 0 0 1.302l1.293 1.302c.192.192.536.27.697.27h4.492c.613 0 1.11-.498 1.11-1.112v-2.221c0-.614-.497-1.111-1.11-1.111Z" fill="#9488F0"/></svg>