<svg width="93" height="80" viewBox="0 0 93 80" fill="none" xmlns="http://www.w3.org/2000/svg">
  <g clip-path="url(#clip0_643_96)">
    <path d="M78 74C77.9598 73.5954 77.9142 73.1899 77.8632 72.7835C75.3289 52.5841 60.4016 38.0061 44.5221 40.2227C30.4534 42.1866 20.3573 56.6742 20 74H78Z" fill="#813439"/>
    <path d="M55.8385 29.8941C55.8159 30.0074 55.7933 30.098 55.7481 30.2114C53.8056 37.1916 48.1137 38.6647 48.1137 38.6647V46.4834L42.3765 47.5486V39.5259C42.3765 39.5259 42.354 39.5032 42.2862 39.4805C42.241 39.4579 42.1959 39.4352 42.1281 39.4125C41.0891 38.9366 37.1589 37.0556 34.6743 35.0386C34.6292 35.0159 34.6066 34.9706 34.5614 34.9479C34.5162 34.9026 34.471 34.8799 34.4259 34.8346C33.7257 34.2454 33.1836 33.6335 32.8674 33.0669C32.5737 32.5456 32.1446 31.4352 31.738 29.9847C31.2863 28.421 30.8571 26.4266 30.6538 24.319C29.9988 17.5427 27.4916 13.2368 31.6025 6.98177C34.0871 3.17438 45.9227 -0.179744 51.705 1.15737C52.3375 1.29335 52.9021 1.49732 53.3764 1.76928C58.6392 4.71547 57.6229 23.0272 55.8385 29.8941Z" fill="#4F9522"/>
    <path d="M21.4608 10.5625C21.009 11.0837 21.4608 11.8996 22.1384 11.7636C24.3519 11.333 29.1178 9.97325 31.9186 10.1319C35.2163 10.3132 35.9617 13.1461 36.5941 12.0129C37.2266 10.8798 34.6065 8.50016 30.9474 8.4095C28.011 8.31885 23.0419 8.74945 21.4608 10.5625Z" fill="#2E6D05"/>
    <path d="M55.8384 29.8941C55.8158 30.0074 55.7932 30.098 55.748 30.2113C53.8055 37.1915 48.1136 38.6646 48.1136 38.6646V46.4834L42.3765 47.5485V39.5258C42.3765 39.5258 42.3539 39.5032 42.2861 39.4805C42.241 39.4578 42.1958 39.4352 42.128 39.4125C41.089 38.9366 37.1815 37.1236 34.6743 35.0386C34.6291 35.0159 34.6065 34.9706 34.5614 34.9479C34.5162 34.9026 34.471 34.8799 34.4258 34.8346C33.7482 34.2454 33.2061 33.6561 32.8673 33.0669C31.8735 31.3898 31.7831 31.0952 31.738 29.9847C31.7154 29.3728 31.6928 28.5343 31.5573 27.1065C34.6743 22.7779 38.9206 19.5144 38.8303 23.5257C38.6722 30.0527 34.6743 32.047 34.6743 32.047C36.7297 35.5825 40.0726 37.6448 44.1609 37.4635C50.8241 37.1915 53.0376 34.8346 53.2635 30.8006C53.5571 25.4068 47.707 28.3303 47.5715 19.0158C47.5037 14.7325 51.9082 13.0554 53.0376 9.38403C53.2634 8.68148 54.8614 8.99577 54.5 7.50001C54.2515 6.43485 51.321 7.83295 48.1136 5.00007L52 3.49996C52.6324 3.63594 54.0257 3.22812 54.5 3.50007C59.7402 6.51425 57.6228 23.0272 55.8384 29.8941Z" fill="#397D0E"/>
    <path d="M64.1957 17.0442C64.1957 19.4011 63.6536 21.5994 62.7049 23.3898C62.4113 23.9337 62.0951 24.455 61.7337 24.9309C60.2881 26.8119 58.3456 27.9678 56.1998 27.9678C53.4442 27.9678 51.0048 26.0641 49.5592 23.1632C49.0849 22.2113 48.7235 21.1462 48.475 20.013C48.2943 19.0612 48.1814 18.0867 48.1814 17.0442C48.1814 11.0158 51.7728 6.12061 56.1998 6.12061C60.6043 6.12061 64.1957 11.0158 64.1957 17.0442Z" fill="#C6EBD8"/>
    <path d="M62.7049 23.3898C62.4113 23.9337 62.095 24.455 61.7336 24.9309C60.2881 26.8119 58.3456 27.9677 56.1998 27.9677C53.4442 27.9677 51.0048 26.064 49.5592 23.1632C50.8918 22.6872 52.3374 22.37 53.8734 22.2113C57.0807 21.8487 60.1526 22.302 62.7049 23.3898Z" fill="#4F9522"/>
    <path d="M55.3191 19.9678C56.6289 19.9678 57.6907 18.8517 57.6907 17.4749C57.6907 16.0981 56.6289 14.9819 55.3191 14.9819C54.0092 14.9819 52.9474 16.0981 52.9474 17.4749C52.9474 18.8517 54.0092 19.9678 55.3191 19.9678Z" fill="black"/>
    <path d="M37.9042 22.4833C37.9042 23.3671 37.8139 24.2283 37.6558 25.0442C36.8427 29.0102 34.1774 31.9111 31.0152 31.9111C29.163 31.9111 27.469 30.9139 26.2493 29.2822C24.9393 27.5598 24.1261 25.1575 24.1261 22.4833C24.1261 17.2934 27.2205 13.0781 31.0152 13.0781C34.8324 13.0781 37.9042 17.2934 37.9042 22.4833Z" fill="#C6EBD8"/>
    <path d="M37.6558 25.0442C36.8426 29.0102 34.1773 31.9111 31.0151 31.9111C29.163 31.9111 27.469 30.9139 26.2493 29.2822C27.5819 27.3558 29.9536 25.7694 32.8673 25.1348C34.5388 24.7722 36.1876 24.7722 37.6558 25.0442Z" fill="#4F9522"/>
    <path d="M32.1511 23.1635C32.8351 22.9971 33.2348 22.2212 33.0438 21.4305C32.8527 20.6398 32.1434 20.1337 31.4593 20.3001C30.7752 20.4664 30.3756 21.2423 30.5666 22.033C30.7576 22.8237 31.467 23.3298 32.1511 23.1635Z" fill="black"/>
    <path d="M49.1301 28.5342V25.928C49.1301 25.7013 40.05 25.724 40.05 25.9733V28.5795C40.05 29.1688 40.6147 29.5994 41.202 29.4181C43.4607 28.7382 44.2061 27.5597 44.5901 26.5399C44.9967 27.537 45.7421 28.7155 48.0008 29.3954C48.5654 29.554 49.1527 29.1234 49.1301 28.5342Z" fill="white"/>
    <path d="M33.9413 48.084L31.0953 64.8093C31.0953 64.8093 26.9619 72.9453 23.8448 71.8801C20.7278 70.815 13.6806 60.0274 13.6806 60.0274C13.6806 60.0274 9.63753 63.9254 8.21454 64.288C6.81414 64.6506 -0.0749512 61.2739 -0.0749512 61.2739C-0.0749512 61.2739 12.619 48.8999 15.4198 49.6251C18.2432 50.3276 23.1672 61.2739 23.1672 61.2739L33.9413 48.084Z" fill="#4F9522"/>
    <path d="M82.1297 68.8744C79.8484 68.5118 78.2447 62.5514 78.2447 62.5514C78.2447 62.5514 76.6185 67.492 73.6595 68.8971C70.7006 70.3022 67.3126 68.8971 67.3126 68.8971L57.6227 47.5032L72.4173 56.1604L73.6595 53.3956L77.5671 49.4295C78.6739 48.319 80.4131 48.1604 81.678 49.0896C85.4952 51.8771 92.9038 57.4069 93.0393 58.5401C93.2426 60.0358 84.4336 69.237 82.1297 68.8744Z" fill="#4F9522"/>
    <path d="M33.9412 48.084L31.0952 64.8093C31.0952 64.8093 26.9618 72.9453 23.8447 71.8801C20.7277 70.815 13.6805 60.0274 13.6805 60.0274L16.1425 57.2398C16.1425 57.2398 21.1117 67.4609 23.8447 69.2286C26.5778 70.9963 23.1897 61.2512 23.1897 61.2512L33.9412 48.084Z" fill="#397D0E"/>
    <path d="M78.2673 62.5514C78.2673 62.5514 76.641 67.492 73.6821 68.8971C70.7232 70.3022 67.3351 68.8971 67.3351 68.8971L57.6453 47.5032C57.826 47.7071 69.7294 60.5797 70.9039 60.0585C72.101 59.5372 72.4398 56.1604 72.4398 56.1604L73.6821 53.3956L78.2673 62.5514Z" fill="#2E6D05"/>
    <path d="M57.1448 4.87176C62.1492 2.58912 64.6855 2.03126 63.4185 0.833841C62.1515 -0.363576 61.0031 0.581953 59.276 0.591887C57.549 0.601822 49.3603 3.38269 48.317 4.40073C47.2817 5.40257 52.1404 7.1544 57.1448 4.87176Z" fill="#2E6D05"/>
    <path d="M73.3438 74C73.2475 72.416 73.0603 70.8174 72.7788 69.2144C72.1463 65.5883 71.0621 62.2342 69.6617 59.2426L69.6602 59.2393C69.48 58.8552 69.2998 58.4711 69.1197 58.1095C68.4646 56.8177 67.7644 55.5939 66.9964 54.4381C66.748 54.0528 66.477 53.6449 66.1833 53.2596C61.0109 46.1208 53.6248 41.9508 46.0356 42.54C44.1383 42.676 42.3313 43.1066 40.6373 43.7865C33.8837 46.438 28.508 53.1236 26.1589 61.8942C26.1363 62.0075 26.1081 62.1152 26.0798 62.2228C26.0516 62.3305 26.0234 62.4381 26.0008 62.5515C25.2328 65.6336 24.8263 69.0104 24.8714 72.5458C24.8783 73.032 24.8933 73.5168 24.9165 74H73.3438Z" fill="#C46C71"/>
    <path d="M69.6617 59.1973C68.9389 59.4693 68.1935 59.7412 67.4707 59.9905C65.0765 60.7837 62.6145 61.4183 60.1073 61.9622C58.865 62.2342 57.6001 62.5061 56.3353 62.7101C55.0704 62.9367 53.8055 63.118 52.5181 63.2767C49.9657 63.6166 47.4359 63.9112 44.8836 64.2285C42.3538 64.5231 39.8015 64.9084 37.2265 64.9764C35.9391 65.0217 34.6516 64.9991 33.3867 64.8631C32.7543 64.7951 32.1219 64.7271 31.4894 64.6364C30.857 64.5231 30.2245 64.3871 29.6147 64.2285C29.0048 64.0699 28.395 63.8659 27.8077 63.6166C27.2204 63.3673 26.6557 63.0727 26.1588 62.6648C26.0911 62.6194 26.0233 62.5514 25.9556 62.5061C26.0007 62.2795 26.0685 62.0755 26.1137 61.8489C26.2492 61.9622 26.4073 62.0529 26.5654 62.1435C27.5367 62.7327 28.6886 63.0727 29.8632 63.322C30.4504 63.4353 31.0603 63.5486 31.6701 63.6166C32.28 63.7073 32.8898 63.7526 33.4996 63.7979C34.7419 63.8659 35.9842 63.9339 37.2265 63.9566C39.7337 64.0245 42.2861 64.0472 44.8158 63.8206C47.3456 63.5939 49.8753 63.1633 52.3373 62.6194C53.5796 62.3475 54.7993 62.0529 56.0416 61.7582C57.2613 61.4636 58.481 61.169 59.7007 60.8517C62.1175 60.2172 64.5118 59.5146 66.8834 58.7667C67.6062 58.5401 68.3516 58.2908 69.0744 58.0415C69.3228 58.4494 69.5036 58.8347 69.6617 59.1973Z" fill="#813439"/>
    <path d="M59.8819 57.2826C59.3753 57.3392 58.8664 57.2132 58.425 56.8898C58.2155 56.7294 58.1558 56.4492 58.2931 56.2369C58.4305 56.0246 58.7298 55.9902 58.9393 56.1506C59.4232 56.5016 60.0695 56.4152 60.4115 55.9983C60.5688 55.811 60.6213 55.5436 60.579 55.3109C60.5393 55.0558 60.3822 54.833 60.1728 54.6726C59.6889 54.3216 59.0426 54.4079 58.7006 54.8249L56.9528 57.0421C56.3187 57.8361 55.0985 57.9714 54.2156 57.3246C53.7742 57.0013 53.4825 56.5581 53.403 56.0479C53.3234 55.5376 53.4459 55.0502 53.7406 54.6507C54.3748 53.8567 55.5949 53.7214 56.4778 54.3682C56.6873 54.5286 56.747 54.8088 56.6097 55.0211C56.4723 55.2334 56.1729 55.2678 55.9634 55.1074C55.4796 54.7564 54.8333 54.8427 54.4912 55.2597C54.3339 55.447 54.2814 55.7144 54.3237 55.947C54.3635 56.2022 54.5205 56.425 54.73 56.5854C55.2139 56.9364 55.8601 56.8501 56.2022 56.4331L57.9499 54.2159C58.5841 53.4219 59.8042 53.2866 60.6871 53.9333C61.1286 54.2567 61.4202 54.6999 61.4998 55.2101C61.5793 55.7204 61.4568 56.2077 61.1621 56.6073C60.8451 57.0043 60.3884 57.226 59.8819 57.2826Z" fill="#813439"/>
    <path d="M57.0798 53.4768C56.2512 53.5653 55.3559 52.4154 55.214 51.6472C55.0573 50.8089 55.6192 50.052 56.4479 49.9634C57.2765 49.8749 58.0948 50.4918 58.2291 51.3276C58.3709 52.0958 57.9085 53.3883 57.0798 53.4768ZM56.6196 50.8718C56.2976 50.9037 56.0578 51.2185 56.135 51.5463C56.2022 51.9642 56.7285 52.5481 56.9306 52.571C57.0954 52.5212 57.4202 51.8514 57.3306 51.431C57.2783 51.0832 56.9441 50.8174 56.6196 50.8718Z" fill="#813439"/>
  </g>
  <defs>
    <clipPath id="clip0_643_96">
      <rect width="93" height="80" fill="white"/>
    </clipPath>
  </defs>
</svg>
