<svg width="40" height="40" viewBox="0 0 40 40" xmlns="http://www.w3.org/2000/svg"><path d="m35.018 5.024-12.48 9.36 2.496-5.616 9.984-3.744Z" fill="#E2761B"/><path d="m6.247 5.024 12.385 9.361-2.196-5.559-10.19-3.802ZM30.026 26.24l-2.772 5.374 7.116 1.958 1.897-7.332h-6.24ZM5.066 26.24l2.032 7.052 7.116-1.957-2.908-5.095h-6.24Z" fill="#E4761B"/><path d="m13.677 17.911-1.983 3 7.065.313-.251-7.592-4.831 4.28ZM27.644 17.91l-4.894-4.366-.164 7.68 7.053-.314-1.995-3ZM13.802 31.856l4.518-2.311-3.665-2.861-.853 5.172ZM23 29.545l4.53 2.311-.866-5.172-3.665 2.86Z" fill="#E4761B"/><path d="m27.53 31.856-4.529-2.313.339 2.946-.038 1.24 4.228-1.873ZM13.802 31.856l4.23 1.872-.026-1.24.314-2.945-4.518 2.313Z" fill="#D7C1B3"/><path d="m17.546 24.992-2.496-1.19 1.761-1.306.735 2.496ZM23.786 24.992l.732-2.496 1.764 1.305-2.496 1.19Z" fill="#233447" stroke="#233447" stroke-linecap="round" stroke-linejoin="round"/><path d="m14.079 31.615.971-5.375h-4.992l4.02 5.375ZM26.282 26.24l.973 5.375 4.02-5.375h-4.993ZM29.64 20.91l-7.053.314.652 3.627 1.042-2.184 2.51 1.142 2.848-2.899ZM14.555 23.809l2.51-1.142 1.029 2.183.665-3.626-7.065-.314 2.861 2.899Z" fill="#CD6116"/><path d="m11.694 20.91 2.961 5.773-.1-2.874-2.861-2.898ZM26.79 23.809l-.125 2.874 2.974-5.773-2.848 2.899ZM18.76 21.224l-.666 3.626.829 4.28.188-5.635-.352-2.271ZM22.587 21.224l-.339 2.258.15 5.647.841-4.279-.652-3.626Z" fill="#E4751F" stroke="#E4751F" stroke-linecap="round" stroke-linejoin="round"/><path d="m23.255 24.877-.717 4.656.514.451 3.123-3.113.107-3.127-3.027 1.133ZM15.05 23.744l.086 3.127 3.142 3.113.516-.45-.71-4.657-3.034-1.133Z" fill="#F6851B" stroke="#F6851B" stroke-linecap="round" stroke-linejoin="round"/><path d="m23.412 33.51.039-1.422-.327-.336h-4.929l-.3.336.026 1.421-4.119-2.277 1.438 1.376 2.916 2.369h5.007l2.93-2.37 1.437-1.375-4.118 2.277Z" fill="#C0AD9E"/><path d="m23.39 29.223-.705-.487h-4.067l-.705.487-.367 3.257.338-.324h5.535l.367.324-.396-3.257Z" fill="#161616"/><path d="m35.6 14.9 1.067-5.12-1.594-4.756-12.072 8.96 4.643 3.927 6.563 1.92 1.456-1.694-.628-.451 1.004-.917-.778-.602 1.004-.765-.665-.502ZM4.667 9.78l1.066 5.12-.677.502 1.004.765-.766.602 1.004.917-.627.451 1.443 1.694 6.563-1.92 4.643-3.927-12.072-8.96L4.667 9.78Z" fill="#763D16"/><path d="m34.005 19.416-6.72-1.912 2.043 2.987-3.046 5.75h9.984l-2.261-6.825ZM14.045 17.504l-6.738 1.912-2.241 6.824h9.984l-3.04-5.749 2.035-2.987ZM22.64 20.961l.427-7.12 1.967-5.073h-8.736l1.942 5.072.453 7.121.155 2.246.013 5.53h3.585l.026-5.53.168-2.246Z" fill="#F6851B"/></svg>