<svg width="40" height="40" viewBox="0 0 40 40" fill="none" xmlns="http://www.w3.org/2000/svg">
<path fill-rule="evenodd" clip-rule="evenodd" d="M35.7144 10.187C34.6106 10.7033 33.4244 11.0523 32.1793 11.2093C33.45 10.4058 34.4261 9.13368 34.8856 7.61771C33.6962 8.36173 32.379 8.9019 30.977 9.19299C29.8544 7.93136 28.2547 7.14307 26.4845 7.14307C23.0855 7.14307 20.3296 10.0496 20.3296 13.6345C20.3296 14.1433 20.3841 14.6387 20.4889 15.114C15.3738 14.8432 10.8386 12.2588 7.8029 8.33118C7.27298 9.29002 6.96949 10.4051 6.96949 11.5949C6.96949 13.8471 8.05614 15.834 9.70767 16.9981C8.69865 16.9643 7.74971 16.6723 6.91982 16.1862C6.91925 16.2133 6.91925 16.2404 6.91925 16.2678C6.91925 19.413 9.04095 22.0365 11.8565 22.6333C11.3401 22.7815 10.7964 22.8609 10.235 22.8609C9.83837 22.8609 9.45284 22.8202 9.07693 22.7445C9.86021 25.3234 12.1332 27.2002 14.8266 27.2524C12.72 28.9936 10.0663 30.0315 7.18246 30.0315C6.6857 30.0315 6.19584 30.0006 5.71436 29.9407C8.43816 31.7826 11.6733 32.8574 15.1492 32.8574C26.4702 32.8574 32.661 22.9657 32.661 14.3873C32.661 14.1058 32.655 13.8259 32.6432 13.5474C33.8458 12.6321 34.8892 11.4888 35.7144 10.187Z" fill="white"/>
</svg>
