<svg width="40" height="40" viewBox="0 0 40 40" fill="none" xmlns="http://www.w3.org/2000/svg">
<path d="M6.19394 18.7869L12.4464 21.1855L14.8713 29.1806C15.0252 29.6919 15.6405 29.8778 16.0386 29.5432L19.5222 26.624C19.8841 26.3172 20.409 26.2986 20.789 26.5868L27.0776 31.2816C27.5119 31.607 28.1272 31.3653 28.2358 30.8261L32.8414 8.05856C32.9591 7.47287 32.3981 6.98014 31.8552 7.19397L6.1849 17.3738C5.55151 17.6248 5.56056 18.5452 6.19394 18.7869ZM14.4823 19.9118L26.7066 12.177C26.9238 12.0375 27.15 12.3443 26.96 12.521L16.871 22.1616C16.5182 22.4963 16.2919 22.9518 16.2196 23.4445L15.8757 26.0569C15.8305 26.4102 15.3509 26.4381 15.2604 26.1034L13.9394 21.3342C13.7946 20.795 14.0117 20.2093 14.4823 19.9118Z" fill="white"/>
</svg>
