<svg xmlns="http://www.w3.org/2000/svg" width="32" height="32"><path fill="#6D7986" fill-rule="evenodd" d="M25.177 6H6.823A.824.824 0 006 6.824v18.352c0 .455.369.824.824.824h18.352a.824.824 0 00.824-.823V6.823A.824.824 0 0025.177 6zm0-2H6.823A2.824 2.824 0 004 6.824v18.352A2.824 2.824 0 006.824 28h18.352A2.824 2.824 0 0028 25.177V6.823A2.824 2.824 0 0025.177 4z" clip-rule="evenodd" opacity=".4"/><path fill="#6D7986" d="M6.465 27a1.466 1.466 0 01-1.29-2.162l5.134-9.533a1.466 1.466 0 012.328-.342l4.456 4.456 7.141-13.633a1.467 1.467 0 012.598 1.362l-8.066 15.4a1.469 1.469 0 01-2.337.357l-4.473-4.472-4.198 7.796c-.265.492-.77.771-1.293.771z"/></svg>