<svg width="40" height="40" viewBox="0 0 40 40" fill="none" xmlns="http://www.w3.org/2000/svg">
<path d="M17.2509 17.1431C16.3922 17.1431 15.7144 17.7866 15.7144 18.5716C15.7144 19.3567 16.4073 20.0002 17.2509 20.0002C18.1095 20.0002 18.7874 19.3567 18.7874 18.5716C18.8025 17.7866 18.1095 17.1431 17.2509 17.1431ZM22.7493 17.1431C21.8906 17.1431 21.2127 17.7866 21.2127 18.5716C21.2127 19.3567 21.9057 20.0002 22.7493 20.0002C23.6079 20.0002 24.2858 19.3567 24.2858 18.5716C24.2858 17.7866 23.6079 17.1431 22.7493 17.1431Z" fill="white"/>
<path d="M29.8451 4.28564H10.1553C8.4949 4.28564 7.14307 5.63564 7.14307 7.30847L7.1431 27.4737C7.1431 29.1465 8.69694 30.3726 10.3573 30.3726H26.4288L26.0394 27.7818L32.8574 34.2856L32.8573 7.30847C32.8573 5.63564 31.5055 4.28564 29.8451 4.28564ZM24.1733 23.7759C24.1733 23.7759 23.6443 23.1449 23.2035 22.5873C25.1284 22.0443 25.8631 20.8411 25.8631 20.8411C25.2606 21.2373 24.6876 21.5161 24.1733 21.7068C23.4386 22.015 22.7333 22.2204 22.0427 22.3378C20.6321 22.602 19.339 22.5286 18.237 22.3231C17.3994 22.1617 16.6794 21.927 16.077 21.6922C15.739 21.5601 15.3717 21.3987 15.0043 21.1933C14.9602 21.1639 14.9162 21.1492 14.8721 21.1199C14.8427 21.1052 14.828 21.0905 14.8133 21.0759C14.5488 20.9291 14.4019 20.8264 14.4019 20.8264C14.4019 20.8264 15.1072 22.0003 16.9733 22.5579C16.5325 23.1155 15.9888 23.7759 15.9888 23.7759C12.7415 23.6732 11.5072 21.5454 11.5072 21.5454C11.5072 16.8204 13.6231 12.9905 13.6231 12.9905C15.739 11.4058 17.7521 11.4498 17.7521 11.4498L17.899 11.6259C15.2541 12.3889 14.0345 13.5481 14.0345 13.5481C14.0345 13.5481 14.3578 13.3721 14.9015 13.1226C16.4737 12.4329 17.7227 12.2422 18.237 12.1981C18.3251 12.1835 18.3986 12.1688 18.4868 12.1688C19.3831 12.0514 20.397 12.0221 21.4549 12.1395C22.8508 12.3009 24.3496 12.7117 25.8778 13.5481C25.8778 13.5481 24.717 12.4476 22.219 11.6846L22.4247 11.4498C22.4247 11.4498 24.4378 11.4058 26.5537 12.9905C26.5537 12.9905 28.6696 16.8204 28.6696 21.5454C28.6696 21.5454 27.4206 23.6732 24.1733 23.7759Z" fill="white"/>
</svg>
