<svg xmlns="http://www.w3.org/2000/svg" width="32" height="32"><path fill="#CCD6DD" d="M24.938 5H7.063C5.923 5 5 5.923 5 7.063v17.875C5 26.076 5.923 27 7.063 27h17.875C26.076 27 27 26.077 27 24.937V7.063C27 5.923 26.077 5 24.937 5z"/><path fill="#E1E8ED" d="M25.177 4H6.823A2.824 2.824 0 004 6.824v18.352A2.824 2.824 0 006.824 28h18.352A2.824 2.824 0 0028 25.177V6.823A2.824 2.824 0 0025.177 4zm0 1.412c.778 0 1.411.633 1.411 1.412v2.823h-4.235V5.412h2.823zm-2.824 11.294h4.235v4.235h-4.235v-4.235zm0-1.412V11.06h4.235v4.235h-4.235zM20.94 5.412v4.235h-4.235V5.412h4.235zm-4.235 5.647h4.235v4.235h-4.235V11.06zm0 5.647h4.235v4.235h-4.235v-4.235zM15.294 5.412v4.235H11.06V5.412h4.235zm-4.235 5.647h4.235v4.235H11.06V11.06zm0 5.647h4.235v4.235H11.06v-4.235zM5.412 6.824c0-.78.633-1.412 1.412-1.412h2.823v4.235H5.412V6.824zm0 4.235h4.235v4.235H5.412V11.06zm0 5.647h4.235v4.235H5.412v-4.235zm1.412 9.882a1.413 1.413 0 01-1.412-1.412v-2.823h4.235v4.235H6.824zm4.235 0v-4.235h4.235v4.235H11.06zm5.647 0v-4.235h4.235v4.235h-4.235zm8.47 0h-2.823v-4.235h4.235v2.823c0 .78-.633 1.412-1.412 1.412z"/><path fill="#DD2E44" d="M6.465 27a1.466 1.466 0 01-1.29-2.162l5.134-9.533a1.466 1.466 0 012.328-.342l4.456 4.456 7.141-13.633a1.467 1.467 0 012.598 1.362l-8.066 15.4a1.469 1.469 0 01-2.337.357l-4.473-4.472-4.198 7.796c-.265.492-.77.771-1.293.771z"/></svg>