<svg xmlns="http://www.w3.org/2000/svg" width="32" height="32"><path fill="#F4900C" d="M29 16.762c0-1.605-.28-3.145-.795-4.569-.352 4.196-2.55 6.352-4.845 5.348-2.15-.94-.7-4.607-.594-6.357.18-2.966-.01-6.361-5.3-9.184 2.198 4.283.255 6.944-1.784 7.106-2.262.18-4.334-1.98-3.569-5.484-2.476 1.858-2.548 4.985-1.784 7.008.797 2.109-.032 3.86-1.975 4.056-2.172.218-3.379-2.368-2.266-6.49A13.331 13.331 0 003 16.763C3 24.073 8.82 30 16 30s13-5.927 13-13.238z"/><path fill="#FFCC4D" d="M23.796 20.808c.11 2.362-1.921 3.288-3.015 2.84-1.58-.645-1.155-1.754-1.562-4.052-.407-2.298-1.969-3.894-4.281-4.596 1.687 4.85-.935 6.639-2.31 6.958-1.404.326-2.815 0-2.976-3.07a9.263 9.263 0 00-2.61 7.351C9.343 28.563 12.506 30 16 30c3.494 0 6.656-1.437 8.959-3.76a9.292 9.292 0 00-1.163-5.431z"/></svg>