<svg xmlns="http://www.w3.org/2000/svg" width="32" height="32"><path fill="#6D7986" fill-rule="evenodd" d="M19.988 25.93c-.017.004-.037.01-.06.014a2.747 2.747 0 01-.595.056h-6.666a2.747 2.747 0 01-.655-.07l.022-.11c.035-.151.093-.348.178-.607.085-.258.186-.543.305-.877l.01-.026c.113-.32.24-.678.368-1.056.38-1.126.908-3.194 1.105-4.754 1.006-.077 2.994-.077 4 0 .197 1.56.725 3.628 1.105 4.754.128.378.255.736.369 1.056l.009.026c.119.334.22.619.305.877.085.26.142.456.178.607l.022.11zM20 17.332c0 2.49.775 4.667 1.36 6.312.355.997.64 1.799.64 2.355 0 1.473-1.194 2-2.667 2h-6.666C11.194 28 10 27.473 10 26c0-.556.285-1.358.64-2.355C11.225 22 12 19.823 12 17.332c4-.333 4-.333 8 0z" clip-rule="evenodd" opacity=".4"/><path fill="#6D7986" fill-rule="evenodd" d="M25.276 12.256l-.018-.044a9.946 9.946 0 00-2.213-3.31l-.127-.122A9.946 9.946 0 0016 6a9.974 9.974 0 00-9.196 6.053A10.007 10.007 0 006 16c0 .368.299.667.667.667h18.666A.667.667 0 0026 16c0-1.327-.26-2.588-.724-3.744zm1.835-.797C27.68 12.858 28 14.39 28 16a2.667 2.667 0 01-2.667 2.667H6.667A2.667 2.667 0 014 16 11.974 11.974 0 0116 4c3.226 0 6.148 1.27 8.303 3.337h.002a11.956 11.956 0 012.805 4.121v.001z" clip-rule="evenodd"/></svg>