<svg xmlns="http://www.w3.org/2000/svg" width="32" height="32"><path fill="#99AAB5" d="M22 26c0 1.473-1.194 2-2.667 2h-6.666C11.194 28 10 27.473 10 26c0-1.473 2-4.667 2-8.667s8-4 8 0 2 7.194 2 8.667z"/><path fill="#DD2E44" d="M27.11 11.46v-.002a11.956 11.956 0 00-2.805-4.121h-.002A11.946 11.946 0 0016 4 11.974 11.974 0 004 16a2.667 2.667 0 002.667 2.667h18.666A2.667 2.667 0 0028 16c0-1.611-.32-3.142-.89-4.54z"/><path fill="#F4ABBA" d="M9.139 15.055a4.195 4.195 0 10-.79-8.312 11.975 11.975 0 00-3.384 4.524 4.194 4.194 0 004.174 3.788z"/><path fill="#F4ABBA" d="M9.139 6.833a4.032 4.032 0 014.027 4.028 4.032 4.032 0 01-4.027 4.028 4.01 4.01 0 01-4.004-3.596A11.849 11.849 0 018.422 6.9c.243-.045.484-.067.717-.067zm0-.166c-.27 0-.534.028-.79.076a11.975 11.975 0 00-3.384 4.524 4.194 4.194 0 104.174-4.6zm12.194 3.666a2.998 2.998 0 005.777 1.126v-.001a11.955 11.955 0 00-2.805-4.121 2.997 2.997 0 00-2.972 2.996zM18.333 17.667a3 3 0 100-6 3 3 0 000 6zM17.333 9.333a2 2 0 100-4 2 2 0 000 4z"/></svg>