<svg xmlns="http://www.w3.org/2000/svg" width="32" height="32"><path fill="#88C9F9" d="M4.333 9l3.723 18.03S9.778 29.222 16 29.222c6.222 0 7.944-2.192 7.944-2.192L27.667 9H4.333z"/><path fill="#3B88C3" d="M3.555 5.889h24.89v3.11H3.554V5.89z"/><path fill="#3B88C3" d="M16 12.111c6.873 0 12.444-1.378 12.444-3.078S22.873 5.954 16 5.954c-6.873 0-12.445 1.378-12.445 3.079 0 1.7 5.572 3.078 12.445 3.078z"/><path fill="#55ACEE" d="M16 9c6.873 0 12.444-1.392 12.444-3.11 0-1.719-5.571-3.112-12.444-3.112-6.873 0-12.445 1.393-12.445 3.111 0 1.719 5.572 3.112 12.445 3.112z"/><path fill="#004A77" d="M16 8.222c6.443 0 11.667-1.176 11.667-2.625 0-1.45-5.224-2.625-11.667-2.625S4.333 4.147 4.333 5.597 9.557 8.222 16 8.222z"/><path fill="#99AAB5" d="M16 22.544c-7.462 0-13.532-6.163-13.532-13.738a.778.778 0 011.556 0c0 6.718 5.373 12.182 11.976 12.182 6.604 0 11.976-5.464 11.976-12.182a.778.778 0 111.556 0c0 7.575-6.07 13.738-13.532 13.738z"/><path fill="#292F33" d="M21.76 20.53c0 1.364-2.579 2.47-5.76 2.47-3.181 0-5.76-1.106-5.76-2.47 0-1.363 1.646 0 5.76 0s5.76-1.363 5.76 0z"/></svg>