<svg xmlns="http://www.w3.org/2000/svg" width="32" height="32"><path fill="#6D7986" fill-rule="evenodd" d="M16 8.5L5.5 7v2.348l1.076.625 3.3 15.984c.15.098.362.22.645.348.907.412 2.604.917 5.479.917s4.572-.505 5.48-.917a4.84 4.84 0 00.643-.348l3.247-15.725.892-.841.238-.716V7L16 8.5zM28.5 6v3l-.5 1.5-.799.754-3.257 15.776S22.222 29.222 16 29.222c-6.222 0-7.944-2.192-7.944-2.192L4.799 11.254 3.5 10.5V6L16 8l12.5-2z" clip-rule="evenodd" opacity=".4"/><path fill="#6D7986" fill-rule="evenodd" d="M16 9c6.873 0 12.444-1.392 12.444-3.11 0-1.719-5.571-3.112-12.444-3.112-6.873 0-12.445 1.393-12.445 3.111 0 1.719 5.572 3.112 12.445 3.112zM26.68 5.215s-.008.012-.035.034a.218.218 0 01.035-.034zm-2.367.416c.342.085.647.172.916.26-.27.086-.574.174-.916.259-2.052.513-4.992.852-8.314.852s-6.263-.339-8.315-.852a14.215 14.215 0 01-.915-.26c.269-.087.574-.174.915-.26 2.052-.512 4.993-.85 8.315-.85 3.322 0 6.262.338 8.314.85zM5.32 5.214s.015.01.035.034c-.027-.022-.035-.034-.035-.034zm0 1.35s.008-.01.035-.033c-.02.023-.035.034-.035.034zm21.327-.033a.197.197 0 01.035.034s-.015-.01-.035-.034z" clip-rule="evenodd"/><path fill="#6D7986" d="M2.468 8.806c0 7.575 6.07 13.738 13.532 13.738s13.532-6.163 13.532-13.738a.778.778 0 10-1.556 0c0 6.718-5.372 12.182-11.976 12.182-6.603 0-11.976-5.464-11.976-12.182a.778.778 0 00-1.556 0z"/><path fill="#6D7986" d="M21.76 20.53c0 1.364-2.579 2.47-5.76 2.47-3.181 0-5.76-1.106-5.76-2.47 0-1.363 1.646 0 5.76 0s5.76-1.363 5.76 0z"/></svg>