<svg width="32" height="32" viewBox="0 0 32 32" fill="none" xmlns="http://www.w3.org/2000/svg">
  <path d="M0 8C0 3.58172 3.58172 0 8 0H24C28.4183 0 32 3.58172 32 8V24C32 28.4183 28.4183 32 24 32H8C3.58172 32 0 28.4183 0 24V8Z" fill="#2D3642"/>
  <path d="M22.5858 8L18.2929 12.2929L19.7071 13.7071L24 9.41421V13L26 13V6H19L19 8L22.5858 8Z" fill="white"/>
  <path d="M9.41421 24.0002L13.7071 19.7073L12.2929 18.293L8 22.5859L8 19.0002H6V26.0002L13 26.0002L13 24.0002L9.41421 24.0002Z" fill="white"/>
  <path d="M12.2929 13.7072L8.00005 9.41429L8.00005 13.0001L6.00005 13.0001L6.00005 6.00008L13 6.00008L13 8.00008L9.41426 8.00008L13.7072 12.293L12.2929 13.7072Z" fill="white"/>
  <path d="M24 22.5859L19.7071 18.293L18.2928 19.7072L22.5857 24.0001H19V26.0001L26 26.0001L26 19.0001L24 19.0001L24 22.5859Z" fill="white"/>
</svg>
