<svg width="70" height="70" viewBox="0 0 70 70" xmlns="http://www.w3.org/2000/svg"><path d="M70 35c0 19.33-15.67 35-35 35S0 54.33 0 35 15.67 0 35 0s35 15.67 35 35Z" fill="#FFCC4D"/><path fill-rule="evenodd" clip-rule="evenodd" d="M2.411 21.424c.467.465 2.796 1.86 3.261 3.257.467 1.394 1.4 9.302 4.196 11.63 2.884 2.395 13.76 1.505 15.843.466 4.661-2.324 5.233-8.81 6.057-12.096.465-1.861 3.261-1.861 3.261-1.861s2.796 0 3.263 1.859c.824 3.288 1.4 9.774 6.057 12.096 2.084 1.04 12.962 1.933 15.85-.463 2.791-2.327 3.723-10.235 4.19-11.631.462-1.394 2.796-2.79 3.26-3.255.469-.465.469-2.326 0-2.792-.931-.93-11.927-1.758-23.767-.465-2.362.258-3.26.93-8.855.93-5.59 0-6.492-.674-8.853-.93-11.832-1.295-22.83-.467-23.763.463-.465.464-.465 2.327 0 2.792Z" fill="#292F33"/><path d="M53.151 45.945a.974.974 0 0 0-1.234-.056c-.076.056-7.627 5.639-16.917 5.639-9.267 0-16.843-5.583-16.917-5.639a.972.972 0 0 0-1.418 1.277c.252.419 6.256 10.195 18.335 10.195s18.085-9.776 18.334-10.194a.97.97 0 0 0-.183-1.222Z" fill="#664500"/></svg>