<svg xmlns="http://www.w3.org/2000/svg" width="32" height="32" viewBox="0 0 20 20">
    <path fill="#fff" fill-rule="evenodd"
        d="M6.15 3.32a7.7 7.7 0 0 1 6.98-.36.63.63 0 0 1-.5 1.14 6.45 6.45 0 0 0-8.5 8.58l.23-.9a.63.63 0 0 1 1.2.33l-.6 2.27a.63.63 0 0 1-.77.45l-2.27-.61A.62.62 0 1 1 2.24 13l.75.2a7.7 7.7 0 0 1 3.16-9.89Zm8.9 2.3a.62.62 0 0 1 .76-.45l2.27.61A.63.63 0 0 1 17.76 7l-.75-.2A7.7 7.7 0 0 1 6.87 17.04a.63.63 0 0 1 .5-1.14 6.45 6.45 0 0 0 8.5-8.58l-.23.9a.62.62 0 1 1-1.2-.33l.6-2.27Z"
        clip-rule="evenodd" opacity=".4" />
</svg>