<svg width="32" height="32" viewBox="0 0 32 32" xmlns="http://www.w3.org/2000/svg"><path d="M30.222 14.222C30.222 5.333 23.855 0 16 0 8.146 0 1.778 5.333 1.778 14.222c0 4.955.002 9.234 5.333 11.236v3.875a2.667 2.667 0 1 0 5.333 0V26.53c.288.024.586.044.89.062v2.742a2.667 2.667 0 1 0 5.333 0v-2.742c.304-.019.6-.038.889-.062v2.804a2.667 2.667 0 0 0 5.333 0v-3.875c5.332-2.002 5.333-6.281 5.333-11.236Z" fill="#CCD6DD"/><path d="M9.778 16.889a4.444 4.444 0 1 0 0-8.889 4.444 4.444 0 0 0 0 8.889ZM22.222 16.889a4.444 4.444 0 1 0 0-8.889 4.444 4.444 0 0 0 0 8.889ZM17.692 20.5c-.224-.545-.892-.945-1.692-.945-.8 0-1.469.4-1.692.945a1.328 1.328 0 0 0-.975 1.278c0 .736.597 1.333 1.334 1.333.582 0 1.072-.375 1.253-.895.027 0 .052.006.08.006.027 0 .053-.005.08-.006a1.33 1.33 0 1 0 1.612-1.716Z" fill="#292F33"/></svg>