<svg width="32" height="32" viewBox="0 0 32 32" xmlns="http://www.w3.org/2000/svg"><path d="M28.354 21.278c-.532-5.882-3.465-8.834-3.465-8.834l-5.333-7.11h-7.112l-5.333 7.11s-1.261 1.274-2.282 3.8c-1.768.587-3.051 2.235-3.051 4.2a4.419 4.419 0 0 0 1.43 3.25 4.394 4.394 0 0 0-.541 2.084c0 1.74 1.01 3.232 2.466 3.96C6.273 31.449 7.797 32 8.89 32H23.11c1.226 0 2.998-.692 4.158-2.942 1.717-.614 2.953-2.24 2.953-4.17a4.434 4.434 0 0 0-1.868-3.61ZM16 5.333c.489 0 .94-.14 1.333-.37.394.23.846.37 1.334.37 1.473 0 3.555-2.083 3.555-3.555 0 0 0-1.778-1.777-1.778-.7 0-.89.889-1.778.889C17.777.889 17.777 0 16 0c-1.778 0-1.778.889-2.667.889-.889 0-1.076-.889-1.777-.889-1.778 0-1.778 1.778-1.778 1.778 0 1.472 2.083 3.555 3.555 3.555.488 0 .94-.14 1.334-.37.393.23.845.37 1.333.37Z" fill="#FDD888"/><path d="M21.333 5.333a.889.889 0 0 1-.888.89h-8.89a.889.889 0 0 1 0-1.779h8.89a.889.889 0 0 1 .888.89Z" fill="#BF6952"/><path d="M21.245 21.815c0-3.98-7.627-3.72-7.627-6.12 0-1.163 1.156-1.731 2.498-1.731 2.256 0 2.658 1.394 3.68 1.394.722 0 1.07-.438 1.07-.93 0-1.14-1.799-2.005-3.524-2.304v-1.102c0-.687-.578-1.244-1.292-1.244-.716 0-1.295.557-1.295 1.244v1.14c-1.88.412-3.499 1.667-3.499 3.713 0 3.821 7.626 3.666 7.626 6.35 0 .931-1.047 1.861-2.766 1.861-2.578 0-3.437-1.679-4.484-1.679-.51 0-.966.413-.966 1.035 0 .99 1.722 2.178 4.091 2.51v1.252c0 .686.579 1.244 1.294 1.244.714 0 1.293-.558 1.293-1.244V25.96c0-.015-.007-.027-.008-.04 2.132-.382 3.91-1.717 3.91-4.106Z" fill="#67757F"/></svg>