<svg width="32" height="32" viewBox="0 0 32 32" xmlns="http://www.w3.org/2000/svg"><path d="M.889 15.111 8 8.89l14.222.889.89 14.222-6.223 7.111s0-5.332-5.333-10.666C6.22 15.11.889 15.11.889 15.11Z" fill="#A0041E"/><path d="M.865 31.111s-.032-7.092 2.653-9.778c2.686-2.685 9.816-2.5 9.816-2.5s-.001 6.945-2.668 9.612C7.999 31.11.865 31.11.865 31.11Z" fill="#FFAC33"/><path d="M8 27.556a3.556 3.556 0 1 0 0-7.112 3.556 3.556 0 0 0 0 7.112Z" fill="#FFCC4D"/><path d="M32 0s-8.89 0-19.556 8.889C7.11 13.333 7.11 21.333 8.887 23.11c1.778 1.778 9.778 1.778 14.222-3.555C32 8.889 32 0 32 0Z" fill="#55ACEE"/><path d="M24 4.444a3.552 3.552 0 0 0-3.237 2.098 3.528 3.528 0 0 1 3.972.722 3.534 3.534 0 0 1 .722 3.972 3.55 3.55 0 0 0 1.056-5.75A3.556 3.556 0 0 0 24 4.444Z" fill="#000"/><path d="M7.111 24.889s0-3.556.889-4.445c.889-.888 11.556-9.776 12.444-8.888.888.888-8 11.555-8.89 12.444-.888.889-4.443.889-4.443.889Z" fill="#A0041E"/></svg>