<svg xmlns="http://www.w3.org/2000/svg" width="32" height="32" viewBox="0 0 32 32"><path d="M32 16c0 8.836-7.164 16-16 16S0 24.836 0 16 7.164 0 16 0s16 7.164 16 16Z" fill="#FFCC4D"/><path d="M16 19.421c-2.636 0-4.386-.307-6.55-.728-.495-.094-1.456 0-1.456 1.456 0 2.911 3.345 6.55 8.006 6.55 4.662 0 8.006-3.639 8.006-6.55 0-1.456-.961-1.55-1.456-1.456-2.163.42-3.913.728-6.55.728Z" fill="#664500"/><path d="M14.8 2.916a4.147 4.147 0 0 0-7.897.226 4.148 4.148 0 0 0-3.756-.515A4.151 4.151 0 0 0 .615 7.92c.108.306.252.59.42.851 1.734 3.184 6.744 5.423 9.778 5.45 2.344-1.926 4.841-6.813 4.194-10.38a4.188 4.188 0 0 0-.207-.926Zm2.4 0a4.151 4.151 0 0 1 6.93-1.468c.452.48.784 1.06.968 1.694a4.148 4.148 0 0 1 3.755-.515 4.152 4.152 0 0 1 2.534 5.294 4.198 4.198 0 0 1-.42.851c-1.735 3.184-6.746 5.423-9.78 5.45-2.344-1.926-4.84-6.813-4.193-10.38.033-.309.1-.62.206-.926Z" fill="#DD2E44"/></svg>