<svg xmlns="http://www.w3.org/2000/svg" width="32" height="32" viewBox="0 0 32 32"><path d="M31.111 16.889c.002-1.78-.31-3.546-.924-5.216-.41 4.79-2.963 7.25-5.631 6.105-2.5-1.074-.816-5.26-.691-7.257.21-3.386-.01-7.261-6.161-10.484 2.556 4.89.296 7.927-2.074 8.111-2.63.206-5.037-2.26-4.148-6.26-2.878 2.122-2.962 5.692-2.074 8 .926 2.408-.037 4.408-2.296 4.63-2.524.25-3.927-2.703-2.634-7.407a15.054 15.054 0 0 0-3.59 9.778C.889 25.235 7.655 32 16 32s15.111-6.765 15.111-15.111Z" fill="#F4900C"/><path d="M25.239 21.332c.132 2.742-2.276 3.816-3.572 3.297-1.872-.749-1.37-2.036-1.852-4.703-.482-2.666-2.333-4.518-5.074-5.333 2 5.63-1.108 7.704-2.737 8.075-1.665.378-3.337-.001-3.528-3.562a10.634 10.634 0 0 0-3.143 7.56c0 .328.02.65.05.97A15.057 15.057 0 0 0 16 32c4.14 0 7.889-1.668 10.618-4.364.028-.32.049-.642.049-.97 0-1.943-.52-3.765-1.428-5.334Z" fill="#FFCC4D"/></svg>