<svg width="32" height="32" viewBox="0 0 32 32" fill="none" xmlns="http://www.w3.org/2000/svg">
<path fill-rule="evenodd" clip-rule="evenodd" d="M27.7421 10.1647L26.9122 8.72459C26.2101 7.50603 24.6542 7.08566 23.434 7.78485C22.8531 8.12702 22.16 8.2241 21.5075 8.05468C20.855 7.88526 20.2967 7.46325 19.9557 6.88172C19.7363 6.51209 19.6184 6.09109 19.614 5.66128C19.6338 4.97219 19.3738 4.30443 18.8933 3.81012C18.4128 3.31581 17.7526 3.03705 17.0633 3.03733H15.3912C14.7159 3.03733 14.0683 3.30645 13.5919 3.78516C13.1155 4.26386 12.8495 4.91269 12.8527 5.58805C12.8327 6.98246 11.6966 8.10231 10.302 8.10217C9.8722 8.0977 9.45119 7.97982 9.08156 7.76044C7.86133 7.06125 6.3054 7.48162 5.6033 8.70018L4.71238 10.1647C4.01113 11.3818 4.42579 12.9367 5.63992 13.643C6.42912 14.0986 6.91529 14.9407 6.91529 15.852C6.91529 16.7633 6.42912 17.6053 5.63992 18.061C4.42733 18.7625 4.01222 20.3137 4.71238 21.527L5.55449 22.9794C5.88345 23.5729 6.43539 24.011 7.08818 24.1965C7.74096 24.382 8.44077 24.2998 9.03275 23.9679C9.61469 23.6284 10.3082 23.5353 10.959 23.7095C11.6099 23.8837 12.1642 24.3106 12.4988 24.8955C12.7182 25.2651 12.8361 25.6861 12.8405 26.1159C12.8405 27.5246 13.9825 28.6666 15.3912 28.6666H17.0633C18.4672 28.6666 19.6073 27.5321 19.614 26.1281C19.6107 25.4506 19.8784 24.7999 20.3575 24.3209C20.8365 23.8418 21.4872 23.5741 22.1647 23.5774C22.5935 23.5889 23.0128 23.7063 23.3851 23.9191C24.6022 24.6203 26.1571 24.2057 26.8634 22.9916L27.7421 21.527C28.0823 20.9432 28.1756 20.2479 28.0015 19.5951C27.8274 18.9422 27.4002 18.3857 26.8146 18.0488C26.2289 17.7118 25.8018 17.1553 25.6277 16.5025C25.4536 15.8496 25.5469 15.1543 25.8871 14.5705C26.1082 14.1843 26.4284 13.8642 26.8146 13.643C28.0214 12.9371 28.4351 11.3912 27.7421 10.1769V10.1647Z" stroke="#545C66" stroke-width="2" stroke-linecap="round" stroke-linejoin="round"/>
<path opacity="0.4" d="M16.2334 19.3669C18.1746 19.3669 19.7483 17.7932 19.7483 15.852C19.7483 13.9108 18.1746 12.3371 16.2334 12.3371C14.2922 12.3371 12.7185 13.9108 12.7185 15.852C12.7185 17.7932 14.2922 19.3669 16.2334 19.3669Z" stroke="#545C66" stroke-width="2" stroke-linecap="round" stroke-linejoin="round"/>
</svg>
