<svg width="25" height="24" fill="none" xmlns="http://www.w3.org/2000/svg"><path d="M18.002 2.135A1 1 0 0 1 18.5 3v4c1.185 0 2.25.516 2.981 1.333A3.989 3.989 0 0 1 22.5 11c0 1.024-.386 1.96-1.019 2.667A3.993 3.993 0 0 1 18.5 15v4a1 1 0 0 1-1.496.868L10.5 16.152V21a1 1 0 0 1-1 1h-4a1 1 0 0 1-1-1v-5a2 2 0 0 1-2-2V8a2 2 0 0 1 2-2h5.734l6.77-3.868a1 1 0 0 1 .998.003ZM10.5 14a1 1 0 0 1 .496.132l5.504 3.145V4.723l-5.504 3.145A1 1 0 0 1 10.5 8h-6v6h6Zm-4 2v4h2v-4h-2Zm12-3c.592 0 1.123-.256 1.491-.667.317-.354.509-.82.509-1.333s-.192-.979-.509-1.333A1.993 1.993 0 0 0 18.5 9v4Z" fill="#fff"/></svg>