<svg fill="none" xmlns="http://www.w3.org/2000/svg" viewBox="0 0 32 32" width="32" height="32"><path fill-rule="evenodd" clip-rule="evenodd" d="M18.19 6.84c-1.521.815-2.612 2.61-1.983 5.186a1 1 0 0 1-.972 1.237c-2.906 0-5.73-1.267-8.185-3.09-.71-.527-1.153-.853-1.484-1.031a2.425 2.425 0 0 0-.039-.021c-.058.296-.08.738-.112 1.477-.184 4.2 1.428 7.839 5.263 10.644a1 1 0 0 1-.134 1.697c-.948.485-2.743.91-4.438 1.198l-.341.058.192.072c5.937 2.227 11.08 1.652 14.54-.702 3.437-2.338 5.41-6.565 4.775-12.095a1 1 0 0 1 .537-1.005c.324-.165.768-.605 1.158-1.302a5.548 5.548 0 0 0 .685-2.184l-.223.093c-.605.252-1.272.476-1.853.638-.539.15-1.126.283-1.517.283a1 1 0 0 1-.715-.3c-1.509-1.545-3.593-1.69-5.154-.853Zm9.49-.565v.003-.003ZM5.58 8.927l-.002.005a.025.025 0 0 1 .003-.005Zm-.24.114a.034.034 0 0 1-.009-.001l.009.001Zm19.062-3.1a6.277 6.277 0 0 0-7.158-.864c-2.03 1.09-3.416 3.285-3.195 6.1-1.954-.278-3.936-1.22-5.807-2.61l-.06-.043c-.631-.47-1.192-.886-1.665-1.142-.481-.26-1.17-.52-1.892-.177-.68.323-.936.936-1.048 1.47-.101.478-.128 1.096-.157 1.76l-.003.076c-.189 4.298 1.286 8.136 4.643 11.176-.663.17-1.452.336-2.288.478l-.06.01c-.798.135-1.477.25-1.956.384a2.81 2.81 0 0 0-.762.316c-.253.163-.585.478-.634.993-.048.494.193.862.413 1.08.203.2.454.346.67.456.427.216 1.04.446 1.752.713l.06.022c6.383 2.396 12.241 1.887 16.367-.92 4.008-2.727 6.194-7.498 5.698-13.366.552-.444 1.027-1.06 1.393-1.716.503-.901.869-1.996.94-3.107l.004-.053c.019-.286.04-.608.015-.877-.03-.318-.143-.789-.596-1.113-.516-.369-1.088-.238-1.354-.164-.293.082-.648.23-1.012.382l-.05.02c-.52.218-1.11.416-1.621.559a9.53 9.53 0 0 1-.637.157Z" fill="#fff"/></svg>