<svg fill="none" xmlns="http://www.w3.org/2000/svg" viewBox="0 0 32 32" width="32" height="32"><path fill-rule="evenodd" clip-rule="evenodd" d="M19.77 14.825c-.226.286-.37.713-.37 1.189 0 .475.144.903.37 1.188.203.258.5.438.962.438.462 0 .758-.18.962-.438.225-.285.368-.713.368-1.188 0-.476-.143-.903-.368-1.188-.204-.259-.5-.439-.962-.439-.463 0-.759.18-.963.438Zm-1.625-1.283c.585-.74 1.472-1.225 2.587-1.225 1.114 0 2.002.485 2.586 1.225.563.713.815 1.616.815 2.472 0 .855-.252 1.758-.815 2.471-.584.74-1.472 1.225-2.586 1.225-1.115 0-2.002-.485-2.587-1.225-.563-.713-.814-1.616-.814-2.471 0-.856.25-1.76.814-2.472ZM11.268 14.387c-.624 0-1.331.61-1.331 1.627 0 1.016.707 1.626 1.33 1.626.625 0 1.332-.61 1.332-1.626 0-1.017-.707-1.627-1.331-1.627Zm-3.401 1.627c0-1.924 1.411-3.697 3.4-3.697 1.99 0 3.402 1.773 3.402 3.697 0 1.923-1.412 3.696-3.401 3.696-1.99 0-3.401-1.773-3.401-3.696Z" fill="#fff"/><path fill-rule="evenodd" clip-rule="evenodd" d="M18.015 7.502a2.135 2.135 0 0 1 2.447-1.593l3.51.625a5.12 5.12 0 0 1 4.099 3.918l1.713 7.624a5.12 5.12 0 0 1-2.583 5.639l-2.37 1.266a3.075 3.075 0 0 1-4.384-1.8c-3.107.474-5.788.474-8.894 0a3.075 3.075 0 0 1-4.385 1.8l-2.35-1.255a5.102 5.102 0 0 1-2.56-5.675l1.592-6.736.012-.052a9.44 9.44 0 0 1 .24-.9 5.175 5.175 0 0 1 3.06-3.148c.245-.092.509-.163.892-.265l.051-.014 3.46-.924A1.972 1.972 0 0 1 14.001 7.5a22.027 22.027 0 0 1 4.014.002Zm2.084.445a.063.063 0 0 0-.074.062c0 1.03-.93 1.717-1.845 1.595-1.229-.162-3.018-.166-4.277-.01-.917.113-1.85-.543-1.924-1.55l-3.34.892c-.454.121-.61.164-.745.215a3.105 3.105 0 0 0-1.835 1.89c-.048.136-.086.293-.194.75l-1.593 6.736A3.032 3.032 0 0 0 5.794 21.9l2.35 1.255a1.004 1.004 0 0 0 1.452-.665 1.811 1.811 0 0 1 2.054-1.387c3.064.486 5.635.486 8.7 0a1.811 1.811 0 0 1 2.053 1.387c.145.647.867.978 1.453.665l2.37-1.265a3.05 3.05 0 0 0 1.538-3.359l-1.713-7.624a3.05 3.05 0 0 0-2.441-2.334l-3.51-.625Z" fill="#fff"/></svg>