<svg fill="none" xmlns="http://www.w3.org/2000/svg" viewBox="0 0 32 32" width="32" height="32"><path fill-rule="evenodd" clip-rule="evenodd" d="M25.835 4.242c-1.17-.86-2.525-.705-3.894-.236-1.348.463-3.04 1.347-5.14 2.446l-9.677 5.06c-1.089.57-1.971 1.031-2.618 1.445-.628.401-1.25.885-1.565 1.588a3.646 3.646 0 0 0 .2 3.356c.396.658 1.07 1.057 1.741 1.374.691.326 1.621.67 2.769 1.093l.051.019c.212.078.332.123.42.161a.71.71 0 0 1 .083.04c.041.03.076.069.102.113.003.006.014.03.034.089.031.095.067.222.13.448l1.08 3.886c.14.509.257.928.36 1.247.095.293.223.655.436.942.98 1.33 2.864 1.426 3.963.203.238-.264.4-.612.521-.893.133-.308.287-.713.476-1.204l.01-.027c.097-.254.157-.41.206-.523.031-.073.048-.103.052-.11a.363.363 0 0 1 .405-.132 1.1 1.1 0 0 1 .103.06c.102.065.235.157.453.31l.509.354c1.038.724 1.882 1.312 2.585 1.71.712.403 1.43.702 2.203.68a4.024 4.024 0 0 0 2.923-1.414c.518-.6.766-1.366.934-2.195.165-.818.284-1.871.43-3.167l.797-7.085c.274-2.44.495-4.404.453-5.887-.043-1.506-.364-2.891-1.535-3.751Zm-8.123 4.346c2.21-1.155 3.753-1.959 4.925-2.36 1.17-.402 1.63-.282 1.914-.073.284.208.549.62.585 1.908.037 1.29-.162 3.08-.45 5.647l-.779 6.923c-.154 1.369-.261 2.315-.403 3.014-.143.702-.289.977-.407 1.114-.34.395-.82.627-1.329.643-.177.005-.471-.057-1.075-.398-.601-.341-1.36-.868-2.455-1.633l-.462-.322-.089-.061c-.325-.228-.66-.462-1-.58-1.058-.367-2.222.012-2.896.94-.18.248-.312.56-.435.875l.173-2.354a5.194 5.194 0 0 1 1.095-2.837l5.874-7.437c1.078-1.365-.637-3.195-1.963-2.096l-7.042 5.838a1.205 1.205 0 0 0-.181 1.641c.383.506 1.086.591 1.57.19l.914-.758-.895 1.134a7.59 7.59 0 0 0-1.6 4.146l-.079 1.073-.605-2.18-.024-.085c-.094-.341-.195-.707-.385-1.029a2.682 2.682 0 0 0-.722-.798c-.296-.217-.64-.343-.96-.46l-.08-.03c-1.211-.447-2.05-.758-2.644-1.038-.623-.295-.752-.46-.77-.49a1.215 1.215 0 0 1-.067-1.119c.015-.032.123-.212.706-.585.556-.355 1.352-.773 2.5-1.373l9.54-4.99Z" fill="#fff"/></svg>