<svg width="32" height="32" viewBox="0 0 32 32" fill="none" xmlns="http://www.w3.org/2000/svg" stroke="#9488F0" stroke-width="2" stroke-linecap="round">
<path d="M8.41667 11.6667H5C3.89543 11.6667 3 12.5621 3 13.6667V18.3333C3 19.4379 3.89543 20.3333 5 20.3333H8.00245C8.26767 20.3333 8.52202 20.4387 8.70956 20.6262L13.4393 25.356C14.3843 26.301 16 25.6317 16 24.2953V7.70465C16 6.3683 14.3843 5.69904 13.4393 6.64399L8.41667 11.6667ZM8.41667 11.6667V14.9167"/>
<path d="M21 10.7083C22.2447 12.1186 23 13.9711 23 16C23 18.0289 22.2447 19.8814 21 21.2916" class="wave wave--small"/>
<path d="M26 24.3072C26.3622 23.8717 26.6964 23.4122 27 22.9314C28.2669 20.9251 29 18.5482 29 16C29 13.4518 28.2669 11.0749 27 9.06863C26.6964 8.58784 26.3622 8.12833 26 7.69286" class="wave wave--big"/>
</svg>
