<svg width="80" height="80" viewBox="0 0 80 80" fill="none" xmlns="http://www.w3.org/2000/svg">
  <path d="M79.6333 71.9977C79.5532 72.859 79.4731 73.5387 79.4155 74H0.853332C0.788817 73.5951 0.684257 72.913 0.573024 71.9977C-0.721733 61.4391 -3.24006 19.9041 36.8618 18.0638C36.8618 18.0638 36.8618 18.0638 36.864 18.0638C37.7739 18.0221 38.7083 18 39.6627 18C82.1828 18 80.7123 60.7128 79.6333 71.9977Z" fill="#8356DF"/>
  <path d="M28 74H11.022C10.702 67.852 13.9083 62.5699 18.3945 62.043C23.0495 61.4937 27.3179 66.2736 27.9289 72.7135C27.9689 73.1465 27.9933 73.5745 28 74Z" fill="#F5F2F9"/>
  <path d="M67.99 74H51C51 73.7431 51.0067 73.4836 51.0178 73.2242C51.3162 66.7636 55.3555 61.7433 60.0406 62.0102C64.6811 62.272 68.2127 67.6209 67.99 74Z" fill="#F5F2F9"/>
  <path d="M62 72.6765C62 73.1569 61.881 73.6103 61.6728 74H57.3272C57.119 73.6103 57 73.1569 57 72.6765C57 71.1985 58.119 70 59.4989 70C60.881 70 62 71.1985 62 72.6765Z" fill="black"/>
  <path d="M23 72.6765C23 73.1569 22.881 73.6103 22.6728 74H18.3272C18.119 73.6103 18 73.1569 18 72.6765C18 71.1985 19.119 70 20.5011 70C21.881 70 23 71.1985 23 72.6765Z" fill="black"/>
  <path opacity="0.54" d="M79.4186 74C79.4761 73.5387 79.5556 72.8591 79.6351 71.9977C80.7087 60.713 82.1711 18 39.8798 18C38.9303 18 38.378 17.9998 37.0962 18.0637C49.7735 18.8861 61.8327 25.1159 69.1347 41.8016C74.7801 54.7022 72.9852 66.0949 72.7359 70.5L1 71.9977C1.04538 72.3727 1.08946 72.7087 1.13052 73.0024C1.18929 73.4254 1.24115 73.7611 1.27875 74H79.4186Z" fill="#6941BA"/>
</svg>
