<svg fill="none" xmlns="http://www.w3.org/2000/svg" viewBox="0 0 32 32" width="32" height="32"><path d="M18.222 2.635A2.222 2.222 0 0 0 16 4.858v.004L13.778.413a2.222 2.222 0 0 0-2.223 2.222v1.143L9.334 2.413a2.222 2.222 0 0 0-2.222 2.222v3.143L6.222 16H18.26l-.037-13.365Z" fill="#EF9645"/><path d="M27.889 14.417c-1.228-.543-2.981.185-4.222 1.945-.815 1.155-1.055 2.8-2.126 2.972-.408.065-1.096-.278-1.096-1.242V4s0-1.778-1.778-1.778S16.889 4 16.889 4v10.34c0-.025-.889-.056-.889-.072V1.778S16 0 14.222 0c-1.777 0-1.777 1.778-1.777 1.778v12.491c0 .015-.89.037-.89.062V3.778S11.556 2 9.779 2C8 2 8 3.778 8 3.778v11.234c0 .104-.889.223-.889.353V7.778S7.111 6 5.333 6C3.556 6 3.556 7.778 3.556 7.778v13.555C3.556 27.224 8.332 32 14.222 32c4.245 0 7.165-2.31 8.797-4.704 1.384-2.031 1.786-4.14 1.87-4.778 0 0 .11-1.314 1.028-2.546a51.4 51.4 0 0 1 2.777-3.437c.282-.318.556-1.516-.805-2.118Z" fill="#FFDC5D"/><path d="M20.835 19.085c-.264-.236-.331-.49-.371-.718-1.682.23-3.962.701-5.713 2.413-2.272 2.222-2.66 4.623-2.64 6.229.014 1.295.721 1.908.928-.01.26-2.406 2.004-7.168 7.808-7.627.025-.002.344-.022.525-.032 0 0-.312-.053-.537-.255Z" fill="#EF9645"/></svg>