<svg width="24" height="24" viewBox="0 0 24 24" fill="none" xmlns="http://www.w3.org/2000/svg">
<path d="M1.37105 11.1096L6.20846 12.9861L8.08462 19.2411C8.20363 19.6412 8.67967 19.7866 8.98769 19.5248L11.6829 17.241C11.9629 17.001 12.369 16.9864 12.663 17.2119L17.5284 20.8849C17.8644 21.1394 18.3405 20.9503 18.4245 20.5285L21.9878 2.71624C22.0788 2.25802 21.6448 1.87254 21.2247 2.03982L1.36405 10.0041C0.874008 10.2004 0.881009 10.9205 1.37105 11.1096ZM7.78359 11.9897L17.2414 5.9383C17.4094 5.8292 17.5844 6.06922 17.4374 6.20741L9.63175 13.7498C9.35873 14.0116 9.18371 14.368 9.12771 14.7535L8.86168 16.7973C8.82668 17.0737 8.45565 17.0955 8.38564 16.8337L7.36356 13.1025C7.25155 12.6806 7.41956 12.2224 7.78359 11.9897Z" fill="white"/>
</svg>
