<svg width="20" height="20" viewBox="0 0 20 20" xmlns="http://www.w3.org/2000/svg"><path d="M14.862 4.448a2.595 2.595 0 0 0 2.803.574l2.008 2.006c.409.41.41 1.077-.003 1.489L8.51 19.669a1.056 1.056 0 0 1-1.489 0l-2.003-2.006a2.603 2.603 0 0 0-.573-2.804 2.599 2.599 0 0 0-2.804-.573L.33 12.975a1.051 1.051 0 0 1 0-1.49L11.487.332a1.051 1.051 0 0 1 1.488.001l1.312 1.312a2.598 2.598 0 0 0 .574 2.804Z" fill="#FEC14B"/><path d="m3.011 10.293-1.194 1.193a1.054 1.054 0 0 0-.001 1.49l.3.3a3.149 3.149 0 0 1 3.861 3.86l1.044 1.046a1.055 1.055 0 0 0 1.49 0l1.216-1.216-6.716-6.673Zm7.512 5.878 5.643-5.64L9.45 3.857l-5.641 5.64 6.715 6.674Zm1.105-7.774c1.248 1.238 1.525 2.975.623 3.883-.904.908-2.645.639-3.89-.598-1.243-1.238-1.52-2.976-.618-3.884.903-.905 2.641-.638 3.885.599Zm6.556-1.37-1.045-1.044a3.15 3.15 0 0 1-3.864-2.23 3.15 3.15 0 0 1 .001-1.632l-.3-.304a1.055 1.055 0 0 0-1.488.002l-1.242 1.242 6.717 6.673 1.22-1.22a1.05 1.05 0 0 0 .001-1.486Z" fill="#BE1931"/></svg>