<svg fill="none" xmlns="http://www.w3.org/2000/svg" viewBox="0 0 20 20" width="20" height="20"><path d="M2.846 2.778H6.18c.614 0 1.043-.058 1.043.555v-1.11c0-.614-.43-1.112-1.043-1.112H1.735c-1.111 0-1.99 1.18-1.667 2.778 0 0 .995 5.208 1.065 5.532.185.857 1.18 1.69 2.245 1.69h3.866c.614 0-.022-1.053-.022-1.667v-1.11c0 .613-.43 1.11-1.043 1.11H3.957c-.613 0-1.018-.578-1.11-1.11-.094-.533-.88-4.075-.88-4.075-.186-1.065.265-1.481.88-1.481Zm14.34 0h-3.333c-.614 0-1.63-.058-1.63.555v-1.11c0-.614 1.016-1.112 1.63-1.112h4.444c1.111 0 1.991 1.18 1.667 2.778 0 0-.907 5.233-.984 5.555-.197.834-1.134 1.667-2.222 1.667h-3.97c-.614 0-.566-1.053-.566-1.667v-1.11c0 .613 1.017 1.11 1.63 1.11h2.223c.613 0 1.019-.578 1.111-1.11.092-.533.88-4.075.88-4.075.185-1.065-.266-1.481-.88-1.481Zm-5.613 9.444c0-3.865-1.505 0-1.505 0s-1.666-3.865-1.666 0c0 3.866-1.829 5.556-1.829 5.556h6.83c-.001 0-1.83-1.69-1.83-5.556Z" fill="#FFAC33"/><path d="M16.18 3.654c0 3.764-3.762 10.107-6.112 10.107s-6.11-6.343-6.11-10.107c0-2.886.555-3.51 1.666-3.51.763 0 3.347-.016 4.444-.016h3.89c1.62 0 2.221.38 2.221 3.526Z" fill="#FFCC4D"/><path d="M15 18.333c0 .614.126 1.111-.487 1.111h-8.89c-.613 0-.623-.497-.623-1.11v-.556c0-.614.647-1.111 1.226-1.111h7.731c.58 0 1.043.497 1.043 1.11v.556Z" fill="#C1694F"/><path d="M16.111 19.236c0 .422.092.764-.695.764H4.72c-.718 0-.832-.342-.832-.764v-.139c0-.422.41-.764.832-.764h10.695c.421 0 .695.342.695.764v.14Z" fill="#C1694F"/></svg>