<svg width="40" height="40" viewBox="0 0 41 40" xmlns="http://www.w3.org/2000/svg"><path fill-rule="evenodd" clip-rule="evenodd" d="M36.333 9.742c-1.177.54-2.442.904-3.77 1.069a6.772 6.772 0 0 0 2.886-3.755 12.886 12.886 0 0 1-4.169 1.647c-1.197-1.319-2.904-2.143-4.792-2.143-3.626 0-6.565 3.038-6.565 6.786 0 .532.058 1.05.17 1.546-5.456-.283-10.294-2.984-13.532-7.09a6.928 6.928 0 0 0-.889 3.412c0 2.354 1.16 4.431 2.92 5.648a6.38 6.38 0 0 1-2.973-.849v.085c0 3.288 2.263 6.03 5.266 6.655a6.38 6.38 0 0 1-2.965.116c.835 2.695 3.26 4.657 6.133 4.712-2.247 1.82-5.078 2.905-8.154 2.905-.53 0-1.052-.032-1.566-.095a18.146 18.146 0 0 0 10.064 3.05c12.076 0 18.68-10.341 18.68-19.308 0-.294-.007-.587-.02-.878a13.598 13.598 0 0 0 3.276-3.513Z" fill="#46A6FF"/></svg>