<svg xmlns="http://www.w3.org/2000/svg" width="20" height="20" viewBox="0 0 20 20"><path fill="#2962EF" d="M16 0H4a4 4 0 0 0-4 4v12a4 4 0 0 0 4 4h12a4 4 0 0 0 4-4V4a4 4 0 0 0-4-4Z"/><path fill="#fff" d="M9.977 7.985 11.4 6.063c.054-.072 0-.068 0-.068l-2.798-.011H6.697a.13.13 0 0 1-.088-.034L4.703 4.193C4.625 4.12 4.68 4 4.79 4h10.187c.185 0 .352.153.352.322 0 0 .029.174-.084.337-.052.076-1.138 1.575-2.418 3.341l-2.85-.015ZM9.989 11.333c-.812 1.325-1.39 2.267-1.4 2.281-.03.047 0 .04 0 .04h4.546c.031 0 .062.013.084.036l2.075 2.078c.025.025.04.06.04.098 0 .074-.056.134-.124.134H5.032c-.186 0-.352-.18-.352-.381 0 0-.065-.332.092-.612l2.29-3.66 2.927-.014Z"/></svg>