<svg fill="none" xmlns="http://www.w3.org/2000/svg" viewBox="0 0 175 150" width="175" height="150"><path d="M175 103.704v-.213c0-.319-.321-.692-.855-.692-1.282 0-2.297 2.076-3.633 2.661.588-1.437 2.671-3.087 2.671-4.79 0-.638-.213-1.383-.748-1.383-.908 0-2.885 3.193-4.06 4.47 1.389-3.193.053-4.523-3.42-4.523-.748 0-2.351.266-2.351 1.064 0 .16.054.266.107.319-.801.799-1.389 3.779-1.603 5.003-2.778 2.767-8.014 3.459-14.8 2.022-11.487-2.501-21.479-9.367-25.379-15.274-.695-1.011-8.749-18.885-8.909-19.47-3.234-.525-8.397-1.575-14.173-16.081-1.923-.107-3.9-1.49-4.595-3.087-.48-1.118-.801-2.502-1.015-4.098 3.9-.905-12.716-2.661-9.831-1.278.107 2.13.053 4.152-.428 6.174-.32 1.277-1.335 2.342-2.724 2.714-.588.16-2.135.436-2.135.436-4.724 9.447-17.32 29.653-22.043 35.688-6.786 10.698-33.26 22.1-41.167 14.17-.16-1.277-.802-4.205-1.603-5.003.107-.106.107-.213.107-.319 0-.798-1.603-1.065-2.351-1.065-3.527 0-4.809 1.384-3.42 4.524-1.175-1.277-3.099-4.47-4.06-4.47-.535 0-.748.745-.748 1.383 0 1.757 2.083 3.353 2.671 4.79-1.282-.585-2.35-2.661-3.633-2.661-.535 0-.855.373-.855.692v.213c-.054.692-.107 2.022 1.977 4.098 3.045 3.034 14.319 7.451 26.555 6.919 11.06-.479 21.371-6.44 23.99-8.303a2.5 2.5 0 0 0-.321.799c-.16.691 1.603 3.672 1.923 4.364-14.548 3.14-31.605 28.679-10.612 35.502 13.153 2.94 21.256-6.298 37.915-18.738 1.336-.958 2.351-1.65 2.939-1.809 19.181 11.708 31.417 28.201 46.965 18.52 9.618-5.988 16.723-24.588-15.548-33.954-1.118-3.745-6.023-4.432-9.553-4.432-.267-4.204-.432-9.547.262-13.645 1.135-3.507 5.511-.263 6.886 3.228.214.213.374.479.588.692 22.708 27.036 53.75 14.316 58.719 9.047 2.351-2.235 2.298-3.512 2.298-4.204Zm-163.71 1.81c-.64-.479-1.87-1.384-2.297-1.97.695-.532 1.763-.585 2.458-.692-.107.746-.16 1.97-.16 2.662Zm49.477-4.684c2.968-4.315 4.018-5.89 5.855-8.513.967 4.214 2.447 13.326 1.837 17.582-1.763-.746-6.41-2.949-8.227-3.161-2.831-.32-4.648-.16-5.823.319 2.35-1.916 4.595-4.098 6.358-6.227Zm13.57 23.098c-9.814 6.333-16.757 14.836-25.035 13.524-8.277-1.312-1.733-12.939 17.128-19.112 1.55-.213 8.389 4.098 9.137 4.523l-1.23 1.065Zm50.017 13.524c-4.969 2.342-12.188-1.922-27.095-12.992 23.296-8.622 34.089 8.269 27.095 12.992Zm39.586-33.801c0-.692-.054-1.969-.16-2.661.694.106 1.816.159 2.457.692-.427.585-1.709 1.49-2.297 1.969Z" fill="#F1CC50"/><path d="M123.041 94.94c-.851 2.578-4.53 4.636-7.085 6.036-.069-.077-1.654-1.62-1.837-1.933 1.283-1.289 3.183-5.432 5.905-8.563.554.62 1.705 3.149 3.017 4.46ZM60.82 100.83c-.32.373-1.172 1.348-1.546 1.721-3.473-1.277-5.851-3.755-7.347-5.51.748-.852 1.84-1.959 2.375-2.81 1.823 4.121 6.833 6.913 6.518 6.599ZM95.229 48.567c-.962.532-2.137.905-2.885 1.065.107.904.267 1.862.534 2.767.16.532.48 1.437.801 1.916 0 0-2.297 3.566-6.198 3.566-3.205 0-5.236-3.406-5.343-3.513.054-.213.107-.372.16-.639.482-2.128.268-5.322.268-5.375-.428-.213-.855-.425-1.39-.745l.535-.106c4.06 2.341 9.243 2.98 13.518.692v.372ZM87.615 75.784c-.694-.425-11.941-8.11-12.53-8.483.482-10.218.428-8.994.482-9.686.641-.107 1.389-.213 2.244-.266.267 0 .801-.054 1.068-.054.695-.106 1.283-.372 1.87-.798l-.8.905c-.054.053-4.57 3.32 7.666 18.382Z" fill="#E9AD38"/><path d="M121.467 88.38c0 2.764-7.347 10.497-11.491 11.226-.428-1.437-1.015-2.82-1.603-4.151-.427 2.501-.641 5.215-.641 8.142 0 .958 0 1.916.053 2.928 0 .266 0 .479.054.745 0 .266.053.532.053.798-10.29.451-15.744 6.17-23.936 8.941-7.547-3.595-11.32-5.664-18.754-8.728.267.106.587.213.908.372.053-.745.16-1.49.267-2.235.214-1.703.428-3.459.428-5.109 0-1.81-.428-3.406-.802-4.95 0-.053-.053-.106-.053-.212-.642 2.075-1.283 4.098-2.405 6.173-4.795-1.606-8.994-7.605-9.67-8.728-.16-.266-.321-.532-.428-.798-.48-.958-.855-1.863-1.069-2.821 0-.053 0-.106.054-.16 2.03-2.075 3.206-5.96 4.595-10.431 2.938-9.42 6.625-21.129 20.624-21.98-2.458 8.888 9.965 18.382 9.965 18.382S98.06 70.122 98.06 58.04c0-.106-.053-.585-.107-1.17 15.903 4.219 21.414 21.539 23.513 31.51Z" fill="#74A9F0"/><path d="M55.6 95.203c-1.312-1.837-2.1-4.023-2.624-5.773-.168-.525-1.574-.525-.787 2.1.787 2.623 2.886 5.51 4.46 7.085 1.575 1.574 5.25 4.461 6.299 4.723 1.05.262 1.312-.525.787-1.312-2.1 0-6.181-4.088-8.135-6.823Z" fill="#A0C9FF"/><path d="M117.296 87.365c0 .053 0 .053 0 0h-.107.107Z" fill="#E0E7F2"/><path d="M84.466 128.53c-.64.213-2.129 1.141-3.411 2.099l-7.61-5.773 2.068-1.992 8.953 5.666ZM99.022 119.617l-6.144 2.129-8.923-4.737c2.832-.958 4.06-1.809 5.45-2.448a8.657 8.657 0 0 1-.588-1.224l4.114.426 6.091 5.854Z" fill="#E9AD38"/><path d="m92.878 121.746 8.602-1.224c4.275-.586 8.282-2.395 11.594-5.11l3.046-2.501-6.625-1.224-16.617 10.059Z" fill="#E9AD38"/><path d="M116.601 112.06c0 2.448-9.03 3.885-17.579 7.557-1.335-2.129-4.702-5.588-6.946-7.557 4.916-2.395 10.562-5.048 15.745-5.048 3.847 0 7.123 2.44 8.192 3.77l.053.054c.374.479.535.904.535 1.224Z" fill="#C22704"/><path d="M99.424 120.395c.787 2.624-3.197 3.149-4.461 1.575-2.29-2.852-4.198-4.539-6.298-7.873-1.818-2.887 3.149-4.199 4.199-2.886 2.778 2.767 5.36 5.181 6.56 9.184Z" fill="#E0E7F2"/><path d="M103.137 32.175c0 5.429-1.817 10.272-4.702 13.731-2.672 3.14-6.198 5.056-10.152 5.056-8.228 0-14.853-8.409-14.853-18.787 0-6.546 2.671-12.347 6.732-15.7 2.35-1.97 5.13-3.087 8.175-3.087 8.174 0 14.8 8.41 14.8 18.787Z" fill="#E9AD38"/><path d="M103.137 32.175c0 5.429-1.817 10.272-4.702 13.731-2.35 1.97-5.13 3.087-8.175 3.087-8.228 0-14.853-8.409-14.853-18.787 0-5.429 1.816-10.272 4.702-13.731 2.35-1.97 5.129-3.087 8.174-3.087 8.229 0 14.854 8.41 14.854 18.787Z" fill="#F1CC50"/><path d="M75.282 37.472h-1.875c-1.274 0-2.324-1.172-2.324-2.594v-.586c0-1.422 1.05-2.594 2.324-2.594h1.875v5.774Z" fill="#E9AD38"/><path d="M100.474 37.471h2.108c1.434 0 2.615-1.064 2.615-2.357v-.533c0-1.293-1.181-2.358-2.615-2.358h-2.108v5.248Z" fill="#F1CC50"/><path d="M80.162 16.156s-1.069 7.77 7.747 6.706c8.816-1.065 14.693 3.406 15.388 9.047 0 0 5.503-5.8 1.656-12.88-2.458-4.47-16.723-18.148-24.791-2.873Z" fill="#684023"/><path d="M83.581 14.293s-5.717-5.162-10.151.745c-5.664 7.504.277 17.972.277 17.972s1.005-9.457 4.478-10.148c3.473-.64 10.205-4.471 5.396-8.569Z" fill="#684023"/><path fill-rule="evenodd" clip-rule="evenodd" d="M100.736 80.508c-.611 0-1.088.267-1.404.701-.306.42-.433.96-.433 1.474 0 .544.192 1.155.489 1.632.291.468.756.916 1.348.916.591 0 1.056-.446 1.347-.913.297-.477.49-1.089.49-1.635 0-.514-.122-1.054-.427-1.476-.315-.436-.794-.7-1.41-.7Zm-1 2.175c0-.354.09-.67.247-.886.147-.204.38-.356.753-.356.384 0 .614.153.758.352.154.214.242.528.242.89 0 .328-.125.758-.34 1.103-.222.355-.466.513-.66.513-.193 0-.438-.158-.66-.515-.215-.346-.34-.776-.34-1.1Z" fill="#A0C9FF"/><path d="M97.962 87.11c-.786-.093-1.436.573-1.436 1.254 0 .678.505 1.293 1.455 1.293.341 0 .69-.158 1.074-.453.446-.344.816-.749 1.187-1.153.372-.406.744-.812 1.194-1.159.446-.343.955-.61 1.53-.61 1.31 0 2.231.913 2.231 2.114 0 1.196-1.076 2.213-2.298 2.07-.49-.057-1.065-.232-1.527-.709l.541-.588c.294.303.679.436 1.071.481h.001c.786.093 1.436-.573 1.436-1.254 0-.678-.505-1.293-1.455-1.293-.341 0-.69.158-1.074.454-.446.344-.816.748-1.187 1.153-.372.405-.744.812-1.194 1.158-.446.344-.955.61-1.53.61-1.31 0-2.231-.913-2.231-2.113 0-1.197 1.076-2.214 2.298-2.07.49.056 1.065.232 1.527.709l-.541.588c-.294-.304-.68-.436-1.072-.482Z" fill="#A0C9FF"/><path d="M88.397 6.057c-3.063 2.054-5.095 3.472-5.285 4.32.253.606 3.755 2.776 5.59 3.293 2.294.648 11.433 6.838 12.325 7.237.893.4 3.4 1.204 4.912.15 1.513-1.055 2.078-2.88 3.179-5.69 1.102-2.812.087-4.556-1.642-7.027-1.729-2.472-7.387-5.88-9.18-5.958-1.793-.077-6.07 1.106-9.899 3.675Z" fill="#C22704"/><path d="M82.547 13.688c-2.803-1.018-1.264-5.572 2.617-4.614 3.936.217 10.93 4.338 14.427 5.68 3.495 1.34 10.285 6.514 11.3 8.257 1.016 1.744-.395 4.26-2.875 4.662-2.481.402-3.378-3.36-12.394-8.206s-10.322-4.78-13.075-5.779Z" fill="#fff"/><path d="m104.201 25.468 1.696 1.537.67-2.712c.238-1.562.756-4.797.933-5.247.22-.562.397-6.304.225-6.695-.171-.391-4.198-6.879-4.432-6.92-.233-.041-4.998-3.051-6.111-2.888-1.114.164-6.664 1.812-3.23 3.503 3.433 1.691 9.509 5.91 10.214 9.403.564 2.794.236 6.812.035 10.019Z" fill="#000" fill-opacity=".3"/><path d="M105.344 20.531c-.333 5.32-2.369 10.226-2.413 10.938l1.069.067c.78-1.225 1.217-2.248 3.67-7.103 3.157-6.253 3.855-12.211 3.41-14.455-.444-2.244-1.907-3.745-4.736-5.45-2.829-1.704-8.836-3.804-13.174-.32 2.268-.56 9.072 1.916 10.573 5.67 1.501 3.754 1.89 6.02 1.601 10.653Z" fill="#C22704"/><ellipse rx="3.433" ry="3.428" transform="rotate(10.055 -124.507 604.589) skewX(-.019)" fill="#fff"/><path d="M71.608 110.583c-2.127 2.235-4.144 5.254-5.071 7.713l-.437.262c-4.525-2.459-8.158-3.868-11.812-4.986-2.399-.726-6.836-9.193 5.27-7.684 1.58.223 3.761.95 6.379 2.068.054.056.109.112.163.112h.055c1.636.67 3.49 1.509 5.453 2.515Z" fill="#C32A3E"/><path d="M69.246 121.182c-1.574 1.575-5.11-1.956-3.823-3.511 2.334-2.817 3.602-5.024 6.447-7.751 2.462-2.361 5.536 1.836 4.462 3.128-2.153 3.277-4.13 5.179-7.086 8.134Z" fill="#E0E7F2"/><path d="M114.906 96.515c-2.099 1.68-4.373 2.8-5.248 3.15-.787.524 0 1.574.787 1.311.788-.262 0 0 3.412-1.574 3.411-1.575 7.085-6.298 8.66-9.185.715-1.312-.555-3.147-1.575-1.312-1.312 2.362-3.411 5.511-6.036 7.61Z" fill="#A0C9FF"/></svg>