<svg fill="none" xmlns="http://www.w3.org/2000/svg" viewBox="0 0 334 286" width="334" height="286"><path d="M143.439 71.397h-3.571c-2.429 0-4.429-2.232-4.429-4.942V65.34c0-2.71 2-4.942 4.429-4.942h3.571v11Z" fill="#E9AD38"/><path d="M333.439 197.594v-.405c0-.609-.61-1.319-1.628-1.319-2.444 0-4.378 3.955-6.923 5.071 1.12-2.738 5.09-5.882 5.09-9.127 0-1.217-.407-2.636-1.425-2.636-1.731 0-5.498 6.084-7.737 8.518 2.647-6.085.102-8.62-6.516-8.62-1.425 0-4.479.507-4.479 2.028 0 .305.102.507.204.609-1.527 1.521-2.647 7.2-3.055 9.532-5.293 5.273-15.27 6.591-28.199 3.853-21.888-4.766-40.925-17.847-48.357-29.103-1.323-1.927-16.669-35.982-16.975-37.098-6.161-1-16-3-27.004-30.641-3.665-.203-7.432-2.839-8.755-5.881-10.18.75-18.93 1.521-21.481 1.521-.611 2.434-2.545 4.462-5.192 5.171-1.12.305-4.068.83-4.068.83-9 18-33 56.5-42 68-12.929 20.383-63.37 42.108-78.438 26.998-.305-2.433-1.527-8.011-3.054-9.532.204-.202.204-.405.204-.608 0-1.521-3.055-2.028-4.48-2.028-6.719 0-9.162 2.636-6.515 8.619-2.24-2.433-5.905-8.518-7.737-8.518-1.018 0-1.425 1.42-1.425 2.637 0 3.346 3.97 6.388 5.09 9.126-2.444-1.115-4.48-5.07-6.923-5.07-1.018 0-1.629.71-1.629 1.318v.406c-.102 1.318-.203 3.853 3.767 7.808 5.803 5.78 27.283 14.197 50.596 13.183 21.074-.913 40.722-12.27 45.71-15.819a4.776 4.776 0 0 0-.61 1.521c-.306 1.318 3.054 6.997 3.664 8.315-27.72 5.983-60.22 54.644-20.22 67.644 25.061 5.603 40.5-12 72.242-35.702 2.545-1.825 4.479-3.143 5.599-3.447 36.548 22.309 59.861 53.734 89.486 35.289 18.326-11.411 31.864-46.849-29.625-64.697-2.13-7.134-11.475-8.443-18.202-8.443-.509-8.011-.823-18.192.5-26 2.162-6.682 10.5-.5 13.121 6.151.407.406.712.913 1.12 1.318 43.266 51.514 102.414 27.278 111.882 17.239 4.479-4.259 4.377-6.692 4.377-8.011Zm-311.926 3.448c-1.222-.913-3.563-2.636-4.378-3.752 1.324-1.014 3.36-1.115 4.683-1.318-.203 1.419-.305 3.752-.305 5.07Zm94.27-8.924c5.656-8.221 7.656-11.221 11.156-16.221 1.843 8.03 4.663 25.391 3.5 33.5-3.359-1.419-12.213-5.617-15.674-6.023-5.396-.608-8.857-.304-11.097.609 4.48-3.651 8.756-7.808 12.115-11.865Zm25.858 44.01c-18.702 12.067-31.931 28.269-47.701 25.769-15.772-2.5-3.302-24.653 32.634-36.416 2.953-.406 15.983 7.808 17.409 8.619l-2.342 2.028Zm95.298 25.769c-9.467 4.462-23.221-3.662-51.624-24.755 44.386-16.427 64.951 15.755 51.624 24.755Zm75.427-64.404c0-1.318-.102-3.752-.305-5.07 1.323.202 3.461.304 4.683 1.318-.815 1.115-3.258 2.839-4.378 3.752Z" fill="#F1CC50"/><path d="M234.439 180.897c-1.622 4.91-8.632 8.832-13.5 11.5-.132-.148-3.152-3.088-3.5-3.684 2.445-2.455 6.065-10.349 11.25-16.316 1.056 1.181 3.25 6 5.75 8.5ZM115.885 192.118c-.611.71-2.233 2.569-2.945 3.279-6.618-2.434-11.15-7.153-14-10.5 1.425-1.622 3.507-3.73 4.525-5.353 3.474 7.853 13.02 13.172 12.42 12.574ZM165 143.031c-1.323-.811-20.814-14.088-21.934-14.798.917-19.47-.668-11.977-.566-13.295 1.222-.203 3.418-5.43 5.047-5.532 2.237 0 4.476-.429 6.311-1.758-5.358 7.914 3.613 26.115 11.142 35.383Z" fill="#E9AD38"/><path d="M231.439 168.397c0 5.267-14 20-21.895 21.389-.814-2.738-1.934-5.374-3.054-7.91-.814 4.767-1.222 9.938-1.222 15.515 0 1.826 0 3.651.102 5.578 0 .507 0 .912.102 1.419 0 .507.102 1.014.102 1.522-19.605.858-29.999 11.755-45.608 17.036-14.379-6.85-21.567-10.792-35.733-16.631.509.203 1.12.406 1.73.71.102-1.42.306-2.839.509-4.259.408-3.245.815-6.591.815-9.735 0-3.448-.815-6.49-1.527-9.431 0-.101-.102-.202-.102-.405-1.222 3.955-2.443 7.808-4.581 11.763-9.138-3.061-17.138-14.491-18.427-16.631-.305-.507-.611-1.014-.814-1.521-.916-1.825-1.629-3.549-2.036-5.374 0-.102 0-.203.102-.304 3.868-3.955 6.108-11.358 8.755-19.876 5.599-17.949 12.623-40.258 39.296-41.88C143.27 126.306 165 143 165 143c13.513-5.811 23.375-24.5 21.638-34.642 30.301 8.039 40.801 41.039 44.801 60.039Z" fill="#74A9F0"/><path d="M119.939 196.897c2 .5 3.436-2.835 2.436-4.335-5.564-5.022-17.941-15.032-20.5-23.562-.32-1-3.936.397-2.436 5.397 2.399 7.994 11.936 20.359 20.5 22.5Z" fill="#A0C9FF"/><path d="M223.491 166.463c0 .101 0 .101 0 0h-.203.203Z" fill="#E0E7F2"/><path d="M160.939 244.897c-1.221.406-4.056 2.175-6.5 4l-14.5-11 3.942-3.797 17.058 10.797ZM188.674 227.914l-11.707 4.057-17.001-9.025c5.395-1.826 7.737-3.448 10.384-4.665a16.466 16.466 0 0 1-1.12-2.332l7.839.811 11.605 11.154Z" fill="#E9AD38"/><path d="m176.967 231.971 16.39-2.333c8.145-1.115 15.78-4.563 22.092-9.735l5.803-4.766-12.624-2.332-31.661 19.166Z" fill="#E9AD38"/><path d="M222.168 213.515c0 4.665-17.205 7.403-33.494 14.399-2.545-4.056-8.959-10.647-13.235-14.399 9.366-4.563 20.125-9.618 30-9.618 7.33 0 13.573 4.649 15.609 7.184l.102.102c.712.912 1.018 1.723 1.018 2.332Z" fill="#C32A3E"/><path d="M189.439 229.397c1.5 5-6.09 6-8.5 3-4.364-5.434-7.998-8.647-12-15-3.464-5.5 6-8 8-5.5 5.293 5.273 10.212 9.873 12.5 17.5Z" fill="#fff"/><path d="M187.555 87.468c5.497-6.591 8.959-15.819 8.959-26.162 0-19.774-12.624-35.796-28.2-35.796-5.803 0-11.097 2.13-15.576 5.881-7.737 6.389-12.827 17.442-12.827 29.915 0 14.743 7.018 27.401 17.087 32.887-.016 3.479-.138 7.076-.98 10.432 4.326 6.906 16.726 8.812 22.701-.544-1.543-2.305-2.025-5.79-2.373-8.467 4.237-1.598 8.039-4.42 11.209-8.146Z" fill="#E9AD38"/><path d="M196.513 61.306c0 10.343-3.501 19.57-9.062 26.162-4.531 3.752-9.886 5.882-15.756 5.882-15.859 0-28.629-16.022-28.629-35.796 0-10.344 3.502-19.572 9.063-26.163 4.531-3.752 9.886-5.881 15.756-5.881 15.859 0 28.628 16.022 28.628 35.796Z" fill="#F1CC50"/><path d="M192.439 71.397h4.018c2.732 0 4.982-2.029 4.982-4.493V65.89c0-2.464-2.25-4.493-4.982-4.493h-4.018v10Z" fill="#F1CC50"/><path d="M156.32 25.212c-26.82-7.712-22.768 25.55-15.881 37.685C141.5 56 144.5 43 155.946 40.914c2.165 2.027 5.726 3.35 11.553 2.646 16.798-2.028 27.615 7.066 28.939 17.815 0 0 11.892-12.888 4.562-26.375-4.181-8.5-30.5-27.5-44.68-9.788Z" fill="#684023"/><path fill-rule="evenodd" clip-rule="evenodd" d="M190.272 149.67c-1.392 0-2.48.61-3.199 1.598-.697.958-.987 2.187-.987 3.36 0 1.239.437 2.633 1.114 3.72.663 1.065 1.723 2.088 3.072 2.088 1.347 0 2.407-1.017 3.07-2.082.678-1.087 1.117-2.482 1.117-3.727 0-1.17-.278-2.401-.973-3.363-.718-.993-1.81-1.594-3.214-1.594Zm-2.279 4.959c0-.809.204-1.528.563-2.021.336-.464.865-.811 1.716-.811.875 0 1.4.349 1.728.803.352.487.551 1.203.551 2.029 0 .747-.284 1.726-.775 2.513-.505.809-1.061 1.168-1.504 1.168-.44 0-.998-.36-1.504-1.173-.491-.789-.775-1.768-.775-2.508Z" fill="#A0C9FF"/><path d="M183.95 164.717c-1.792-.211-3.273 1.306-3.273 2.859 0 1.544 1.151 2.947 3.316 2.947.779 0 1.574-.361 2.448-1.034 1.017-.784 1.861-1.706 2.706-2.628.847-.925 1.696-1.851 2.721-2.64 1.016-.783 2.176-1.392 3.487-1.392 2.985 0 5.084 2.083 5.084 4.818 0 2.727-2.452 5.045-5.236 4.72-1.118-.131-2.428-.531-3.482-1.617l1.234-1.34c.671.691 1.548.993 2.442 1.097h.001c1.792.212 3.273-1.306 3.273-2.859 0-1.545-1.151-2.947-3.316-2.947-.778 0-1.574.361-2.447 1.035-1.018.784-1.861 1.704-2.707 2.627-.847.925-1.696 1.851-2.72 2.64-1.016.784-2.177 1.392-3.488 1.392-2.985 0-5.084-2.082-5.084-4.818 0-2.727 2.453-5.045 5.236-4.718 1.118.129 2.429.529 3.482 1.616l-1.234 1.34c-.67-.692-1.548-.993-2.442-1.097l-.001-.001Z" fill="#A0C9FF"/><path d="M136.439 210.701c-4.052 4.26-7.896 10.01-9.662 14.696l-.831.5c-8.623-4.686-15.546-7.37-22.507-9.5-4.571-1.384-13.025-17.517 10.039-14.642 3.013.426 7.169 1.811 12.156 3.941.104.106.208.213.312.213h.104a136.297 136.297 0 0 1 10.389 4.792Z" fill="#C32A3E"/><path d="M131.939 230.897c-3 3-9.738-3.727-7.284-6.69 4.447-5.367 6.864-9.573 12.283-14.77 4.692-4.498 10.549 3.499 8.501 5.96-4.101 6.245-7.869 9.87-13.5 15.5Z" fill="#fff"/><path d="M233.439 171.897c1.364-2.5-1.059-8.394-3.001-4.897-6.309 11.355-10.225 16.177-21.813 20.812-1.5 1.001.314 5.085 1.814 4.585 10.045-3.348 18.001-11.334 23-20.5Z" fill="#A0C9FF"/></svg>