<svg xmlns="http://www.w3.org/2000/svg" viewBox="0 0 145 99" width="145" height="99"><g class="vertical"><path fill="#2D3642" stroke="#22D49F" stroke-width="4" d="M54.5 2.5h36c4.4 0 8 3.6 8 8v78c0 4.4-3.6 8-8 8h-36c-4.4 0-8-3.6-8-8v-78c0-4.4 3.6-8 8-8z"/><circle cx="72.5" cy="87.5" r="2" fill="#22D49F"/><path fill="#22D49F" fill-rule="evenodd" d="M66.5 10.5c0-.6.4-1 1-1h10c.6 0 1 .4 1 1s-.4 1-1 1h-10c-.6 0-1-.4-1-1z" clip-rule="evenodd"/></g><g class="graph"><path fill="#374250" d="M56.5 66.5h32c1.1 0 2 .9 2 2v10c0 1.1-.9 2-2 2h-32c-1.1 0-2-.9-2-2v-10c0-1.1.9-2 2-2z"/><path fill="#22D49F" d="M62.5 72.5h4c.6 0 1 .4 1 1s-.4 1-1 1h-4c-.6 0-1-.4-1-1s.4-1 1-1z"/><path fill="#FF646D" d="M78.5 72.5h4c.6 0 1 .4 1 1s-.4 1-1 1h-4c-.6 0-1-.4-1-1s.4-1 1-1z"/><path fill="#374250" d="M56 19.5h11c.8 0 1.5.7 1.5 1.5s-.7 1.5-1.5 1.5H56c-.8 0-1.5-.7-1.5-1.5s.7-1.5 1.5-1.5zM56 25.5h5c.8 0 1.5.7 1.5 1.5s-.7 1.5-1.5 1.5h-5c-.8 0-1.5-.7-1.5-1.5s.7-1.5 1.5-1.5z"/><path fill="#374250" d="M76.5 48.5h2c1.1 0 2 .9 2 2v10c0 1.1-.9 2-2 2h-2c-1.1 0-2-.9-2-2v-10c0-1.1.9-2 2-2zM66.5 33.5h2c1.1 0 2 .9 2 2v25c0 1.1-.9 2-2 2h-2c-1.1 0-2-.9-2-2v-25c0-1.1.9-2 2-2zM56.5 43.5h2c1.1 0 2 .9 2 2v15c0 1.1-.9 2-2 2h-2c-1.1 0-2-.9-2-2v-15c0-1.1.9-2 2-2zM86.5 21.5h2c1.1 0 2 .9 2 2v37c0 1.1-.9 2-2 2h-2c-1.1 0-2-.9-2-2v-37c0-1.1.9-2 2-2z"/><path class="line" fill="none" stroke="#9488F0" stroke-width="2" d="M54.5 51.5c8.5 0 5.5-9.5 13-10 5.5-.4 6.4 4.4 10.5 3 6-2 2.5-18 12.5-18"/></g><g class="horizontal"><path fill="#2D3642" stroke="#FF646D" stroke-width="4" d="M25.5 67.5v-36c0-4.4 3.6-8 8-8h78c4.4 0 8 3.6 8 8v36c0 4.4-3.6 8-8 8h-78c-4.4 0-8-3.6-8-8z"/><circle cx="110.5" cy="49.5" r="2" fill="#FF646D"/><path fill="#FF646D" fill-rule="evenodd" d="M33.5 55.5c-.6 0-1-.4-1-1v-10c0-.6.4-1 1-1s1 .4 1 1v10c0 .6-.4 1-1 1z" clip-rule="evenodd"/><g class="raccoon"><path fill="#99AAB5" d="M66 38.5c-1.5-2.8-5.5-4.1-6.3-2.9-.8 1.1.6 9 1.6 8.9.9-.3 4.7-6 4.7-6z"/><path fill="#292F33" d="M65.2 40.3C64.1 37.9 61 36 60.5 37c-.4.7.1 4.7.7 6.8l4-3.5z"/><path fill="#99AAB5" d="M79 38.5c1.5-2.8 5.5-4.1 6.3-2.9.8 1.1-.6 9-1.6 8.9-.9-.3-4.7-6-4.7-6z"/><path fill="#292F33" d="M79.9 40.3c1.1-2.4 4-4.3 4.5-3.4.4.7-.2 4.8-.7 7l-3.8-3.6z"/><path fill="#99AAB5" d="M85.9 45.3c-2.3-2.8-8-10.3-13.5-10.3C67 35 61.3 42.5 59 45.3c-2.8 3.4-2.7 7.4-2 9.7.7 2.3 2.8 4.5 8.2 6.6 1.8.7 5.1 2.1 7.2 2.1s5.4-1.4 7.2-2.1c5.4-2.1 7.5-4.3 8.2-6.6.9-2.3.9-6.2-1.9-9.7z"/><path fill="#E1E8ED" d="M72.5 46.3c0-4.4-3.6-4.3-5.8-4.1-4 .5-10.1 6-10.1 9.5 0 1.2.1 2.3.4 3.2.5 1.5 1.7 2.7 4.5 4.7 3.1-7.3 11-9.9 11-13.3z"/><path fill="#292F33" d="M72.5 47.5c0-2.1-3.9-2.7-5.9-2.4-4.3.7-9.5 6.7-9.6 9.8v.1s.3 1.2 1.4 2.5c.8.9 2.1 1.8 3 2.3 2.6-3.4 6.1-5.7 8.9-6.8 1.6-.6 2.2-3.1 2.2-5.5z"/><path fill="#99AAB5" d="M68.4 50.4c.7 0 1.4-.6 1.4-1.4 0-.7-.6-1.4-1.4-1.4-.7 0-1.4.6-1.4 1.4.1.8.7 1.4 1.4 1.4z"/><path fill="#E1E8ED" d="M72.5 46.3c0-4.4 3.6-4.3 5.8-4.1 4 .5 10.1 6 10.1 9.5 0 1.2-.1 2.3-.4 3.2-.5 1.5-1.7 2.7-4.5 4.7-3.1-7.3-11-9.9-11-13.3z"/><path fill="#292F33" d="M72.5 47.5c0-2.1 3.9-2.7 5.9-2.4 4.3.7 9.5 6.7 9.6 9.8v.1s-.3 1.2-1.4 2.5c-.8.9-2.1 1.8-3 2.3-2.6-3.4-6.1-5.7-8.9-6.8-1.6-.6-2.2-3.1-2.2-5.5z"/><path fill="#99AAB5" d="M76.5 50.4c.7 0 1.4-.6 1.4-1.4 0-.7-.6-1.4-1.4-1.4-.7 0-1.4.6-1.4 1.4.1.8.7 1.4 1.4 1.4z"/><path fill="#66757F" d="M74.9 53.1c-.8-1-1.6-16.9-2.5-16.9s-1.6 16-2.5 16.9h5z"/><path fill="#E1E8ED" d="M78.6 55c-1.5-1.8-3.7-3.3-6.2-3.3s-4.7 1.5-6.2 3.3c-1.2 1.6-1.2 2.7-.8 3.8.4 1.1 1.2 2.5 3.7 3.5.8.4 2.3 1 3.3 1s2.5-.7 3.3-1c2.5-1 3.3-2.5 3.7-3.5.5-1.1.5-2.2-.8-3.8z"/><path fill="#292F33" d="M75.7 58.7c-.6-.5-1.4.2-3.2.2-1.8 0-2.6-.7-3.2-.2-.6.5.5 2.1 3.2 2.1s3.8-1.6 3.2-2.1z"/><path fill="#66757F" d="M68.2 55.5c-.1 0-.2 0-.3-.1-2.7-1.6-7.4-.8-8.6-.3-.3.2-.7 0-.9-.3-.2-.3 0-.7.3-.9 1.6-.7 6.8-1.5 9.9.3.3.2.4.6.2.9-.1.3-.4.4-.6.4z"/><path fill="#66757F" d="M58.4 59.9c-.1 0-.3 0-.4-.2-.3-.2-.3-.7-.1-1 1.3-1.6 4.4-4.3 10.3-4.6.4 0 .7.3.7.6 0 .4-.3.7-.6.7-5.4.3-8.2 2.7-9.3 4.1-.2.3-.4.4-.6.4zm28.2 0c-.2 0-.4-.1-.5-.3-1.2-1.4-3.9-3.9-9.3-4.1-.4 0-.7-.3-.6-.7 0-.4.3-.7.7-.6 5.9.3 9 3 10.3 4.6.2.3.2.7-.1 1-.2.1-.4.1-.5.1z"/><path fill="#66757F" d="M76.8 55.5c-.2 0-.5-.1-.6-.3-.2-.3-.1-.7.2-.9 3.1-1.8 8.3-1.1 9.9-.3.3.2.5.6.3.9-.2.3-.6.5-.9.3-1.2-.6-5.9-1.3-8.6.3h-.3z"/><path fill="#292F33" d="M75.7 53.3c0 1.6-2.3 2.9-3.2 2.9-1 0-3.2-1.3-3.2-2.9s1.4-1.6 3.2-1.6c1.8 0 3.2 0 3.2 1.6z"/></g></g><g class="arrows" fill="none"><g class="arrow__left"><path class="stroke" stroke="#FFF" stroke-width="2" d="M33.5 95.5c-15.5 0-28-12.5-28-28"/><path d="M5.49999 59.5L10.5 67.5L0.5 67.5L5.49999 59.5Z" fill="#FFF"/></g><g class="arrow_right"><path class="stroke" stroke="#FFF" stroke-width="2" d="M111.5 3.5c15.5 0 28 12.5 28 28"/><path d="M139.5 39.5L134.5 31.5L144.5 31.5L139.5 39.5Z" fill="#FFF"/></g></g></svg>