<svg width="35" height="35" viewBox="0 0 35 35" fill="none"
  xmlns="http://www.w3.org/2000/svg">
  <path d="M7.29327 18.7748L8.06057 18.4491L17.5042 14.4614L27.7076 18.7748L23.8766 26.4646L14.496 27.7525L7.45435 20.361L7.29327 18.7748Z" fill="#133444"/>
  <path d="M25.5857 14.0268C23.9012 12.0542 21.5137 10.7705 18.8988 10.4315L18.7323 10.4103C17.9165 10.3141 17.0917 10.3141 16.2759 10.4103L16.1072 10.4304C13.4919 10.7684 11.1041 12.0523 9.42029 14.0258L8.99583 14.7099L8.29058 15.852L7.7747 16.6863C7.76873 16.7101 7.7592 16.7329 7.7464 16.754V16.7677L8.88373 17.4265L16.118 21.5823L17.5144 22.3828V12.4502L16.118 13.0614V11.5799L17.5144 10.9687L18.9097 11.5799L26.0079 14.7194L25.5857 14.0268Z" fill="#C42370"/>
  <path d="M28.0212 21.2419C28.0112 22.851 27.6364 24.4382 26.9235 25.8907C26.2105 27.3431 25.177 28.6251 23.8963 29.6454C22.9101 30.4331 21.7845 31.0397 20.5746 31.4357C19.5869 31.7507 18.5538 31.9106 17.5142 31.9094C11.6969 31.9094 6.97888 26.8844 6.97888 21.2419C6.98212 20.4075 7.08771 19.5764 7.29342 18.7664L17.4968 24.632L27.7012 18.7664C27.9155 19.575 28.0231 20.4068 28.0212 21.2419Z" fill="#1C4D6B"/>
  <path d="M16.2714 10.4198L17.499 10.9559L16.1027 11.5714V10.3447L16.2714 10.4198Z" fill="black"/>
  <path d="M16.1082 13.0603L17.5046 12.4427V22.3775L16.1082 21.577V13.0603Z" fill="black"/>
  <path d="M17.5045 12.447V22.3818L27.2823 16.7667L17.5045 12.447Z" fill="#1D4259"/>
  <path d="M17.5045 1V12.4469L27.2823 16.7666L17.5045 1Z" fill="#4B6B9A"/>
  <path d="M17.5035 12.4469V22.3785L16.1071 21.578L7.73981 16.7666H7.74634C7.74634 16.7465 7.7681 16.7191 7.77463 16.699L8.99686 14.7247L16.1082 11.5925V13.073L17.5035 12.4469Z" fill="#343535"/>
  <path d="M17.503 12.447V22.3818L16.1067 21.5813L7.72631 16.7741L7.72522 16.7614L7.73937 16.7477L16.1067 13.0603L17.503 12.447Z" fill="#3E5578"/>
  <path d="M17.503 1V12.4469L7.72522 16.7666L17.503 1Z" fill="#6DB2D8"/>
  <path d="M13.5463 31.0951C13.6943 31.1564 13.8402 31.2178 13.9817 31.2706C13.8402 31.2178 13.6987 31.1564 13.5463 31.0951Z" fill="#335F8A"/>
  <path d="M13.9858 31.2706C14.1317 31.3256 14.2862 31.3764 14.4386 31.4229C14.2846 31.3813 14.1334 31.3305 13.9858 31.2706Z" fill="#335F8A"/>
  <path d="M14.825 31.5487C14.9426 31.5836 15.0547 31.61 15.1722 31.6375C15.0612 31.6122 14.9447 31.5762 14.825 31.5487Z" fill="#335F8A"/>
  <path d="M7.29342 18.7748L17.4968 24.6405C17.3582 25.5311 17.1123 26.4027 16.7643 27.2376C15.9437 29.1632 14.3013 31.1914 11.1048 29.6443C9.82385 28.6247 8.78997 27.3431 8.07682 25.891C7.36368 24.4389 6.9888 22.8518 6.97888 21.2429C6.98481 20.4111 7.09036 19.5828 7.29342 18.7748Z" fill="#6DB2D8"/>
  <path d="M23.8897 29.6443L23.8614 29.6655C23.8058 29.7056 23.7525 29.7469 23.7046 29.7881L23.6905 29.8008C23.635 29.8484 23.5729 29.8896 23.5163 29.9309C23.4544 29.9796 23.3893 30.0244 23.3215 30.0652C23.2538 30.1068 23.1888 30.1523 23.1267 30.2016C23.0636 30.2492 23.007 30.2767 22.9526 30.3179L22.9167 30.338C22.8557 30.3792 22.7926 30.4131 22.736 30.4522C22.7316 30.4524 22.7273 30.4538 22.7237 30.4562C22.72 30.4587 22.7171 30.462 22.7153 30.4659C22.6522 30.5072 22.5891 30.541 22.527 30.5823C22.465 30.6235 22.3866 30.6573 22.3181 30.6965C22.2495 30.7356 22.1777 30.7715 22.1091 30.8022H22.1004L21.8914 30.908L21.6738 31.0137C21.459 31.1104 21.2412 31.2007 21.0207 31.2844C20.8793 31.3373 20.7204 31.3902 20.568 31.4377C20.5082 31.4595 20.4471 31.4779 20.3851 31.4927L20.1838 31.5541C20.0641 31.5879 19.9531 31.6154 19.8344 31.6429C19.792 31.6556 19.743 31.663 19.7006 31.6767L19.6255 31.6905L19.4372 31.7307C19.3741 31.7444 19.3283 31.7518 19.263 31.7645C19.2115 31.7771 19.1591 31.7863 19.1063 31.792C19.0497 31.7994 18.9866 31.8131 18.9322 31.8195C18.9035 31.8171 18.8747 31.8218 18.8484 31.8332L18.7145 31.847H18.6449C18.5967 31.8553 18.5479 31.8599 18.499 31.8607C18.4384 31.8691 18.3774 31.8737 18.3162 31.8745H18.1758C18.1257 31.8745 18.092 31.8819 18.0517 31.8819H17.2986C17.233 31.8859 17.1672 31.8859 17.1016 31.8819H16.9557C16.9133 31.8819 16.8719 31.8745 16.8295 31.8745H16.6891C16.6291 31.8669 16.5688 31.8623 16.5084 31.8607C16.4594 31.8629 16.4103 31.8583 16.3626 31.847H16.2886C16.2452 31.8386 16.2011 31.8341 16.1569 31.8332C16.1285 31.8318 16.1004 31.8272 16.0731 31.8195C16.0144 31.8141 15.9563 31.805 15.8989 31.792C15.846 31.7869 15.7936 31.7777 15.7422 31.7645C15.6836 31.7563 15.6254 31.745 15.5681 31.7307C15.5115 31.7169 15.4418 31.7042 15.3798 31.6905L15.3025 31.6767C15.2539 31.6734 15.2056 31.6674 15.1578 31.6587C15.038 31.6313 14.9205 31.5974 14.8084 31.5699L14.5994 31.5086C14.5363 31.4885 14.4732 31.4747 14.4166 31.4536C14.2599 31.406 14.1162 31.3479 13.9638 31.3013C13.8115 31.2548 13.6634 31.1871 13.5285 31.1258C13.4588 31.092 13.3826 31.0645 13.3108 31.0306L13.0931 30.9249L12.8842 30.8191C12.8145 30.7853 12.746 30.7441 12.6752 30.7134C12.6045 30.6827 12.5348 30.6383 12.4663 30.5992C12.3977 30.5601 12.34 30.5241 12.278 30.4829L12.2573 30.4691C12.1937 30.4352 12.1326 30.397 12.0744 30.3549L12.0396 30.3348C11.9841 30.301 11.9221 30.2597 11.8655 30.2185C11.8089 30.1773 11.7338 30.1318 11.6707 30.0821C11.6075 30.0324 11.539 29.9954 11.4758 29.9478L11.3017 29.8177L11.2876 29.805C11.2339 29.7659 11.1816 29.725 11.1308 29.6824L11.1025 29.6612C14.2914 31.2072 15.9457 29.1737 16.762 27.2608C17.1105 26.426 17.3571 25.5543 17.4966 24.6637C17.6349 25.5571 17.8807 26.4316 18.2291 27.2693C19.053 29.1568 20.7008 31.1924 23.8897 29.6443Z" fill="#529BBA"/>
  <path d="M19.8282 31.6375C19.9457 31.61 20.0654 31.5762 20.1775 31.5487C20.0654 31.5762 19.9457 31.6122 19.8282 31.6375Z" fill="#335F8A"/>
  <path d="M20.567 31.4282C20.7237 31.3806 20.8673 31.3224 21.0219 31.2759C20.8739 31.3288 20.7215 31.3816 20.567 31.4282Z" fill="#335F8A"/>
  <path d="M28.0213 21.2419C28.0113 22.851 27.6365 24.4382 26.9236 25.8907C26.2106 27.3431 25.1771 28.6251 23.8964 29.6454C20.7075 31.1914 19.0532 29.1569 18.2369 27.245C17.8893 26.41 17.6435 25.5384 17.5045 24.6479L27.7078 18.7822C27.9167 19.5863 28.022 20.4125 28.0213 21.2419Z" fill="#4B6B9A"/>
</svg>